<svg xmlns="http://www.w3.org/2000/svg" xmlns:xlink="http://www.w3.org/1999/xlink" width="240" zoomAndPan="magnify" viewBox="0 0 180 74.999997" height="100" preserveAspectRatio="xMidYMid meet" version="1.0"><defs><g/><clipPath id="044c59bc85"><path d="M 33 7 L 40.761719 7 L 40.761719 16 L 33 16 Z M 33 7 " clip-rule="nonzero"/></clipPath><clipPath id="3f35ef6571"><rect x="0" width="41" y="0" height="21"/></clipPath><clipPath id="f211a028a3"><path d="M 38.925781 29.359375 L 54.675781 29.359375 L 54.675781 42.859375 L 38.925781 42.859375 Z M 38.925781 29.359375 " clip-rule="nonzero"/></clipPath><clipPath id="9927ee887d"><path d="M 54.863281 35.375 L 54.863281 35.058594 L 54.546875 35.023438 C 54.464844 35.015625 53.558594 34.921875 52.382812 35.097656 L 52.382812 32.792969 L 51.984375 32.84375 C 51.328125 32.929688 50.714844 33.054688 50.152344 33.214844 C 49.539062 31.914062 48.523438 30.6875 47.117188 29.546875 L 46.894531 29.363281 L 46.671875 29.546875 C 45.261719 30.6875 44.25 31.914062 43.636719 33.214844 C 43.070312 33.054688 42.460938 32.929688 41.804688 32.84375 L 41.40625 32.792969 L 41.40625 35.097656 C 40.230469 34.921875 39.324219 35.015625 39.238281 35.023438 L 38.925781 35.058594 L 38.925781 35.375 C 38.925781 37.96875 39.625 39.945312 41 41.25 C 42.140625 42.324219 43.707031 42.886719 45.554688 42.886719 C 45.699219 42.886719 45.847656 42.882812 46 42.878906 L 46.503906 42.878906 L 46.402344 42.441406 C 46.152344 41.359375 45.738281 38.742188 46.894531 36.605469 C 48.050781 38.742188 47.632812 41.359375 47.382812 42.441406 L 47.285156 42.878906 L 47.789062 42.878906 C 47.941406 42.882812 48.085938 42.886719 48.234375 42.886719 C 50.082031 42.886719 51.648438 42.324219 52.789062 41.25 C 54.164062 39.945312 54.863281 37.96875 54.863281 35.375 Z M 51.679688 33.597656 L 51.679688 35.234375 C 51.394531 35.300781 51.097656 35.382812 50.804688 35.488281 C 50.742188 34.9375 50.613281 34.398438 50.421875 33.871094 C 50.816406 33.761719 51.234375 33.671875 51.679688 33.597656 Z M 42.109375 33.597656 C 42.554688 33.671875 42.972656 33.761719 43.363281 33.871094 C 43.175781 34.402344 43.046875 34.941406 42.984375 35.488281 C 42.691406 35.382812 42.394531 35.300781 42.109375 35.234375 Z M 41.484375 40.734375 C 40.3125 39.625 39.691406 37.933594 39.636719 35.707031 C 40 35.695312 40.648438 35.699219 41.40625 35.824219 L 41.40625 37.917969 C 41.40625 39.519531 42.992188 41.121094 44.550781 42.117188 C 43.519531 41.980469 42.402344 41.605469 41.484375 40.734375 Z M 42.109375 37.917969 L 42.109375 35.972656 C 42.382812 36.042969 42.660156 36.132812 42.941406 36.242188 C 42.925781 38.355469 43.839844 40.164062 44.644531 41.335938 C 43.265625 40.382812 42.109375 39.039062 42.109375 37.917969 Z M 45.496094 41.304688 C 44.746094 40.296875 43.742188 38.578125 43.652344 36.566406 C 44.375 36.957031 45.054688 37.519531 45.566406 38.324219 C 45.367188 39.40625 45.398438 40.457031 45.496094 41.304688 Z M 45.789062 37.421875 C 45.175781 36.660156 44.433594 36.132812 43.664062 35.769531 C 43.710938 35.199219 43.835938 34.636719 44.035156 34.089844 C 45.109375 34.484375 45.957031 35.046875 46.570312 35.777344 C 46.21875 36.300781 45.96875 36.859375 45.789062 37.421875 Z M 46.894531 35.082031 C 46.230469 34.378906 45.367188 33.832031 44.3125 33.441406 C 44.851562 32.328125 45.710938 31.273438 46.894531 30.277344 C 48.074219 31.273438 48.9375 32.328125 49.476562 33.441406 C 48.417969 33.832031 47.554688 34.378906 46.894531 35.082031 Z M 47.214844 35.777344 C 47.832031 35.046875 48.679688 34.484375 49.75 34.089844 C 49.953125 34.636719 50.074219 35.199219 50.121094 35.769531 C 49.355469 36.132812 48.609375 36.660156 48 37.421875 C 47.820312 36.859375 47.566406 36.300781 47.214844 35.777344 Z M 48.222656 38.324219 C 48.734375 37.519531 49.414062 36.957031 50.136719 36.566406 C 50.046875 38.578125 49.042969 40.296875 48.292969 41.304688 C 48.390625 40.457031 48.421875 39.40625 48.222656 38.324219 Z M 50.847656 36.242188 C 51.125 36.132812 51.40625 36.042969 51.679688 35.972656 L 51.679688 37.917969 C 51.679688 39.039062 50.523438 40.382812 49.144531 41.339844 C 49.945312 40.164062 50.863281 38.355469 50.847656 36.242188 Z M 52.304688 40.734375 C 51.386719 41.605469 50.265625 41.980469 49.234375 42.117188 C 50.796875 41.121094 52.382812 39.519531 52.382812 37.917969 L 52.382812 35.824219 C 53.136719 35.699219 53.789062 35.695312 54.152344 35.707031 C 54.097656 37.933594 53.476562 39.625 52.304688 40.734375 Z M 52.304688 40.734375 " clip-rule="nonzero"/></clipPath><linearGradient x1="3025" gradientTransform="matrix(0.0291255, 0, 0, 0.0291255, -41.210761, -43.088935)" y1="2487.629944" x2="3025" gradientUnits="userSpaceOnUse" y2="2950.901609" id="4becc05fcc"><stop stop-opacity="1" stop-color="rgb(45.489502%, 52.549744%, 33.729553%)" offset="0"/><stop stop-opacity="1" stop-color="rgb(45.489502%, 52.549744%, 33.729553%)" offset="0.125"/><stop stop-opacity="1" stop-color="rgb(45.489502%, 52.549744%, 33.729553%)" offset="0.15625"/><stop stop-opacity="1" stop-color="rgb(45.56427%, 52.642822%, 33.77533%)" offset="0.171875"/><stop stop-opacity="1" stop-color="rgb(45.730591%, 52.850342%, 33.874512%)" offset="0.1875"/><stop stop-opacity="1" stop-color="rgb(45.91217%, 53.074646%, 33.984375%)" offset="0.203125"/><stop stop-opacity="1" stop-color="rgb(46.09375%, 53.300476%, 34.094238%)" offset="0.21875"/><stop stop-opacity="1" stop-color="rgb(46.27533%, 53.526306%, 34.204102%)" offset="0.234375"/><stop stop-opacity="1" stop-color="rgb(46.456909%, 53.752136%, 34.313965%)" offset="0.25"/><stop stop-opacity="1" stop-color="rgb(46.638489%, 53.97644%, 34.422302%)" offset="0.265625"/><stop stop-opacity="1" stop-color="rgb(46.821594%, 54.202271%, 34.532166%)" offset="0.28125"/><stop stop-opacity="1" stop-color="rgb(47.003174%, 54.428101%, 34.642029%)" offset="0.296875"/><stop stop-opacity="1" stop-color="rgb(47.184753%, 54.653931%, 34.751892%)" offset="0.3125"/><stop stop-opacity="1" stop-color="rgb(47.366333%, 54.878235%, 34.861755%)" offset="0.328125"/><stop stop-opacity="1" stop-color="rgb(47.547913%, 55.104065%, 34.971619%)" offset="0.34375"/><stop stop-opacity="1" stop-color="rgb(47.729492%, 55.329895%, 35.079956%)" offset="0.359375"/><stop stop-opacity="1" stop-color="rgb(47.911072%, 55.555725%, 35.189819%)" offset="0.375"/><stop stop-opacity="1" stop-color="rgb(48.092651%, 55.780029%, 35.299683%)" offset="0.390625"/><stop stop-opacity="1" stop-color="rgb(48.274231%, 56.005859%, 35.409546%)" offset="0.40625"/><stop stop-opacity="1" stop-color="rgb(48.455811%, 56.231689%, 35.519409%)" offset="0.421875"/><stop stop-opacity="1" stop-color="rgb(48.63739%, 56.45752%, 35.627747%)" offset="0.4375"/><stop stop-opacity="1" stop-color="rgb(48.81897%, 56.681824%, 35.73761%)" offset="0.453125"/><stop stop-opacity="1" stop-color="rgb(49.000549%, 56.907654%, 35.847473%)" offset="0.46875"/><stop stop-opacity="1" stop-color="rgb(49.182129%, 57.133484%, 35.957336%)" offset="0.484375"/><stop stop-opacity="1" stop-color="rgb(49.363708%, 57.359314%, 36.0672%)" offset="0.5"/><stop stop-opacity="1" stop-color="rgb(49.546814%, 57.583618%, 36.175537%)" offset="0.515625"/><stop stop-opacity="1" stop-color="rgb(49.728394%, 57.809448%, 36.2854%)" offset="0.53125"/><stop stop-opacity="1" stop-color="rgb(49.909973%, 58.035278%, 36.395264%)" offset="0.546875"/><stop stop-opacity="1" stop-color="rgb(50.091553%, 58.261108%, 36.505127%)" offset="0.5625"/><stop stop-opacity="1" stop-color="rgb(50.273132%, 58.485413%, 36.61499%)" offset="0.578125"/><stop stop-opacity="1" stop-color="rgb(50.454712%, 58.711243%, 36.723328%)" offset="0.59375"/><stop stop-opacity="1" stop-color="rgb(50.636292%, 58.937073%, 36.833191%)" offset="0.609375"/><stop stop-opacity="1" stop-color="rgb(50.817871%, 59.162903%, 36.943054%)" offset="0.625"/><stop stop-opacity="1" stop-color="rgb(50.999451%, 59.387207%, 37.052917%)" offset="0.640625"/><stop stop-opacity="1" stop-color="rgb(51.18103%, 59.613037%, 37.162781%)" offset="0.65625"/><stop stop-opacity="1" stop-color="rgb(51.36261%, 59.838867%, 37.271118%)" offset="0.671875"/><stop stop-opacity="1" stop-color="rgb(51.544189%, 60.064697%, 37.380981%)" offset="0.6875"/><stop stop-opacity="1" stop-color="rgb(51.725769%, 60.289001%, 37.490845%)" offset="0.703125"/><stop stop-opacity="1" stop-color="rgb(51.907349%, 60.514832%, 37.600708%)" offset="0.71875"/><stop stop-opacity="1" stop-color="rgb(52.088928%, 60.740662%, 37.710571%)" offset="0.734375"/><stop stop-opacity="1" stop-color="rgb(52.272034%, 60.964966%, 37.818909%)" offset="0.75"/><stop stop-opacity="1" stop-color="rgb(52.453613%, 61.190796%, 37.928772%)" offset="0.765625"/><stop stop-opacity="1" stop-color="rgb(52.635193%, 61.416626%, 38.038635%)" offset="0.78125"/><stop stop-opacity="1" stop-color="rgb(52.816772%, 61.642456%, 38.148499%)" offset="0.796875"/><stop stop-opacity="1" stop-color="rgb(52.998352%, 61.86676%, 38.258362%)" offset="0.8125"/><stop stop-opacity="1" stop-color="rgb(53.179932%, 62.09259%, 38.368225%)" offset="0.828125"/><stop stop-opacity="1" stop-color="rgb(53.361511%, 62.31842%, 38.476562%)" offset="0.84375"/><stop stop-opacity="1" stop-color="rgb(53.543091%, 62.54425%, 38.586426%)" offset="0.859375"/><stop stop-opacity="1" stop-color="rgb(53.72467%, 62.768555%, 38.696289%)" offset="0.875"/><stop stop-opacity="1" stop-color="rgb(53.90625%, 62.994385%, 38.806152%)" offset="0.890625"/><stop stop-opacity="1" stop-color="rgb(54.08783%, 63.220215%, 38.916016%)" offset="0.90625"/><stop stop-opacity="1" stop-color="rgb(54.269409%, 63.446045%, 39.024353%)" offset="0.921875"/><stop stop-opacity="1" stop-color="rgb(54.450989%, 63.670349%, 39.134216%)" offset="0.9375"/><stop stop-opacity="1" stop-color="rgb(54.632568%, 63.896179%, 39.24408%)" offset="0.953125"/><stop stop-opacity="1" stop-color="rgb(54.814148%, 64.122009%, 39.353943%)" offset="0.96875"/><stop stop-opacity="1" stop-color="rgb(54.997253%, 64.347839%, 39.463806%)" offset="0.984375"/><stop stop-opacity="1" stop-color="rgb(55.178833%, 64.572144%, 39.572144%)" offset="1"/></linearGradient><clipPath id="91a867c5ad"><path d="M 30 7 L 43.878906 7 L 43.878906 16 L 30 16 Z M 30 7 " clip-rule="nonzero"/></clipPath><clipPath id="2969bc49a8"><rect x="0" width="44" y="0" height="21"/></clipPath></defs><g transform="matrix(1, 0, 0, 1, 55, 27)"><g clip-path="url(#3f35ef6571)"><g fill="#748656" fill-opacity="1"><g transform="translate(0.867126, 14.920804)"><g><path d="M 8.578125 -9.734375 L 8.578125 0 L 7.3125 0 L 7.3125 -4.421875 L 2.34375 -4.421875 L 2.34375 0 L 1.078125 0 L 1.078125 -9.734375 L 2.34375 -9.734375 L 2.34375 -5.46875 L 7.3125 -5.46875 L 7.3125 -9.734375 Z M 8.578125 -9.734375 "/></g></g></g><g fill="#748656" fill-opacity="1"><g transform="translate(10.08042, 14.920804)"><g><path d="M 4.421875 0.125 C 3.703125 0.125 3.050781 -0.0351562 2.46875 -0.359375 C 1.882812 -0.691406 1.425781 -1.15625 1.09375 -1.75 C 0.757812 -2.351562 0.59375 -3.050781 0.59375 -3.84375 C 0.59375 -4.625 0.765625 -5.3125 1.109375 -5.90625 C 1.453125 -6.507812 1.914062 -6.972656 2.5 -7.296875 C 3.082031 -7.617188 3.738281 -7.78125 4.46875 -7.78125 C 5.195312 -7.78125 5.851562 -7.617188 6.4375 -7.296875 C 7.019531 -6.972656 7.484375 -6.515625 7.828125 -5.921875 C 8.171875 -5.328125 8.34375 -4.632812 8.34375 -3.84375 C 8.34375 -3.050781 8.164062 -2.351562 7.8125 -1.75 C 7.46875 -1.15625 6.992188 -0.691406 6.390625 -0.359375 C 5.796875 -0.0351562 5.140625 0.125 4.421875 0.125 Z M 4.421875 -0.984375 C 4.867188 -0.984375 5.289062 -1.09375 5.6875 -1.3125 C 6.09375 -1.53125 6.421875 -1.851562 6.671875 -2.28125 C 6.921875 -2.707031 7.046875 -3.226562 7.046875 -3.84375 C 7.046875 -4.457031 6.921875 -4.976562 6.671875 -5.40625 C 6.429688 -5.832031 6.113281 -6.148438 5.71875 -6.359375 C 5.332031 -6.566406 4.910156 -6.671875 4.453125 -6.671875 C 3.984375 -6.671875 3.554688 -6.566406 3.171875 -6.359375 C 2.785156 -6.148438 2.476562 -5.832031 2.25 -5.40625 C 2.019531 -4.976562 1.90625 -4.457031 1.90625 -3.84375 C 1.90625 -3.21875 2.015625 -2.691406 2.234375 -2.265625 C 2.460938 -1.835938 2.769531 -1.515625 3.15625 -1.296875 C 3.539062 -1.085938 3.960938 -0.984375 4.421875 -0.984375 Z M 4.421875 -0.984375 "/></g></g></g><g fill="#748656" fill-opacity="1"><g transform="translate(18.567812, 14.920804)"><g><path d="M 10.28125 -7.796875 C 10.875 -7.796875 11.40625 -7.671875 11.875 -7.421875 C 12.34375 -7.171875 12.707031 -6.800781 12.96875 -6.3125 C 13.238281 -5.820312 13.375 -5.222656 13.375 -4.515625 L 13.375 0 L 12.125 0 L 12.125 -4.328125 C 12.125 -5.085938 11.9375 -5.671875 11.5625 -6.078125 C 11.1875 -6.484375 10.675781 -6.6875 10.03125 -6.6875 C 9.363281 -6.6875 8.832031 -6.472656 8.4375 -6.046875 C 8.050781 -5.628906 7.859375 -5.019531 7.859375 -4.21875 L 7.859375 0 L 6.609375 0 L 6.609375 -4.328125 C 6.609375 -5.085938 6.414062 -5.671875 6.03125 -6.078125 C 5.65625 -6.484375 5.148438 -6.6875 4.515625 -6.6875 C 3.847656 -6.6875 3.316406 -6.472656 2.921875 -6.046875 C 2.535156 -5.628906 2.34375 -5.019531 2.34375 -4.21875 L 2.34375 0 L 1.078125 0 L 1.078125 -7.65625 L 2.34375 -7.65625 L 2.34375 -6.546875 C 2.59375 -6.953125 2.929688 -7.257812 3.359375 -7.46875 C 3.785156 -7.6875 4.253906 -7.796875 4.765625 -7.796875 C 5.410156 -7.796875 5.976562 -7.648438 6.46875 -7.359375 C 6.957031 -7.066406 7.328125 -6.644531 7.578125 -6.09375 C 7.785156 -6.632812 8.132812 -7.050781 8.625 -7.34375 C 9.125 -7.644531 9.675781 -7.796875 10.28125 -7.796875 Z M 10.28125 -7.796875 "/></g></g></g><g clip-path="url(#044c59bc85)"><g fill="#748656" fill-opacity="1"><g transform="translate(32.49948, 14.920804)"><g><path d="M 8.0625 -4.125 C 8.0625 -3.875 8.046875 -3.617188 8.015625 -3.359375 L 1.90625 -3.359375 C 1.945312 -2.597656 2.203125 -2.003906 2.671875 -1.578125 C 3.140625 -1.160156 3.710938 -0.953125 4.390625 -0.953125 C 4.929688 -0.953125 5.382812 -1.078125 5.75 -1.328125 C 6.125 -1.585938 6.382812 -1.929688 6.53125 -2.359375 L 7.90625 -2.359375 C 7.695312 -1.617188 7.285156 -1.019531 6.671875 -0.5625 C 6.054688 -0.101562 5.296875 0.125 4.390625 0.125 C 3.660156 0.125 3.007812 -0.0351562 2.4375 -0.359375 C 1.863281 -0.691406 1.410156 -1.15625 1.078125 -1.75 C 0.753906 -2.351562 0.59375 -3.050781 0.59375 -3.84375 C 0.59375 -4.632812 0.75 -5.328125 1.0625 -5.921875 C 1.382812 -6.515625 1.832031 -6.972656 2.40625 -7.296875 C 2.976562 -7.617188 3.640625 -7.78125 4.390625 -7.78125 C 5.109375 -7.78125 5.75 -7.617188 6.3125 -7.296875 C 6.875 -6.984375 7.304688 -6.550781 7.609375 -6 C 7.910156 -5.445312 8.0625 -4.820312 8.0625 -4.125 Z M 6.75 -4.390625 C 6.75 -4.867188 6.640625 -5.28125 6.421875 -5.625 C 6.210938 -5.976562 5.921875 -6.242188 5.546875 -6.421875 C 5.179688 -6.609375 4.773438 -6.703125 4.328125 -6.703125 C 3.679688 -6.703125 3.132812 -6.492188 2.6875 -6.078125 C 2.238281 -5.671875 1.976562 -5.109375 1.90625 -4.390625 Z M 6.75 -4.390625 "/></g></g></g></g></g></g><g clip-path="url(#f211a028a3)"><g clip-path="url(#9927ee887d)"><path fill="url(#4becc05fcc)" d="M 38.925781 29.363281 L 38.925781 42.859375 L 54.675781 42.859375 L 54.675781 29.363281 Z M 38.925781 29.363281 " fill-rule="nonzero"/></g></g><g transform="matrix(1, 0, 0, 1, 97, 27)"><g clip-path="url(#2969bc49a8)"><g fill="#748656" fill-opacity="1"><g transform="translate(0.302097, 15.379771)"><g><path d="M 6.125 -5.171875 C 6.488281 -5.109375 6.820312 -4.957031 7.125 -4.71875 C 7.425781 -4.476562 7.664062 -4.179688 7.84375 -3.828125 C 8.019531 -3.472656 8.109375 -3.09375 8.109375 -2.6875 C 8.109375 -2.175781 7.976562 -1.71875 7.71875 -1.3125 C 7.46875 -0.90625 7.09375 -0.582031 6.59375 -0.34375 C 6.101562 -0.113281 5.519531 0 4.84375 0 L 1.109375 0 L 1.109375 -10.03125 L 4.703125 -10.03125 C 5.390625 -10.03125 5.972656 -9.914062 6.453125 -9.6875 C 6.929688 -9.46875 7.289062 -9.164062 7.53125 -8.78125 C 7.769531 -8.394531 7.890625 -7.960938 7.890625 -7.484375 C 7.890625 -6.890625 7.726562 -6.394531 7.40625 -6 C 7.082031 -5.613281 6.65625 -5.335938 6.125 -5.171875 Z M 2.421875 -5.703125 L 4.625 -5.703125 C 5.238281 -5.703125 5.710938 -5.84375 6.046875 -6.125 C 6.378906 -6.414062 6.546875 -6.816406 6.546875 -7.328125 C 6.546875 -7.835938 6.378906 -8.234375 6.046875 -8.515625 C 5.710938 -8.804688 5.226562 -8.953125 4.59375 -8.953125 L 2.421875 -8.953125 Z M 4.734375 -1.078125 C 5.390625 -1.078125 5.898438 -1.226562 6.265625 -1.53125 C 6.628906 -1.84375 6.8125 -2.273438 6.8125 -2.828125 C 6.8125 -3.378906 6.617188 -3.816406 6.234375 -4.140625 C 5.847656 -4.460938 5.332031 -4.625 4.6875 -4.625 L 2.421875 -4.625 L 2.421875 -1.078125 Z M 4.734375 -1.078125 "/></g></g></g><g fill="#748656" fill-opacity="1"><g transform="translate(8.664925, 15.379771)"><g><path d="M 2.421875 -10.65625 L 2.421875 0 L 1.109375 0 L 1.109375 -10.65625 Z M 2.421875 -10.65625 "/></g></g></g><g fill="#748656" fill-opacity="1"><g transform="translate(11.745173, 15.379771)"><g><path d="M 4.546875 0.125 C 3.804688 0.125 3.132812 -0.0390625 2.53125 -0.375 C 1.9375 -0.707031 1.46875 -1.179688 1.125 -1.796875 C 0.789062 -2.421875 0.625 -3.140625 0.625 -3.953125 C 0.625 -4.765625 0.796875 -5.476562 1.140625 -6.09375 C 1.492188 -6.707031 1.972656 -7.179688 2.578125 -7.515625 C 3.179688 -7.847656 3.859375 -8.015625 4.609375 -8.015625 C 5.359375 -8.015625 6.035156 -7.847656 6.640625 -7.515625 C 7.242188 -7.179688 7.71875 -6.707031 8.0625 -6.09375 C 8.414062 -5.488281 8.59375 -4.773438 8.59375 -3.953125 C 8.59375 -3.140625 8.410156 -2.421875 8.046875 -1.796875 C 7.691406 -1.179688 7.207031 -0.707031 6.59375 -0.375 C 5.976562 -0.0390625 5.296875 0.125 4.546875 0.125 Z M 4.546875 -1.015625 C 5.015625 -1.015625 5.453125 -1.125 5.859375 -1.34375 C 6.273438 -1.570312 6.609375 -1.90625 6.859375 -2.34375 C 7.117188 -2.78125 7.25 -3.316406 7.25 -3.953125 C 7.25 -4.585938 7.125 -5.125 6.875 -5.5625 C 6.625 -6.007812 6.296875 -6.335938 5.890625 -6.546875 C 5.492188 -6.765625 5.0625 -6.875 4.59375 -6.875 C 4.113281 -6.875 3.671875 -6.765625 3.265625 -6.546875 C 2.867188 -6.335938 2.550781 -6.007812 2.3125 -5.5625 C 2.070312 -5.125 1.953125 -4.585938 1.953125 -3.953125 C 1.953125 -3.316406 2.066406 -2.773438 2.296875 -2.328125 C 2.535156 -1.890625 2.851562 -1.5625 3.25 -1.34375 C 3.644531 -1.125 4.078125 -1.015625 4.546875 -1.015625 Z M 4.546875 -1.015625 "/></g></g></g><g fill="#748656" fill-opacity="1"><g transform="translate(20.496636, 15.379771)"><g><path d="M 4.546875 0.125 C 3.804688 0.125 3.132812 -0.0390625 2.53125 -0.375 C 1.9375 -0.707031 1.46875 -1.179688 1.125 -1.796875 C 0.789062 -2.421875 0.625 -3.140625 0.625 -3.953125 C 0.625 -4.765625 0.796875 -5.476562 1.140625 -6.09375 C 1.492188 -6.707031 1.972656 -7.179688 2.578125 -7.515625 C 3.179688 -7.847656 3.859375 -8.015625 4.609375 -8.015625 C 5.359375 -8.015625 6.035156 -7.847656 6.640625 -7.515625 C 7.242188 -7.179688 7.71875 -6.707031 8.0625 -6.09375 C 8.414062 -5.488281 8.59375 -4.773438 8.59375 -3.953125 C 8.59375 -3.140625 8.410156 -2.421875 8.046875 -1.796875 C 7.691406 -1.179688 7.207031 -0.707031 6.59375 -0.375 C 5.976562 -0.0390625 5.296875 0.125 4.546875 0.125 Z M 4.546875 -1.015625 C 5.015625 -1.015625 5.453125 -1.125 5.859375 -1.34375 C 6.273438 -1.570312 6.609375 -1.90625 6.859375 -2.34375 C 7.117188 -2.78125 7.25 -3.316406 7.25 -3.953125 C 7.25 -4.585938 7.125 -5.125 6.875 -5.5625 C 6.625 -6.007812 6.296875 -6.335938 5.890625 -6.546875 C 5.492188 -6.765625 5.0625 -6.875 4.59375 -6.875 C 4.113281 -6.875 3.671875 -6.765625 3.265625 -6.546875 C 2.867188 -6.335938 2.550781 -6.007812 2.3125 -5.5625 C 2.070312 -5.125 1.953125 -4.585938 1.953125 -3.953125 C 1.953125 -3.316406 2.066406 -2.773438 2.296875 -2.328125 C 2.535156 -1.890625 2.851562 -1.5625 3.25 -1.34375 C 3.644531 -1.125 4.078125 -1.015625 4.546875 -1.015625 Z M 4.546875 -1.015625 "/></g></g></g><g clip-path="url(#91a867c5ad)"><g fill="#748656" fill-opacity="1"><g transform="translate(29.2481, 15.379771)"><g><path d="M 10.59375 -8.03125 C 11.207031 -8.03125 11.753906 -7.898438 12.234375 -7.640625 C 12.710938 -7.390625 13.085938 -7.007812 13.359375 -6.5 C 13.640625 -5.988281 13.78125 -5.367188 13.78125 -4.640625 L 13.78125 0 L 12.484375 0 L 12.484375 -4.46875 C 12.484375 -5.25 12.289062 -5.847656 11.90625 -6.265625 C 11.519531 -6.679688 10.992188 -6.890625 10.328125 -6.890625 C 9.648438 -6.890625 9.109375 -6.671875 8.703125 -6.234375 C 8.304688 -5.796875 8.109375 -5.164062 8.109375 -4.34375 L 8.109375 0 L 6.8125 0 L 6.8125 -4.46875 C 6.8125 -5.25 6.613281 -5.847656 6.21875 -6.265625 C 5.832031 -6.679688 5.304688 -6.890625 4.640625 -6.890625 C 3.960938 -6.890625 3.421875 -6.671875 3.015625 -6.234375 C 2.617188 -5.796875 2.421875 -5.164062 2.421875 -4.34375 L 2.421875 0 L 1.109375 0 L 1.109375 -7.890625 L 2.421875 -7.890625 L 2.421875 -6.75 C 2.679688 -7.164062 3.023438 -7.484375 3.453125 -7.703125 C 3.890625 -7.921875 4.375 -8.03125 4.90625 -8.03125 C 5.570312 -8.03125 6.15625 -7.878906 6.65625 -7.578125 C 7.164062 -7.285156 7.546875 -6.851562 7.796875 -6.28125 C 8.015625 -6.832031 8.378906 -7.257812 8.890625 -7.5625 C 9.398438 -7.875 9.96875 -8.03125 10.59375 -8.03125 Z M 10.59375 -8.03125 "/></g></g></g></g></g></g></svg>