<svg xmlns="http://www.w3.org/2000/svg" xmlns:xlink="http://www.w3.org/1999/xlink" width="240" zoomAndPan="magnify" viewBox="0 0 180 74.999997" height="100" preserveAspectRatio="xMidYMid meet" version="1.0"><defs><g/><clipPath id="9e310364ff"><path d="M 0.359375 0.558594 L 92.761719 0.558594 L 92.761719 18.558594 L 0.359375 18.558594 Z M 0.359375 0.558594 " clip-rule="nonzero"/></clipPath><clipPath id="42a33ac03b"><path d="M 0.359375 4 L 14 4 L 14 15 L 0.359375 15 Z M 0.359375 4 " clip-rule="nonzero"/></clipPath><clipPath id="d04d0893b4"><rect x="0" width="93" y="0" height="19"/></clipPath><clipPath id="add80d8792"><path d="M 29.109375 2 L 33 2 L 33 5.921875 L 29.109375 5.921875 Z M 29.109375 2 " clip-rule="nonzero"/></clipPath><clipPath id="38f08f0824"><rect x="0" width="93" y="0" height="19"/></clipPath><clipPath id="2439b6f1dd"><path d="M 36.789062 29.585938 L 52.539062 29.585938 L 52.539062 43 L 36.789062 43 Z M 36.789062 29.585938 " clip-rule="nonzero"/></clipPath><clipPath id="284511eeaf"><path d="M 52.550781 35.535156 L 52.550781 35.222656 L 52.238281 35.1875 C 52.15625 35.179688 51.257812 35.089844 50.097656 35.261719 L 50.097656 32.980469 L 49.703125 33.03125 C 49.050781 33.113281 48.449219 33.238281 47.890625 33.402344 C 47.285156 32.113281 46.28125 30.898438 44.886719 29.769531 L 44.667969 29.589844 L 44.449219 29.769531 C 43.054688 30.898438 42.050781 32.113281 41.445312 33.402344 C 40.886719 33.238281 40.285156 33.113281 39.632812 33.03125 L 39.238281 32.980469 L 39.238281 35.261719 C 38.078125 35.089844 37.183594 35.179688 37.097656 35.1875 L 36.789062 35.222656 L 36.789062 35.535156 C 36.789062 38.101562 37.476562 40.054688 38.839844 41.34375 C 39.964844 42.410156 41.515625 42.964844 43.34375 42.964844 C 43.488281 42.964844 43.632812 42.960938 43.78125 42.953125 L 44.285156 42.953125 L 44.183594 42.523438 C 43.9375 41.453125 43.527344 38.863281 44.667969 36.753906 C 45.808594 38.863281 45.398438 41.453125 45.152344 42.523438 L 45.054688 42.953125 L 45.554688 42.953125 C 45.703125 42.960938 45.847656 42.964844 45.992188 42.964844 C 47.820312 42.964844 49.371094 42.410156 50.496094 41.34375 C 51.859375 40.054688 52.550781 38.101562 52.550781 35.535156 Z M 49.398438 33.78125 L 49.398438 35.394531 C 49.117188 35.460938 48.828125 35.542969 48.535156 35.648438 C 48.472656 35.105469 48.347656 34.570312 48.160156 34.050781 C 48.546875 33.941406 48.960938 33.847656 49.398438 33.78125 Z M 39.9375 33.78125 C 40.375 33.847656 40.789062 33.941406 41.175781 34.050781 C 40.988281 34.570312 40.863281 35.105469 40.800781 35.648438 C 40.511719 35.542969 40.21875 35.460938 39.9375 35.398438 Z M 39.320312 40.835938 C 38.15625 39.738281 37.542969 38.066406 37.488281 35.863281 C 37.851562 35.851562 38.492188 35.855469 39.238281 35.980469 L 39.238281 38.050781 C 39.238281 39.632812 40.808594 41.214844 42.351562 42.203125 C 41.332031 42.070312 40.226562 41.695312 39.320312 40.835938 Z M 39.9375 38.050781 L 39.9375 36.128906 C 40.207031 36.199219 40.484375 36.285156 40.757812 36.390625 C 40.746094 38.484375 41.648438 40.269531 42.441406 41.433594 C 41.078125 40.488281 39.9375 39.15625 39.9375 38.050781 Z M 43.285156 41.398438 C 42.542969 40.402344 41.550781 38.703125 41.460938 36.714844 C 42.175781 37.097656 42.847656 37.65625 43.355469 38.453125 C 43.160156 39.519531 43.1875 40.5625 43.285156 41.398438 Z M 43.574219 37.5625 C 42.96875 36.804688 42.234375 36.285156 41.476562 35.925781 C 41.523438 35.359375 41.644531 34.804688 41.84375 34.261719 C 42.902344 34.652344 43.742188 35.210938 44.347656 35.933594 C 44 36.453125 43.75 37.003906 43.574219 37.5625 Z M 44.667969 35.246094 C 44.011719 34.550781 43.160156 34.007812 42.117188 33.621094 C 42.648438 32.523438 43.5 31.480469 44.667969 30.492188 C 45.835938 31.480469 46.6875 32.523438 47.222656 33.621094 C 46.175781 34.007812 45.324219 34.550781 44.667969 35.246094 Z M 44.988281 35.933594 C 45.59375 35.210938 46.433594 34.652344 47.496094 34.261719 C 47.691406 34.804688 47.816406 35.359375 47.859375 35.925781 C 47.101562 36.285156 46.367188 36.804688 45.761719 37.5625 C 45.585938 37.003906 45.335938 36.453125 44.988281 35.933594 Z M 45.980469 38.453125 C 46.488281 37.65625 47.160156 37.097656 47.875 36.714844 C 47.789062 38.703125 46.792969 40.402344 46.050781 41.398438 C 46.148438 40.5625 46.179688 39.519531 45.980469 38.453125 Z M 48.578125 36.390625 C 48.855469 36.285156 49.128906 36.199219 49.398438 36.128906 L 49.398438 38.050781 C 49.398438 39.15625 48.257812 40.488281 46.894531 41.433594 C 47.6875 40.269531 48.59375 38.484375 48.578125 36.390625 Z M 50.019531 40.835938 C 49.113281 41.695312 48.003906 42.070312 46.984375 42.203125 C 48.527344 41.214844 50.097656 39.632812 50.097656 38.050781 L 50.097656 35.980469 C 50.84375 35.855469 51.484375 35.851562 51.847656 35.863281 C 51.792969 38.066406 51.179688 39.738281 50.019531 40.835938 Z M 50.019531 40.835938 " clip-rule="nonzero"/></clipPath><linearGradient x1="3025" gradientTransform="matrix(0.0288043, 0, 0, 0.0288043, -42.464671, -42.063178)" y1="2487.629961" x2="3025" gradientUnits="userSpaceOnUse" y2="2951.929952" id="8ea31f3128"><stop stop-opacity="1" stop-color="rgb(24.708557%, 41.958618%, 22.749329%)" offset="0"/><stop stop-opacity="1" stop-color="rgb(24.708557%, 41.958618%, 22.749329%)" offset="0.125"/><stop stop-opacity="1" stop-color="rgb(24.525452%, 42.066956%, 22.798157%)" offset="0.1875"/><stop stop-opacity="1" stop-color="rgb(24.243164%, 42.233276%, 22.874451%)" offset="0.203125"/><stop stop-opacity="1" stop-color="rgb(24.0448%, 42.349243%, 22.927856%)" offset="0.21875"/><stop stop-opacity="1" stop-color="rgb(23.847961%, 42.46521%, 22.981262%)" offset="0.234375"/><stop stop-opacity="1" stop-color="rgb(23.649597%, 42.581177%, 23.034668%)" offset="0.25"/><stop stop-opacity="1" stop-color="rgb(23.451233%, 42.697144%, 23.088074%)" offset="0.265625"/><stop stop-opacity="1" stop-color="rgb(23.254395%, 42.81311%, 23.139954%)" offset="0.28125"/><stop stop-opacity="1" stop-color="rgb(23.05603%, 42.929077%, 23.193359%)" offset="0.296875"/><stop stop-opacity="1" stop-color="rgb(22.859192%, 43.045044%, 23.246765%)" offset="0.3125"/><stop stop-opacity="1" stop-color="rgb(22.660828%, 43.162537%, 23.300171%)" offset="0.328125"/><stop stop-opacity="1" stop-color="rgb(22.462463%, 43.278503%, 23.353577%)" offset="0.34375"/><stop stop-opacity="1" stop-color="rgb(22.265625%, 43.39447%, 23.406982%)" offset="0.359375"/><stop stop-opacity="1" stop-color="rgb(22.067261%, 43.510437%, 23.460388%)" offset="0.375"/><stop stop-opacity="1" stop-color="rgb(21.870422%, 43.626404%, 23.513794%)" offset="0.390625"/><stop stop-opacity="1" stop-color="rgb(21.672058%, 43.742371%, 23.5672%)" offset="0.40625"/><stop stop-opacity="1" stop-color="rgb(21.473694%, 43.858337%, 23.620605%)" offset="0.421875"/><stop stop-opacity="1" stop-color="rgb(21.276855%, 43.974304%, 23.674011%)" offset="0.4375"/><stop stop-opacity="1" stop-color="rgb(21.078491%, 44.090271%, 23.727417%)" offset="0.453125"/><stop stop-opacity="1" stop-color="rgb(20.880127%, 44.207764%, 23.780823%)" offset="0.46875"/><stop stop-opacity="1" stop-color="rgb(20.683289%, 44.32373%, 23.834229%)" offset="0.484375"/><stop stop-opacity="1" stop-color="rgb(20.484924%, 44.439697%, 23.887634%)" offset="0.5"/><stop stop-opacity="1" stop-color="rgb(20.288086%, 44.555664%, 23.939514%)" offset="0.515625"/><stop stop-opacity="1" stop-color="rgb(20.089722%, 44.671631%, 23.99292%)" offset="0.53125"/><stop stop-opacity="1" stop-color="rgb(19.891357%, 44.787598%, 24.046326%)" offset="0.546875"/><stop stop-opacity="1" stop-color="rgb(19.694519%, 44.903564%, 24.099731%)" offset="0.5625"/><stop stop-opacity="1" stop-color="rgb(19.496155%, 45.019531%, 24.153137%)" offset="0.578125"/><stop stop-opacity="1" stop-color="rgb(19.299316%, 45.135498%, 24.206543%)" offset="0.59375"/><stop stop-opacity="1" stop-color="rgb(19.100952%, 45.252991%, 24.259949%)" offset="0.609375"/><stop stop-opacity="1" stop-color="rgb(18.902588%, 45.368958%, 24.313354%)" offset="0.625"/><stop stop-opacity="1" stop-color="rgb(18.70575%, 45.484924%, 24.36676%)" offset="0.640625"/><stop stop-opacity="1" stop-color="rgb(18.507385%, 45.600891%, 24.420166%)" offset="0.65625"/><stop stop-opacity="1" stop-color="rgb(18.310547%, 45.716858%, 24.473572%)" offset="0.671875"/><stop stop-opacity="1" stop-color="rgb(18.112183%, 45.832825%, 24.526978%)" offset="0.6875"/><stop stop-opacity="1" stop-color="rgb(17.913818%, 45.948792%, 24.580383%)" offset="0.703125"/><stop stop-opacity="1" stop-color="rgb(17.71698%, 46.064758%, 24.633789%)" offset="0.71875"/><stop stop-opacity="1" stop-color="rgb(17.518616%, 46.180725%, 24.687195%)" offset="0.734375"/><stop stop-opacity="1" stop-color="rgb(17.320251%, 46.298218%, 24.739075%)" offset="0.75"/><stop stop-opacity="1" stop-color="rgb(17.123413%, 46.414185%, 24.79248%)" offset="0.765625"/><stop stop-opacity="1" stop-color="rgb(16.925049%, 46.530151%, 24.845886%)" offset="0.78125"/><stop stop-opacity="1" stop-color="rgb(16.72821%, 46.646118%, 24.899292%)" offset="0.796875"/><stop stop-opacity="1" stop-color="rgb(16.529846%, 46.762085%, 24.952698%)" offset="0.8125"/><stop stop-opacity="1" stop-color="rgb(16.331482%, 46.878052%, 25.006104%)" offset="0.828125"/><stop stop-opacity="1" stop-color="rgb(16.134644%, 46.994019%, 25.059509%)" offset="0.84375"/><stop stop-opacity="1" stop-color="rgb(15.936279%, 47.109985%, 25.112915%)" offset="0.859375"/><stop stop-opacity="1" stop-color="rgb(15.739441%, 47.225952%, 25.166321%)" offset="0.875"/><stop stop-opacity="1" stop-color="rgb(15.541077%, 47.343445%, 25.219727%)" offset="0.890625"/><stop stop-opacity="1" stop-color="rgb(15.342712%, 47.459412%, 25.273132%)" offset="0.90625"/><stop stop-opacity="1" stop-color="rgb(15.145874%, 47.575378%, 25.326538%)" offset="0.921875"/><stop stop-opacity="1" stop-color="rgb(14.94751%, 47.691345%, 25.379944%)" offset="0.9375"/><stop stop-opacity="1" stop-color="rgb(14.749146%, 47.807312%, 25.43335%)" offset="0.953125"/><stop stop-opacity="1" stop-color="rgb(14.552307%, 47.923279%, 25.486755%)" offset="0.96875"/><stop stop-opacity="1" stop-color="rgb(14.353943%, 48.039246%, 25.538635%)" offset="0.984375"/><stop stop-opacity="1" stop-color="rgb(14.157104%, 48.155212%, 25.592041%)" offset="1"/></linearGradient></defs><g transform="matrix(1, 0, 0, 1, 51, 28)"><g clip-path="url(#38f08f0824)"><g clip-path="url(#9e310364ff)"><g transform="matrix(1, 0, 0, 1, 0, -0.000000000000003553)"><g clip-path="url(#d04d0893b4)"><g clip-path="url(#42a33ac03b)"><g fill="#990933" fill-opacity="1"><g transform="translate(0.715165, 14.657706)"><g><path d="M 8.71875 -10.40625 L 12.859375 0 L 8.71875 0 L 6.375 -6.46875 L 5.265625 -3.46875 L 7.1875 -3.46875 L 8.4375 0 L -0.03125 0 L 4.046875 -10.40625 Z M 8.71875 -10.40625 "/></g></g></g></g><g fill="#990933" fill-opacity="1"><g transform="translate(13.702308, 14.657706)"><g><path d="M 5.4375 -8.34375 L 5.4375 -4.84375 L 4.03125 -4.84375 C 3.882812 -4.84375 3.8125 -4.769531 3.8125 -4.625 L 3.8125 0 L 0.15625 0 L 0.15625 -4.484375 C 0.15625 -5.265625 0.320312 -5.941406 0.65625 -6.515625 C 0.988281 -7.085938 1.453125 -7.535156 2.046875 -7.859375 C 2.648438 -8.179688 3.34375 -8.34375 4.125 -8.34375 Z M 5.4375 -8.34375 "/></g></g></g><g fill="#990933" fill-opacity="1"><g transform="translate(19.533909, 14.657706)"><g><path d="M 0.15625 -8.34375 L 3.8125 -8.34375 L 3.8125 0 L 0.15625 0 Z M 0.15625 -8.34375 "/></g></g></g><g fill="#990933" fill-opacity="1"><g transform="translate(23.624956, 14.657706)"><g><path d="M 4.546875 -8.578125 C 5.140625 -8.578125 5.703125 -8.460938 6.234375 -8.234375 C 6.765625 -8.015625 7.226562 -7.707031 7.625 -7.3125 C 8.03125 -6.925781 8.351562 -6.46875 8.59375 -5.9375 C 8.832031 -5.414062 8.957031 -4.859375 8.96875 -4.265625 L 5.296875 -4.265625 C 5.273438 -4.453125 5.191406 -4.609375 5.046875 -4.734375 C 4.910156 -4.859375 4.742188 -4.921875 4.546875 -4.921875 C 4.335938 -4.921875 4.160156 -4.847656 4.015625 -4.703125 C 3.867188 -4.554688 3.796875 -4.378906 3.796875 -4.171875 C 3.796875 -3.960938 3.867188 -3.78125 4.015625 -3.625 C 4.160156 -3.476562 4.335938 -3.40625 4.546875 -3.40625 C 4.742188 -3.40625 4.910156 -3.46875 5.046875 -3.59375 C 5.191406 -3.71875 5.273438 -3.875 5.296875 -4.0625 L 8.96875 -4.0625 C 8.957031 -3.46875 8.832031 -2.90625 8.59375 -2.375 C 8.351562 -1.851562 8.03125 -1.390625 7.625 -0.984375 C 7.226562 -0.585938 6.765625 -0.273438 6.234375 -0.046875 C 5.703125 0.179688 5.140625 0.296875 4.546875 0.296875 C 3.941406 0.296875 3.367188 0.179688 2.828125 -0.046875 C 2.296875 -0.285156 1.828125 -0.609375 1.421875 -1.015625 C 1.015625 -1.429688 0.695312 -1.90625 0.46875 -2.4375 C 0.25 -2.976562 0.140625 -3.554688 0.140625 -4.171875 C 0.140625 -4.785156 0.25 -5.351562 0.46875 -5.875 C 0.695312 -6.40625 1.015625 -6.875 1.421875 -7.28125 C 1.828125 -7.695312 2.296875 -8.015625 2.828125 -8.234375 C 3.367188 -8.460938 3.941406 -8.578125 4.546875 -8.578125 Z M 4.546875 -8.578125 "/></g></g></g><g fill="#990933" fill-opacity="1"><g transform="translate(32.863242, 14.657706)"><g><path d="M 0.15625 0 L 0.15625 -10.421875 L 3.8125 -10.421875 L 3.8125 -5.15625 L 5.5 -8.34375 L 9.359375 -8.34375 L 7.015625 -4.1875 L 9.640625 0 L 5.78125 0 L 3.8125 -3.296875 L 3.8125 0 Z M 0.15625 0 "/></g></g></g><g fill="#990933" fill-opacity="1"><g transform="translate(42.577571, 14.657706)"><g/></g></g><g fill="#990933" fill-opacity="1"><g transform="translate(45.731403, 14.657706)"><g><path d="M 0.15625 0 L 0.15625 -10.40625 L 5.09375 -10.40625 C 5.9375 -10.40625 6.671875 -10.257812 7.296875 -9.96875 C 7.921875 -9.675781 8.441406 -9.28125 8.859375 -8.78125 C 9.285156 -8.289062 9.601562 -7.734375 9.8125 -7.109375 C 10.019531 -6.492188 10.125 -5.859375 10.125 -5.203125 C 10.125 -4.546875 10.019531 -3.90625 9.8125 -3.28125 C 9.601562 -2.664062 9.285156 -2.109375 8.859375 -1.609375 C 8.441406 -1.117188 7.921875 -0.726562 7.296875 -0.4375 C 6.671875 -0.144531 5.9375 0 5.09375 0 Z M 5.15625 -4.03125 C 5.425781 -4.03125 5.640625 -4.109375 5.796875 -4.265625 C 5.960938 -4.429688 6.070312 -4.628906 6.125 -4.859375 C 6.175781 -5.097656 6.175781 -5.335938 6.125 -5.578125 C 6.070312 -5.816406 5.960938 -6.015625 5.796875 -6.171875 C 5.640625 -6.335938 5.425781 -6.421875 5.15625 -6.421875 L 4 -6.421875 L 4 -4.03125 Z M 5.15625 -4.03125 "/></g></g></g><g fill="#990933" fill-opacity="1"><g transform="translate(56.144926, 14.657706)"><g><path d="M 4.875 -3.765625 C 5.09375 -3.878906 5.222656 -4.039062 5.265625 -4.25 C 5.304688 -4.46875 5.257812 -4.664062 5.125 -4.84375 C 4.988281 -5.019531 4.769531 -5.109375 4.46875 -5.109375 C 4.207031 -5.109375 4.007812 -5.03125 3.875 -4.875 C 3.738281 -4.726562 3.664062 -4.550781 3.65625 -4.34375 C 3.65625 -4.144531 3.71875 -3.960938 3.84375 -3.796875 C 3.96875 -3.640625 4.164062 -3.5625 4.4375 -3.5625 L 8.640625 -3.5625 L 8.640625 0 L 4.4375 0 C 3.84375 0 3.285156 -0.109375 2.765625 -0.328125 C 2.253906 -0.554688 1.796875 -0.867188 1.390625 -1.265625 C 0.992188 -1.660156 0.6875 -2.113281 0.46875 -2.625 C 0.25 -3.144531 0.140625 -3.703125 0.140625 -4.296875 C 0.140625 -5.078125 0.3125 -5.789062 0.65625 -6.4375 C 1.007812 -7.082031 1.507812 -7.597656 2.15625 -7.984375 C 2.8125 -8.378906 3.585938 -8.582031 4.484375 -8.59375 C 4.941406 -8.59375 5.40625 -8.546875 5.875 -8.453125 C 6.351562 -8.367188 6.800781 -8.203125 7.21875 -7.953125 C 7.632812 -7.710938 7.976562 -7.347656 8.25 -6.859375 C 8.375 -6.648438 8.460938 -6.398438 8.515625 -6.109375 C 8.566406 -5.828125 8.582031 -5.535156 8.5625 -5.234375 C 8.550781 -4.929688 8.488281 -4.644531 8.375 -4.375 C 8.269531 -4.113281 8.109375 -3.910156 7.890625 -3.765625 Z M 4.875 -3.765625 "/></g></g></g><g fill="#990933" fill-opacity="1"><g transform="translate(65.055932, 14.657706)"><g><path d="M 4.546875 -8.578125 C 5.140625 -8.578125 5.703125 -8.460938 6.234375 -8.234375 C 6.765625 -8.015625 7.226562 -7.707031 7.625 -7.3125 C 8.03125 -6.925781 8.351562 -6.46875 8.59375 -5.9375 C 8.832031 -5.414062 8.957031 -4.859375 8.96875 -4.265625 L 5.296875 -4.265625 C 5.273438 -4.453125 5.191406 -4.609375 5.046875 -4.734375 C 4.910156 -4.859375 4.742188 -4.921875 4.546875 -4.921875 C 4.335938 -4.921875 4.160156 -4.847656 4.015625 -4.703125 C 3.867188 -4.554688 3.796875 -4.378906 3.796875 -4.171875 C 3.796875 -3.960938 3.867188 -3.78125 4.015625 -3.625 C 4.160156 -3.476562 4.335938 -3.40625 4.546875 -3.40625 C 4.742188 -3.40625 4.910156 -3.46875 5.046875 -3.59375 C 5.191406 -3.71875 5.273438 -3.875 5.296875 -4.0625 L 8.96875 -4.0625 C 8.957031 -3.46875 8.832031 -2.90625 8.59375 -2.375 C 8.351562 -1.851562 8.03125 -1.390625 7.625 -0.984375 C 7.226562 -0.585938 6.765625 -0.273438 6.234375 -0.046875 C 5.703125 0.179688 5.140625 0.296875 4.546875 0.296875 C 3.941406 0.296875 3.367188 0.179688 2.828125 -0.046875 C 2.296875 -0.285156 1.828125 -0.609375 1.421875 -1.015625 C 1.015625 -1.429688 0.695312 -1.90625 0.46875 -2.4375 C 0.25 -2.976562 0.140625 -3.554688 0.140625 -4.171875 C 0.140625 -4.785156 0.25 -5.351562 0.46875 -5.875 C 0.695312 -6.40625 1.015625 -6.875 1.421875 -7.28125 C 1.828125 -7.695312 2.296875 -8.015625 2.828125 -8.234375 C 3.367188 -8.460938 3.941406 -8.578125 4.546875 -8.578125 Z M 4.546875 -8.578125 "/></g></g></g><g fill="#990933" fill-opacity="1"><g transform="translate(74.294218, 14.657706)"><g><path d="M 4.53125 0.234375 C 3.925781 0.234375 3.351562 0.117188 2.8125 -0.109375 C 2.28125 -0.335938 1.8125 -0.65625 1.40625 -1.0625 C 1 -1.46875 0.679688 -1.9375 0.453125 -2.46875 C 0.234375 -3 0.125 -3.570312 0.125 -4.1875 C 0.125 -4.800781 0.234375 -5.367188 0.453125 -5.890625 C 0.679688 -6.421875 1 -6.890625 1.40625 -7.296875 C 1.8125 -7.703125 2.28125 -8.019531 2.8125 -8.25 C 3.351562 -8.476562 3.925781 -8.59375 4.53125 -8.59375 C 5.144531 -8.59375 5.71875 -8.476562 6.25 -8.25 C 6.78125 -8.019531 7.25 -7.703125 7.65625 -7.296875 C 8.0625 -6.890625 8.378906 -6.421875 8.609375 -5.890625 C 8.835938 -5.367188 8.953125 -4.800781 8.953125 -4.1875 C 8.953125 -3.570312 8.835938 -3 8.609375 -2.46875 C 8.378906 -1.9375 8.0625 -1.46875 7.65625 -1.0625 C 7.25 -0.65625 6.78125 -0.335938 6.25 -0.109375 C 5.71875 0.117188 5.144531 0.234375 4.53125 0.234375 Z M 4.53125 -4.9375 C 4.320312 -4.9375 4.144531 -4.863281 4 -4.71875 C 3.851562 -4.570312 3.78125 -4.394531 3.78125 -4.1875 C 3.78125 -3.976562 3.851562 -3.796875 4 -3.640625 C 4.144531 -3.492188 4.320312 -3.421875 4.53125 -3.421875 C 4.738281 -3.421875 4.914062 -3.492188 5.0625 -3.640625 C 5.21875 -3.796875 5.296875 -3.976562 5.296875 -4.1875 C 5.296875 -4.394531 5.21875 -4.570312 5.0625 -4.71875 C 4.914062 -4.863281 4.738281 -4.9375 4.53125 -4.9375 Z M 4.53125 -4.9375 "/></g></g></g><g fill="#990933" fill-opacity="1"><g transform="translate(83.473, 14.657706)"><g><path d="M 5.4375 -8.34375 L 5.4375 -4.84375 L 4.03125 -4.84375 C 3.882812 -4.84375 3.8125 -4.769531 3.8125 -4.625 L 3.8125 0 L 0.15625 0 L 0.15625 -4.484375 C 0.15625 -5.265625 0.320312 -5.941406 0.65625 -6.515625 C 0.988281 -7.085938 1.453125 -7.535156 2.046875 -7.859375 C 2.648438 -8.179688 3.34375 -8.34375 4.125 -8.34375 Z M 5.4375 -8.34375 "/></g></g></g><g fill="#990933" fill-opacity="1"><g transform="translate(89.188376, 14.657706)"><g/></g></g></g></g></g><g clip-path="url(#add80d8792)"><path fill="#ffffff" d="M 32.035156 2.96875 C 32.167969 3.101562 32.265625 3.25 32.335938 3.417969 C 32.40625 3.585938 32.441406 3.761719 32.441406 3.945312 C 32.441406 4.128906 32.40625 4.304688 32.335938 4.472656 C 32.265625 4.644531 32.167969 4.792969 32.035156 4.921875 C 31.90625 5.050781 31.757812 5.152344 31.589844 5.222656 C 31.421875 5.292969 31.242188 5.328125 31.0625 5.328125 C 30.878906 5.328125 30.703125 5.292969 30.53125 5.222656 C 30.363281 5.152344 30.214844 5.050781 30.085938 4.921875 C 29.957031 4.792969 29.855469 4.644531 29.785156 4.476562 C 29.714844 4.304688 29.679688 4.128906 29.679688 3.945312 C 29.679688 3.761719 29.714844 3.585938 29.785156 3.417969 C 29.855469 3.25 29.957031 3.101562 30.085938 2.96875 C 30.214844 2.839844 30.363281 2.742188 30.53125 2.671875 C 30.703125 2.601562 30.878906 2.566406 31.0625 2.566406 C 31.242188 2.566406 31.421875 2.601562 31.589844 2.671875 C 31.757812 2.742188 31.90625 2.839844 32.035156 2.96875 Z M 32.035156 2.96875 " fill-opacity="1" fill-rule="nonzero"/></g></g></g><g clip-path="url(#2439b6f1dd)"><g clip-path="url(#284511eeaf)"><path fill="url(#8ea31f3128)" d="M 36.789062 29.589844 L 36.789062 42.964844 L 52.539062 42.964844 L 52.539062 29.589844 Z M 36.789062 29.589844 " fill-rule="nonzero"/></g></g><path stroke-linecap="butt" transform="matrix(0.75, 0, 0, 0.75, 78.740923, 38.139078)" fill="none" stroke-linejoin="miter" d="M 0.00168631 0.502063 L 6.49127 0.502063 " stroke="#ffffff" stroke-width="1" stroke-opacity="1" stroke-miterlimit="4"/><path stroke-linecap="butt" transform="matrix(0.262623, 0.702516, -0.702516, 0.262623, 58.633312, 38.578062)" fill="none" stroke-linejoin="miter" d="M 0.00157801 0.501734 L 6.491876 0.498132 " stroke="#ffffff" stroke-width="1" stroke-opacity="1" stroke-miterlimit="4"/><path stroke-linecap="butt" transform="matrix(0.75, -0.00000000000000186, 0.00000000000000186, 0.75, 111.559096, 38.139078)" fill="none" stroke-linejoin="miter" d="M -0.000669786 0.502063 L 5.676414 0.502063 " stroke="#ffffff" stroke-width="1" stroke-opacity="1" stroke-miterlimit="4"/><path stroke-linecap="butt" transform="matrix(0.75, -0.00000000000000186, 0.00000000000000186, 0.75, 120.821024, 38.139078)" fill="none" stroke-linejoin="miter" d="M -0.000948844 0.502063 L 5.676135 0.502063 " stroke="#ffffff" stroke-width="1" stroke-opacity="1" stroke-miterlimit="4"/></svg>