<svg xmlns="http://www.w3.org/2000/svg" xmlns:xlink="http://www.w3.org/1999/xlink" width="240" zoomAndPan="magnify" viewBox="0 0 180 74.999997" height="100" preserveAspectRatio="xMidYMid meet" version="1.0"><defs><g/><clipPath id="b8f9428dbb"><path d="M 0.28125 5 L 23 5 L 23 29 L 0.28125 29 Z M 0.28125 5 " clip-rule="nonzero"/></clipPath><clipPath id="bfa78d9248"><rect x="0" width="99" y="0" height="34"/></clipPath><clipPath id="9b2e53a690"><path d="M 0.238281 4 L 23 4 L 23 28 L 0.238281 28 Z M 0.238281 4 " clip-rule="nonzero"/></clipPath><clipPath id="e1ec999ee3"><rect x="0" width="97" y="0" height="33"/></clipPath><clipPath id="1eec572807"><path d="M 0.480469 6 L 17 6 L 17 24 L 0.480469 24 Z M 0.480469 6 " clip-rule="nonzero"/></clipPath><clipPath id="9974fc412b"><rect x="0" width="85" y="0" height="30"/></clipPath><clipPath id="9cfb21e261"><path d="M 117 44 L 141 44 L 141 54 L 117 54 Z M 117 44 " clip-rule="nonzero"/></clipPath><clipPath id="4075bf2f02"><path d="M 117.59375 45.730469 L 140.371094 44.800781 L 140.707031 52.96875 L 117.929688 53.898438 Z M 117.59375 45.730469 " clip-rule="nonzero"/></clipPath><clipPath id="6f19a9289f"><path d="M 121.679688 45.5625 L 136.265625 44.96875 C 137.347656 44.925781 138.402344 45.3125 139.203125 46.046875 C 140 46.78125 140.472656 47.800781 140.515625 48.886719 C 140.558594 49.96875 140.171875 51.023438 139.4375 51.820312 C 138.703125 52.617188 137.679688 53.089844 136.597656 53.136719 L 122.011719 53.730469 C 120.929688 53.773438 119.871094 53.386719 119.074219 52.652344 C 118.277344 51.917969 117.804688 50.898438 117.761719 49.8125 C 117.71875 48.730469 118.105469 47.675781 118.839844 46.878906 C 119.574219 46.082031 120.59375 45.609375 121.679688 45.5625 Z M 121.679688 45.5625 " clip-rule="nonzero"/></clipPath><clipPath id="72b47ee067"><path d="M 0.601562 0.878906 L 23.640625 0.878906 L 23.640625 10 L 0.601562 10 Z M 0.601562 0.878906 " clip-rule="nonzero"/></clipPath><clipPath id="c5ac73c9b9"><path d="M 0.59375 1.730469 L 23.371094 0.800781 L 23.707031 8.96875 L 0.929688 9.898438 Z M 0.59375 1.730469 " clip-rule="nonzero"/></clipPath><clipPath id="b5e1d31b93"><path d="M 4.679688 1.5625 L 19.265625 0.96875 C 20.347656 0.925781 21.402344 1.3125 22.203125 2.046875 C 23 2.78125 23.472656 3.800781 23.515625 4.886719 C 23.558594 5.96875 23.171875 7.023438 22.4375 7.820312 C 21.703125 8.617188 20.679688 9.089844 19.597656 9.136719 L 5.011719 9.730469 C 3.929688 9.773438 2.871094 9.386719 2.074219 8.652344 C 1.277344 7.917969 0.804688 6.898438 0.761719 5.8125 C 0.71875 4.730469 1.105469 3.675781 1.839844 2.878906 C 2.574219 2.082031 3.59375 1.609375 4.679688 1.5625 Z M 4.679688 1.5625 " clip-rule="nonzero"/></clipPath><clipPath id="31678ccd5f"><rect x="0" width="24" y="0" height="10"/></clipPath><clipPath id="a811c18271"><path d="M 117 44 L 141 44 L 141 54 L 117 54 Z M 117 44 " clip-rule="nonzero"/></clipPath><clipPath id="21802c7876"><path d="M 117.59375 45.730469 L 140.074219 44.8125 L 140.414062 53.054688 L 117.929688 53.972656 Z M 117.59375 45.730469 " clip-rule="nonzero"/></clipPath><clipPath id="9511457053"><path d="M 117.601562 45.730469 L 140.566406 44.792969 L 140.917969 53.40625 L 117.953125 54.34375 Z M 117.601562 45.730469 " clip-rule="nonzero"/></clipPath><clipPath id="a97cd28f84"><path d="M 121.679688 45.5625 L 136.257812 44.96875 C 137.339844 44.925781 138.394531 45.3125 139.191406 46.046875 C 139.988281 46.78125 140.460938 47.800781 140.503906 48.882812 C 140.550781 49.964844 140.160156 51.019531 139.429688 51.816406 C 138.695312 52.613281 137.671875 53.085938 136.589844 53.128906 L 122.015625 53.726562 C 120.933594 53.769531 119.875 53.382812 119.082031 52.648438 C 118.285156 51.914062 117.8125 50.894531 117.765625 49.8125 C 117.722656 48.730469 118.109375 47.671875 118.84375 46.875 C 119.578125 46.082031 120.597656 45.609375 121.679688 45.5625 Z M 121.679688 45.5625 " clip-rule="nonzero"/></clipPath><clipPath id="2cf62533cc"><path d="M 120 47 L 123 47 L 123 51 L 120 51 Z M 120 47 " clip-rule="nonzero"/></clipPath><clipPath id="45b3159d6b"><path d="M 117.59375 45.730469 L 140.074219 44.8125 L 140.414062 53.054688 L 117.929688 53.972656 Z M 117.59375 45.730469 " clip-rule="nonzero"/></clipPath><clipPath id="b07d44e39d"><path d="M 122 47 L 126 47 L 126 51 L 122 51 Z M 122 47 " clip-rule="nonzero"/></clipPath><clipPath id="df440bb512"><path d="M 117.59375 45.730469 L 140.074219 44.8125 L 140.414062 53.054688 L 117.929688 53.972656 Z M 117.59375 45.730469 " clip-rule="nonzero"/></clipPath><clipPath id="55b382a8f6"><path d="M 125 47 L 128 47 L 128 50 L 125 50 Z M 125 47 " clip-rule="nonzero"/></clipPath><clipPath id="2f9e93fa2c"><path d="M 117.59375 45.730469 L 140.074219 44.8125 L 140.414062 53.054688 L 117.929688 53.972656 Z M 117.59375 45.730469 " clip-rule="nonzero"/></clipPath><clipPath id="1e1a024d1f"><path d="M 127 47 L 131 47 L 131 50 L 127 50 Z M 127 47 " clip-rule="nonzero"/></clipPath><clipPath id="391e452f21"><path d="M 117.59375 45.730469 L 140.074219 44.8125 L 140.414062 53.054688 L 117.929688 53.972656 Z M 117.59375 45.730469 " clip-rule="nonzero"/></clipPath><clipPath id="ff31dfd4a1"><path d="M 130 47 L 132 47 L 132 50 L 130 50 Z M 130 47 " clip-rule="nonzero"/></clipPath><clipPath id="c21d6b98d3"><path d="M 117.59375 45.730469 L 140.074219 44.8125 L 140.414062 53.054688 L 117.929688 53.972656 Z M 117.59375 45.730469 " clip-rule="nonzero"/></clipPath><clipPath id="ede82c9808"><path d="M 131 46 L 135 46 L 135 50 L 131 50 Z M 131 46 " clip-rule="nonzero"/></clipPath><clipPath id="cf31e2f9b0"><path d="M 117.59375 45.730469 L 140.074219 44.8125 L 140.414062 53.054688 L 117.929688 53.972656 Z M 117.59375 45.730469 " clip-rule="nonzero"/></clipPath><clipPath id="a82c05e94e"><path d="M 135 46 L 138 46 L 138 50 L 135 50 Z M 135 46 " clip-rule="nonzero"/></clipPath><clipPath id="4c619297a7"><path d="M 117.59375 45.730469 L 140.074219 44.8125 L 140.414062 53.054688 L 117.929688 53.972656 Z M 117.59375 45.730469 " clip-rule="nonzero"/></clipPath></defs><g transform="matrix(1, 0, 0, 1, 41, 22)"><g clip-path="url(#bfa78d9248)"><g clip-path="url(#b8f9428dbb)"><g fill="#000000" fill-opacity="1"><g transform="translate(2.923856, 24.809773)"><g><path d="M -2.171875 -8.035156 C -2.183594 -9.625 -1.902344 -11.121094 -1.328125 -12.519531 C -0.753906 -13.917969 0.0625 -15.144531 1.117188 -16.195312 C 2.15625 -17.234375 3.367188 -18.050781 4.75 -18.640625 C 6.144531 -19.238281 7.648438 -19.546875 9.265625 -19.558594 C 10.660156 -19.570312 11.914062 -19.410156 13.023438 -19.074219 C 14.09375 -18.753906 15.011719 -18.351562 15.773438 -17.875 C 16.480469 -17.433594 17.039062 -17.019531 17.449219 -16.625 L 19.617188 -14.558594 L 13.847656 -5.242188 L 10.785156 -7.585938 C 10.691406 -7.652344 10.527344 -7.742188 10.285156 -7.851562 C 10.234375 -7.875 10.15625 -7.886719 10.058594 -7.886719 C 10.035156 -7.886719 10.019531 -7.882812 10.011719 -7.882812 C 10.023438 -7.886719 10.042969 -7.890625 10.0625 -7.898438 C 10.117188 -7.921875 10.164062 -7.949219 10.199219 -7.984375 C 10.242188 -8.027344 10.277344 -8.082031 10.300781 -8.148438 C 10.308594 -8.171875 10.316406 -8.1875 10.316406 -8.203125 C 10.316406 -8.191406 10.316406 -8.171875 10.316406 -8.144531 C 10.316406 -8.125 10.316406 -8.113281 10.316406 -8.105469 C 10.3125 -8.121094 10.308594 -8.140625 10.300781 -8.164062 C 10.277344 -8.222656 10.246094 -8.269531 10.210938 -8.300781 C 10.175781 -8.335938 10.128906 -8.363281 10.070312 -8.386719 C 10.050781 -8.394531 10.03125 -8.402344 10.011719 -8.40625 C 10.019531 -8.402344 10.035156 -8.402344 10.054688 -8.402344 C 10.136719 -8.402344 10.199219 -8.414062 10.242188 -8.433594 C 10.511719 -8.566406 10.703125 -8.675781 10.816406 -8.761719 L 13.828125 -11.0625 L 19.730469 -1.898438 L 17.597656 0.207031 C 17.191406 0.605469 16.640625 1.035156 15.941406 1.488281 C 15.191406 1.976562 14.28125 2.390625 13.214844 2.734375 C 12.109375 3.089844 10.863281 3.269531 9.464844 3.285156 C 7.851562 3.296875 6.339844 3.019531 4.933594 2.445312 C 3.542969 1.878906 2.316406 1.085938 1.257812 0.0625 C 0.183594 -0.96875 -0.652344 -2.179688 -1.25 -3.570312 C -1.851562 -4.960938 -2.15625 -6.449219 -2.171875 -8.035156 Z M 3.871094 -8.089844 C 3.878906 -7.316406 4.019531 -6.605469 4.296875 -5.964844 C 4.574219 -5.316406 4.960938 -4.761719 5.449219 -4.289062 C 5.953125 -3.804688 6.539062 -3.425781 7.214844 -3.148438 C 7.871094 -2.882812 8.605469 -2.75 9.414062 -2.757812 C 10.195312 -2.765625 10.847656 -2.851562 11.367188 -3.019531 C 11.921875 -3.195312 12.347656 -3.382812 12.648438 -3.578125 C 13.003906 -3.808594 13.238281 -3.980469 13.351562 -4.089844 L 13.738281 -4.476562 L 15.863281 -2.324219 L 13.320312 -0.691406 L 10.519531 -5.039062 L 13.0625 -6.675781 L 14.894531 -4.273438 L 14.484375 -3.960938 C 14.046875 -3.625 13.515625 -3.308594 12.882812 -3 C 12.023438 -2.582031 11.097656 -2.371094 10.105469 -2.359375 C 9.324219 -2.355469 8.589844 -2.484375 7.898438 -2.75 C 7.179688 -3.027344 6.539062 -3.441406 5.976562 -3.992188 C 5.414062 -4.542969 4.992188 -5.175781 4.699219 -5.894531 C 4.421875 -6.578125 4.28125 -7.3125 4.273438 -8.09375 C 4.265625 -8.882812 4.394531 -9.621094 4.660156 -10.308594 C 4.941406 -11.042969 5.359375 -11.6875 5.921875 -12.25 C 6.472656 -12.804688 7.105469 -13.222656 7.820312 -13.507812 C 8.5 -13.78125 9.226562 -13.917969 10.003906 -13.925781 C 10.980469 -13.933594 11.898438 -13.75 12.753906 -13.367188 C 13.421875 -13.066406 13.988281 -12.742188 14.453125 -12.386719 L 14.867188 -12.066406 L 13.035156 -9.667969 L 10.46875 -11.257812 L 13.191406 -15.652344 L 15.757812 -14.0625 L 13.675781 -11.878906 L 13.277344 -12.253906 C 13.164062 -12.363281 12.929688 -12.53125 12.570312 -12.753906 C 12.265625 -12.945312 11.835938 -13.125 11.277344 -13.292969 C 10.753906 -13.449219 10.101562 -13.523438 9.320312 -13.519531 C 8.511719 -13.511719 7.78125 -13.367188 7.125 -13.085938 C 6.457031 -12.800781 5.875 -12.410156 5.382812 -11.917969 C 4.902344 -11.4375 4.527344 -10.875 4.261719 -10.222656 C 3.992188 -9.574219 3.863281 -8.863281 3.871094 -8.089844 Z M 3.871094 -8.089844 "/></g></g></g></g><g fill="#000000" fill-opacity="1"><g transform="translate(18.388864, 24.674475)"><g><path d="M 10.246094 -16.203125 L 10.339844 -5.382812 L 7.320312 -5.359375 L 7.292969 -8.378906 L 16.527344 -8.460938 L 16.625 2.875 L -1.613281 3.035156 L -1.808594 -19.117188 L 10.21875 -19.222656 Z M 4.203125 -16.148438 L 7.222656 -16.175781 L 7.25 -13.15625 L 1.265625 -13.101562 L 1.238281 -16.121094 L 4.261719 -16.148438 L 4.402344 -0.0390625 L 1.382812 -0.0117188 L 1.355469 -3.03125 L 13.550781 -3.140625 L 13.578125 -0.117188 L 10.558594 -0.09375 L 10.511719 -5.386719 L 13.53125 -5.414062 L 13.558594 -2.390625 L 4.324219 -2.3125 Z M 4.203125 -16.148438 "/></g></g></g><g fill="#000000" fill-opacity="1"><g transform="translate(31.552517, 24.559311)"><g><path d="M 9.335938 -8.136719 C 9.335938 -8.171875 9.335938 -8.199219 9.332031 -8.214844 C 9.332031 -8.210938 9.335938 -8.199219 9.34375 -8.183594 C 9.367188 -8.121094 9.398438 -8.070312 9.441406 -8.027344 C 9.472656 -7.996094 9.523438 -7.964844 9.59375 -7.9375 C 9.679688 -7.898438 9.757812 -7.882812 9.828125 -7.882812 C 9.898438 -7.882812 9.976562 -7.902344 10.0625 -7.941406 C 10.132812 -7.972656 10.183594 -8.003906 10.210938 -8.03125 C 10.253906 -8.078125 10.285156 -8.128906 10.308594 -8.191406 C 10.316406 -8.207031 10.316406 -8.21875 10.320312 -8.226562 C 10.316406 -8.207031 10.316406 -8.179688 10.316406 -8.144531 C 10.316406 -8.117188 10.316406 -8.097656 10.320312 -8.082031 C 10.316406 -8.09375 10.3125 -8.105469 10.308594 -8.121094 C 10.285156 -8.175781 10.257812 -8.21875 10.226562 -8.253906 C 10.195312 -8.285156 10.144531 -8.3125 10.074219 -8.34375 C 9.984375 -8.382812 9.902344 -8.402344 9.824219 -8.402344 C 9.746094 -8.398438 9.664062 -8.378906 9.574219 -8.339844 C 9.503906 -8.308594 9.453125 -8.277344 9.425781 -8.246094 C 9.390625 -8.210938 9.363281 -8.167969 9.34375 -8.113281 C 9.339844 -8.097656 9.335938 -8.082031 9.335938 -8.074219 C 9.335938 -8.089844 9.335938 -8.109375 9.335938 -8.136719 Z M 15.378906 -8.191406 C 15.386719 -7.421875 15.265625 -6.703125 15.015625 -6.027344 C 14.753906 -5.308594 14.355469 -4.671875 13.828125 -4.109375 C 13.304688 -3.554688 12.714844 -3.125 12.050781 -2.828125 C 11.367188 -2.523438 10.644531 -2.367188 9.875 -2.359375 C 9.109375 -2.351562 8.382812 -2.496094 7.695312 -2.789062 C 7.027344 -3.078125 6.425781 -3.492188 5.894531 -4.039062 C 5.355469 -4.59375 4.949219 -5.226562 4.675781 -5.9375 C 4.414062 -6.605469 4.28125 -7.328125 4.273438 -8.09375 C 4.265625 -8.867188 4.386719 -9.589844 4.632812 -10.265625 C 4.902344 -10.992188 5.300781 -11.640625 5.839844 -12.203125 C 6.363281 -12.75 6.953125 -13.171875 7.617188 -13.464844 C 8.292969 -13.765625 9.015625 -13.917969 9.777344 -13.925781 C 10.539062 -13.929688 11.257812 -13.789062 11.941406 -13.503906 C 12.609375 -13.222656 13.210938 -12.8125 13.742188 -12.269531 C 14.289062 -11.71875 14.699219 -11.078125 14.980469 -10.355469 C 15.238281 -9.683594 15.371094 -8.964844 15.378906 -8.191406 Z M 21.824219 -8.246094 C 21.835938 -6.652344 21.550781 -5.152344 20.960938 -3.746094 C 20.375 -2.339844 19.535156 -1.109375 18.449219 -0.0546875 C 17.371094 0.984375 16.105469 1.800781 14.644531 2.386719 C 13.199219 2.964844 11.625 3.265625 9.925781 3.28125 C 8.226562 3.292969 6.648438 3.023438 5.191406 2.46875 C 3.722656 1.90625 2.441406 1.117188 1.347656 0.09375 C 0.242188 -0.941406 -0.617188 -2.15625 -1.230469 -3.550781 C -1.84375 -4.945312 -2.15625 -6.441406 -2.171875 -8.035156 C -2.183594 -9.632812 -1.898438 -11.132812 -1.308594 -12.539062 C -0.722656 -13.945312 0.117188 -15.171875 1.203125 -16.226562 C 2.28125 -17.269531 3.546875 -18.082031 5.007812 -18.667969 C 6.453125 -19.25 8.027344 -19.546875 9.726562 -19.5625 C 11.425781 -19.578125 13.003906 -19.308594 14.460938 -18.753906 C 15.929688 -18.191406 17.210938 -17.398438 18.304688 -16.378906 C 19.410156 -15.34375 20.269531 -14.128906 20.882812 -12.730469 C 21.496094 -11.335938 21.808594 -9.839844 21.824219 -8.246094 Z M 15.78125 -8.195312 C 15.773438 -8.960938 15.632812 -9.664062 15.351562 -10.304688 C 15.070312 -10.941406 14.679688 -11.496094 14.175781 -11.964844 C 13.660156 -12.449219 13.039062 -12.828125 12.304688 -13.105469 C 11.5625 -13.390625 10.71875 -13.53125 9.777344 -13.523438 C 8.839844 -13.511719 8 -13.359375 7.257812 -13.0625 C 6.53125 -12.769531 5.914062 -12.378906 5.410156 -11.886719 C 4.914062 -11.410156 4.53125 -10.847656 4.265625 -10.207031 C 3.996094 -9.5625 3.863281 -8.859375 3.871094 -8.089844 C 3.878906 -7.320312 4.019531 -6.617188 4.300781 -5.980469 C 4.582031 -5.34375 4.972656 -4.789062 5.476562 -4.320312 C 5.992188 -3.835938 6.613281 -3.457031 7.347656 -3.175781 C 8.089844 -2.890625 8.933594 -2.753906 9.875 -2.761719 C 10.8125 -2.769531 11.652344 -2.921875 12.394531 -3.222656 C 13.121094 -3.511719 13.738281 -3.90625 14.242188 -4.394531 C 14.738281 -4.875 15.121094 -5.433594 15.386719 -6.078125 C 15.65625 -6.71875 15.789062 -7.425781 15.78125 -8.195312 Z M 15.78125 -8.195312 "/></g></g></g><g fill="#000000" fill-opacity="1"><g transform="translate(50.469557, 24.393812)"><g><path d="M 16.597656 -9.097656 L 10.898438 -3.066406 L 8.703125 -5.140625 L 8.675781 -8.160156 L 17.679688 -8.238281 L 17.777344 2.867188 L -1.84375 3.039062 L -1.871094 -0.0742188 L -1.925781 -6.265625 L 4.613281 -13.183594 L 6.808594 -11.109375 L 6.835938 -8.085938 L -1.480469 -8.015625 L -1.578125 -19.121094 L 17.351562 -19.285156 L 17.433594 -9.984375 Z M 12.207031 -13.25 L 14.402344 -11.175781 L 11.382812 -11.148438 L 11.339844 -16.210938 L 14.359375 -16.238281 L 14.386719 -13.214844 L 1.496094 -13.105469 L 1.46875 -16.125 L 4.492188 -16.152344 L 4.535156 -11.089844 L 1.515625 -11.0625 L 1.488281 -14.082031 L 13.878906 -14.191406 L 3.300781 -3 L 1.105469 -5.074219 L 4.128906 -5.101562 L 4.171875 -0.128906 L 4.171875 -0.0351562 L 1.152344 -0.0117188 L 1.125 -3.03125 L 14.703125 -3.148438 L 14.730469 -0.128906 L 11.710938 -0.101562 L 11.664062 -5.164062 L 14.6875 -5.191406 L 14.710938 -2.171875 L 1.632812 -2.058594 Z M 12.207031 -13.25 "/></g></g></g><g fill="#000000" fill-opacity="1"><g transform="translate(65.474292, 24.262541)"><g><path d="M 10.335938 -5.84375 L 10.34375 -4.695312 L 7.324219 -4.667969 L 7.296875 -7.6875 L 17.222656 -7.773438 L 17.316406 2.871094 L -1.613281 3.035156 L -1.808594 -19.117188 L 16.664062 -19.277344 L 16.757812 -8.632812 L 7.289062 -8.550781 L 7.265625 -11.570312 L 10.285156 -11.597656 L 10.296875 -10.449219 L 7.273438 -10.421875 L 7.246094 -13.441406 L 16.253906 -13.519531 L 16.347656 -2.875 L 7.339844 -2.796875 L 7.316406 -5.816406 Z M 4.265625 -8.8125 L 13.273438 -8.890625 L 13.296875 -5.871094 L 10.277344 -5.84375 L 10.238281 -10.449219 L 13.257812 -10.472656 L 13.285156 -7.453125 L 4.28125 -7.375 L 4.21875 -14.566406 L 13.683594 -14.648438 L 13.707031 -11.628906 L 10.6875 -11.601562 L 10.648438 -16.207031 L 13.667969 -16.230469 L 13.695312 -13.210938 L 1.265625 -13.101562 L 1.238281 -16.121094 L 4.261719 -16.148438 L 4.402344 -0.0390625 L 1.382812 -0.0117188 L 1.355469 -3.03125 L 14.242188 -3.144531 L 14.269531 -0.125 L 11.25 -0.0976562 L 11.207031 -4.703125 L 14.230469 -4.726562 L 14.253906 -1.707031 L 4.332031 -1.621094 L 4.292969 -5.792969 Z M 4.265625 -8.8125 "/></g></g></g><g fill="#000000" fill-opacity="1"><g transform="translate(79.558494, 24.139323)"><g><path d="M 0.292969 -19.136719 L 18.042969 -19.289062 L 18.144531 -7.957031 L 10.75 -7.890625 L 10.722656 -10.910156 L 13.742188 -10.9375 L 13.863281 2.898438 L 1.839844 3.003906 L 1.71875 -10.832031 L 4.738281 -10.859375 L 4.765625 -7.839844 L -2.628906 -7.773438 L -2.726562 -19.109375 Z M 0.347656 -13.09375 L 0.320312 -16.113281 L 3.339844 -16.140625 L 3.386719 -10.847656 L 0.367188 -10.820312 L 0.339844 -13.84375 L 7.734375 -13.90625 L 7.855469 -0.0703125 L 4.832031 -0.0429688 L 4.808594 -3.0625 L 10.789062 -3.117188 L 10.816406 -0.09375 L 7.796875 -0.0664062 L 7.675781 -13.90625 L 15.070312 -13.972656 L 15.09375 -10.949219 L 12.074219 -10.921875 L 12.027344 -16.21875 L 15.050781 -16.242188 L 15.074219 -13.222656 Z M 0.347656 -13.09375 "/></g></g></g><g fill="#000000" fill-opacity="1"><g transform="translate(2.923856, 24.809773)"><g><path d="M 0.84375 -8.078125 C 0.84375 -9.253906 1.050781 -10.351562 1.46875 -11.375 C 1.882812 -12.394531 2.476562 -13.289062 3.25 -14.0625 C 4.019531 -14.832031 4.914062 -15.429688 5.9375 -15.859375 C 6.96875 -16.296875 8.085938 -16.519531 9.296875 -16.53125 C 10.390625 -16.539062 11.34375 -16.425781 12.15625 -16.1875 C 12.96875 -15.945312 13.640625 -15.65625 14.171875 -15.3125 C 14.703125 -14.976562 15.097656 -14.6875 15.359375 -14.4375 C 15.617188 -14.1875 15.75 -14.0625 15.75 -14.0625 L 13.046875 -9.65625 C 13.046875 -9.65625 12.90625 -9.765625 12.625 -9.984375 C 12.34375 -10.203125 11.972656 -10.410156 11.515625 -10.609375 C 11.066406 -10.804688 10.570312 -10.90625 10.03125 -10.90625 C 9.238281 -10.894531 8.582031 -10.628906 8.0625 -10.109375 C 7.539062 -9.597656 7.28125 -8.9375 7.28125 -8.125 C 7.289062 -7.320312 7.5625 -6.660156 8.09375 -6.140625 C 8.625 -5.628906 9.285156 -5.378906 10.078125 -5.390625 C 10.617188 -5.390625 11.113281 -5.5 11.5625 -5.71875 C 12.019531 -5.9375 12.382812 -6.148438 12.65625 -6.359375 C 12.925781 -6.566406 13.0625 -6.671875 13.0625 -6.671875 L 15.859375 -2.328125 C 15.859375 -2.328125 15.726562 -2.195312 15.46875 -1.9375 C 15.207031 -1.675781 14.816406 -1.378906 14.296875 -1.046875 C 13.773438 -0.710938 13.109375 -0.410156 12.296875 -0.140625 C 11.484375 0.117188 10.53125 0.253906 9.4375 0.265625 C 8.226562 0.273438 7.101562 0.0703125 6.0625 -0.34375 C 5.03125 -0.769531 4.125 -1.359375 3.34375 -2.109375 C 2.5625 -2.859375 1.953125 -3.742188 1.515625 -4.765625 C 1.078125 -5.785156 0.851562 -6.890625 0.84375 -8.078125 Z M 0.84375 -8.078125 "/></g></g></g><g fill="#000000" fill-opacity="1"><g transform="translate(18.388864, 24.674475)"><g><path d="M 7.21875 -16.171875 L 7.3125 -5.359375 L 13.53125 -5.421875 L 13.578125 -0.125 L 1.375 -0.015625 L 1.234375 -16.125 Z M 7.21875 -16.171875 "/></g></g></g><g fill="#000000" fill-opacity="1"><g transform="translate(31.552517, 24.559311)"><g><path d="M 12.34375 -8.171875 C 12.34375 -8.984375 12.09375 -9.640625 11.59375 -10.140625 C 11.09375 -10.648438 10.492188 -10.90625 9.796875 -10.90625 C 9.109375 -10.894531 8.515625 -10.628906 8.015625 -10.109375 C 7.523438 -9.597656 7.28125 -8.9375 7.28125 -8.125 C 7.289062 -7.320312 7.546875 -6.660156 8.046875 -6.140625 C 8.554688 -5.628906 9.15625 -5.378906 9.84375 -5.390625 C 10.539062 -5.390625 11.132812 -5.648438 11.625 -6.171875 C 12.113281 -6.703125 12.351562 -7.367188 12.34375 -8.171875 Z M 18.796875 -8.234375 C 18.804688 -7.046875 18.597656 -5.9375 18.171875 -4.90625 C 17.742188 -3.882812 17.132812 -2.988281 16.34375 -2.21875 C 15.550781 -1.445312 14.609375 -0.84375 13.515625 -0.40625 C 12.421875 0.0195312 11.210938 0.238281 9.890625 0.25 C 8.578125 0.269531 7.367188 0.0703125 6.265625 -0.34375 C 5.160156 -0.769531 4.207031 -1.359375 3.40625 -2.109375 C 2.601562 -2.859375 1.976562 -3.742188 1.53125 -4.765625 C 1.082031 -5.785156 0.851562 -6.890625 0.84375 -8.078125 C 0.84375 -9.253906 1.054688 -10.351562 1.484375 -11.375 C 1.910156 -12.394531 2.519531 -13.289062 3.3125 -14.0625 C 4.101562 -14.832031 5.046875 -15.429688 6.140625 -15.859375 C 7.234375 -16.296875 8.4375 -16.523438 9.75 -16.546875 C 11.070312 -16.554688 12.285156 -16.347656 13.390625 -15.921875 C 14.492188 -15.503906 15.445312 -14.921875 16.25 -14.171875 C 17.050781 -13.421875 17.675781 -12.535156 18.125 -11.515625 C 18.570312 -10.503906 18.796875 -9.410156 18.796875 -8.234375 Z M 18.796875 -8.234375 "/></g></g></g><g fill="#000000" fill-opacity="1"><g transform="translate(50.469557, 24.393812)"><g><path d="M 14.40625 -11.171875 L 8.703125 -5.140625 L 14.6875 -5.1875 L 14.734375 -0.125 L 1.15625 -0.015625 L 1.15625 -0.109375 L 1.109375 -5.078125 L 6.8125 -11.109375 L 1.515625 -11.0625 L 1.46875 -16.125 L 14.359375 -16.234375 Z M 14.40625 -11.171875 "/></g></g></g><g fill="#000000" fill-opacity="1"><g transform="translate(65.474292, 24.262541)"><g><path d="M 7.3125 -5.8125 L 7.3125 -4.671875 L 14.21875 -4.734375 L 14.265625 -0.125 L 1.375 -0.015625 L 1.234375 -16.125 L 13.671875 -16.234375 L 13.71875 -11.640625 L 7.265625 -11.578125 L 7.265625 -10.421875 L 13.25 -10.46875 L 13.296875 -5.859375 Z M 7.3125 -5.8125 "/></g></g></g><g fill="#000000" fill-opacity="1"><g transform="translate(79.558494, 24.139323)"><g><path d="M 0.3125 -16.109375 L 15.046875 -16.234375 L 15.09375 -10.9375 L 10.71875 -10.90625 L 10.8125 -0.09375 L 4.828125 -0.046875 L 4.734375 -10.859375 L 0.359375 -10.8125 Z M 0.3125 -16.109375 "/></g></g></g></g></g><g transform="matrix(1, 0, 0, 1, 42, 22)"><g clip-path="url(#e1ec999ee3)"><g clip-path="url(#9b2e53a690)"><g fill="#fffc00" fill-opacity="1"><g transform="translate(2.775739, 24.295485)"><g><path d="M -2.128906 -7.886719 C -2.144531 -9.445312 -1.867188 -10.914062 -1.304688 -12.289062 C -0.738281 -13.660156 0.0585938 -14.863281 1.09375 -15.894531 C 2.117188 -16.914062 3.304688 -17.714844 4.660156 -18.296875 C 6.03125 -18.882812 7.507812 -19.183594 9.09375 -19.195312 C 10.464844 -19.207031 11.691406 -19.050781 12.78125 -18.722656 C 13.832031 -18.402344 14.734375 -18.011719 15.480469 -17.542969 C 16.171875 -17.109375 16.722656 -16.703125 17.125 -16.316406 L 19.253906 -14.285156 L 13.59375 -5.144531 L 10.585938 -7.441406 C 10.492188 -7.511719 10.332031 -7.597656 10.09375 -7.703125 C 10.042969 -7.726562 9.96875 -7.738281 9.871094 -7.738281 C 9.847656 -7.738281 9.832031 -7.738281 9.824219 -7.734375 C 9.839844 -7.738281 9.855469 -7.742188 9.875 -7.75 C 9.929688 -7.773438 9.976562 -7.800781 10.007812 -7.835938 C 10.050781 -7.878906 10.085938 -7.933594 10.109375 -7.996094 C 10.117188 -8.019531 10.125 -8.035156 10.125 -8.050781 C 10.125 -8.039062 10.125 -8.019531 10.125 -7.996094 C 10.125 -7.976562 10.125 -7.960938 10.125 -7.957031 C 10.121094 -7.972656 10.117188 -7.988281 10.109375 -8.011719 C 10.085938 -8.070312 10.054688 -8.113281 10.023438 -8.148438 C 9.988281 -8.179688 9.941406 -8.210938 9.882812 -8.230469 C 9.863281 -8.238281 9.84375 -8.246094 9.828125 -8.25 C 9.832031 -8.246094 9.847656 -8.246094 9.867188 -8.246094 C 9.949219 -8.246094 10.011719 -8.257812 10.054688 -8.277344 C 10.316406 -8.40625 10.503906 -8.511719 10.617188 -8.597656 L 13.574219 -10.855469 L 19.363281 -1.863281 L 17.269531 0.203125 C 16.871094 0.59375 16.332031 1.015625 15.644531 1.460938 C 14.90625 1.9375 14.015625 2.347656 12.96875 2.683594 C 11.886719 3.03125 10.660156 3.210938 9.289062 3.222656 C 7.703125 3.238281 6.222656 2.960938 4.839844 2.398438 C 3.476562 1.84375 2.273438 1.0625 1.234375 0.0625 C 0.179688 -0.953125 -0.640625 -2.140625 -1.226562 -3.503906 C -1.816406 -4.867188 -2.117188 -6.328125 -2.128906 -7.886719 Z M 3.800781 -7.941406 C 3.804688 -7.179688 3.945312 -6.484375 4.21875 -5.851562 C 4.492188 -5.21875 4.867188 -4.671875 5.347656 -4.207031 C 5.839844 -3.734375 6.417969 -3.359375 7.078125 -3.089844 C 7.726562 -2.828125 8.445312 -2.699219 9.238281 -2.707031 C 10.007812 -2.714844 10.644531 -2.800781 11.15625 -2.960938 C 11.699219 -3.136719 12.121094 -3.320312 12.414062 -3.511719 C 12.761719 -3.738281 12.992188 -3.90625 13.101562 -4.015625 L 13.484375 -4.390625 L 15.566406 -2.28125 L 13.074219 -0.675781 L 10.324219 -4.945312 L 12.820312 -6.550781 L 14.617188 -4.195312 L 14.214844 -3.886719 C 13.789062 -3.558594 13.261719 -3.246094 12.640625 -2.945312 C 11.800781 -2.535156 10.890625 -2.324219 9.917969 -2.316406 C 9.152344 -2.3125 8.429688 -2.4375 7.753906 -2.699219 C 7.046875 -2.96875 6.417969 -3.378906 5.867188 -3.917969 C 5.316406 -4.460938 4.898438 -5.082031 4.613281 -5.785156 C 4.339844 -6.457031 4.199219 -7.175781 4.195312 -7.941406 C 4.1875 -8.714844 4.3125 -9.441406 4.574219 -10.117188 C 4.847656 -10.835938 5.261719 -11.472656 5.8125 -12.023438 C 6.351562 -12.566406 6.972656 -12.976562 7.675781 -13.257812 C 8.339844 -13.523438 9.058594 -13.660156 9.820312 -13.667969 C 10.777344 -13.675781 11.675781 -13.492188 12.515625 -13.117188 C 13.171875 -12.824219 13.726562 -12.503906 14.183594 -12.15625 L 14.59375 -11.84375 L 12.792969 -9.488281 L 10.273438 -11.046875 L 12.945312 -15.363281 L 15.464844 -13.800781 L 13.417969 -11.65625 L 13.03125 -12.027344 C 12.921875 -12.132812 12.6875 -12.296875 12.335938 -12.515625 C 12.039062 -12.703125 11.613281 -12.878906 11.066406 -13.042969 C 10.554688 -13.199219 9.914062 -13.273438 9.144531 -13.265625 C 8.351562 -13.257812 7.636719 -13.117188 6.996094 -12.84375 C 6.339844 -12.5625 5.769531 -12.179688 5.28125 -11.695312 C 4.808594 -11.226562 4.441406 -10.671875 4.179688 -10.035156 C 3.917969 -9.398438 3.792969 -8.699219 3.800781 -7.941406 Z M 3.800781 -7.941406 "/></g></g></g></g><g fill="#fffc00" fill-opacity="1"><g transform="translate(17.953498, 24.162701)"><g><path d="M 10.054688 -15.902344 L 10.148438 -5.285156 L 7.183594 -5.257812 L 7.15625 -8.222656 L 16.21875 -8.300781 L 16.316406 2.820312 L -1.582031 2.980469 L -1.773438 -18.761719 L 10.027344 -18.867188 Z M 4.125 -15.847656 L 7.089844 -15.875 L 7.117188 -12.910156 L 1.242188 -12.859375 L 1.21875 -15.824219 L 4.183594 -15.847656 L 4.320312 -0.0390625 L 1.355469 -0.0117188 L 1.328125 -2.976562 L 13.300781 -3.082031 L 13.328125 -0.117188 L 10.363281 -0.0898438 L 10.316406 -5.285156 L 13.28125 -5.3125 L 13.308594 -2.347656 L 4.242188 -2.269531 Z M 4.125 -15.847656 "/></g></g></g><g fill="#fffc00" fill-opacity="1"><g transform="translate(30.872648, 24.049676)"><g><path d="M 9.164062 -7.988281 C 9.164062 -8.019531 9.160156 -8.046875 9.160156 -8.0625 C 9.160156 -8.058594 9.164062 -8.046875 9.167969 -8.03125 C 9.191406 -7.972656 9.226562 -7.917969 9.265625 -7.875 C 9.296875 -7.847656 9.34375 -7.816406 9.414062 -7.789062 C 9.5 -7.753906 9.574219 -7.734375 9.644531 -7.738281 C 9.714844 -7.738281 9.792969 -7.757812 9.875 -7.792969 C 9.945312 -7.824219 9.992188 -7.851562 10.023438 -7.882812 C 10.0625 -7.925781 10.09375 -7.980469 10.117188 -8.039062 C 10.125 -8.054688 10.125 -8.066406 10.128906 -8.074219 C 10.125 -8.054688 10.125 -8.027344 10.125 -7.996094 C 10.125 -7.96875 10.125 -7.945312 10.128906 -7.933594 C 10.125 -7.941406 10.121094 -7.953125 10.117188 -7.96875 C 10.097656 -8.023438 10.070312 -8.066406 10.035156 -8.101562 C 10.007812 -8.128906 9.957031 -8.160156 9.886719 -8.1875 C 9.800781 -8.226562 9.71875 -8.246094 9.640625 -8.246094 C 9.566406 -8.246094 9.484375 -8.222656 9.398438 -8.183594 C 9.328125 -8.152344 9.277344 -8.125 9.25 -8.09375 C 9.21875 -8.058594 9.191406 -8.015625 9.171875 -7.960938 C 9.164062 -7.945312 9.160156 -7.933594 9.160156 -7.925781 C 9.164062 -7.9375 9.164062 -7.957031 9.164062 -7.988281 Z M 15.09375 -8.039062 C 15.101562 -7.285156 14.980469 -6.578125 14.738281 -5.914062 C 14.476562 -5.210938 14.089844 -4.585938 13.574219 -4.035156 C 13.058594 -3.488281 12.476562 -3.066406 11.828125 -2.777344 C 11.15625 -2.476562 10.445312 -2.320312 9.691406 -2.316406 C 8.941406 -2.308594 8.226562 -2.449219 7.550781 -2.738281 C 6.894531 -3.019531 6.308594 -3.429688 5.785156 -3.964844 C 5.257812 -4.507812 4.859375 -5.128906 4.585938 -5.824219 C 4.332031 -6.484375 4.199219 -7.191406 4.195312 -7.941406 C 4.1875 -8.703125 4.304688 -9.414062 4.546875 -10.074219 C 4.808594 -10.789062 5.203125 -11.421875 5.730469 -11.976562 C 6.242188 -12.515625 6.824219 -12.925781 7.476562 -13.214844 C 8.140625 -13.507812 8.847656 -13.660156 9.59375 -13.667969 C 10.339844 -13.671875 11.050781 -13.535156 11.71875 -13.253906 C 12.375 -12.976562 12.964844 -12.574219 13.488281 -12.042969 C 14.023438 -11.5 14.429688 -10.875 14.703125 -10.164062 C 14.957031 -9.503906 15.085938 -8.796875 15.09375 -8.039062 Z M 21.417969 -8.09375 C 21.429688 -6.527344 21.148438 -5.054688 20.574219 -3.675781 C 19.996094 -2.296875 19.171875 -1.089844 18.105469 -0.0546875 C 17.050781 0.96875 15.804688 1.765625 14.375 2.339844 C 12.953125 2.910156 11.410156 3.203125 9.742188 3.21875 C 8.074219 3.234375 6.523438 2.96875 5.097656 2.421875 C 3.652344 1.871094 2.394531 1.09375 1.324219 0.0898438 C 0.234375 -0.925781 -0.605469 -2.117188 -1.207031 -3.484375 C -1.808594 -4.855469 -2.117188 -6.324219 -2.128906 -7.886719 C -2.144531 -9.453125 -1.863281 -10.925781 -1.285156 -12.304688 C -0.707031 -13.683594 0.113281 -14.890625 1.183594 -15.925781 C 2.238281 -16.949219 3.480469 -17.746094 4.914062 -18.324219 C 6.332031 -18.894531 7.878906 -19.183594 9.546875 -19.199219 C 11.214844 -19.214844 12.761719 -18.949219 14.191406 -18.402344 C 15.632812 -17.855469 16.890625 -17.078125 17.964844 -16.074219 C 19.050781 -15.058594 19.894531 -13.863281 20.496094 -12.496094 C 21.097656 -11.125 21.402344 -9.660156 21.417969 -8.09375 Z M 15.488281 -8.042969 C 15.480469 -8.796875 15.339844 -9.484375 15.066406 -10.113281 C 14.792969 -10.738281 14.40625 -11.28125 13.914062 -11.742188 C 13.40625 -12.214844 12.796875 -12.589844 12.078125 -12.863281 C 11.347656 -13.144531 10.519531 -13.277344 9.597656 -13.269531 C 8.675781 -13.261719 7.851562 -13.113281 7.125 -12.820312 C 6.410156 -12.535156 5.804688 -12.148438 5.308594 -11.667969 C 4.824219 -11.199219 4.449219 -10.648438 4.183594 -10.015625 C 3.921875 -9.386719 3.792969 -8.695312 3.800781 -7.941406 C 3.804688 -7.1875 3.945312 -6.496094 4.222656 -5.871094 C 4.496094 -5.242188 4.878906 -4.699219 5.375 -4.238281 C 5.878906 -3.765625 6.492188 -3.390625 7.210938 -3.117188 C 7.941406 -2.839844 8.769531 -2.703125 9.691406 -2.710938 C 10.613281 -2.71875 11.4375 -2.867188 12.164062 -3.160156 C 12.875 -3.449219 13.480469 -3.832031 13.980469 -4.3125 C 14.464844 -4.785156 14.839844 -5.335938 15.101562 -5.964844 C 15.367188 -6.597656 15.496094 -7.289062 15.488281 -8.042969 Z M 15.488281 -8.042969 "/></g></g></g><g fill="#fffc00" fill-opacity="1"><g transform="translate(49.438321, 23.887251)"><g><path d="M 16.289062 -8.929688 L 10.695312 -3.007812 L 8.539062 -5.042969 L 8.515625 -8.007812 L 17.351562 -8.085938 L 17.445312 2.8125 L -1.808594 2.980469 L -1.835938 -0.0742188 L -1.890625 -6.148438 L 4.527344 -12.9375 L 6.679688 -10.902344 L 6.707031 -7.9375 L -1.453125 -7.867188 L -1.546875 -18.765625 L 17.03125 -18.925781 L 17.109375 -9.796875 Z M 11.980469 -13.003906 L 14.136719 -10.964844 L 11.171875 -10.941406 L 11.128906 -15.910156 L 14.09375 -15.9375 L 14.117188 -12.972656 L 1.46875 -12.859375 L 1.441406 -15.824219 L 4.40625 -15.851562 L 4.449219 -10.882812 L 1.484375 -10.855469 L 1.460938 -13.820312 L 13.621094 -13.925781 L 3.242188 -2.941406 L 1.085938 -4.980469 L 4.050781 -5.003906 L 4.09375 -0.125 L 4.09375 -0.0351562 L 1.128906 -0.0117188 L 1.101562 -2.976562 L 14.429688 -3.089844 L 14.457031 -0.125 L 11.492188 -0.101562 L 11.449219 -5.070312 L 14.414062 -5.097656 L 14.4375 -2.132812 L 1.601562 -2.019531 Z M 11.980469 -13.003906 "/></g></g></g><g fill="#fffc00" fill-opacity="1"><g transform="translate(64.164357, 23.758418)"><g><path d="M 10.144531 -5.734375 L 10.152344 -4.605469 L 7.1875 -4.582031 L 7.164062 -7.546875 L 16.902344 -7.628906 L 16.996094 2.816406 L -1.582031 2.980469 L -1.773438 -18.761719 L 16.351562 -18.921875 L 16.445312 -8.472656 L 7.15625 -8.390625 L 7.128906 -11.355469 L 10.09375 -11.382812 L 10.105469 -10.253906 L 7.140625 -10.226562 L 7.113281 -13.191406 L 15.949219 -13.269531 L 16.042969 -2.824219 L 7.203125 -2.746094 L 7.179688 -5.710938 Z M 4.1875 -8.648438 L 13.027344 -8.726562 L 13.050781 -5.761719 L 10.085938 -5.734375 L 10.046875 -10.253906 L 13.011719 -10.277344 L 13.039062 -7.3125 L 4.199219 -7.238281 L 4.136719 -14.296875 L 13.429688 -14.378906 L 13.453125 -11.414062 L 10.488281 -11.386719 L 10.449219 -15.902344 L 13.414062 -15.929688 L 13.441406 -12.964844 L 1.242188 -12.859375 L 1.21875 -15.824219 L 4.183594 -15.847656 L 4.320312 -0.0390625 L 1.355469 -0.0117188 L 1.328125 -2.976562 L 13.980469 -3.085938 L 14.003906 -0.121094 L 11.039062 -0.0976562 L 11 -4.613281 L 13.964844 -4.640625 L 13.992188 -1.675781 L 4.25 -1.589844 L 4.214844 -5.683594 Z M 4.1875 -8.648438 "/></g></g></g><g fill="#fffc00" fill-opacity="1"><g transform="translate(77.986958, 23.637489)"><g><path d="M 0.289062 -18.78125 L 17.707031 -18.933594 L 17.804688 -7.808594 L 10.550781 -7.746094 L 10.523438 -10.710938 L 13.488281 -10.734375 L 13.605469 2.847656 L 1.804688 2.949219 L 1.6875 -10.632812 L 4.652344 -10.65625 L 4.675781 -7.691406 L -2.578125 -7.628906 L -2.675781 -18.753906 Z M 0.339844 -12.851562 L 0.3125 -15.816406 L 3.277344 -15.839844 L 3.324219 -10.644531 L 0.359375 -10.621094 L 0.332031 -13.585938 L 7.589844 -13.648438 L 7.707031 -0.0664062 L 4.742188 -0.0429688 L 4.71875 -3.007812 L 10.589844 -3.058594 L 10.617188 -0.09375 L 7.652344 -0.0664062 L 7.53125 -13.648438 L 14.789062 -13.710938 L 14.816406 -10.746094 L 11.851562 -10.722656 L 11.804688 -15.917969 L 14.769531 -15.941406 L 14.796875 -12.976562 Z M 0.339844 -12.851562 "/></g></g></g><g fill="#000000" fill-opacity="1"><g transform="translate(2.775739, 24.295485)"><g><path d="M 0.84375 -7.921875 C 0.832031 -9.078125 1.03125 -10.15625 1.4375 -11.15625 C 1.851562 -12.164062 2.4375 -13.046875 3.1875 -13.796875 C 3.945312 -14.546875 4.828125 -15.132812 5.828125 -15.5625 C 6.835938 -16 7.9375 -16.222656 9.125 -16.234375 C 10.195312 -16.242188 11.128906 -16.125 11.921875 -15.875 C 12.722656 -15.632812 13.382812 -15.351562 13.90625 -15.03125 C 14.4375 -14.707031 14.828125 -14.421875 15.078125 -14.171875 C 15.335938 -13.929688 15.46875 -13.8125 15.46875 -13.8125 L 12.796875 -9.484375 C 12.796875 -9.484375 12.65625 -9.585938 12.375 -9.796875 C 12.101562 -10.015625 11.742188 -10.222656 11.296875 -10.421875 C 10.859375 -10.617188 10.375 -10.71875 9.84375 -10.71875 C 9.0625 -10.707031 8.414062 -10.445312 7.90625 -9.9375 C 7.40625 -9.425781 7.160156 -8.769531 7.171875 -7.96875 C 7.171875 -7.1875 7.425781 -6.539062 7.9375 -6.03125 C 8.457031 -5.53125 9.109375 -5.285156 9.890625 -5.296875 C 10.421875 -5.296875 10.90625 -5.398438 11.34375 -5.609375 C 11.789062 -5.828125 12.144531 -6.035156 12.40625 -6.234375 C 12.675781 -6.441406 12.8125 -6.546875 12.8125 -6.546875 L 15.578125 -2.28125 C 15.578125 -2.28125 15.445312 -2.15625 15.1875 -1.90625 C 14.9375 -1.65625 14.550781 -1.359375 14.03125 -1.015625 C 13.519531 -0.679688 12.863281 -0.382812 12.0625 -0.125 C 11.269531 0.125 10.335938 0.253906 9.265625 0.265625 C 8.078125 0.273438 6.972656 0.078125 5.953125 -0.328125 C 4.941406 -0.742188 4.050781 -1.320312 3.28125 -2.0625 C 2.519531 -2.800781 1.925781 -3.671875 1.5 -4.671875 C 1.070312 -5.679688 0.851562 -6.765625 0.84375 -7.921875 Z M 0.84375 -7.921875 "/></g></g></g><g fill="#000000" fill-opacity="1"><g transform="translate(17.953498, 24.162701)"><g><path d="M 7.09375 -15.875 L 7.1875 -5.265625 L 13.28125 -5.3125 L 13.328125 -0.109375 L 1.359375 -0.015625 L 1.21875 -15.828125 Z M 7.09375 -15.875 "/></g></g></g><g fill="#000000" fill-opacity="1"><g transform="translate(30.872648, 24.049676)"><g><path d="M 12.140625 -8.015625 C 12.128906 -8.816406 11.875 -9.46875 11.375 -9.96875 C 10.882812 -10.46875 10.300781 -10.710938 9.625 -10.703125 C 8.945312 -10.703125 8.363281 -10.445312 7.875 -9.9375 C 7.394531 -9.425781 7.160156 -8.769531 7.171875 -7.96875 C 7.171875 -7.1875 7.414062 -6.539062 7.90625 -6.03125 C 8.40625 -5.53125 8.992188 -5.28125 9.671875 -5.28125 C 10.347656 -5.289062 10.925781 -5.550781 11.40625 -6.0625 C 11.894531 -6.582031 12.140625 -7.234375 12.140625 -8.015625 Z M 18.46875 -8.0625 C 18.476562 -6.90625 18.269531 -5.820312 17.84375 -4.8125 C 17.414062 -3.8125 16.8125 -2.929688 16.03125 -2.171875 C 15.257812 -1.421875 14.335938 -0.832031 13.265625 -0.40625 C 12.191406 0.0195312 11.007812 0.242188 9.71875 0.265625 C 8.414062 0.273438 7.222656 0.0703125 6.140625 -0.34375 C 5.066406 -0.757812 4.132812 -1.332031 3.34375 -2.0625 C 2.550781 -2.800781 1.9375 -3.671875 1.5 -4.671875 C 1.070312 -5.679688 0.851562 -6.765625 0.84375 -7.921875 C 0.832031 -9.078125 1.035156 -10.15625 1.453125 -11.15625 C 1.867188 -12.164062 2.46875 -13.046875 3.25 -13.796875 C 4.03125 -14.554688 4.953125 -15.148438 6.015625 -15.578125 C 7.085938 -16.003906 8.273438 -16.222656 9.578125 -16.234375 C 10.867188 -16.253906 12.054688 -16.054688 13.140625 -15.640625 C 14.222656 -15.222656 15.15625 -14.644531 15.9375 -13.90625 C 16.726562 -13.175781 17.34375 -12.304688 17.78125 -11.296875 C 18.226562 -10.296875 18.457031 -9.21875 18.46875 -8.0625 Z M 18.46875 -8.0625 "/></g></g></g><g fill="#000000" fill-opacity="1"><g transform="translate(49.438321, 23.887251)"><g><path d="M 14.140625 -10.96875 L 8.53125 -5.046875 L 14.40625 -5.09375 L 14.453125 -0.125 L 1.125 -0.015625 L 1.125 -0.109375 L 1.078125 -4.984375 L 6.6875 -10.90625 L 1.484375 -10.859375 L 1.4375 -15.828125 L 14.09375 -15.9375 Z M 14.140625 -10.96875 "/></g></g></g><g fill="#000000" fill-opacity="1"><g transform="translate(64.164357, 23.758418)"><g><path d="M 7.1875 -5.703125 L 7.1875 -4.578125 L 13.96875 -4.640625 L 14.015625 -0.125 L 1.359375 -0.015625 L 1.21875 -15.828125 L 13.421875 -15.9375 L 13.46875 -11.421875 L 7.140625 -11.359375 L 7.140625 -10.234375 L 13.015625 -10.28125 L 13.0625 -5.75 Z M 7.1875 -5.703125 "/></g></g></g><g fill="#000000" fill-opacity="1"><g transform="translate(77.986958, 23.637489)"><g><path d="M 0.3125 -15.8125 L 14.765625 -15.9375 L 14.8125 -10.75 L 10.53125 -10.71875 L 10.625 -0.09375 L 4.75 -0.046875 L 4.65625 -10.671875 L 0.359375 -10.625 Z M 0.3125 -15.8125 "/></g></g></g></g></g><g transform="matrix(1, 0, 0, 1, 48, 22)"><g clip-path="url(#9974fc412b)"><g clip-path="url(#1eec572807)"><g fill="#000000" fill-opacity="1"><g transform="translate(1.074183, 21.985981)"><g><path d="M -0.253906 -7.167969 C -0.265625 -8.359375 -0.0585938 -9.46875 0.367188 -10.507812 C 0.796875 -11.546875 1.398438 -12.453125 2.179688 -13.230469 C 2.953125 -14.003906 3.855469 -14.613281 4.886719 -15.054688 C 5.925781 -15.496094 7.050781 -15.722656 8.261719 -15.734375 C 9.335938 -15.746094 10.285156 -15.625 11.109375 -15.375 C 11.921875 -15.132812 12.601562 -14.835938 13.152344 -14.492188 C 13.683594 -14.160156 14.09375 -13.859375 14.375 -13.585938 L 15.320312 -12.683594 L 11.878906 -7.125 L 10.617188 -8.085938 C 10.433594 -8.226562 10.175781 -8.371094 9.84375 -8.519531 C 9.570312 -8.640625 9.269531 -8.699219 8.941406 -8.695312 C 8.507812 -8.695312 8.15625 -8.558594 7.890625 -8.292969 C 7.628906 -8.03125 7.5 -7.679688 7.503906 -7.238281 C 7.507812 -6.804688 7.644531 -6.457031 7.914062 -6.195312 C 8.183594 -5.929688 8.535156 -5.800781 8.964844 -5.804688 C 9.292969 -5.804688 9.585938 -5.871094 9.851562 -6 C 10.191406 -6.164062 10.457031 -6.320312 10.648438 -6.464844 L 11.886719 -7.410156 L 15.414062 -1.925781 L 14.484375 -1.007812 C 14.207031 -0.734375 13.804688 -0.425781 13.277344 -0.0820312 C 12.734375 0.269531 12.058594 0.578125 11.25 0.835938 C 10.429688 1.101562 9.484375 1.234375 8.414062 1.246094 C 7.199219 1.257812 6.070312 1.046875 5.023438 0.625 C 3.988281 0.199219 3.074219 -0.390625 2.285156 -1.152344 C 1.488281 -1.917969 0.871094 -2.8125 0.425781 -3.84375 C -0.015625 -4.871094 -0.246094 -5.980469 -0.253906 -7.167969 Z M 1.769531 -7.1875 C 1.777344 -6.273438 1.949219 -5.425781 2.285156 -4.644531 C 2.621094 -3.863281 3.089844 -3.183594 3.6875 -2.609375 C 4.289062 -2.027344 4.992188 -1.574219 5.789062 -1.25 C 6.582031 -0.925781 7.449219 -0.769531 8.394531 -0.777344 C 9.261719 -0.785156 10.007812 -0.890625 10.632812 -1.089844 C 11.269531 -1.292969 11.78125 -1.523438 12.175781 -1.777344 C 12.585938 -2.046875 12.882812 -2.269531 13.0625 -2.449219 L 13.410156 -2.789062 L 14.121094 -2.070312 L 13.269531 -1.523438 L 10.777344 -5.394531 L 11.628906 -5.941406 L 12.242188 -5.136719 L 11.875 -4.859375 C 11.578125 -4.628906 11.195312 -4.402344 10.734375 -4.179688 C 10.195312 -3.917969 9.613281 -3.785156 8.984375 -3.78125 C 7.992188 -3.769531 7.164062 -4.09375 6.496094 -4.75 C 5.828125 -5.40625 5.492188 -6.230469 5.480469 -7.21875 C 5.472656 -8.226562 5.800781 -9.058594 6.457031 -9.722656 C 7.113281 -10.378906 7.933594 -10.710938 8.921875 -10.71875 C 9.546875 -10.726562 10.128906 -10.609375 10.667969 -10.367188 C 11.144531 -10.15625 11.539062 -9.929688 11.847656 -9.691406 L 12.21875 -9.410156 L 11.605469 -8.605469 L 10.746094 -9.136719 L 13.167969 -13.050781 L 14.027344 -12.519531 L 13.332031 -11.789062 L 12.980469 -12.121094 C 12.796875 -12.296875 12.496094 -12.515625 12.078125 -12.777344 C 11.683594 -13.023438 11.164062 -13.246094 10.523438 -13.4375 C 9.894531 -13.628906 9.148438 -13.71875 8.28125 -13.710938 C 7.335938 -13.703125 6.472656 -13.53125 5.683594 -13.195312 C 4.890625 -12.855469 4.199219 -12.390625 3.605469 -11.796875 C 3.019531 -11.210938 2.5625 -10.527344 2.242188 -9.738281 C 1.917969 -8.953125 1.761719 -8.101562 1.769531 -7.1875 Z M 1.769531 -7.1875 "/></g></g></g></g><g fill="#000000" fill-opacity="1"><g transform="translate(14.841849, 21.865533)"><g><path d="M 7.441406 -14.410156 L 7.527344 -4.777344 L 6.515625 -4.769531 L 6.507812 -5.78125 L 13.050781 -5.839844 L 13.109375 0.898438 L 0.226562 1.011719 L 0.0820312 -15.355469 L 7.433594 -15.421875 Z M 5.417969 -14.390625 L 6.429688 -14.398438 L 6.441406 -13.386719 L 1.113281 -13.339844 L 1.105469 -14.351562 L 2.117188 -14.363281 L 2.242188 -0.0195312 L 1.230469 -0.0117188 L 1.21875 -1.023438 L 12.078125 -1.117188 L 12.089844 -0.105469 L 11.078125 -0.0976562 L 11.035156 -4.808594 L 12.046875 -4.816406 L 12.054688 -3.804688 L 5.511719 -3.75 Z M 5.417969 -14.390625 "/></g></g></g><g fill="#000000" fill-opacity="1"><g transform="translate(26.560742, 21.763009)"><g><path d="M 9.988281 -7.257812 C 9.984375 -7.710938 9.855469 -8.066406 9.601562 -8.324219 C 9.351562 -8.574219 9.0625 -8.699219 8.734375 -8.695312 C 8.40625 -8.691406 8.121094 -8.5625 7.875 -8.308594 C 7.625 -8.046875 7.5 -7.6875 7.503906 -7.238281 C 7.507812 -6.796875 7.640625 -6.445312 7.902344 -6.179688 C 8.148438 -5.925781 8.433594 -5.796875 8.761719 -5.800781 C 9.085938 -5.804688 9.371094 -5.933594 9.613281 -6.191406 C 9.867188 -6.464844 9.992188 -6.820312 9.988281 -7.257812 Z M 12.011719 -7.277344 C 12.023438 -6.296875 11.714844 -5.472656 11.089844 -4.808594 C 10.453125 -4.128906 9.679688 -3.785156 8.777344 -3.777344 C 7.875 -3.769531 7.097656 -4.101562 6.449219 -4.765625 C 5.8125 -5.421875 5.492188 -6.238281 5.480469 -7.21875 C 5.472656 -8.21875 5.785156 -9.046875 6.410156 -9.703125 C 7.046875 -10.371094 7.816406 -10.710938 8.71875 -10.71875 C 9.617188 -10.726562 10.390625 -10.402344 11.039062 -9.746094 C 11.679688 -9.097656 12.003906 -8.273438 12.011719 -7.277344 Z M 17.75 -7.328125 C 17.761719 -6.136719 17.546875 -5.023438 17.113281 -3.984375 C 16.679688 -2.941406 16.058594 -2.035156 15.253906 -1.253906 C 14.457031 -0.480469 13.507812 0.125 12.414062 0.566406 C 11.320312 1.003906 10.125 1.230469 8.820312 1.242188 C 7.519531 1.253906 6.320312 1.050781 5.21875 0.628906 C 4.117188 0.207031 3.160156 -0.382812 2.34375 -1.140625 C 1.527344 -1.90625 0.894531 -2.804688 0.441406 -3.835938 C -0.0117188 -4.867188 -0.246094 -5.980469 -0.253906 -7.167969 C -0.265625 -8.359375 -0.0546875 -9.476562 0.382812 -10.515625 C 0.816406 -11.554688 1.4375 -12.464844 2.238281 -13.242188 C 3.039062 -14.015625 3.988281 -14.625 5.082031 -15.0625 C 6.175781 -15.503906 7.371094 -15.726562 8.671875 -15.738281 C 9.976562 -15.75 11.175781 -15.546875 12.273438 -15.125 C 13.378906 -14.707031 14.335938 -14.113281 15.148438 -13.355469 C 15.96875 -12.589844 16.601562 -11.691406 17.054688 -10.660156 C 17.507812 -9.628906 17.738281 -8.515625 17.75 -7.328125 Z M 15.726562 -7.308594 C 15.71875 -8.222656 15.542969 -9.070312 15.203125 -9.847656 C 14.859375 -10.625 14.382812 -11.300781 13.765625 -11.875 C 13.148438 -12.457031 12.410156 -12.910156 11.554688 -13.234375 C 10.691406 -13.566406 9.738281 -13.722656 8.691406 -13.714844 C 7.644531 -13.707031 6.691406 -13.53125 5.835938 -13.1875 C 4.988281 -12.84375 4.257812 -12.378906 3.648438 -11.789062 C 3.042969 -11.203125 2.578125 -10.515625 2.25 -9.734375 C 1.921875 -8.949219 1.761719 -8.101562 1.769531 -7.1875 C 1.777344 -6.273438 1.953125 -5.429688 2.292969 -4.648438 C 2.632812 -3.871094 3.113281 -3.195312 3.726562 -2.621094 C 4.347656 -2.039062 5.085938 -1.585938 5.941406 -1.261719 C 6.800781 -0.933594 7.757812 -0.773438 8.804688 -0.78125 C 9.851562 -0.789062 10.804688 -0.96875 11.65625 -1.308594 C 12.507812 -1.652344 13.238281 -2.117188 13.847656 -2.707031 C 14.453125 -3.292969 14.917969 -3.980469 15.246094 -4.761719 C 15.574219 -5.546875 15.734375 -6.394531 15.726562 -7.308594 Z M 15.726562 -7.308594 "/></g></g></g><g fill="#000000" fill-opacity="1"><g transform="translate(43.401566, 21.615674)"><g><path d="M 13.558594 -9.253906 L 8.480469 -3.882812 L 7.746094 -4.574219 L 7.738281 -5.585938 L 14.078125 -5.644531 L 14.132812 0.886719 L 0.0234375 1.011719 L 0.0117188 -0.0820312 L -0.03125 -4.914062 L 5.324219 -10.582031 L 6.0625 -9.890625 L 6.070312 -8.878906 L 0.34375 -8.828125 L 0.289062 -15.359375 L 13.785156 -15.476562 L 13.835938 -9.550781 Z M 12.085938 -10.644531 L 12.824219 -9.949219 L 11.8125 -9.9375 L 11.769531 -14.445312 L 12.78125 -14.457031 L 12.792969 -13.445312 L 1.316406 -13.34375 L 1.308594 -14.355469 L 2.320312 -14.363281 L 2.359375 -9.855469 L 1.347656 -9.847656 L 1.339844 -10.859375 L 8.429688 -10.921875 L 1.71875 -3.820312 L 0.984375 -4.515625 L 1.996094 -4.527344 L 2.035156 -0.101562 L 2.035156 -0.0195312 L 1.023438 -0.0078125 L 1.015625 -1.019531 L 13.105469 -1.125 L 13.113281 -0.113281 L 12.101562 -0.105469 L 12.0625 -4.613281 L 13.074219 -4.621094 L 13.082031 -3.609375 L 5.378906 -3.542969 Z M 12.085938 -10.644531 "/></g></g></g><g fill="#000000" fill-opacity="1"><g transform="translate(56.759475, 21.498811)"><g><path d="M 7.523438 -5.1875 L 7.53125 -4.164062 L 6.519531 -4.15625 L 6.511719 -5.167969 L 13.671875 -5.230469 L 13.722656 0.890625 L 0.226562 1.011719 L 0.0820312 -15.355469 L 13.171875 -15.46875 L 13.222656 -9.347656 L 6.476562 -9.289062 L 6.46875 -10.300781 L 7.480469 -10.3125 L 7.488281 -9.285156 L 6.476562 -9.277344 L 6.46875 -10.289062 L 12.804688 -10.34375 L 12.859375 -4.222656 L 6.519531 -4.167969 L 6.511719 -5.179688 Z M 5.492188 -6.183594 L 11.832031 -6.238281 L 11.839844 -5.226562 L 10.828125 -5.21875 L 10.792969 -9.316406 L 11.804688 -9.324219 L 11.8125 -8.3125 L 5.472656 -8.257812 L 5.445312 -11.304688 L 12.195312 -11.363281 L 12.203125 -10.351562 L 11.191406 -10.34375 L 11.15625 -14.441406 L 12.167969 -14.449219 L 12.175781 -13.4375 L 1.113281 -13.339844 L 1.105469 -14.351562 L 2.117188 -14.363281 L 2.242188 -0.0195312 L 1.230469 -0.0117188 L 1.21875 -1.023438 L 12.695312 -1.121094 L 12.703125 -0.109375 L 11.691406 -0.101562 L 11.65625 -4.199219 L 12.667969 -4.210938 L 12.675781 -3.199219 L 5.519531 -3.132812 L 5.5 -5.171875 Z M 5.492188 -6.183594 "/></g></g></g><g fill="#000000" fill-opacity="1"><g transform="translate(69.297884, 21.389117)"><g><path d="M 0.277344 -15.359375 L 14.398438 -15.480469 L 14.460938 -8.746094 L 9.554688 -8.703125 L 9.546875 -9.714844 L 10.558594 -9.722656 L 10.652344 0.917969 L 3.300781 0.984375 L 3.207031 -9.660156 L 4.21875 -9.667969 L 4.226562 -8.65625 L -0.675781 -8.613281 L -0.734375 -15.347656 Z M 0.292969 -13.335938 L 0.285156 -14.347656 L 1.296875 -14.355469 L 1.335938 -9.640625 L 0.324219 -9.632812 L 0.316406 -10.644531 L 5.222656 -10.6875 L 5.316406 -0.046875 L 4.304688 -0.0390625 L 4.292969 -1.050781 L 9.621094 -1.097656 L 9.628906 -0.0859375 L 8.617188 -0.0742188 L 8.523438 -10.71875 L 13.429688 -10.761719 L 13.4375 -9.75 L 12.425781 -9.738281 L 12.386719 -14.453125 L 13.398438 -14.460938 L 13.40625 -13.449219 Z M 0.292969 -13.335938 "/></g></g></g><g fill="#ffffff" fill-opacity="1"><g transform="translate(1.074183, 21.985981)"><g><path d="M 0.75 -7.171875 C 0.738281 -8.222656 0.921875 -9.203125 1.296875 -10.109375 C 1.679688 -11.023438 2.210938 -11.820312 2.890625 -12.5 C 3.566406 -13.1875 4.363281 -13.722656 5.28125 -14.109375 C 6.195312 -14.503906 7.195312 -14.707031 8.28125 -14.71875 C 9.25 -14.726562 10.09375 -14.625 10.8125 -14.40625 C 11.539062 -14.1875 12.140625 -13.925781 12.609375 -13.625 C 13.085938 -13.332031 13.441406 -13.070312 13.671875 -12.84375 C 13.910156 -12.625 14.03125 -12.515625 14.03125 -12.515625 L 11.59375 -8.609375 C 11.59375 -8.609375 11.46875 -8.703125 11.21875 -8.890625 C 10.976562 -9.078125 10.65625 -9.257812 10.25 -9.4375 C 9.851562 -9.613281 9.414062 -9.703125 8.9375 -9.703125 C 8.226562 -9.691406 7.640625 -9.457031 7.171875 -9 C 6.710938 -8.539062 6.488281 -7.953125 6.5 -7.234375 C 6.507812 -6.523438 6.742188 -5.9375 7.203125 -5.46875 C 7.671875 -5.007812 8.257812 -4.785156 8.96875 -4.796875 C 9.445312 -4.796875 9.882812 -4.890625 10.28125 -5.078125 C 10.6875 -5.273438 11.007812 -5.46875 11.25 -5.65625 C 11.5 -5.851562 11.625 -5.953125 11.625 -5.953125 L 14.125 -2.078125 C 14.125 -2.078125 14.003906 -1.960938 13.765625 -1.734375 C 13.535156 -1.503906 13.1875 -1.238281 12.71875 -0.9375 C 12.257812 -0.632812 11.664062 -0.363281 10.9375 -0.125 C 10.21875 0.101562 9.375 0.222656 8.40625 0.234375 C 7.320312 0.242188 6.320312 0.0625 5.40625 -0.3125 C 4.488281 -0.6875 3.679688 -1.207031 2.984375 -1.875 C 2.285156 -2.550781 1.738281 -3.335938 1.34375 -4.234375 C 0.957031 -5.140625 0.757812 -6.117188 0.75 -7.171875 Z M 0.75 -7.171875 "/></g></g></g><g fill="#ffffff" fill-opacity="1"><g transform="translate(14.841849, 21.865533)"><g><path d="M 6.4375 -14.40625 L 6.515625 -4.78125 L 12.03125 -4.828125 L 12.078125 -0.109375 L 1.234375 -0.015625 L 1.109375 -14.359375 Z M 6.4375 -14.40625 "/></g></g></g><g fill="#ffffff" fill-opacity="1"><g transform="translate(26.560742, 21.763009)"><g><path d="M 11 -7.265625 C 10.988281 -7.984375 10.757812 -8.566406 10.3125 -9.015625 C 9.875 -9.472656 9.347656 -9.703125 8.734375 -9.703125 C 8.117188 -9.691406 7.585938 -9.457031 7.140625 -9 C 6.703125 -8.539062 6.488281 -7.953125 6.5 -7.234375 C 6.507812 -6.523438 6.734375 -5.9375 7.171875 -5.46875 C 7.617188 -5.007812 8.148438 -4.785156 8.765625 -4.796875 C 9.378906 -4.796875 9.90625 -5.03125 10.34375 -5.5 C 10.789062 -5.96875 11.007812 -6.554688 11 -7.265625 Z M 16.734375 -7.3125 C 16.742188 -6.257812 16.554688 -5.28125 16.171875 -4.375 C 15.785156 -3.46875 15.242188 -2.671875 14.546875 -1.984375 C 13.847656 -1.304688 13.007812 -0.769531 12.03125 -0.375 C 11.050781 0.0195312 9.976562 0.222656 8.8125 0.234375 C 7.632812 0.242188 6.554688 0.0625 5.578125 -0.3125 C 4.609375 -0.6875 3.757812 -1.207031 3.03125 -1.875 C 2.3125 -2.550781 1.753906 -3.335938 1.359375 -4.234375 C 0.960938 -5.140625 0.757812 -6.117188 0.75 -7.171875 C 0.738281 -8.222656 0.925781 -9.203125 1.3125 -10.109375 C 1.695312 -11.023438 2.238281 -11.820312 2.9375 -12.5 C 3.644531 -13.1875 4.484375 -13.722656 5.453125 -14.109375 C 6.429688 -14.503906 7.507812 -14.707031 8.6875 -14.71875 C 9.851562 -14.726562 10.925781 -14.546875 11.90625 -14.171875 C 12.882812 -13.804688 13.734375 -13.285156 14.453125 -12.609375 C 15.171875 -11.941406 15.726562 -11.15625 16.125 -10.25 C 16.519531 -9.34375 16.722656 -8.363281 16.734375 -7.3125 Z M 16.734375 -7.3125 "/></g></g></g><g fill="#ffffff" fill-opacity="1"><g transform="translate(43.401566, 21.615674)"><g><path d="M 12.828125 -9.9375 L 7.734375 -4.5625 L 13.0625 -4.609375 L 13.109375 -0.109375 L 1.03125 -0.015625 L 1.03125 -0.09375 L 0.984375 -4.515625 L 6.0625 -9.875 L 1.359375 -9.84375 L 1.3125 -14.359375 L 12.78125 -14.453125 Z M 12.828125 -9.9375 "/></g></g></g><g fill="#ffffff" fill-opacity="1"><g transform="translate(56.759475, 21.498811)"><g><path d="M 6.515625 -5.1875 L 6.53125 -4.15625 L 12.671875 -4.203125 L 12.703125 -0.109375 L 1.234375 -0.015625 L 1.109375 -14.359375 L 12.171875 -14.453125 L 12.203125 -10.359375 L 6.46875 -10.3125 L 6.484375 -9.28125 L 11.796875 -9.328125 L 11.828125 -5.234375 Z M 6.515625 -5.1875 "/></g></g></g><g fill="#ffffff" fill-opacity="1"><g transform="translate(69.297884, 21.389117)"><g><path d="M 0.28125 -14.34375 L 13.390625 -14.46875 L 13.4375 -9.75 L 9.546875 -9.703125 L 9.625 -0.078125 L 4.296875 -0.03125 L 4.21875 -9.65625 L 0.328125 -9.625 Z M 0.28125 -14.34375 "/></g></g></g></g></g><g clip-path="url(#9cfb21e261)"><g clip-path="url(#4075bf2f02)"><g clip-path="url(#6f19a9289f)"><g transform="matrix(1, 0, 0, 1, 117, 44)"><g clip-path="url(#31678ccd5f)"><g clip-path="url(#72b47ee067)"><g clip-path="url(#c5ac73c9b9)"><g clip-path="url(#b5e1d31b93)"><path fill="#00bf63" d="M 0.59375 1.730469 L 23.339844 0.800781 L 23.671875 8.96875 L 0.929688 9.898438 Z M 0.59375 1.730469 " fill-opacity="1" fill-rule="nonzero"/></g></g></g></g></g></g></g></g><g clip-path="url(#a811c18271)"><g clip-path="url(#21802c7876)"><g clip-path="url(#9511457053)"><g clip-path="url(#a97cd28f84)"><path stroke-linecap="butt" transform="matrix(0.749376, -0.0305779, 0.0305779, 0.749376, 117.600786, 45.730495)" fill="none" stroke-linejoin="miter" d="M 5.443146 -0.00207572 L 24.896764 -0.000607839 C 26.340609 0.000968049 27.724668 0.573498 28.746363 1.595169 C 29.768059 2.616841 30.342321 4.000779 30.340745 5.444624 C 30.344373 6.888681 29.766639 8.272528 28.750172 9.294436 C 27.728501 10.316131 26.339358 10.890181 24.895513 10.888605 L 5.446887 10.892553 C 4.003042 10.890978 2.61378 10.318235 1.597288 9.296776 C 0.575592 8.275105 0.00133029 6.891166 -0.00229782 5.447109 C -0.000721935 4.003264 0.57202 2.614002 1.593692 1.592306 C 2.615151 0.575814 3.999089 0.00155239 5.443146 -0.00207572 Z M 5.443146 -0.00207572 " stroke="#00bf63" stroke-width="2" stroke-opacity="1" stroke-miterlimit="4"/></g></g></g></g><g clip-path="url(#2cf62533cc)"><g clip-path="url(#45b3159d6b)"><g fill="#fffc00" fill-opacity="1"><g transform="translate(120.131538, 50.130972)"><g><path d="M 0.109375 -2.625 L 2.046875 -2.703125 L 2.078125 -1.875 L 1.109375 -1.828125 L 1.125 -1.53125 L 1.90625 -1.5625 L 1.9375 -0.828125 L 1.15625 -0.796875 L 1.1875 -0.046875 L 0.21875 -0.015625 Z M 0.109375 -2.625 "/></g></g></g></g></g><g clip-path="url(#b07d44e39d)"><g clip-path="url(#df440bb512)"><g fill="#fffc00" fill-opacity="1"><g transform="translate(122.351526, 50.040386)"><g><path d="M 1.953125 -2.6875 C 1.953125 -2.675781 1.960938 -2.632812 1.984375 -2.5625 C 2.015625 -2.5 2.050781 -2.40625 2.09375 -2.28125 C 2.132812 -2.15625 2.179688 -2.015625 2.234375 -1.859375 C 2.285156 -1.710938 2.335938 -1.554688 2.390625 -1.390625 C 2.441406 -1.234375 2.492188 -1.078125 2.546875 -0.921875 C 2.597656 -0.773438 2.644531 -0.640625 2.6875 -0.515625 C 2.726562 -0.390625 2.757812 -0.289062 2.78125 -0.21875 C 2.8125 -0.144531 2.828125 -0.109375 2.828125 -0.109375 L 1.75 -0.078125 L 1.65625 -0.4375 L 1.171875 -0.421875 L 1.109375 -0.046875 L 0.03125 0 L 0.6875 -2.640625 Z M 1.25 -1.015625 L 1.515625 -1.03125 L 1.375 -1.703125 Z M 1.25 -1.015625 "/></g></g></g></g></g><g clip-path="url(#55b382a8f6)"><g clip-path="url(#2f9e93fa2c)"><g fill="#fffc00" fill-opacity="1"><g transform="translate(125.200508, 49.924135)"><g><path d="M 0.984375 -0.75 C 1.035156 -0.75 1.070312 -0.757812 1.09375 -0.78125 C 1.125 -0.8125 1.140625 -0.835938 1.140625 -0.859375 C 1.140625 -0.890625 1.113281 -0.914062 1.0625 -0.9375 C 1.019531 -0.96875 0.957031 -0.992188 0.875 -1.015625 C 0.789062 -1.035156 0.707031 -1.0625 0.625 -1.09375 C 0.539062 -1.132812 0.457031 -1.1875 0.375 -1.25 C 0.300781 -1.3125 0.238281 -1.390625 0.1875 -1.484375 C 0.132812 -1.578125 0.101562 -1.691406 0.09375 -1.828125 C 0.09375 -1.960938 0.128906 -2.097656 0.203125 -2.234375 C 0.285156 -2.367188 0.40625 -2.476562 0.5625 -2.5625 C 0.71875 -2.644531 0.90625 -2.691406 1.125 -2.703125 C 1.289062 -2.710938 1.4375 -2.695312 1.5625 -2.65625 C 1.6875 -2.625 1.789062 -2.582031 1.875 -2.53125 C 1.96875 -2.488281 2.035156 -2.445312 2.078125 -2.40625 C 2.117188 -2.363281 2.140625 -2.34375 2.140625 -2.34375 L 1.8125 -1.765625 C 1.8125 -1.765625 1.785156 -1.78125 1.734375 -1.8125 C 1.691406 -1.851562 1.632812 -1.882812 1.5625 -1.90625 C 1.488281 -1.9375 1.40625 -1.953125 1.3125 -1.953125 C 1.269531 -1.941406 1.234375 -1.925781 1.203125 -1.90625 C 1.179688 -1.882812 1.171875 -1.859375 1.171875 -1.828125 C 1.171875 -1.796875 1.195312 -1.769531 1.25 -1.75 C 1.300781 -1.738281 1.363281 -1.71875 1.4375 -1.6875 C 1.519531 -1.65625 1.601562 -1.617188 1.6875 -1.578125 C 1.769531 -1.546875 1.851562 -1.5 1.9375 -1.4375 C 2.019531 -1.382812 2.082031 -1.3125 2.125 -1.21875 C 2.175781 -1.125 2.207031 -1.007812 2.21875 -0.875 C 2.226562 -0.726562 2.191406 -0.585938 2.109375 -0.453125 C 2.023438 -0.328125 1.90625 -0.21875 1.75 -0.125 C 1.59375 -0.0390625 1.40625 0.00390625 1.1875 0.015625 C 0.988281 0.0234375 0.816406 0.0078125 0.671875 -0.03125 C 0.523438 -0.0703125 0.398438 -0.117188 0.296875 -0.171875 C 0.203125 -0.222656 0.128906 -0.269531 0.078125 -0.3125 C 0.0351562 -0.363281 0.015625 -0.390625 0.015625 -0.390625 L 0.359375 -0.96875 C 0.359375 -0.96875 0.375 -0.953125 0.40625 -0.921875 C 0.4375 -0.898438 0.476562 -0.875 0.53125 -0.84375 C 0.59375 -0.820312 0.660156 -0.796875 0.734375 -0.765625 C 0.816406 -0.742188 0.898438 -0.738281 0.984375 -0.75 Z M 0.984375 -0.75 "/></g></g></g></g></g><g clip-path="url(#1e1a024d1f)"><g clip-path="url(#391e452f21)"><g fill="#fffc00" fill-opacity="1"><g transform="translate(127.512991, 49.829776)"><g><path d="M 1.078125 -2.65625 L 1.125 -1.75 L 1.71875 -1.78125 L 1.671875 -2.6875 L 2.640625 -2.71875 L 2.75 -0.109375 L 1.78125 -0.078125 L 1.75 -0.96875 L 1.15625 -0.9375 L 1.1875 -0.046875 L 0.21875 -0.015625 L 0.109375 -2.625 Z M 1.078125 -2.65625 "/></g></g></g></g></g><g clip-path="url(#ff31dfd4a1)"><g clip-path="url(#c21d6b98d3)"><g fill="#fffc00" fill-opacity="1"><g transform="translate(130.472979, 49.708995)"><g><path d="M 1.078125 -2.65625 L 1.1875 -0.046875 L 0.21875 -0.015625 L 0.109375 -2.625 Z M 1.078125 -2.65625 "/></g></g></g></g></g><g clip-path="url(#ede82c9808)"><g clip-path="url(#cf31e2f9b0)"><g fill="#fffc00" fill-opacity="1"><g transform="translate(131.878975, 49.651624)"><g><path d="M 1.96875 -1.375 C 1.957031 -1.507812 1.90625 -1.617188 1.8125 -1.703125 C 1.726562 -1.785156 1.628906 -1.820312 1.515625 -1.8125 C 1.410156 -1.8125 1.316406 -1.765625 1.234375 -1.671875 C 1.160156 -1.585938 1.128906 -1.476562 1.140625 -1.34375 C 1.140625 -1.21875 1.179688 -1.113281 1.265625 -1.03125 C 1.359375 -0.957031 1.457031 -0.921875 1.5625 -0.921875 C 1.675781 -0.929688 1.769531 -0.976562 1.84375 -1.0625 C 1.925781 -1.144531 1.96875 -1.25 1.96875 -1.375 Z M 3 -1.421875 C 3 -1.234375 2.96875 -1.050781 2.90625 -0.875 C 2.851562 -0.707031 2.765625 -0.5625 2.640625 -0.4375 C 2.515625 -0.3125 2.363281 -0.207031 2.1875 -0.125 C 2.007812 -0.0507812 1.8125 -0.0078125 1.59375 0 C 1.382812 0.0078125 1.191406 -0.015625 1.015625 -0.078125 C 0.835938 -0.148438 0.679688 -0.242188 0.546875 -0.359375 C 0.410156 -0.472656 0.300781 -0.609375 0.21875 -0.765625 C 0.144531 -0.929688 0.109375 -1.109375 0.109375 -1.296875 C 0.0976562 -1.492188 0.125 -1.675781 0.1875 -1.84375 C 0.25 -2.007812 0.34375 -2.15625 0.46875 -2.28125 C 0.59375 -2.414062 0.738281 -2.519531 0.90625 -2.59375 C 1.082031 -2.664062 1.273438 -2.707031 1.484375 -2.71875 C 1.703125 -2.726562 1.898438 -2.703125 2.078125 -2.640625 C 2.265625 -2.578125 2.425781 -2.484375 2.5625 -2.359375 C 2.695312 -2.242188 2.800781 -2.109375 2.875 -1.953125 C 2.945312 -1.796875 2.988281 -1.617188 3 -1.421875 Z M 3 -1.421875 "/></g></g></g></g></g><g clip-path="url(#a82c05e94e)"><g clip-path="url(#4c619297a7)"><g fill="#fffc00" fill-opacity="1"><g transform="translate(135.060954, 49.521786)"><g><path d="M 1.828125 -0.078125 L 1.140625 -1.203125 L 1.1875 -0.046875 L 0.21875 -0.015625 L 0.109375 -2.625 L 1.1875 -2.65625 L 1.875 -1.53125 L 1.828125 -2.6875 L 2.796875 -2.734375 L 2.90625 -0.125 Z M 1.828125 -0.078125 "/></g></g></g></g></g></svg>