<svg xmlns="http://www.w3.org/2000/svg" xmlns:xlink="http://www.w3.org/1999/xlink" width="240" zoomAndPan="magnify" viewBox="0 0 180 74.999997" height="100" preserveAspectRatio="xMidYMid meet" version="1.0"><defs><g/><clipPath id="674b37a8dc"><path d="M 43.132812 27.886719 L 59.632812 27.886719 L 59.632812 44.386719 L 43.132812 44.386719 Z M 43.132812 27.886719 " clip-rule="nonzero"/></clipPath><clipPath id="e24871bd02"><path d="M 0.4375 1.191406 L 16.632812 1.191406 L 16.632812 17.386719 L 0.4375 17.386719 Z M 0.4375 1.191406 " clip-rule="nonzero"/></clipPath><clipPath id="69737e2fdc"><rect x="0" width="17" y="0" height="18"/></clipPath><clipPath id="c9cbbe3015"><path d="M 54.730469 39.484375 L 59.980469 39.484375 L 59.980469 44.734375 L 54.730469 44.734375 Z M 54.730469 39.484375 " clip-rule="nonzero"/></clipPath><clipPath id="e9b25ce0e4"><rect x="0" width="67" y="0" height="31"/></clipPath></defs><g clip-path="url(#674b37a8dc)"><g transform="matrix(1, 0, 0, 1, 43, 27)"><g clip-path="url(#69737e2fdc)"><g clip-path="url(#e24871bd02)"><path fill="#bbef44" d="M 0.132812 17.691406 C 9.414062 17.691406 16.9375 10.167969 16.9375 0.886719 L 0.132812 0.886719 Z M 0.132812 17.691406 " fill-opacity="1" fill-rule="nonzero"/></g></g></g></g><g clip-path="url(#c9cbbe3015)"><path fill="#bbef44" d="M 59.945312 39.484375 C 57.066406 39.484375 54.730469 41.820312 54.730469 44.699219 L 59.945312 44.699219 Z M 59.945312 39.484375 " fill-opacity="1" fill-rule="nonzero"/></g><g transform="matrix(1, 0, 0, 1, 65, 22)"><g clip-path="url(#e9b25ce0e4)"><g fill="#000000" fill-opacity="1"><g transform="translate(0.242425, 22.441478)"><g><path d="M 1.6875 0 L 1.6875 -14.078125 L 4.890625 -14.078125 L 4.890625 -8.671875 L 6.09375 -8.671875 C 6.882812 -8.671875 7.460938 -8.796875 7.828125 -9.046875 C 8.203125 -9.304688 8.507812 -9.765625 8.75 -10.421875 L 10.078125 -14.078125 L 13.53125 -14.078125 L 11.578125 -9.0625 C 11.410156 -8.613281 11.210938 -8.207031 10.984375 -7.84375 C 10.765625 -7.476562 10.515625 -7.160156 10.234375 -6.890625 L 14.03125 0 L 10.3125 0 L 7.296875 -5.71875 C 7.179688 -5.695312 7.066406 -5.6875 6.953125 -5.6875 C 6.835938 -5.6875 6.710938 -5.6875 6.578125 -5.6875 L 4.890625 -5.6875 L 4.890625 0 Z M 1.6875 0 "/></g></g></g><g fill="#000000" fill-opacity="1"><g transform="translate(13.449646, 22.441478)"><g><path d="M 1.6875 0 L 1.6875 -14.078125 L 4.890625 -14.078125 L 4.890625 -3 L 11.046875 -3 L 11.046875 0 Z M 1.6875 0 "/></g></g></g><g fill="#000000" fill-opacity="1"><g transform="translate(23.621387, 22.441478)"><g><path d="M 1.6875 0 L 1.6875 -14.078125 L 4.890625 -14.078125 L 4.890625 0 Z M 1.6875 0 "/></g></g></g><g fill="#000000" fill-opacity="1"><g transform="translate(28.787603, 22.441478)"><g><path d="M 6.59375 0.28125 C 5.414062 0.28125 4.398438 0.0859375 3.546875 -0.296875 C 2.691406 -0.691406 2.035156 -1.242188 1.578125 -1.953125 C 1.117188 -2.671875 0.890625 -3.515625 0.890625 -4.484375 L 4.015625 -4.484375 C 4.015625 -3.816406 4.242188 -3.296875 4.703125 -2.921875 C 5.171875 -2.546875 5.796875 -2.359375 6.578125 -2.359375 C 7.242188 -2.359375 7.769531 -2.488281 8.15625 -2.75 C 8.550781 -3.007812 8.75 -3.375 8.75 -3.84375 C 8.75 -4.332031 8.515625 -4.734375 8.046875 -5.046875 C 7.578125 -5.359375 6.847656 -5.617188 5.859375 -5.828125 C 4.203125 -6.179688 2.976562 -6.710938 2.1875 -7.421875 C 1.394531 -8.128906 1 -9.054688 1 -10.203125 C 1 -11.484375 1.46875 -12.492188 2.40625 -13.234375 C 3.351562 -13.984375 4.632812 -14.359375 6.25 -14.359375 C 7.363281 -14.359375 8.328125 -14.164062 9.140625 -13.78125 C 9.960938 -13.40625 10.597656 -12.867188 11.046875 -12.171875 C 11.492188 -11.484375 11.71875 -10.664062 11.71875 -9.71875 L 8.640625 -9.71875 C 8.640625 -10.34375 8.429688 -10.835938 8.015625 -11.203125 C 7.609375 -11.566406 7.035156 -11.75 6.296875 -11.75 C 5.617188 -11.75 5.085938 -11.613281 4.703125 -11.34375 C 4.316406 -11.082031 4.125 -10.71875 4.125 -10.25 C 4.125 -9.820312 4.335938 -9.460938 4.765625 -9.171875 C 5.191406 -8.878906 5.941406 -8.601562 7.015625 -8.34375 C 8.773438 -7.925781 10.039062 -7.367188 10.8125 -6.671875 C 11.59375 -5.972656 11.984375 -5.070312 11.984375 -3.96875 C 11.984375 -2.632812 11.503906 -1.59375 10.546875 -0.84375 C 9.585938 -0.09375 8.269531 0.28125 6.59375 0.28125 Z M 6.59375 0.28125 "/></g></g></g><g fill="#000000" fill-opacity="1"><g transform="translate(40.266008, 22.441478)"><g><path d="M 0.1875 0 L 5.765625 -14.078125 L 8.90625 -14.078125 L 14.5 0 L 11.078125 0 L 10.140625 -2.4375 L 4.546875 -2.4375 L 3.59375 0 Z M 5.375 -4.953125 L 9.328125 -4.953125 L 7.34375 -10.09375 Z M 5.375 -4.953125 "/></g></g></g><g fill="#000000" fill-opacity="1"><g transform="translate(53.533536, 22.441478)"><g><path d="M 1.6875 0 L 1.6875 -14.078125 L 7.703125 -14.078125 C 8.773438 -14.078125 9.707031 -13.878906 10.5 -13.484375 C 11.289062 -13.097656 11.898438 -12.539062 12.328125 -11.8125 C 12.753906 -11.09375 12.96875 -10.234375 12.96875 -9.234375 C 12.96875 -8.203125 12.734375 -7.3125 12.265625 -6.5625 C 11.796875 -5.820312 11.140625 -5.265625 10.296875 -4.890625 L 13.21875 0 L 9.515625 0 L 7 -4.390625 L 4.890625 -4.390625 L 4.890625 0 Z M 4.84375 -7.078125 L 7.28125 -7.078125 C 8.070312 -7.078125 8.675781 -7.257812 9.09375 -7.625 C 9.519531 -8 9.734375 -8.523438 9.734375 -9.203125 C 9.734375 -9.890625 9.519531 -10.414062 9.09375 -10.78125 C 8.675781 -11.15625 8.070312 -11.34375 7.28125 -11.34375 L 4.84375 -11.34375 Z M 4.84375 -7.078125 "/></g></g></g></g></g></svg>