<svg xmlns="http://www.w3.org/2000/svg" xmlns:xlink="http://www.w3.org/1999/xlink" width="240" zoomAndPan="magnify" viewBox="0 0 180 74.999997" height="100" preserveAspectRatio="xMidYMid meet" version="1.0"><defs><g/><clipPath id="56e88de201"><path d="M 50.164062 24.128906 L 129.765625 24.128906 L 129.765625 50.765625 L 50.164062 50.765625 Z M 50.164062 24.128906 " clip-rule="nonzero"/></clipPath><clipPath id="755ce282ef"><path d="M 54.015625 24.234375 L 125.984375 24.234375 C 126.980469 24.234375 127.933594 24.628906 128.636719 25.332031 C 129.339844 26.035156 129.734375 26.988281 129.734375 27.984375 L 129.734375 47.015625 C 129.734375 48.011719 129.339844 48.964844 128.636719 49.667969 C 127.933594 50.371094 126.980469 50.765625 125.984375 50.765625 L 54.015625 50.765625 C 53.019531 50.765625 52.066406 50.371094 51.363281 49.667969 C 50.660156 48.964844 50.265625 48.011719 50.265625 47.015625 L 50.265625 27.984375 C 50.265625 26.988281 50.660156 26.035156 51.363281 25.332031 C 52.066406 24.628906 53.019531 24.234375 54.015625 24.234375 Z M 54.015625 24.234375 " clip-rule="nonzero"/></clipPath><clipPath id="06f2578bc8"><path d="M 0.164062 0.128906 L 79.765625 0.128906 L 79.765625 26.765625 L 0.164062 26.765625 Z M 0.164062 0.128906 " clip-rule="nonzero"/></clipPath><clipPath id="bdb878f9c8"><path d="M 4.015625 0.234375 L 75.984375 0.234375 C 76.980469 0.234375 77.933594 0.628906 78.636719 1.332031 C 79.339844 2.035156 79.734375 2.988281 79.734375 3.984375 L 79.734375 23.015625 C 79.734375 24.011719 79.339844 24.964844 78.636719 25.667969 C 77.933594 26.371094 76.980469 26.765625 75.984375 26.765625 L 4.015625 26.765625 C 3.019531 26.765625 2.066406 26.371094 1.363281 25.667969 C 0.660156 24.964844 0.265625 24.011719 0.265625 23.015625 L 0.265625 3.984375 C 0.265625 2.988281 0.660156 2.035156 1.363281 1.332031 C 2.066406 0.628906 3.019531 0.234375 4.015625 0.234375 Z M 4.015625 0.234375 " clip-rule="nonzero"/></clipPath><clipPath id="f62aef9a4a"><rect x="0" width="80" y="0" height="27"/></clipPath><clipPath id="1c0ac75771"><path d="M 50.269531 24.234375 L 129.765625 24.234375 L 129.765625 50.484375 L 50.269531 50.484375 Z M 50.269531 24.234375 " clip-rule="nonzero"/></clipPath><clipPath id="6824a34fec"><path d="M 54.019531 24.234375 L 125.976562 24.234375 C 126.972656 24.234375 127.925781 24.628906 128.628906 25.332031 C 129.332031 26.035156 129.726562 26.988281 129.726562 27.980469 L 129.726562 47.015625 C 129.726562 48.007812 129.332031 48.960938 128.628906 49.664062 C 127.925781 50.367188 126.972656 50.765625 125.976562 50.765625 L 54.019531 50.765625 C 53.023438 50.765625 52.070312 50.367188 51.367188 49.664062 C 50.664062 48.960938 50.269531 48.007812 50.269531 47.015625 L 50.269531 27.980469 C 50.269531 26.988281 50.664062 26.035156 51.367188 25.332031 C 52.070312 24.628906 53.023438 24.234375 54.019531 24.234375 Z M 54.019531 24.234375 " clip-rule="nonzero"/></clipPath><clipPath id="ade797ce1f"><path d="M 53.167969 27.378906 L 126.453125 27.378906 L 126.453125 47.964844 L 53.167969 47.964844 Z M 53.167969 27.378906 " clip-rule="nonzero"/></clipPath><clipPath id="a5fa0cb1e3"><path d="M 55.5 27.457031 L 124.171875 27.457031 C 125.414062 27.457031 126.421875 28.464844 126.421875 29.707031 L 126.421875 45.714844 C 126.421875 46.957031 125.414062 47.964844 124.171875 47.964844 L 55.5 47.964844 C 54.253906 47.964844 53.25 46.957031 53.25 45.714844 L 53.25 29.707031 C 53.25 28.464844 54.253906 27.457031 55.5 27.457031 Z M 55.5 27.457031 " clip-rule="nonzero"/></clipPath><clipPath id="b52b18fe3e"><path d="M 0.167969 0.378906 L 73.453125 0.378906 L 73.453125 20.964844 L 0.167969 20.964844 Z M 0.167969 0.378906 " clip-rule="nonzero"/></clipPath><clipPath id="55bd7f0d3d"><path d="M 2.5 0.457031 L 71.171875 0.457031 C 72.414062 0.457031 73.421875 1.464844 73.421875 2.707031 L 73.421875 18.714844 C 73.421875 19.957031 72.414062 20.964844 71.171875 20.964844 L 2.5 20.964844 C 1.253906 20.964844 0.25 19.957031 0.25 18.714844 L 0.25 2.707031 C 0.25 1.464844 1.253906 0.457031 2.5 0.457031 Z M 2.5 0.457031 " clip-rule="nonzero"/></clipPath><clipPath id="e8368db903"><rect x="0" width="74" y="0" height="21"/></clipPath><clipPath id="0e7563d5e2"><path d="M 0.320312 2 L 8 2 L 8 9 L 0.320312 9 Z M 0.320312 2 " clip-rule="nonzero"/></clipPath><clipPath id="ee80a72e8e"><path d="M 40 2 L 45.921875 2 L 45.921875 9 L 40 9 Z M 40 2 " clip-rule="nonzero"/></clipPath><clipPath id="ffd5fd7c2a"><path d="M 0.320312 10 L 6 10 L 6 17 L 0.320312 17 Z M 0.320312 10 " clip-rule="nonzero"/></clipPath><clipPath id="cdc934671c"><rect x="0" width="46" y="0" height="20"/></clipPath><clipPath id="c793cbc1ba"><path d="M 54.683594 29.738281 L 74 29.738281 L 74 46.238281 L 54.683594 46.238281 Z M 54.683594 29.738281 " clip-rule="nonzero"/></clipPath></defs><g clip-path="url(#56e88de201)"><g clip-path="url(#755ce282ef)"><g transform="matrix(1, 0, 0, 1, 50, 24)"><g clip-path="url(#f62aef9a4a)"><g clip-path="url(#06f2578bc8)"><g clip-path="url(#bdb878f9c8)"><path fill="#ffffff" d="M 0.265625 0.234375 L 79.765625 0.234375 L 79.765625 26.765625 L 0.265625 26.765625 Z M 0.265625 0.234375 " fill-opacity="1" fill-rule="nonzero"/></g></g></g></g></g></g><g clip-path="url(#1c0ac75771)"><g clip-path="url(#6824a34fec)"><path stroke-linecap="butt" transform="matrix(0.75, 0, 0, 0.75, 50.268578, 24.23283)" fill="none" stroke-linejoin="miter" d="M 5.001272 0.00205949 L 100.943988 0.00205949 C 102.272113 0.00205949 103.542946 0.528101 104.480446 1.465601 C 105.417946 2.403101 105.943988 3.673935 105.943988 4.996852 L 105.943988 30.377062 C 105.943988 31.699979 105.417946 32.970812 104.480446 33.908312 C 103.542946 34.845812 102.272113 35.377062 100.943988 35.377062 L 5.001272 35.377062 C 3.673146 35.377062 2.402313 34.845812 1.464813 33.908312 C 0.527313 32.970812 0.00127114 31.699979 0.00127114 30.377062 L 0.00127114 4.996852 C 0.00127114 3.673935 0.527313 2.403101 1.464813 1.465601 C 2.402313 0.528101 3.673146 0.00205949 5.001272 0.00205949 Z M 5.001272 0.00205949 " stroke="#1a1f71" stroke-width="6" stroke-opacity="1" stroke-miterlimit="4"/></g></g><g clip-path="url(#ade797ce1f)"><g clip-path="url(#a5fa0cb1e3)"><g transform="matrix(1, 0, 0, 1, 53, 27)"><g clip-path="url(#e8368db903)"><g clip-path="url(#b52b18fe3e)"><g clip-path="url(#55bd7f0d3d)"><path fill="#1a1f71" d="M 0.25 0.457031 L 73.453125 0.457031 L 73.453125 20.964844 L 0.25 20.964844 Z M 0.25 0.457031 " fill-opacity="1" fill-rule="nonzero"/></g></g></g></g></g></g><g transform="matrix(1, 0, 0, 1, 76, 29)"><g clip-path="url(#cdc934671c)"><g clip-path="url(#0e7563d5e2)"><g fill="#fff8f8" fill-opacity="1"><g transform="translate(0.551318, 8.473809)"><g><path d="M 6.625 -5.8125 L 6.625 0 L 4.96875 0 L 4.96875 -2.90625 L 4.140625 0 L 2.46875 0 L 1.640625 -2.90625 L 1.640625 0 L 0.390625 0 L 0.390625 -5.8125 L 2.46875 -5.8125 L 3.515625 -2.1875 L 4.5625 -5.8125 Z M 6.625 -5.8125 "/></g></g></g></g><g fill="#fff8f8" fill-opacity="1"><g transform="translate(8.01128, 8.473809)"><g><path d="M 4.140625 -1.25 L 3.921875 0 L 0.390625 0 L 0.390625 -5.8125 L 3.71875 -5.8125 L 3.921875 -4.578125 L 2.0625 -4.578125 L 2.0625 -3.53125 L 3.71875 -3.53125 L 3.71875 -2.28125 L 2.0625 -2.28125 L 2.0625 -1.25 Z M 4.140625 -1.25 "/></g></g></g><g fill="#fff8f8" fill-opacity="1"><g transform="translate(12.979332, 8.473809)"><g><path d="M 2.6875 -5.8125 C 3.144531 -5.8125 3.546875 -5.722656 3.890625 -5.546875 C 4.234375 -5.359375 4.515625 -5.117188 4.734375 -4.828125 C 4.953125 -4.546875 5.113281 -4.234375 5.21875 -3.890625 C 5.320312 -3.546875 5.375 -3.21875 5.375 -2.90625 C 5.375 -2.539062 5.316406 -2.1875 5.203125 -1.84375 C 5.078125 -1.488281 4.894531 -1.175781 4.65625 -0.90625 C 4.414062 -0.632812 4.128906 -0.414062 3.796875 -0.25 C 3.460938 -0.0820312 3.09375 0 2.6875 0 L 0.390625 0 L 0.390625 -5.8125 Z M 2.46875 -0.828125 C 2.675781 -0.828125 2.863281 -0.890625 3.03125 -1.015625 C 3.175781 -1.128906 3.300781 -1.285156 3.40625 -1.484375 C 3.507812 -1.671875 3.585938 -1.890625 3.640625 -2.140625 C 3.691406 -2.390625 3.71875 -2.644531 3.71875 -2.90625 C 3.71875 -3.164062 3.691406 -3.421875 3.640625 -3.671875 C 3.585938 -3.921875 3.507812 -4.140625 3.40625 -4.328125 C 3.300781 -4.523438 3.175781 -4.6875 3.03125 -4.8125 C 2.863281 -4.925781 2.675781 -4.984375 2.46875 -4.984375 L 2.0625 -4.984375 L 2.0625 -0.828125 Z M 2.46875 -0.828125 "/></g></g></g><g fill="#fff8f8" fill-opacity="1"><g transform="translate(19.034619, 8.473809)"><g><path d="M 0.390625 -5.8125 L 2.0625 -5.8125 L 2.0625 0 L 0.390625 0 Z M 0.390625 -5.8125 "/></g></g></g><g fill="#fff8f8" fill-opacity="1"><g transform="translate(21.923432, 8.473809)"><g><path d="M 5.21875 -5.8125 L 5.21875 -2.90625 C 5.21875 -2.539062 5.175781 -2.1875 5.09375 -1.84375 C 5.007812 -1.488281 4.875 -1.175781 4.6875 -0.90625 C 4.488281 -0.632812 4.226562 -0.414062 3.90625 -0.25 C 3.582031 -0.0820312 3.191406 0 2.734375 0 C 2.265625 0 1.875 -0.0820312 1.5625 -0.25 C 1.238281 -0.414062 0.976562 -0.632812 0.78125 -0.90625 C 0.582031 -1.175781 0.441406 -1.488281 0.359375 -1.84375 C 0.273438 -2.1875 0.234375 -2.539062 0.234375 -2.90625 L 0.234375 -5.8125 L 1.890625 -5.8125 L 1.890625 -2.90625 C 1.890625 -2.539062 1.90625 -2.226562 1.9375 -1.96875 C 1.96875 -1.707031 2.019531 -1.492188 2.09375 -1.328125 C 2.15625 -1.160156 2.238281 -1.035156 2.34375 -0.953125 C 2.445312 -0.867188 2.578125 -0.828125 2.734375 -0.828125 C 3.046875 -0.828125 3.257812 -0.992188 3.375 -1.328125 C 3.5 -1.648438 3.5625 -2.175781 3.5625 -2.90625 L 3.5625 -5.8125 Z M 5.21875 -5.8125 "/></g></g></g><g fill="#fff8f8" fill-opacity="1"><g transform="translate(27.820001, 8.473809)"><g><path d="M 6.625 -5.8125 L 6.625 0 L 4.96875 0 L 4.96875 -2.90625 L 4.140625 0 L 2.46875 0 L 1.640625 -2.90625 L 1.640625 0 L 0.390625 0 L 0.390625 -5.8125 L 2.46875 -5.8125 L 3.515625 -2.1875 L 4.5625 -5.8125 Z M 6.625 -5.8125 "/></g></g></g><g fill="#fff8f8" fill-opacity="1"><g transform="translate(35.279963, 8.473809)"><g><path d="M 3.921875 0 L 0.390625 0 L 0.390625 -5.8125 L 2.0625 -5.8125 L 2.0625 -1.25 L 3.71875 -1.25 Z M 3.921875 0 "/></g></g></g><g clip-path="url(#ee80a72e8e)"><g fill="#fff8f8" fill-opacity="1"><g transform="translate(39.803597, 8.473809)"><g><path d="M 5.21875 -5.8125 L 3.5625 -1.921875 L 3.5625 0 L 1.890625 0 L 1.890625 -1.921875 L 0.234375 -5.8125 L 2.109375 -5.8125 C 2.117188 -5.800781 2.117188 -5.800781 2.109375 -5.8125 C 2.109375 -5.820312 2.113281 -5.816406 2.125 -5.796875 C 2.125 -5.785156 2.140625 -5.75 2.171875 -5.6875 C 2.191406 -5.613281 2.238281 -5.5 2.3125 -5.34375 C 2.375 -5.1875 2.46875 -4.96875 2.59375 -4.6875 C 2.707031 -4.414062 2.859375 -4.0625 3.046875 -3.625 C 3.222656 -4.0625 3.375 -4.414062 3.5 -4.6875 C 3.613281 -4.96875 3.707031 -5.1875 3.78125 -5.34375 C 3.84375 -5.5 3.890625 -5.613281 3.921875 -5.6875 C 3.941406 -5.75 3.960938 -5.785156 3.984375 -5.796875 C 3.984375 -5.816406 3.984375 -5.820312 3.984375 -5.8125 C 3.972656 -5.800781 3.972656 -5.800781 3.984375 -5.8125 Z M 5.21875 -5.8125 "/></g></g></g></g><g clip-path="url(#ffd5fd7c2a)"><g fill="#fff8f8" fill-opacity="1"><g transform="translate(0.551318, 16.147335)"><g><path d="M 5.375 -5.8125 L 5.375 0 L 3.71875 0 L 3.71875 -2.703125 L 2.0625 -2.703125 L 2.0625 0 L 0.390625 0 L 0.390625 -5.8125 L 2.0625 -5.8125 L 2.0625 -3.53125 L 3.71875 -3.53125 L 3.71875 -5.8125 Z M 5.375 -5.8125 "/></g></g></g></g><g fill="#fff8f8" fill-opacity="1"><g transform="translate(6.765327, 16.147335)"><g><path d="M 0.390625 -5.8125 L 2.0625 -5.8125 L 2.0625 0 L 0.390625 0 Z M 0.390625 -5.8125 "/></g></g></g><g fill="#fff8f8" fill-opacity="1"><g transform="translate(9.65414, 16.147335)"><g><path d="M 5.4375 -3.328125 L 5.4375 -1.25 C 5.300781 -1.007812 5.117188 -0.800781 4.890625 -0.625 C 4.796875 -0.539062 4.6875 -0.460938 4.5625 -0.390625 C 4.425781 -0.316406 4.28125 -0.25 4.125 -0.1875 C 3.957031 -0.132812 3.773438 -0.09375 3.578125 -0.0625 C 3.378906 -0.0195312 3.164062 0 2.9375 0 C 2.488281 0 2.097656 -0.0820312 1.765625 -0.25 C 1.421875 -0.40625 1.140625 -0.613281 0.921875 -0.875 C 0.691406 -1.144531 0.519531 -1.453125 0.40625 -1.796875 C 0.289062 -2.128906 0.234375 -2.476562 0.234375 -2.84375 C 0.234375 -3.207031 0.296875 -3.566406 0.421875 -3.921875 C 0.546875 -4.273438 0.726562 -4.59375 0.96875 -4.875 C 1.207031 -5.15625 1.507812 -5.382812 1.875 -5.5625 C 2.238281 -5.726562 2.664062 -5.8125 3.15625 -5.8125 C 3.46875 -5.8125 3.738281 -5.757812 3.96875 -5.65625 C 4.195312 -5.550781 4.390625 -5.429688 4.546875 -5.296875 C 4.722656 -5.140625 4.878906 -4.96875 5.015625 -4.78125 L 4.390625 -4.15625 C 4.347656 -4.3125 4.28125 -4.453125 4.1875 -4.578125 C 4.101562 -4.679688 3.992188 -4.773438 3.859375 -4.859375 C 3.734375 -4.941406 3.566406 -4.984375 3.359375 -4.984375 C 3.140625 -4.984375 2.953125 -4.921875 2.796875 -4.796875 C 2.640625 -4.671875 2.503906 -4.503906 2.390625 -4.296875 C 2.285156 -4.097656 2.207031 -3.867188 2.15625 -3.609375 C 2.101562 -3.347656 2.078125 -3.082031 2.078125 -2.8125 C 2.078125 -2.5625 2.101562 -2.316406 2.15625 -2.078125 C 2.195312 -1.835938 2.257812 -1.625 2.34375 -1.4375 C 2.4375 -1.257812 2.550781 -1.113281 2.6875 -1 C 2.820312 -0.882812 2.976562 -0.828125 3.15625 -0.828125 C 3.257812 -0.828125 3.347656 -0.835938 3.421875 -0.859375 C 3.492188 -0.878906 3.554688 -0.90625 3.609375 -0.9375 C 3.671875 -0.957031 3.722656 -0.992188 3.765625 -1.046875 L 3.765625 -2.5 L 2.734375 -2.5 L 2.9375 -3.328125 Z M 5.4375 -3.328125 "/></g></g></g><g fill="#fff8f8" fill-opacity="1"><g transform="translate(15.76498, 16.147335)"><g><path d="M 5.375 -5.8125 L 5.375 0 L 3.71875 0 L 3.71875 -2.703125 L 2.0625 -2.703125 L 2.0625 0 L 0.390625 0 L 0.390625 -5.8125 L 2.0625 -5.8125 L 2.0625 -3.53125 L 3.71875 -3.53125 L 3.71875 -5.8125 Z M 5.375 -5.8125 "/></g></g></g></g></g><g clip-path="url(#c793cbc1ba)"><path fill="#ffffff" d="M 71.664062 31.703125 L 59.359375 31.703125 C 59.332031 31.574219 59.242188 31.191406 59.242188 31.191406 C 59.070312 30.449219 58.417969 29.929688 57.65625 29.929688 L 55.617188 29.929688 C 55.101562 29.929688 54.683594 30.347656 54.683594 30.863281 C 54.683594 31.382812 55.101562 31.800781 55.617188 31.800781 L 57.464844 31.800781 C 57.527344 32.0625 59.773438 41.828125 59.773438 41.828125 L 59.242188 43.238281 C 58.972656 43.949219 59.070312 44.75 59.503906 45.375 C 59.9375 46.003906 60.652344 46.375 61.414062 46.375 L 69.972656 46.375 C 70.488281 46.375 70.90625 45.957031 70.90625 45.441406 C 70.90625 44.925781 70.488281 44.507812 69.972656 44.507812 L 61.414062 44.507812 C 61.207031 44.507812 61.09375 44.386719 61.042969 44.3125 C 60.992188 44.242188 60.917969 44.089844 60.988281 43.898438 L 61.394531 42.828125 L 70.164062 42.828125 C 71.25 42.828125 72.179688 42.085938 72.421875 41.03125 L 73.921875 34.546875 C 74.082031 33.851562 73.921875 33.136719 73.480469 32.578125 C 73.035156 32.023438 72.375 31.703125 71.664062 31.703125 Z M 72.101562 34.125 L 70.605469 40.609375 C 70.554688 40.816406 70.375 40.957031 70.164062 40.957031 L 61.492188 40.957031 C 61.152344 39.484375 60.367188 36.070312 59.789062 33.570312 L 71.664062 33.570312 C 71.851562 33.570312 71.964844 33.679688 72.015625 33.742188 C 72.066406 33.804688 72.144531 33.941406 72.101562 34.125 Z M 72.101562 34.125 " fill-opacity="1" fill-rule="nonzero"/></g><path fill="#ffffff" d="M 62.894531 35.238281 C 62.378906 35.238281 61.960938 35.65625 61.960938 36.171875 L 61.960938 38.355469 C 61.960938 38.871094 62.378906 39.289062 62.894531 39.289062 C 63.410156 39.289062 63.828125 38.871094 63.828125 38.355469 L 63.828125 36.171875 C 63.828125 35.65625 63.410156 35.238281 62.894531 35.238281 Z M 62.894531 35.238281 " fill-opacity="1" fill-rule="nonzero"/><path fill="#ffffff" d="M 65.828125 35.238281 C 65.3125 35.238281 64.894531 35.65625 64.894531 36.171875 L 64.894531 38.355469 C 64.894531 38.871094 65.3125 39.289062 65.828125 39.289062 C 66.34375 39.289062 66.761719 38.871094 66.761719 38.355469 L 66.761719 36.171875 C 66.761719 35.65625 66.34375 35.238281 65.828125 35.238281 Z M 65.828125 35.238281 " fill-opacity="1" fill-rule="nonzero"/><path fill="#ffffff" d="M 68.761719 35.238281 C 68.246094 35.238281 67.828125 35.65625 67.828125 36.171875 L 67.828125 38.355469 C 67.828125 38.871094 68.246094 39.289062 68.761719 39.289062 C 69.277344 39.289062 69.695312 38.871094 69.695312 38.355469 L 69.695312 36.171875 C 69.695312 35.65625 69.277344 35.238281 68.761719 35.238281 Z M 68.761719 35.238281 " fill-opacity="1" fill-rule="nonzero"/></svg>