<svg xmlns="http://www.w3.org/2000/svg" xmlns:xlink="http://www.w3.org/1999/xlink" width="240" zoomAndPan="magnify" viewBox="0 0 180 74.999997" height="100" preserveAspectRatio="xMidYMid meet" version="1.0"><defs><g/><clipPath id="45496312b6"><path d="M 41.128906 30.6875 L 54.628906 30.6875 L 54.628906 44.1875 L 41.128906 44.1875 Z M 41.128906 30.6875 " clip-rule="nonzero"/></clipPath><clipPath id="1b55958e15"><path d="M 0.246094 0.804688 L 13.628906 0.804688 L 13.628906 14.1875 L 0.246094 14.1875 Z M 0.246094 0.804688 " clip-rule="nonzero"/></clipPath><clipPath id="fb5ffbc7a3"><rect x="0" width="14" y="0" height="15"/></clipPath><clipPath id="3966e0efe5"><path d="M 49.558594 39.117188 L 54.808594 39.117188 L 54.808594 44.367188 L 49.558594 44.367188 Z M 49.558594 39.117188 " clip-rule="nonzero"/></clipPath><clipPath id="a60d21dc57"><rect x="0" width="79" y="0" height="25"/></clipPath></defs><g clip-path="url(#45496312b6)"><g transform="matrix(1, 0, 0, 1, 41, 30)"><g clip-path="url(#fb5ffbc7a3)"><g clip-path="url(#1b55958e15)"><path fill="#4c0013" d="M 0.128906 14.304688 C 7.652344 14.304688 13.746094 8.207031 13.746094 0.6875 L 0.128906 0.6875 Z M 0.128906 14.304688 " fill-opacity="1" fill-rule="nonzero"/></g></g></g></g><g clip-path="url(#3966e0efe5)"><path fill="#58021e" d="M 54.75 39.117188 C 51.882812 39.117188 49.558594 41.441406 49.558594 44.308594 L 54.75 44.308594 Z M 54.75 39.117188 " fill-opacity="1" fill-rule="nonzero"/></g><g transform="matrix(1, 0, 0, 1, 56, 25)"><g clip-path="url(#a60d21dc57)"><g fill="#58021e" fill-opacity="1"><g transform="translate(0.822064, 18.043877)"><g><path d="M 1.359375 0 L 1.359375 -11.296875 L 3.53125 -11.296875 L 8.515625 -4.421875 L 8.515625 -11.296875 L 11.078125 -11.296875 L 11.078125 0 L 8.890625 0 L 3.90625 -6.921875 L 3.90625 0 Z M 1.359375 0 "/></g></g></g><g fill="#58021e" fill-opacity="1"><g transform="translate(12.12051, 18.043877)"><g><path d="M 0.140625 0 L 4.625 -11.296875 L 7.15625 -11.296875 L 11.640625 0 L 8.890625 0 L 8.140625 -1.953125 L 3.640625 -1.953125 L 2.890625 0 Z M 4.3125 -3.96875 L 7.484375 -3.96875 L 5.890625 -8.109375 Z M 4.3125 -3.96875 "/></g></g></g><g fill="#58021e" fill-opacity="1"><g transform="translate(22.773325, 18.043877)"><g><path d="M 4.484375 0 L 0.140625 -11.296875 L 2.90625 -11.296875 L 4.40625 -7.28125 L 5.765625 -3.703125 L 8.609375 -11.296875 L 11.34375 -11.296875 L 7 0 Z M 4.484375 0 "/></g></g></g><g fill="#58021e" fill-opacity="1"><g transform="translate(33.135606, 18.043877)"><g><path d="M 1.359375 0 L 1.359375 -11.296875 L 3.921875 -11.296875 L 3.921875 -6.953125 L 4.890625 -6.953125 C 5.523438 -6.953125 5.988281 -7.050781 6.28125 -7.25 C 6.582031 -7.457031 6.828125 -7.828125 7.015625 -8.359375 L 8.09375 -11.296875 L 10.859375 -11.296875 L 9.296875 -7.28125 C 9.160156 -6.914062 9 -6.585938 8.8125 -6.296875 C 8.632812 -6.003906 8.4375 -5.75 8.21875 -5.53125 L 11.265625 0 L 8.28125 0 L 5.859375 -4.578125 C 5.765625 -4.566406 5.671875 -4.5625 5.578125 -4.5625 C 5.484375 -4.5625 5.382812 -4.5625 5.28125 -4.5625 L 3.921875 -4.5625 L 3.921875 0 Z M 1.359375 0 "/></g></g></g><g fill="#58021e" fill-opacity="1"><g transform="translate(43.739998, 18.043877)"><g><path d="M 0.140625 0 L 4.625 -11.296875 L 7.15625 -11.296875 L 11.640625 0 L 8.890625 0 L 8.140625 -1.953125 L 3.640625 -1.953125 L 2.890625 0 Z M 4.3125 -3.96875 L 7.484375 -3.96875 L 5.890625 -8.109375 Z M 4.3125 -3.96875 "/></g></g></g><g fill="#58021e" fill-opacity="1"><g transform="translate(54.392814, 18.043877)"><g><path d="M 1.359375 0 L 1.359375 -11.296875 L 6.1875 -11.296875 C 7.039062 -11.296875 7.785156 -11.140625 8.421875 -10.828125 C 9.054688 -10.515625 9.546875 -10.066406 9.890625 -9.484375 C 10.234375 -8.910156 10.40625 -8.21875 10.40625 -7.40625 C 10.40625 -6.582031 10.21875 -5.867188 9.84375 -5.265625 C 9.46875 -4.671875 8.941406 -4.222656 8.265625 -3.921875 L 10.609375 0 L 7.640625 0 L 5.609375 -3.515625 L 3.921875 -3.515625 L 3.921875 0 Z M 3.890625 -5.6875 L 5.84375 -5.6875 C 6.476562 -5.6875 6.960938 -5.832031 7.296875 -6.125 C 7.640625 -6.414062 7.8125 -6.835938 7.8125 -7.390625 C 7.8125 -7.941406 7.640625 -8.363281 7.296875 -8.65625 C 6.960938 -8.957031 6.476562 -9.109375 5.84375 -9.109375 L 3.890625 -9.109375 Z M 3.890625 -5.6875 "/></g></g></g><g fill="#58021e" fill-opacity="1"><g transform="translate(64.625967, 18.043877)"><g><path d="M 4.0625 0 L 4.0625 -8.890625 L 0.484375 -8.890625 L 0.484375 -11.296875 L 10.21875 -11.296875 L 10.21875 -8.890625 L 6.640625 -8.890625 L 6.640625 0 Z M 4.0625 0 "/></g></g></g><g fill="#58021e" fill-opacity="1"><g transform="translate(74.19735, 18.043877)"><g><path d="M 2.15625 0.171875 C 1.71875 0.171875 1.359375 0.0351562 1.078125 -0.234375 C 0.796875 -0.503906 0.65625 -0.851562 0.65625 -1.28125 C 0.65625 -1.695312 0.796875 -2.046875 1.078125 -2.328125 C 1.359375 -2.609375 1.71875 -2.75 2.15625 -2.75 C 2.601562 -2.75 2.960938 -2.609375 3.234375 -2.328125 C 3.515625 -2.046875 3.65625 -1.695312 3.65625 -1.28125 C 3.65625 -0.851562 3.515625 -0.503906 3.234375 -0.234375 C 2.960938 0.0351562 2.601562 0.171875 2.15625 0.171875 Z M 2.15625 0.171875 "/></g></g></g></g></g></svg>