<svg xmlns="http://www.w3.org/2000/svg" xmlns:xlink="http://www.w3.org/1999/xlink" width="240" zoomAndPan="magnify" viewBox="0 0 180 74.999997" height="100" preserveAspectRatio="xMidYMid meet" version="1.0"><defs><g/><clipPath id="02e3c7b83e"><path d="M 0.0390625 4 L 14 4 L 14 19 L 0.0390625 19 Z M 0.0390625 4 " clip-rule="nonzero"/></clipPath><clipPath id="2530097190"><rect x="0" width="88" y="0" height="23"/></clipPath><clipPath id="67b41f9e60"><path d="M 69.761719 30.339844 L 76.511719 30.339844 L 76.511719 40.089844 L 69.761719 40.089844 Z M 69.761719 30.339844 " clip-rule="nonzero"/></clipPath><clipPath id="b88e86a0e7"><path d="M 0.121094 1 L 2 1 L 2 4 L 0.121094 4 Z M 0.121094 1 " clip-rule="nonzero"/></clipPath><clipPath id="2edee25129"><path d="M 31 1 L 33.238281 1 L 33.238281 4 L 31 4 Z M 31 1 " clip-rule="nonzero"/></clipPath><clipPath id="71bccb26f1"><rect x="0" width="34" y="0" height="5"/></clipPath><clipPath id="e7bae5341c"><path d="M 0.0390625 1 L 2 1 L 2 3 L 0.0390625 3 Z M 0.0390625 1 " clip-rule="nonzero"/></clipPath><clipPath id="70163a48b4"><path d="M 11 1 L 13.238281 1 L 13.238281 3 L 11 3 Z M 11 1 " clip-rule="nonzero"/></clipPath><clipPath id="b90714fcf5"><rect x="0" width="14" y="0" height="4"/></clipPath></defs><g transform="matrix(1, 0, 0, 1, 47, 26)"><g clip-path="url(#2530097190)"><g clip-path="url(#02e3c7b83e)"><g fill="#b45f3e" fill-opacity="1"><g transform="translate(0.173758, 18.040718)"><g><path d="M 12.921875 -6.25 C 12.921875 -5.90625 12.914062 -5.476562 12.90625 -4.96875 C 12.90625 -4.46875 12.90625 -3.941406 12.90625 -3.390625 C 12.90625 -2.847656 12.898438 -2.335938 12.890625 -1.859375 C 12.890625 -1.378906 12.890625 -0.972656 12.890625 -0.640625 C 12.890625 -0.316406 12.894531 -0.125 12.90625 -0.0625 C 12.90625 -0.0195312 12.890625 0 12.859375 0 L 7.21875 0 C 7.1875 0 7.171875 -0.015625 7.171875 -0.046875 C 7.117188 -0.222656 7.066406 -0.394531 7.015625 -0.5625 C 6.960938 -0.738281 6.90625 -0.914062 6.84375 -1.09375 C 6.71875 -1.457031 6.613281 -1.882812 6.53125 -2.375 C 6.445312 -2.863281 6.328125 -3.253906 6.171875 -3.546875 C 6.097656 -3.703125 5.988281 -3.738281 5.84375 -3.65625 C 5.707031 -3.582031 5.640625 -3.453125 5.640625 -3.265625 C 5.609375 -2.796875 5.601562 -2.257812 5.625 -1.65625 C 5.65625 -1.0625 5.675781 -0.53125 5.6875 -0.0625 C 5.6875 -0.0195312 5.671875 0 5.640625 0 L 0.609375 -0.015625 C 0.578125 -0.015625 0.5625 -0.03125 0.5625 -0.0625 C 0.5625 -1.269531 0.578125 -2.472656 0.609375 -3.671875 C 0.640625 -4.867188 0.65625 -6.070312 0.65625 -7.28125 C 0.65625 -7.6875 0.648438 -8.164062 0.640625 -8.71875 C 0.640625 -9.28125 0.640625 -9.847656 0.640625 -10.421875 C 0.640625 -10.992188 0.632812 -11.53125 0.625 -12.03125 C 0.613281 -12.539062 0.601562 -12.945312 0.59375 -13.25 C 0.59375 -13.5625 0.59375 -13.71875 0.59375 -13.71875 C 0.59375 -13.75 0.609375 -13.765625 0.640625 -13.765625 L 6.125 -13.765625 C 6.132812 -13.765625 6.148438 -13.75 6.171875 -13.71875 C 6.273438 -13.382812 6.367188 -12.976562 6.453125 -12.5 C 6.535156 -12.03125 6.628906 -11.554688 6.734375 -11.078125 C 6.835938 -10.609375 6.957031 -10.210938 7.09375 -9.890625 C 7.144531 -9.703125 7.257812 -9.644531 7.4375 -9.71875 C 7.570312 -9.757812 7.644531 -9.890625 7.65625 -10.109375 C 7.6875 -10.410156 7.703125 -10.78125 7.703125 -11.21875 C 7.710938 -11.65625 7.71875 -12.097656 7.71875 -12.546875 C 7.71875 -13.003906 7.71875 -13.382812 7.71875 -13.6875 C 7.71875 -13.738281 7.734375 -13.765625 7.765625 -13.765625 L 12.90625 -13.765625 C 12.9375 -13.765625 12.953125 -13.738281 12.953125 -13.6875 C 12.953125 -13.675781 12.953125 -13.664062 12.953125 -13.65625 C 12.953125 -12.414062 12.945312 -11.175781 12.9375 -9.9375 C 12.925781 -8.707031 12.921875 -7.476562 12.921875 -6.25 Z M 12.921875 -6.25 "/></g></g></g></g><g fill="#b45f3e" fill-opacity="1"><g transform="translate(13.03741, 18.040718)"><g><path d="M 0.65625 -13.765625 L 6.71875 -13.765625 C 6.875 -13.765625 6.953125 -13.675781 6.953125 -13.5 C 6.910156 -13.070312 6.882812 -12.484375 6.875 -11.734375 C 6.875 -10.992188 6.875 -10.191406 6.875 -9.328125 C 6.875 -8.460938 6.878906 -7.617188 6.890625 -6.796875 C 6.898438 -5.972656 6.910156 -5.242188 6.921875 -4.609375 C 6.929688 -3.984375 6.941406 -3.546875 6.953125 -3.296875 C 6.953125 -2.785156 6.96875 -2.28125 7 -1.78125 C 7.03125 -1.28125 7.066406 -0.773438 7.109375 -0.265625 C 7.117188 -0.0859375 7.039062 0 6.875 0 L 0.671875 0 C 0.617188 0 0.597656 -0.0351562 0.609375 -0.109375 C 0.640625 -0.296875 0.660156 -0.644531 0.671875 -1.15625 C 0.691406 -1.664062 0.703125 -2.238281 0.703125 -2.875 C 0.703125 -3.507812 0.695312 -4.109375 0.6875 -4.671875 C 0.675781 -5.234375 0.664062 -5.660156 0.65625 -5.953125 C 0.65625 -6.296875 0.648438 -6.753906 0.640625 -7.328125 C 0.640625 -7.898438 0.632812 -8.515625 0.625 -9.171875 C 0.613281 -9.828125 0.601562 -10.460938 0.59375 -11.078125 C 0.59375 -11.703125 0.585938 -12.242188 0.578125 -12.703125 C 0.566406 -13.171875 0.5625 -13.492188 0.5625 -13.671875 C 0.582031 -13.679688 0.613281 -13.710938 0.65625 -13.765625 Z M 0.65625 -13.765625 "/></g></g></g><g fill="#b45f3e" fill-opacity="1"><g transform="translate(19.972386, 18.040718)"><g><path d="M 7.484375 -13.765625 L 12.671875 -13.765625 C 12.742188 -13.765625 12.769531 -13.726562 12.75 -13.65625 C 12.695312 -13.1875 12.617188 -12.570312 12.515625 -11.8125 C 12.410156 -11.050781 12.300781 -10.234375 12.1875 -9.359375 C 12.070312 -8.484375 11.957031 -7.628906 11.84375 -6.796875 C 11.738281 -5.972656 11.640625 -5.253906 11.546875 -4.640625 C 11.460938 -4.023438 11.40625 -3.601562 11.375 -3.375 C 11.300781 -2.9375 11.242188 -2.484375 11.203125 -2.015625 C 11.160156 -1.554688 11.117188 -1.148438 11.078125 -0.796875 C 11.046875 -0.441406 11.03125 -0.207031 11.03125 -0.09375 C 11.007812 -0.03125 10.976562 0 10.9375 0 L 2.359375 0 C 2.304688 0 2.28125 -0.0195312 2.28125 -0.0625 C 2.082031 -0.894531 1.941406 -1.742188 1.859375 -2.609375 C 1.773438 -3.484375 1.671875 -4.347656 1.546875 -5.203125 C 1.535156 -5.335938 1.507812 -5.5625 1.46875 -5.875 C 1.425781 -6.1875 1.378906 -6.523438 1.328125 -6.890625 C 1.273438 -7.253906 1.222656 -7.597656 1.171875 -7.921875 C 1.117188 -8.242188 1.085938 -8.476562 1.078125 -8.625 C 1.015625 -8.894531 0.953125 -9.28125 0.890625 -9.78125 C 0.835938 -10.289062 0.78125 -10.820312 0.71875 -11.375 C 0.664062 -11.925781 0.609375 -12.421875 0.546875 -12.859375 C 0.484375 -13.296875 0.441406 -13.582031 0.421875 -13.71875 C 0.421875 -13.75 0.429688 -13.765625 0.453125 -13.765625 L 5.625 -13.765625 C 5.675781 -13.765625 5.703125 -13.734375 5.703125 -13.671875 C 5.734375 -13.097656 5.785156 -12.570312 5.859375 -12.09375 C 5.929688 -11.613281 6.003906 -11.113281 6.078125 -10.59375 C 6.148438 -10.082031 6.207031 -9.5 6.25 -8.84375 C 6.269531 -8.664062 6.347656 -8.566406 6.484375 -8.546875 C 6.617188 -8.523438 6.703125 -8.597656 6.734375 -8.765625 C 6.796875 -9.421875 6.875 -10.003906 6.96875 -10.515625 C 7.0625 -11.023438 7.144531 -11.523438 7.21875 -12.015625 C 7.300781 -12.503906 7.359375 -13.054688 7.390625 -13.671875 C 7.410156 -13.734375 7.441406 -13.765625 7.484375 -13.765625 Z M 7.484375 -13.765625 "/></g></g></g><g fill="#b45f3e" fill-opacity="1"><g transform="translate(32.442252, 18.040718)"><g><path d="M 7.28125 -13.765625 L 12.59375 -13.765625 C 12.65625 -13.765625 12.671875 -13.71875 12.640625 -13.625 C 12.628906 -13.570312 12.578125 -13.375 12.484375 -13.03125 C 12.390625 -12.695312 12.273438 -12.28125 12.140625 -11.78125 C 12.003906 -11.289062 11.859375 -10.785156 11.703125 -10.265625 C 11.554688 -9.753906 11.410156 -9.289062 11.265625 -8.875 C 11.046875 -8.25 10.816406 -7.660156 10.578125 -7.109375 C 10.335938 -6.566406 10.132812 -6.117188 9.96875 -5.765625 C 9.800781 -5.410156 9.707031 -5.1875 9.6875 -5.09375 C 9.644531 -4.863281 9.617188 -4.664062 9.609375 -4.5 C 9.609375 -4.332031 9.609375 -4.128906 9.609375 -3.890625 C 9.609375 -3.617188 9.597656 -3.335938 9.578125 -3.046875 C 9.566406 -2.765625 9.550781 -2.484375 9.53125 -2.203125 C 9.519531 -1.859375 9.507812 -1.503906 9.5 -1.140625 C 9.5 -0.785156 9.507812 -0.4375 9.53125 -0.09375 C 9.53125 -0.03125 9.507812 0 9.46875 0 L 3.1875 0 C 3.164062 0 3.15625 -0.03125 3.15625 -0.09375 C 3.15625 -0.113281 3.15625 -0.265625 3.15625 -0.546875 C 3.15625 -0.828125 3.15625 -1.160156 3.15625 -1.546875 C 3.164062 -1.941406 3.171875 -2.34375 3.171875 -2.75 C 3.179688 -3.164062 3.191406 -3.53125 3.203125 -3.84375 C 3.210938 -4.15625 3.21875 -4.363281 3.21875 -4.46875 C 3.21875 -4.726562 3.203125 -4.894531 3.171875 -4.96875 C 3.140625 -5.050781 3.085938 -5.210938 3.015625 -5.453125 C 2.984375 -5.546875 2.863281 -5.828125 2.65625 -6.296875 C 2.445312 -6.773438 2.210938 -7.410156 1.953125 -8.203125 C 1.785156 -8.742188 1.613281 -9.304688 1.4375 -9.890625 C 1.269531 -10.472656 1.113281 -11.03125 0.96875 -11.5625 C 0.832031 -12.09375 0.710938 -12.546875 0.609375 -12.921875 C 0.503906 -13.304688 0.441406 -13.550781 0.421875 -13.65625 C 0.398438 -13.726562 0.421875 -13.765625 0.484375 -13.765625 L 5.734375 -13.765625 C 5.773438 -13.765625 5.796875 -13.734375 5.796875 -13.671875 C 5.828125 -13.097656 5.867188 -12.523438 5.921875 -11.953125 C 5.984375 -11.390625 6.050781 -10.828125 6.125 -10.265625 C 6.15625 -10.066406 6.257812 -9.96875 6.4375 -9.96875 C 6.5625 -9.96875 6.65625 -10.066406 6.71875 -10.265625 C 6.769531 -10.460938 6.820312 -10.734375 6.875 -11.078125 C 6.925781 -11.429688 6.972656 -11.796875 7.015625 -12.171875 C 7.066406 -12.546875 7.109375 -12.875 7.140625 -13.15625 C 7.179688 -13.4375 7.207031 -13.613281 7.21875 -13.6875 C 7.226562 -13.738281 7.25 -13.765625 7.28125 -13.765625 Z M 7.28125 -13.765625 "/></g></g></g><g fill="#b45f3e" fill-opacity="1"><g transform="translate(44.82461, 18.040718)"><g><path d="M 13.21875 0 L 6.078125 0 C 6.023438 0 6 -0.0351562 6 -0.109375 C 6.007812 -0.390625 6.035156 -0.765625 6.078125 -1.234375 C 6.117188 -1.710938 6.164062 -2.191406 6.21875 -2.671875 C 6.269531 -3.148438 6.3125 -3.519531 6.34375 -3.78125 C 6.351562 -3.8125 6.378906 -3.832031 6.421875 -3.84375 C 6.472656 -3.863281 6.515625 -3.875 6.546875 -3.875 C 6.566406 -3.851562 6.648438 -3.84375 6.796875 -3.84375 C 6.941406 -3.84375 7.09375 -3.84375 7.25 -3.84375 C 7.40625 -3.84375 7.503906 -3.84375 7.546875 -3.84375 C 7.546875 -3.84375 7.609375 -3.875 7.734375 -3.9375 C 7.859375 -4 7.921875 -4.101562 7.921875 -4.25 C 7.898438 -4.320312 7.863281 -4.535156 7.8125 -4.890625 C 7.769531 -5.242188 7.710938 -5.648438 7.640625 -6.109375 C 7.578125 -6.566406 7.519531 -7.007812 7.46875 -7.4375 C 7.414062 -7.863281 7.382812 -8.175781 7.375 -8.375 C 7.351562 -8.695312 7.304688 -8.96875 7.234375 -9.1875 C 7.160156 -9.40625 7.050781 -9.515625 6.90625 -9.515625 C 6.707031 -9.523438 6.566406 -9.425781 6.484375 -9.21875 C 6.398438 -9.007812 6.351562 -8.847656 6.34375 -8.734375 C 6.300781 -8.410156 6.226562 -7.957031 6.125 -7.375 C 6.019531 -6.789062 5.898438 -6.144531 5.765625 -5.4375 C 5.640625 -4.738281 5.519531 -4.039062 5.40625 -3.34375 C 5.289062 -2.644531 5.191406 -2.003906 5.109375 -1.421875 C 5.023438 -0.847656 4.976562 -0.410156 4.96875 -0.109375 C 4.96875 -0.0351562 4.945312 0 4.90625 0 L 0.484375 0 C 0.421875 0 0.398438 -0.0390625 0.421875 -0.125 C 0.429688 -0.1875 0.4375 -0.25 0.4375 -0.3125 C 0.445312 -0.382812 0.460938 -0.445312 0.484375 -0.5 C 0.515625 -0.632812 0.570312 -0.914062 0.65625 -1.34375 C 0.738281 -1.769531 0.832031 -2.253906 0.9375 -2.796875 C 1.050781 -3.335938 1.160156 -3.859375 1.265625 -4.359375 C 1.367188 -4.867188 1.457031 -5.257812 1.53125 -5.53125 C 1.5625 -5.71875 1.613281 -6.035156 1.6875 -6.484375 C 1.769531 -6.941406 1.859375 -7.46875 1.953125 -8.0625 C 2.046875 -8.65625 2.144531 -9.257812 2.25 -9.875 C 2.351562 -10.5 2.441406 -11.085938 2.515625 -11.640625 C 2.597656 -12.191406 2.671875 -12.648438 2.734375 -13.015625 C 2.796875 -13.378906 2.828125 -13.597656 2.828125 -13.671875 C 2.835938 -13.734375 2.863281 -13.765625 2.90625 -13.765625 L 10.875 -13.765625 C 10.90625 -13.765625 10.925781 -13.734375 10.9375 -13.671875 C 10.96875 -13.523438 11.019531 -13.222656 11.09375 -12.765625 C 11.175781 -12.304688 11.265625 -11.789062 11.359375 -11.21875 C 11.453125 -10.65625 11.539062 -10.113281 11.625 -9.59375 C 11.71875 -9.070312 11.796875 -8.664062 11.859375 -8.375 C 11.960938 -7.789062 12.054688 -7.207031 12.140625 -6.625 C 12.222656 -6.039062 12.3125 -5.457031 12.40625 -4.875 C 12.4375 -4.757812 12.472656 -4.535156 12.515625 -4.203125 C 12.566406 -3.878906 12.632812 -3.507812 12.71875 -3.09375 C 12.800781 -2.675781 12.878906 -2.253906 12.953125 -1.828125 C 13.023438 -1.410156 13.09375 -1.046875 13.15625 -0.734375 C 13.21875 -0.429688 13.257812 -0.226562 13.28125 -0.125 C 13.3125 -0.0390625 13.289062 0 13.21875 0 Z M 13.21875 0 "/></g></g></g><g fill="#b45f3e" fill-opacity="1"><g transform="translate(57.8414, 18.040718)"><g><path d="M 11.65625 -4.171875 C 11.789062 -3.910156 11.921875 -3.578125 12.046875 -3.171875 C 12.179688 -2.773438 12.304688 -2.367188 12.421875 -1.953125 C 12.535156 -1.535156 12.632812 -1.171875 12.71875 -0.859375 C 12.800781 -0.546875 12.847656 -0.335938 12.859375 -0.234375 C 12.890625 -0.078125 12.847656 0 12.734375 0 L 7.859375 0 C 7.796875 0 7.757812 -0.0390625 7.75 -0.125 C 7.71875 -0.226562 7.648438 -0.429688 7.546875 -0.734375 C 7.441406 -1.035156 7.320312 -1.363281 7.1875 -1.71875 C 7.050781 -2.070312 6.921875 -2.390625 6.796875 -2.671875 C 6.671875 -2.960938 6.570312 -3.148438 6.5 -3.234375 C 6.425781 -3.304688 6.332031 -3.320312 6.21875 -3.28125 C 6.113281 -3.25 6.050781 -3.175781 6.03125 -3.0625 C 6.007812 -2.613281 5.992188 -2.144531 5.984375 -1.65625 C 5.972656 -1.164062 5.976562 -0.6875 6 -0.21875 C 6.007812 -0.0703125 5.960938 0 5.859375 0 L 0.75 0 C 0.65625 0 0.609375 -0.0664062 0.609375 -0.203125 L 0.609375 -2.0625 C 0.609375 -2.132812 0.613281 -2.320312 0.625 -2.625 C 0.632812 -2.925781 0.640625 -3.289062 0.640625 -3.71875 C 0.640625 -4.144531 0.640625 -4.566406 0.640625 -4.984375 C 0.640625 -5.410156 0.632812 -5.773438 0.625 -6.078125 C 0.613281 -6.390625 0.609375 -6.582031 0.609375 -6.65625 L 0.609375 -9.359375 C 0.628906 -10.054688 0.644531 -10.765625 0.65625 -11.484375 C 0.664062 -12.210938 0.664062 -12.9375 0.65625 -13.65625 C 0.65625 -13.726562 0.675781 -13.765625 0.71875 -13.765625 L 10 -13.765625 C 10.25 -13.765625 10.5 -13.703125 10.75 -13.578125 C 11.007812 -13.453125 11.253906 -13.296875 11.484375 -13.109375 C 11.734375 -12.890625 11.941406 -12.640625 12.109375 -12.359375 C 12.273438 -12.078125 12.394531 -11.863281 12.46875 -11.71875 C 12.65625 -11.28125 12.769531 -10.835938 12.8125 -10.390625 C 12.863281 -9.941406 12.890625 -9.425781 12.890625 -8.84375 C 12.890625 -8.445312 12.851562 -7.992188 12.78125 -7.484375 C 12.707031 -6.984375 12.609375 -6.601562 12.484375 -6.34375 C 12.410156 -6.164062 12.304688 -5.96875 12.171875 -5.75 C 12.046875 -5.53125 11.929688 -5.335938 11.828125 -5.171875 C 11.734375 -5.015625 11.675781 -4.929688 11.65625 -4.921875 C 11.65625 -4.921875 11.648438 -4.921875 11.640625 -4.921875 C 11.535156 -4.816406 11.492188 -4.703125 11.515625 -4.578125 C 11.535156 -4.453125 11.582031 -4.316406 11.65625 -4.171875 Z M 6.984375 -7.9375 C 6.992188 -8.25 6.992188 -8.53125 6.984375 -8.78125 C 6.984375 -9.039062 6.96875 -9.285156 6.9375 -9.515625 C 6.894531 -9.910156 6.8125 -10.160156 6.6875 -10.265625 C 6.5625 -10.378906 6.429688 -10.4375 6.296875 -10.4375 C 6.210938 -10.4375 6.132812 -10.410156 6.0625 -10.359375 C 5.988281 -10.304688 5.953125 -10.25 5.953125 -10.1875 C 5.953125 -10.101562 5.953125 -9.992188 5.953125 -9.859375 C 5.953125 -9.734375 5.953125 -9.601562 5.953125 -9.46875 C 5.953125 -9.238281 5.945312 -8.929688 5.9375 -8.546875 C 5.925781 -8.160156 5.929688 -7.84375 5.953125 -7.59375 C 5.953125 -7.488281 5.960938 -7.367188 5.984375 -7.234375 C 6.015625 -7.109375 6.117188 -7.035156 6.296875 -7.015625 C 6.441406 -7.015625 6.582031 -7.082031 6.71875 -7.21875 C 6.863281 -7.363281 6.953125 -7.601562 6.984375 -7.9375 Z M 6.984375 -7.9375 "/></g></g></g><g fill="#b45f3e" fill-opacity="1"><g transform="translate(70.551914, 18.040718)"><g><path d="M 13.21875 0 L 6.078125 0 C 6.023438 0 6 -0.0351562 6 -0.109375 C 6.007812 -0.390625 6.035156 -0.765625 6.078125 -1.234375 C 6.117188 -1.710938 6.164062 -2.191406 6.21875 -2.671875 C 6.269531 -3.148438 6.3125 -3.519531 6.34375 -3.78125 C 6.351562 -3.8125 6.378906 -3.832031 6.421875 -3.84375 C 6.472656 -3.863281 6.515625 -3.875 6.546875 -3.875 C 6.566406 -3.851562 6.648438 -3.84375 6.796875 -3.84375 C 6.941406 -3.84375 7.09375 -3.84375 7.25 -3.84375 C 7.40625 -3.84375 7.503906 -3.84375 7.546875 -3.84375 C 7.546875 -3.84375 7.609375 -3.875 7.734375 -3.9375 C 7.859375 -4 7.921875 -4.101562 7.921875 -4.25 C 7.898438 -4.320312 7.863281 -4.535156 7.8125 -4.890625 C 7.769531 -5.242188 7.710938 -5.648438 7.640625 -6.109375 C 7.578125 -6.566406 7.519531 -7.007812 7.46875 -7.4375 C 7.414062 -7.863281 7.382812 -8.175781 7.375 -8.375 C 7.351562 -8.695312 7.304688 -8.96875 7.234375 -9.1875 C 7.160156 -9.40625 7.050781 -9.515625 6.90625 -9.515625 C 6.707031 -9.523438 6.566406 -9.425781 6.484375 -9.21875 C 6.398438 -9.007812 6.351562 -8.847656 6.34375 -8.734375 C 6.300781 -8.410156 6.226562 -7.957031 6.125 -7.375 C 6.019531 -6.789062 5.898438 -6.144531 5.765625 -5.4375 C 5.640625 -4.738281 5.519531 -4.039062 5.40625 -3.34375 C 5.289062 -2.644531 5.191406 -2.003906 5.109375 -1.421875 C 5.023438 -0.847656 4.976562 -0.410156 4.96875 -0.109375 C 4.96875 -0.0351562 4.945312 0 4.90625 0 L 0.484375 0 C 0.421875 0 0.398438 -0.0390625 0.421875 -0.125 C 0.429688 -0.1875 0.4375 -0.25 0.4375 -0.3125 C 0.445312 -0.382812 0.460938 -0.445312 0.484375 -0.5 C 0.515625 -0.632812 0.570312 -0.914062 0.65625 -1.34375 C 0.738281 -1.769531 0.832031 -2.253906 0.9375 -2.796875 C 1.050781 -3.335938 1.160156 -3.859375 1.265625 -4.359375 C 1.367188 -4.867188 1.457031 -5.257812 1.53125 -5.53125 C 1.5625 -5.71875 1.613281 -6.035156 1.6875 -6.484375 C 1.769531 -6.941406 1.859375 -7.46875 1.953125 -8.0625 C 2.046875 -8.65625 2.144531 -9.257812 2.25 -9.875 C 2.351562 -10.5 2.441406 -11.085938 2.515625 -11.640625 C 2.597656 -12.191406 2.671875 -12.648438 2.734375 -13.015625 C 2.796875 -13.378906 2.828125 -13.597656 2.828125 -13.671875 C 2.835938 -13.734375 2.863281 -13.765625 2.90625 -13.765625 L 10.875 -13.765625 C 10.90625 -13.765625 10.925781 -13.734375 10.9375 -13.671875 C 10.96875 -13.523438 11.019531 -13.222656 11.09375 -12.765625 C 11.175781 -12.304688 11.265625 -11.789062 11.359375 -11.21875 C 11.453125 -10.65625 11.539062 -10.113281 11.625 -9.59375 C 11.71875 -9.070312 11.796875 -8.664062 11.859375 -8.375 C 11.960938 -7.789062 12.054688 -7.207031 12.140625 -6.625 C 12.222656 -6.039062 12.3125 -5.457031 12.40625 -4.875 C 12.4375 -4.757812 12.472656 -4.535156 12.515625 -4.203125 C 12.566406 -3.878906 12.632812 -3.507812 12.71875 -3.09375 C 12.800781 -2.675781 12.878906 -2.253906 12.953125 -1.828125 C 13.023438 -1.410156 13.09375 -1.046875 13.15625 -0.734375 C 13.21875 -0.429688 13.257812 -0.226562 13.28125 -0.125 C 13.3125 -0.0390625 13.289062 0 13.21875 0 Z M 13.21875 0 "/></g></g></g><g fill="#b45f3e" fill-opacity="1"><g transform="translate(83.569805, 18.040718)"><g/></g></g></g></g><g clip-path="url(#67b41f9e60)"><path fill="#ffffff" d="M 75.941406 39.5625 L 75.769531 39.804688 C 75.484375 40.203125 75.019531 40.441406 74.527344 40.441406 L 71.886719 40.441406 C 71.394531 40.441406 70.929688 40.203125 70.644531 39.804688 L 70.472656 39.5625 C 69.761719 38.5625 69.855469 37.199219 70.695312 36.308594 L 70.8125 36.183594 C 71.179688 35.792969 71.304688 35.238281 71.140625 34.730469 L 71.003906 34.296875 C 70.828125 33.757812 70.964844 33.160156 71.355469 32.75 L 71.734375 32.351562 C 72.027344 32.042969 72.191406 31.628906 72.191406 31.203125 L 72.191406 30.46875 C 72.191406 30.398438 72.246094 30.34375 72.316406 30.34375 L 74.097656 30.34375 C 74.164062 30.34375 74.222656 30.398438 74.222656 30.46875 L 74.222656 31.203125 C 74.222656 31.628906 74.386719 32.042969 74.679688 32.351562 L 75.058594 32.75 C 75.449219 33.160156 75.585938 33.757812 75.410156 34.296875 L 75.273438 34.730469 C 75.109375 35.238281 75.234375 35.792969 75.601562 36.183594 L 75.71875 36.308594 C 76.558594 37.199219 76.652344 38.5625 75.941406 39.5625 Z M 75.941406 39.5625 " fill-opacity="1" fill-rule="nonzero"/></g><g transform="matrix(1, 0, 0, 1, 69, 44)"><g clip-path="url(#71bccb26f1)"><g clip-path="url(#b88e86a0e7)"><g fill="#b45f3e" fill-opacity="1"><g transform="translate(0.290339, 3.513402)"><g><path d="M 1.34375 -0.46875 C 1.34375 -0.382812 1.320312 -0.3125 1.28125 -0.25 C 1.25 -0.195312 1.191406 -0.144531 1.109375 -0.09375 C 1.046875 -0.0625 0.976562 -0.0351562 0.90625 -0.015625 C 0.832031 -0.00390625 0.753906 0 0.671875 0 C 0.597656 0 0.503906 -0.0234375 0.390625 -0.078125 C 0.296875 -0.117188 0.222656 -0.164062 0.171875 -0.21875 C 0.128906 -0.28125 0.109375 -0.34375 0.109375 -0.40625 C 0.109375 -0.457031 0.117188 -0.492188 0.140625 -0.515625 C 0.160156 -0.535156 0.195312 -0.546875 0.25 -0.546875 C 0.269531 -0.546875 0.289062 -0.535156 0.3125 -0.515625 C 0.34375 -0.492188 0.359375 -0.472656 0.359375 -0.453125 C 0.390625 -0.378906 0.429688 -0.320312 0.484375 -0.28125 C 0.546875 -0.25 0.625 -0.234375 0.71875 -0.234375 C 0.820312 -0.234375 0.90625 -0.25 0.96875 -0.28125 C 1.039062 -0.320312 1.078125 -0.378906 1.078125 -0.453125 C 1.078125 -0.503906 1.035156 -0.554688 0.953125 -0.609375 C 0.878906 -0.660156 0.804688 -0.695312 0.734375 -0.71875 C 0.617188 -0.75 0.519531 -0.785156 0.4375 -0.828125 C 0.34375 -0.867188 0.269531 -0.921875 0.21875 -0.984375 C 0.175781 -1.046875 0.15625 -1.113281 0.15625 -1.1875 C 0.15625 -1.257812 0.175781 -1.328125 0.21875 -1.390625 C 0.269531 -1.460938 0.328125 -1.515625 0.390625 -1.546875 C 0.429688 -1.566406 0.492188 -1.585938 0.578125 -1.609375 C 0.660156 -1.628906 0.71875 -1.640625 0.75 -1.640625 C 0.800781 -1.640625 0.859375 -1.628906 0.921875 -1.609375 C 0.984375 -1.597656 1.03125 -1.582031 1.0625 -1.5625 C 1.132812 -1.519531 1.1875 -1.476562 1.21875 -1.4375 C 1.257812 -1.40625 1.28125 -1.363281 1.28125 -1.3125 C 1.28125 -1.289062 1.269531 -1.265625 1.25 -1.234375 C 1.226562 -1.210938 1.1875 -1.203125 1.125 -1.203125 C 1.113281 -1.203125 1.097656 -1.207031 1.078125 -1.21875 C 1.066406 -1.226562 1.050781 -1.25 1.03125 -1.28125 C 1.007812 -1.3125 0.984375 -1.332031 0.953125 -1.34375 C 0.929688 -1.351562 0.894531 -1.363281 0.84375 -1.375 C 0.789062 -1.382812 0.75 -1.390625 0.71875 -1.390625 C 0.675781 -1.390625 0.628906 -1.378906 0.578125 -1.359375 C 0.535156 -1.347656 0.5 -1.328125 0.46875 -1.296875 C 0.445312 -1.265625 0.4375 -1.226562 0.4375 -1.1875 C 0.4375 -1.144531 0.453125 -1.109375 0.484375 -1.078125 C 0.515625 -1.054688 0.550781 -1.039062 0.59375 -1.03125 C 0.644531 -1.007812 0.703125 -0.992188 0.765625 -0.984375 C 0.835938 -0.953125 0.898438 -0.925781 0.953125 -0.90625 C 1.003906 -0.882812 1.054688 -0.863281 1.109375 -0.84375 C 1.191406 -0.789062 1.25 -0.738281 1.28125 -0.6875 C 1.320312 -0.632812 1.34375 -0.5625 1.34375 -0.46875 Z M 1.34375 -0.46875 "/></g></g></g></g><g fill="#b45f3e" fill-opacity="1"><g transform="translate(1.741445, 3.513402)"><g><path d="M 0.59375 -1.421875 C 0.59375 -1.316406 0.59375 -1.210938 0.59375 -1.109375 C 0.59375 -1.003906 0.597656 -0.847656 0.609375 -0.640625 C 0.609375 -0.609375 0.609375 -0.546875 0.609375 -0.453125 C 0.617188 -0.359375 0.625 -0.273438 0.625 -0.203125 C 0.644531 -0.203125 0.664062 -0.203125 0.6875 -0.203125 C 0.707031 -0.210938 0.722656 -0.21875 0.734375 -0.21875 C 0.765625 -0.21875 0.789062 -0.207031 0.8125 -0.1875 C 0.84375 -0.164062 0.859375 -0.132812 0.859375 -0.09375 C 0.859375 -0.0703125 0.847656 -0.0507812 0.828125 -0.03125 C 0.804688 -0.0195312 0.769531 -0.0078125 0.71875 0 C 0.664062 0 0.59375 0 0.5 0 C 0.394531 0 0.3125 0 0.25 0 C 0.195312 -0.0078125 0.160156 -0.0234375 0.140625 -0.046875 C 0.117188 -0.0664062 0.109375 -0.0976562 0.109375 -0.140625 C 0.109375 -0.171875 0.117188 -0.191406 0.140625 -0.203125 C 0.160156 -0.210938 0.1875 -0.21875 0.21875 -0.21875 L 0.28125 -0.21875 L 0.359375 -0.203125 L 0.34375 -0.515625 C 0.332031 -0.679688 0.328125 -0.832031 0.328125 -0.96875 C 0.328125 -1.039062 0.332031 -1.140625 0.34375 -1.265625 L 0.34375 -1.40625 C 0.289062 -1.40625 0.25 -1.40625 0.21875 -1.40625 C 0.175781 -1.40625 0.144531 -1.410156 0.125 -1.421875 C 0.113281 -1.441406 0.109375 -1.472656 0.109375 -1.515625 C 0.109375 -1.554688 0.140625 -1.582031 0.203125 -1.59375 C 0.273438 -1.613281 0.378906 -1.625 0.515625 -1.625 C 0.617188 -1.625 0.695312 -1.617188 0.75 -1.609375 C 0.800781 -1.609375 0.828125 -1.59375 0.828125 -1.5625 C 0.828125 -1.507812 0.816406 -1.472656 0.796875 -1.453125 C 0.773438 -1.429688 0.726562 -1.421875 0.65625 -1.421875 Z M 0.59375 -1.421875 "/></g></g></g><g fill="#b45f3e" fill-opacity="1"><g transform="translate(2.704546, 3.513402)"><g><path d="M 1.671875 -1.625 C 1.691406 -1.625 1.71875 -1.609375 1.75 -1.578125 C 1.789062 -1.546875 1.8125 -1.519531 1.8125 -1.5 C 1.8125 -1.394531 1.804688 -1.25 1.796875 -1.0625 C 1.796875 -1.019531 1.796875 -0.96875 1.796875 -0.90625 C 1.796875 -0.84375 1.796875 -0.769531 1.796875 -0.6875 C 1.796875 -0.425781 1.8125 -0.234375 1.84375 -0.109375 C 1.84375 -0.0664062 1.828125 -0.0351562 1.796875 -0.015625 C 1.765625 -0.00390625 1.734375 0 1.703125 0 C 1.628906 0 1.582031 -0.0195312 1.5625 -0.0625 C 1.539062 -0.113281 1.53125 -0.1875 1.53125 -0.28125 C 1.53125 -0.601562 1.535156 -0.90625 1.546875 -1.1875 C 1.347656 -0.96875 1.191406 -0.785156 1.078125 -0.640625 C 1.078125 -0.640625 1.0625 -0.628906 1.03125 -0.609375 C 1.007812 -0.578125 0.988281 -0.5625 0.96875 -0.5625 C 0.914062 -0.5625 0.875 -0.570312 0.84375 -0.59375 C 0.820312 -0.625 0.796875 -0.660156 0.765625 -0.703125 L 0.640625 -0.875 C 0.554688 -0.988281 0.492188 -1.078125 0.453125 -1.140625 C 0.453125 -0.984375 0.460938 -0.769531 0.484375 -0.5 C 0.492188 -0.34375 0.5 -0.226562 0.5 -0.15625 C 0.5 -0.113281 0.488281 -0.078125 0.46875 -0.046875 C 0.445312 -0.015625 0.414062 0 0.375 0 C 0.320312 0 0.28125 -0.00390625 0.25 -0.015625 C 0.226562 -0.0351562 0.21875 -0.0664062 0.21875 -0.109375 C 0.21875 -0.140625 0.21875 -0.1875 0.21875 -0.25 C 0.21875 -0.382812 0.210938 -0.546875 0.203125 -0.734375 L 0.203125 -0.875 L 0.1875 -1.0625 C 0.1875 -1.113281 0.1875 -1.175781 0.1875 -1.25 C 0.1875 -1.320312 0.1875 -1.398438 0.1875 -1.484375 C 0.1875 -1.585938 0.242188 -1.640625 0.359375 -1.640625 C 0.390625 -1.640625 0.421875 -1.628906 0.453125 -1.609375 C 0.492188 -1.585938 0.519531 -1.5625 0.53125 -1.53125 C 0.550781 -1.46875 0.601562 -1.367188 0.6875 -1.234375 C 0.769531 -1.097656 0.859375 -0.96875 0.953125 -0.84375 C 1.023438 -0.9375 1.082031 -1.007812 1.125 -1.0625 C 1.207031 -1.144531 1.273438 -1.222656 1.328125 -1.296875 C 1.390625 -1.367188 1.453125 -1.453125 1.515625 -1.546875 C 1.523438 -1.566406 1.546875 -1.582031 1.578125 -1.59375 C 1.609375 -1.613281 1.640625 -1.625 1.671875 -1.625 Z M 1.671875 -1.625 "/></g></g></g><g fill="#b45f3e" fill-opacity="1"><g transform="translate(4.734028, 3.513402)"><g><path d="M 0.828125 -0.578125 C 0.753906 -0.578125 0.691406 -0.578125 0.640625 -0.578125 C 0.597656 -0.585938 0.539062 -0.597656 0.46875 -0.609375 L 0.46875 -0.34375 C 0.46875 -0.289062 0.46875 -0.222656 0.46875 -0.140625 C 0.46875 -0.0976562 0.453125 -0.0625 0.421875 -0.03125 C 0.398438 -0.0078125 0.375 0 0.34375 0 C 0.289062 0 0.25 -0.00390625 0.21875 -0.015625 C 0.195312 -0.0351562 0.1875 -0.0625 0.1875 -0.09375 C 0.1875 -0.144531 0.1875 -0.21875 0.1875 -0.3125 C 0.207031 -0.507812 0.21875 -0.710938 0.21875 -0.921875 C 0.21875 -1.109375 0.210938 -1.285156 0.203125 -1.453125 C 0.203125 -1.484375 0.210938 -1.515625 0.234375 -1.546875 C 0.265625 -1.578125 0.296875 -1.59375 0.328125 -1.59375 C 0.367188 -1.59375 0.429688 -1.597656 0.515625 -1.609375 C 0.609375 -1.628906 0.675781 -1.640625 0.71875 -1.640625 C 0.863281 -1.640625 0.972656 -1.625 1.046875 -1.59375 C 1.128906 -1.5625 1.207031 -1.515625 1.28125 -1.453125 C 1.375 -1.316406 1.421875 -1.222656 1.421875 -1.171875 C 1.421875 -1.054688 1.394531 -0.953125 1.34375 -0.859375 C 1.300781 -0.773438 1.234375 -0.707031 1.140625 -0.65625 C 1.054688 -0.601562 0.953125 -0.578125 0.828125 -0.578125 Z M 0.765625 -1.421875 C 0.710938 -1.421875 0.664062 -1.414062 0.625 -1.40625 C 0.582031 -1.394531 0.53125 -1.382812 0.46875 -1.375 C 0.476562 -1.21875 0.484375 -1.101562 0.484375 -1.03125 C 0.484375 -0.957031 0.484375 -0.894531 0.484375 -0.84375 C 0.554688 -0.832031 0.613281 -0.820312 0.65625 -0.8125 C 0.695312 -0.8125 0.742188 -0.8125 0.796875 -0.8125 C 0.921875 -0.8125 1.007812 -0.84375 1.0625 -0.90625 C 1.113281 -0.976562 1.140625 -1.054688 1.140625 -1.140625 C 1.140625 -1.160156 1.128906 -1.191406 1.109375 -1.234375 C 1.097656 -1.273438 1.085938 -1.300781 1.078125 -1.3125 C 1.035156 -1.351562 0.988281 -1.378906 0.9375 -1.390625 C 0.894531 -1.410156 0.835938 -1.421875 0.765625 -1.421875 Z M 0.765625 -1.421875 "/></g></g></g><g fill="#b45f3e" fill-opacity="1"><g transform="translate(6.208373, 3.513402)"><g><path d="M 0.3125 -1.640625 C 0.34375 -1.640625 0.375 -1.628906 0.40625 -1.609375 C 0.4375 -1.585938 0.453125 -1.554688 0.453125 -1.515625 C 0.472656 -1.378906 0.484375 -1.242188 0.484375 -1.109375 C 0.492188 -0.972656 0.5 -0.820312 0.5 -0.65625 C 0.5 -0.582031 0.492188 -0.453125 0.484375 -0.265625 C 0.554688 -0.253906 0.613281 -0.25 0.65625 -0.25 C 0.6875 -0.25 0.753906 -0.253906 0.859375 -0.265625 C 0.921875 -0.273438 0.972656 -0.28125 1.015625 -0.28125 C 1.054688 -0.28125 1.09375 -0.273438 1.125 -0.265625 C 1.164062 -0.253906 1.203125 -0.242188 1.234375 -0.234375 C 1.265625 -0.210938 1.28125 -0.179688 1.28125 -0.140625 C 1.28125 -0.0976562 1.269531 -0.0625 1.25 -0.03125 C 1.226562 -0.0078125 1.207031 0 1.1875 0 C 1.164062 0 1.128906 -0.00390625 1.078125 -0.015625 C 1.003906 -0.0234375 0.925781 -0.03125 0.84375 -0.03125 C 0.820312 -0.03125 0.796875 -0.0234375 0.765625 -0.015625 C 0.734375 -0.015625 0.710938 -0.015625 0.703125 -0.015625 C 0.660156 -0.015625 0.617188 -0.015625 0.578125 -0.015625 C 0.492188 -0.015625 0.421875 -0.0195312 0.359375 -0.03125 C 0.316406 -0.03125 0.28125 -0.0390625 0.25 -0.0625 C 0.21875 -0.0820312 0.203125 -0.117188 0.203125 -0.171875 C 0.203125 -0.191406 0.203125 -0.253906 0.203125 -0.359375 C 0.222656 -0.535156 0.234375 -0.671875 0.234375 -0.765625 C 0.234375 -0.835938 0.226562 -0.910156 0.21875 -0.984375 C 0.207031 -1.066406 0.203125 -1.117188 0.203125 -1.140625 C 0.191406 -1.285156 0.1875 -1.410156 0.1875 -1.515625 C 0.1875 -1.554688 0.195312 -1.585938 0.21875 -1.609375 C 0.238281 -1.628906 0.269531 -1.640625 0.3125 -1.640625 Z M 0.3125 -1.640625 "/></g></g></g><g fill="#b45f3e" fill-opacity="1"><g transform="translate(7.512304, 3.513402)"><g><path d="M 1.25 -0.34375 C 1.28125 -0.34375 1.300781 -0.332031 1.3125 -0.3125 C 1.332031 -0.289062 1.34375 -0.265625 1.34375 -0.234375 C 1.34375 -0.191406 1.335938 -0.164062 1.328125 -0.15625 C 1.316406 -0.144531 1.296875 -0.128906 1.265625 -0.109375 C 1.191406 -0.078125 1.097656 -0.0507812 0.984375 -0.03125 C 0.878906 -0.0078125 0.769531 0 0.65625 0 C 0.5 0 0.382812 -0.0234375 0.3125 -0.078125 C 0.238281 -0.128906 0.191406 -0.191406 0.171875 -0.265625 C 0.160156 -0.335938 0.15625 -0.429688 0.15625 -0.546875 C 0.15625 -0.671875 0.160156 -0.796875 0.171875 -0.921875 C 0.179688 -1.046875 0.203125 -1.203125 0.234375 -1.390625 C 0.242188 -1.472656 0.273438 -1.53125 0.328125 -1.5625 C 0.378906 -1.601562 0.4375 -1.625 0.5 -1.625 C 0.550781 -1.625 0.640625 -1.628906 0.765625 -1.640625 L 0.984375 -1.640625 C 1.078125 -1.640625 1.144531 -1.632812 1.1875 -1.625 C 1.238281 -1.613281 1.273438 -1.601562 1.296875 -1.59375 C 1.328125 -1.582031 1.34375 -1.5625 1.34375 -1.53125 C 1.34375 -1.5 1.328125 -1.460938 1.296875 -1.421875 C 1.273438 -1.390625 1.242188 -1.375 1.203125 -1.375 C 1.148438 -1.375 1.070312 -1.378906 0.96875 -1.390625 C 0.863281 -1.398438 0.789062 -1.40625 0.75 -1.40625 C 0.707031 -1.40625 0.664062 -1.398438 0.625 -1.390625 C 0.570312 -1.390625 0.535156 -1.382812 0.515625 -1.375 C 0.492188 -1.363281 0.484375 -1.347656 0.484375 -1.328125 C 0.453125 -1.148438 0.4375 -1.019531 0.4375 -0.9375 C 0.476562 -0.9375 0.519531 -0.9375 0.5625 -0.9375 C 0.601562 -0.9375 0.648438 -0.9375 0.703125 -0.9375 C 0.765625 -0.945312 0.800781 -0.953125 0.8125 -0.953125 C 0.90625 -0.960938 0.984375 -0.96875 1.046875 -0.96875 C 1.085938 -0.96875 1.117188 -0.957031 1.140625 -0.9375 C 1.160156 -0.925781 1.171875 -0.910156 1.171875 -0.890625 C 1.171875 -0.847656 1.160156 -0.816406 1.140625 -0.796875 C 1.117188 -0.773438 1.082031 -0.757812 1.03125 -0.75 C 0.976562 -0.738281 0.90625 -0.726562 0.8125 -0.71875 C 0.726562 -0.71875 0.640625 -0.71875 0.546875 -0.71875 C 0.523438 -0.71875 0.488281 -0.71875 0.4375 -0.71875 C 0.425781 -0.613281 0.421875 -0.515625 0.421875 -0.421875 C 0.421875 -0.304688 0.503906 -0.25 0.671875 -0.25 C 0.753906 -0.25 0.820312 -0.253906 0.875 -0.265625 C 0.9375 -0.273438 1.003906 -0.289062 1.078125 -0.3125 C 1.148438 -0.332031 1.207031 -0.34375 1.25 -0.34375 Z M 1.25 -0.34375 "/></g></g></g><g fill="#b45f3e" fill-opacity="1"><g transform="translate(8.937588, 3.513402)"><g/></g></g><g fill="#b45f3e" fill-opacity="1"><g transform="translate(9.518548, 3.513402)"><g><path d="M 1.34375 -0.46875 C 1.34375 -0.382812 1.320312 -0.3125 1.28125 -0.25 C 1.25 -0.195312 1.191406 -0.144531 1.109375 -0.09375 C 1.046875 -0.0625 0.976562 -0.0351562 0.90625 -0.015625 C 0.832031 -0.00390625 0.753906 0 0.671875 0 C 0.597656 0 0.503906 -0.0234375 0.390625 -0.078125 C 0.296875 -0.117188 0.222656 -0.164062 0.171875 -0.21875 C 0.128906 -0.28125 0.109375 -0.34375 0.109375 -0.40625 C 0.109375 -0.457031 0.117188 -0.492188 0.140625 -0.515625 C 0.160156 -0.535156 0.195312 -0.546875 0.25 -0.546875 C 0.269531 -0.546875 0.289062 -0.535156 0.3125 -0.515625 C 0.34375 -0.492188 0.359375 -0.472656 0.359375 -0.453125 C 0.390625 -0.378906 0.429688 -0.320312 0.484375 -0.28125 C 0.546875 -0.25 0.625 -0.234375 0.71875 -0.234375 C 0.820312 -0.234375 0.90625 -0.25 0.96875 -0.28125 C 1.039062 -0.320312 1.078125 -0.378906 1.078125 -0.453125 C 1.078125 -0.503906 1.035156 -0.554688 0.953125 -0.609375 C 0.878906 -0.660156 0.804688 -0.695312 0.734375 -0.71875 C 0.617188 -0.75 0.519531 -0.785156 0.4375 -0.828125 C 0.34375 -0.867188 0.269531 -0.921875 0.21875 -0.984375 C 0.175781 -1.046875 0.15625 -1.113281 0.15625 -1.1875 C 0.15625 -1.257812 0.175781 -1.328125 0.21875 -1.390625 C 0.269531 -1.460938 0.328125 -1.515625 0.390625 -1.546875 C 0.429688 -1.566406 0.492188 -1.585938 0.578125 -1.609375 C 0.660156 -1.628906 0.71875 -1.640625 0.75 -1.640625 C 0.800781 -1.640625 0.859375 -1.628906 0.921875 -1.609375 C 0.984375 -1.597656 1.03125 -1.582031 1.0625 -1.5625 C 1.132812 -1.519531 1.1875 -1.476562 1.21875 -1.4375 C 1.257812 -1.40625 1.28125 -1.363281 1.28125 -1.3125 C 1.28125 -1.289062 1.269531 -1.265625 1.25 -1.234375 C 1.226562 -1.210938 1.1875 -1.203125 1.125 -1.203125 C 1.113281 -1.203125 1.097656 -1.207031 1.078125 -1.21875 C 1.066406 -1.226562 1.050781 -1.25 1.03125 -1.28125 C 1.007812 -1.3125 0.984375 -1.332031 0.953125 -1.34375 C 0.929688 -1.351562 0.894531 -1.363281 0.84375 -1.375 C 0.789062 -1.382812 0.75 -1.390625 0.71875 -1.390625 C 0.675781 -1.390625 0.628906 -1.378906 0.578125 -1.359375 C 0.535156 -1.347656 0.5 -1.328125 0.46875 -1.296875 C 0.445312 -1.265625 0.4375 -1.226562 0.4375 -1.1875 C 0.4375 -1.144531 0.453125 -1.109375 0.484375 -1.078125 C 0.515625 -1.054688 0.550781 -1.039062 0.59375 -1.03125 C 0.644531 -1.007812 0.703125 -0.992188 0.765625 -0.984375 C 0.835938 -0.953125 0.898438 -0.925781 0.953125 -0.90625 C 1.003906 -0.882812 1.054688 -0.863281 1.109375 -0.84375 C 1.191406 -0.789062 1.25 -0.738281 1.28125 -0.6875 C 1.320312 -0.632812 1.34375 -0.5625 1.34375 -0.46875 Z M 1.34375 -0.46875 "/></g></g></g><g fill="#b45f3e" fill-opacity="1"><g transform="translate(10.969654, 3.513402)"><g><path d="M 0.890625 -1.640625 C 1.003906 -1.640625 1.109375 -1.625 1.203125 -1.59375 C 1.296875 -1.5625 1.375 -1.519531 1.4375 -1.46875 C 1.550781 -1.375 1.628906 -1.269531 1.671875 -1.15625 C 1.710938 -1.039062 1.734375 -0.890625 1.734375 -0.703125 C 1.734375 -0.671875 1.726562 -0.640625 1.71875 -0.609375 C 1.707031 -0.578125 1.691406 -0.535156 1.671875 -0.484375 C 1.648438 -0.429688 1.632812 -0.390625 1.625 -0.359375 C 1.59375 -0.296875 1.535156 -0.238281 1.453125 -0.1875 C 1.378906 -0.132812 1.296875 -0.0859375 1.203125 -0.046875 C 1.109375 -0.015625 1.03125 0 0.96875 0 C 0.632812 0 0.394531 -0.113281 0.25 -0.34375 C 0.21875 -0.40625 0.191406 -0.46875 0.171875 -0.53125 C 0.148438 -0.601562 0.140625 -0.671875 0.140625 -0.734375 C 0.140625 -0.910156 0.171875 -1.0625 0.234375 -1.1875 C 0.296875 -1.320312 0.378906 -1.425781 0.484375 -1.5 C 0.554688 -1.539062 0.628906 -1.570312 0.703125 -1.59375 C 0.773438 -1.625 0.835938 -1.640625 0.890625 -1.640625 Z M 0.40625 -0.734375 C 0.40625 -0.640625 0.425781 -0.5625 0.46875 -0.5 C 0.507812 -0.4375 0.570312 -0.375 0.65625 -0.3125 C 0.726562 -0.28125 0.773438 -0.257812 0.796875 -0.25 C 0.828125 -0.25 0.859375 -0.25 0.890625 -0.25 C 1.066406 -0.25 1.207031 -0.296875 1.3125 -0.390625 C 1.414062 -0.484375 1.46875 -0.609375 1.46875 -0.765625 C 1.46875 -0.898438 1.453125 -1.003906 1.421875 -1.078125 C 1.390625 -1.160156 1.335938 -1.226562 1.265625 -1.28125 C 1.222656 -1.3125 1.171875 -1.332031 1.109375 -1.34375 C 1.046875 -1.363281 0.984375 -1.375 0.921875 -1.375 C 0.804688 -1.375 0.707031 -1.34375 0.625 -1.28125 C 0.550781 -1.21875 0.492188 -1.132812 0.453125 -1.03125 C 0.421875 -0.9375 0.40625 -0.835938 0.40625 -0.734375 Z M 0.40625 -0.734375 "/></g></g></g><g fill="#b45f3e" fill-opacity="1"><g transform="translate(12.841633, 3.513402)"><g><path d="M 0.59375 -1.421875 C 0.59375 -1.316406 0.59375 -1.210938 0.59375 -1.109375 C 0.59375 -1.003906 0.597656 -0.847656 0.609375 -0.640625 C 0.609375 -0.609375 0.609375 -0.546875 0.609375 -0.453125 C 0.617188 -0.359375 0.625 -0.273438 0.625 -0.203125 C 0.644531 -0.203125 0.664062 -0.203125 0.6875 -0.203125 C 0.707031 -0.210938 0.722656 -0.21875 0.734375 -0.21875 C 0.765625 -0.21875 0.789062 -0.207031 0.8125 -0.1875 C 0.84375 -0.164062 0.859375 -0.132812 0.859375 -0.09375 C 0.859375 -0.0703125 0.847656 -0.0507812 0.828125 -0.03125 C 0.804688 -0.0195312 0.769531 -0.0078125 0.71875 0 C 0.664062 0 0.59375 0 0.5 0 C 0.394531 0 0.3125 0 0.25 0 C 0.195312 -0.0078125 0.160156 -0.0234375 0.140625 -0.046875 C 0.117188 -0.0664062 0.109375 -0.0976562 0.109375 -0.140625 C 0.109375 -0.171875 0.117188 -0.191406 0.140625 -0.203125 C 0.160156 -0.210938 0.1875 -0.21875 0.21875 -0.21875 L 0.28125 -0.21875 L 0.359375 -0.203125 L 0.34375 -0.515625 C 0.332031 -0.679688 0.328125 -0.832031 0.328125 -0.96875 C 0.328125 -1.039062 0.332031 -1.140625 0.34375 -1.265625 L 0.34375 -1.40625 C 0.289062 -1.40625 0.25 -1.40625 0.21875 -1.40625 C 0.175781 -1.40625 0.144531 -1.410156 0.125 -1.421875 C 0.113281 -1.441406 0.109375 -1.472656 0.109375 -1.515625 C 0.109375 -1.554688 0.140625 -1.582031 0.203125 -1.59375 C 0.273438 -1.613281 0.378906 -1.625 0.515625 -1.625 C 0.617188 -1.625 0.695312 -1.617188 0.75 -1.609375 C 0.800781 -1.609375 0.828125 -1.59375 0.828125 -1.5625 C 0.828125 -1.507812 0.816406 -1.472656 0.796875 -1.453125 C 0.773438 -1.429688 0.726562 -1.421875 0.65625 -1.421875 Z M 0.59375 -1.421875 "/></g></g></g><g fill="#b45f3e" fill-opacity="1"><g transform="translate(13.804734, 3.513402)"><g><path d="M 0.3125 -1.640625 C 0.34375 -1.640625 0.375 -1.628906 0.40625 -1.609375 C 0.4375 -1.585938 0.453125 -1.554688 0.453125 -1.515625 C 0.472656 -1.378906 0.484375 -1.242188 0.484375 -1.109375 C 0.492188 -0.972656 0.5 -0.820312 0.5 -0.65625 C 0.5 -0.582031 0.492188 -0.453125 0.484375 -0.265625 C 0.554688 -0.253906 0.613281 -0.25 0.65625 -0.25 C 0.6875 -0.25 0.753906 -0.253906 0.859375 -0.265625 C 0.921875 -0.273438 0.972656 -0.28125 1.015625 -0.28125 C 1.054688 -0.28125 1.09375 -0.273438 1.125 -0.265625 C 1.164062 -0.253906 1.203125 -0.242188 1.234375 -0.234375 C 1.265625 -0.210938 1.28125 -0.179688 1.28125 -0.140625 C 1.28125 -0.0976562 1.269531 -0.0625 1.25 -0.03125 C 1.226562 -0.0078125 1.207031 0 1.1875 0 C 1.164062 0 1.128906 -0.00390625 1.078125 -0.015625 C 1.003906 -0.0234375 0.925781 -0.03125 0.84375 -0.03125 C 0.820312 -0.03125 0.796875 -0.0234375 0.765625 -0.015625 C 0.734375 -0.015625 0.710938 -0.015625 0.703125 -0.015625 C 0.660156 -0.015625 0.617188 -0.015625 0.578125 -0.015625 C 0.492188 -0.015625 0.421875 -0.0195312 0.359375 -0.03125 C 0.316406 -0.03125 0.28125 -0.0390625 0.25 -0.0625 C 0.21875 -0.0820312 0.203125 -0.117188 0.203125 -0.171875 C 0.203125 -0.191406 0.203125 -0.253906 0.203125 -0.359375 C 0.222656 -0.535156 0.234375 -0.671875 0.234375 -0.765625 C 0.234375 -0.835938 0.226562 -0.910156 0.21875 -0.984375 C 0.207031 -1.066406 0.203125 -1.117188 0.203125 -1.140625 C 0.191406 -1.285156 0.1875 -1.410156 0.1875 -1.515625 C 0.1875 -1.554688 0.195312 -1.585938 0.21875 -1.609375 C 0.238281 -1.628906 0.269531 -1.640625 0.3125 -1.640625 Z M 0.3125 -1.640625 "/></g></g></g><g fill="#b45f3e" fill-opacity="1"><g transform="translate(15.108665, 3.513402)"><g><path d="M 0.21875 0 C 0.195312 0 0.179688 0 0.171875 0 C 0.148438 -0.0078125 0.128906 -0.0234375 0.109375 -0.046875 C 0.0976562 -0.0664062 0.09375 -0.0976562 0.09375 -0.140625 C 0.09375 -0.160156 0.0976562 -0.179688 0.109375 -0.203125 C 0.117188 -0.222656 0.132812 -0.238281 0.15625 -0.25 C 0.195312 -0.257812 0.242188 -0.265625 0.296875 -0.265625 C 0.335938 -0.265625 0.367188 -0.25 0.390625 -0.21875 C 0.421875 -0.195312 0.4375 -0.164062 0.4375 -0.125 C 0.4375 -0.0703125 0.421875 -0.015625 0.390625 0.046875 C 0.359375 0.117188 0.328125 0.175781 0.296875 0.21875 C 0.273438 0.238281 0.25 0.257812 0.21875 0.28125 C 0.195312 0.300781 0.175781 0.3125 0.15625 0.3125 C 0.113281 0.3125 0.0859375 0.304688 0.078125 0.296875 C 0.0664062 0.285156 0.0625 0.265625 0.0625 0.234375 C 0.0625 0.210938 0.078125 0.1875 0.109375 0.15625 C 0.140625 0.132812 0.160156 0.117188 0.171875 0.109375 C 0.191406 0.078125 0.207031 0.0390625 0.21875 0 Z M 0.21875 0 "/></g></g></g><g fill="#b45f3e" fill-opacity="1"><g transform="translate(15.720609, 3.513402)"><g/></g></g><g fill="#b45f3e" fill-opacity="1"><g transform="translate(16.301569, 3.513402)"><g><path d="M 0.03125 -1.5 C 0.03125 -1.570312 0.0820312 -1.609375 0.1875 -1.609375 C 0.238281 -1.609375 0.328125 -1.609375 0.453125 -1.609375 C 0.597656 -1.597656 0.707031 -1.59375 0.78125 -1.59375 C 0.84375 -1.59375 0.914062 -1.597656 1 -1.609375 C 1.0625 -1.609375 1.097656 -1.609375 1.109375 -1.609375 C 1.203125 -1.609375 1.285156 -1.59375 1.359375 -1.5625 C 1.367188 -1.550781 1.378906 -1.539062 1.390625 -1.53125 C 1.410156 -1.519531 1.421875 -1.5 1.421875 -1.46875 C 1.421875 -1.4375 1.40625 -1.40625 1.375 -1.375 C 1.351562 -1.34375 1.328125 -1.328125 1.296875 -1.328125 C 1.253906 -1.328125 1.195312 -1.332031 1.125 -1.34375 C 1.0625 -1.363281 1.007812 -1.375 0.96875 -1.375 C 0.914062 -1.375 0.878906 -1.367188 0.859375 -1.359375 C 0.847656 -1.304688 0.84375 -1.171875 0.84375 -0.953125 C 0.84375 -0.703125 0.851562 -0.445312 0.875 -0.1875 L 0.875 -0.109375 C 0.875 -0.0351562 0.832031 0 0.75 0 C 0.6875 0 0.644531 -0.015625 0.625 -0.046875 C 0.601562 -0.078125 0.59375 -0.125 0.59375 -0.1875 C 0.59375 -0.300781 0.585938 -0.453125 0.578125 -0.640625 C 0.578125 -0.785156 0.578125 -0.894531 0.578125 -0.96875 C 0.578125 -1.007812 0.582031 -1.140625 0.59375 -1.359375 L 0.28125 -1.359375 C 0.1875 -1.359375 0.117188 -1.363281 0.078125 -1.375 C 0.046875 -1.394531 0.03125 -1.4375 0.03125 -1.5 Z M 0.03125 -1.5 "/></g></g></g><g fill="#b45f3e" fill-opacity="1"><g transform="translate(17.750094, 3.513402)"><g><path d="M 0.59375 -1.421875 C 0.59375 -1.316406 0.59375 -1.210938 0.59375 -1.109375 C 0.59375 -1.003906 0.597656 -0.847656 0.609375 -0.640625 C 0.609375 -0.609375 0.609375 -0.546875 0.609375 -0.453125 C 0.617188 -0.359375 0.625 -0.273438 0.625 -0.203125 C 0.644531 -0.203125 0.664062 -0.203125 0.6875 -0.203125 C 0.707031 -0.210938 0.722656 -0.21875 0.734375 -0.21875 C 0.765625 -0.21875 0.789062 -0.207031 0.8125 -0.1875 C 0.84375 -0.164062 0.859375 -0.132812 0.859375 -0.09375 C 0.859375 -0.0703125 0.847656 -0.0507812 0.828125 -0.03125 C 0.804688 -0.0195312 0.769531 -0.0078125 0.71875 0 C 0.664062 0 0.59375 0 0.5 0 C 0.394531 0 0.3125 0 0.25 0 C 0.195312 -0.0078125 0.160156 -0.0234375 0.140625 -0.046875 C 0.117188 -0.0664062 0.109375 -0.0976562 0.109375 -0.140625 C 0.109375 -0.171875 0.117188 -0.191406 0.140625 -0.203125 C 0.160156 -0.210938 0.1875 -0.21875 0.21875 -0.21875 L 0.28125 -0.21875 L 0.359375 -0.203125 L 0.34375 -0.515625 C 0.332031 -0.679688 0.328125 -0.832031 0.328125 -0.96875 C 0.328125 -1.039062 0.332031 -1.140625 0.34375 -1.265625 L 0.34375 -1.40625 C 0.289062 -1.40625 0.25 -1.40625 0.21875 -1.40625 C 0.175781 -1.40625 0.144531 -1.410156 0.125 -1.421875 C 0.113281 -1.441406 0.109375 -1.472656 0.109375 -1.515625 C 0.109375 -1.554688 0.140625 -1.582031 0.203125 -1.59375 C 0.273438 -1.613281 0.378906 -1.625 0.515625 -1.625 C 0.617188 -1.625 0.695312 -1.617188 0.75 -1.609375 C 0.800781 -1.609375 0.828125 -1.59375 0.828125 -1.5625 C 0.828125 -1.507812 0.816406 -1.472656 0.796875 -1.453125 C 0.773438 -1.429688 0.726562 -1.421875 0.65625 -1.421875 Z M 0.59375 -1.421875 "/></g></g></g><g fill="#b45f3e" fill-opacity="1"><g transform="translate(18.713195, 3.513402)"><g><path d="M 1.671875 -1.625 C 1.691406 -1.625 1.71875 -1.609375 1.75 -1.578125 C 1.789062 -1.546875 1.8125 -1.519531 1.8125 -1.5 C 1.8125 -1.394531 1.804688 -1.25 1.796875 -1.0625 C 1.796875 -1.019531 1.796875 -0.96875 1.796875 -0.90625 C 1.796875 -0.84375 1.796875 -0.769531 1.796875 -0.6875 C 1.796875 -0.425781 1.8125 -0.234375 1.84375 -0.109375 C 1.84375 -0.0664062 1.828125 -0.0351562 1.796875 -0.015625 C 1.765625 -0.00390625 1.734375 0 1.703125 0 C 1.628906 0 1.582031 -0.0195312 1.5625 -0.0625 C 1.539062 -0.113281 1.53125 -0.1875 1.53125 -0.28125 C 1.53125 -0.601562 1.535156 -0.90625 1.546875 -1.1875 C 1.347656 -0.96875 1.191406 -0.785156 1.078125 -0.640625 C 1.078125 -0.640625 1.0625 -0.628906 1.03125 -0.609375 C 1.007812 -0.578125 0.988281 -0.5625 0.96875 -0.5625 C 0.914062 -0.5625 0.875 -0.570312 0.84375 -0.59375 C 0.820312 -0.625 0.796875 -0.660156 0.765625 -0.703125 L 0.640625 -0.875 C 0.554688 -0.988281 0.492188 -1.078125 0.453125 -1.140625 C 0.453125 -0.984375 0.460938 -0.769531 0.484375 -0.5 C 0.492188 -0.34375 0.5 -0.226562 0.5 -0.15625 C 0.5 -0.113281 0.488281 -0.078125 0.46875 -0.046875 C 0.445312 -0.015625 0.414062 0 0.375 0 C 0.320312 0 0.28125 -0.00390625 0.25 -0.015625 C 0.226562 -0.0351562 0.21875 -0.0664062 0.21875 -0.109375 C 0.21875 -0.140625 0.21875 -0.1875 0.21875 -0.25 C 0.21875 -0.382812 0.210938 -0.546875 0.203125 -0.734375 L 0.203125 -0.875 L 0.1875 -1.0625 C 0.1875 -1.113281 0.1875 -1.175781 0.1875 -1.25 C 0.1875 -1.320312 0.1875 -1.398438 0.1875 -1.484375 C 0.1875 -1.585938 0.242188 -1.640625 0.359375 -1.640625 C 0.390625 -1.640625 0.421875 -1.628906 0.453125 -1.609375 C 0.492188 -1.585938 0.519531 -1.5625 0.53125 -1.53125 C 0.550781 -1.46875 0.601562 -1.367188 0.6875 -1.234375 C 0.769531 -1.097656 0.859375 -0.96875 0.953125 -0.84375 C 1.023438 -0.9375 1.082031 -1.007812 1.125 -1.0625 C 1.207031 -1.144531 1.273438 -1.222656 1.328125 -1.296875 C 1.390625 -1.367188 1.453125 -1.453125 1.515625 -1.546875 C 1.523438 -1.566406 1.546875 -1.582031 1.578125 -1.59375 C 1.609375 -1.613281 1.640625 -1.625 1.671875 -1.625 Z M 1.671875 -1.625 "/></g></g></g><g fill="#b45f3e" fill-opacity="1"><g transform="translate(20.742677, 3.513402)"><g><path d="M 1.25 -0.34375 C 1.28125 -0.34375 1.300781 -0.332031 1.3125 -0.3125 C 1.332031 -0.289062 1.34375 -0.265625 1.34375 -0.234375 C 1.34375 -0.191406 1.335938 -0.164062 1.328125 -0.15625 C 1.316406 -0.144531 1.296875 -0.128906 1.265625 -0.109375 C 1.191406 -0.078125 1.097656 -0.0507812 0.984375 -0.03125 C 0.878906 -0.0078125 0.769531 0 0.65625 0 C 0.5 0 0.382812 -0.0234375 0.3125 -0.078125 C 0.238281 -0.128906 0.191406 -0.191406 0.171875 -0.265625 C 0.160156 -0.335938 0.15625 -0.429688 0.15625 -0.546875 C 0.15625 -0.671875 0.160156 -0.796875 0.171875 -0.921875 C 0.179688 -1.046875 0.203125 -1.203125 0.234375 -1.390625 C 0.242188 -1.472656 0.273438 -1.53125 0.328125 -1.5625 C 0.378906 -1.601562 0.4375 -1.625 0.5 -1.625 C 0.550781 -1.625 0.640625 -1.628906 0.765625 -1.640625 L 0.984375 -1.640625 C 1.078125 -1.640625 1.144531 -1.632812 1.1875 -1.625 C 1.238281 -1.613281 1.273438 -1.601562 1.296875 -1.59375 C 1.328125 -1.582031 1.34375 -1.5625 1.34375 -1.53125 C 1.34375 -1.5 1.328125 -1.460938 1.296875 -1.421875 C 1.273438 -1.390625 1.242188 -1.375 1.203125 -1.375 C 1.148438 -1.375 1.070312 -1.378906 0.96875 -1.390625 C 0.863281 -1.398438 0.789062 -1.40625 0.75 -1.40625 C 0.707031 -1.40625 0.664062 -1.398438 0.625 -1.390625 C 0.570312 -1.390625 0.535156 -1.382812 0.515625 -1.375 C 0.492188 -1.363281 0.484375 -1.347656 0.484375 -1.328125 C 0.453125 -1.148438 0.4375 -1.019531 0.4375 -0.9375 C 0.476562 -0.9375 0.519531 -0.9375 0.5625 -0.9375 C 0.601562 -0.9375 0.648438 -0.9375 0.703125 -0.9375 C 0.765625 -0.945312 0.800781 -0.953125 0.8125 -0.953125 C 0.90625 -0.960938 0.984375 -0.96875 1.046875 -0.96875 C 1.085938 -0.96875 1.117188 -0.957031 1.140625 -0.9375 C 1.160156 -0.925781 1.171875 -0.910156 1.171875 -0.890625 C 1.171875 -0.847656 1.160156 -0.816406 1.140625 -0.796875 C 1.117188 -0.773438 1.082031 -0.757812 1.03125 -0.75 C 0.976562 -0.738281 0.90625 -0.726562 0.8125 -0.71875 C 0.726562 -0.71875 0.640625 -0.71875 0.546875 -0.71875 C 0.523438 -0.71875 0.488281 -0.71875 0.4375 -0.71875 C 0.425781 -0.613281 0.421875 -0.515625 0.421875 -0.421875 C 0.421875 -0.304688 0.503906 -0.25 0.671875 -0.25 C 0.753906 -0.25 0.820312 -0.253906 0.875 -0.265625 C 0.9375 -0.273438 1.003906 -0.289062 1.078125 -0.3125 C 1.148438 -0.332031 1.207031 -0.34375 1.25 -0.34375 Z M 1.25 -0.34375 "/></g></g></g><g fill="#b45f3e" fill-opacity="1"><g transform="translate(22.167962, 3.513402)"><g><path d="M 0.3125 -1.640625 C 0.34375 -1.640625 0.375 -1.628906 0.40625 -1.609375 C 0.4375 -1.585938 0.453125 -1.554688 0.453125 -1.515625 C 0.472656 -1.378906 0.484375 -1.242188 0.484375 -1.109375 C 0.492188 -0.972656 0.5 -0.820312 0.5 -0.65625 C 0.5 -0.582031 0.492188 -0.453125 0.484375 -0.265625 C 0.554688 -0.253906 0.613281 -0.25 0.65625 -0.25 C 0.6875 -0.25 0.753906 -0.253906 0.859375 -0.265625 C 0.921875 -0.273438 0.972656 -0.28125 1.015625 -0.28125 C 1.054688 -0.28125 1.09375 -0.273438 1.125 -0.265625 C 1.164062 -0.253906 1.203125 -0.242188 1.234375 -0.234375 C 1.265625 -0.210938 1.28125 -0.179688 1.28125 -0.140625 C 1.28125 -0.0976562 1.269531 -0.0625 1.25 -0.03125 C 1.226562 -0.0078125 1.207031 0 1.1875 0 C 1.164062 0 1.128906 -0.00390625 1.078125 -0.015625 C 1.003906 -0.0234375 0.925781 -0.03125 0.84375 -0.03125 C 0.820312 -0.03125 0.796875 -0.0234375 0.765625 -0.015625 C 0.734375 -0.015625 0.710938 -0.015625 0.703125 -0.015625 C 0.660156 -0.015625 0.617188 -0.015625 0.578125 -0.015625 C 0.492188 -0.015625 0.421875 -0.0195312 0.359375 -0.03125 C 0.316406 -0.03125 0.28125 -0.0390625 0.25 -0.0625 C 0.21875 -0.0820312 0.203125 -0.117188 0.203125 -0.171875 C 0.203125 -0.191406 0.203125 -0.253906 0.203125 -0.359375 C 0.222656 -0.535156 0.234375 -0.671875 0.234375 -0.765625 C 0.234375 -0.835938 0.226562 -0.910156 0.21875 -0.984375 C 0.207031 -1.066406 0.203125 -1.117188 0.203125 -1.140625 C 0.191406 -1.285156 0.1875 -1.410156 0.1875 -1.515625 C 0.1875 -1.554688 0.195312 -1.585938 0.21875 -1.609375 C 0.238281 -1.628906 0.269531 -1.640625 0.3125 -1.640625 Z M 0.3125 -1.640625 "/></g></g></g><g fill="#b45f3e" fill-opacity="1"><g transform="translate(23.471892, 3.513402)"><g><path d="M 1.25 -0.34375 C 1.28125 -0.34375 1.300781 -0.332031 1.3125 -0.3125 C 1.332031 -0.289062 1.34375 -0.265625 1.34375 -0.234375 C 1.34375 -0.191406 1.335938 -0.164062 1.328125 -0.15625 C 1.316406 -0.144531 1.296875 -0.128906 1.265625 -0.109375 C 1.191406 -0.078125 1.097656 -0.0507812 0.984375 -0.03125 C 0.878906 -0.0078125 0.769531 0 0.65625 0 C 0.5 0 0.382812 -0.0234375 0.3125 -0.078125 C 0.238281 -0.128906 0.191406 -0.191406 0.171875 -0.265625 C 0.160156 -0.335938 0.15625 -0.429688 0.15625 -0.546875 C 0.15625 -0.671875 0.160156 -0.796875 0.171875 -0.921875 C 0.179688 -1.046875 0.203125 -1.203125 0.234375 -1.390625 C 0.242188 -1.472656 0.273438 -1.53125 0.328125 -1.5625 C 0.378906 -1.601562 0.4375 -1.625 0.5 -1.625 C 0.550781 -1.625 0.640625 -1.628906 0.765625 -1.640625 L 0.984375 -1.640625 C 1.078125 -1.640625 1.144531 -1.632812 1.1875 -1.625 C 1.238281 -1.613281 1.273438 -1.601562 1.296875 -1.59375 C 1.328125 -1.582031 1.34375 -1.5625 1.34375 -1.53125 C 1.34375 -1.5 1.328125 -1.460938 1.296875 -1.421875 C 1.273438 -1.390625 1.242188 -1.375 1.203125 -1.375 C 1.148438 -1.375 1.070312 -1.378906 0.96875 -1.390625 C 0.863281 -1.398438 0.789062 -1.40625 0.75 -1.40625 C 0.707031 -1.40625 0.664062 -1.398438 0.625 -1.390625 C 0.570312 -1.390625 0.535156 -1.382812 0.515625 -1.375 C 0.492188 -1.363281 0.484375 -1.347656 0.484375 -1.328125 C 0.453125 -1.148438 0.4375 -1.019531 0.4375 -0.9375 C 0.476562 -0.9375 0.519531 -0.9375 0.5625 -0.9375 C 0.601562 -0.9375 0.648438 -0.9375 0.703125 -0.9375 C 0.765625 -0.945312 0.800781 -0.953125 0.8125 -0.953125 C 0.90625 -0.960938 0.984375 -0.96875 1.046875 -0.96875 C 1.085938 -0.96875 1.117188 -0.957031 1.140625 -0.9375 C 1.160156 -0.925781 1.171875 -0.910156 1.171875 -0.890625 C 1.171875 -0.847656 1.160156 -0.816406 1.140625 -0.796875 C 1.117188 -0.773438 1.082031 -0.757812 1.03125 -0.75 C 0.976562 -0.738281 0.90625 -0.726562 0.8125 -0.71875 C 0.726562 -0.71875 0.640625 -0.71875 0.546875 -0.71875 C 0.523438 -0.71875 0.488281 -0.71875 0.4375 -0.71875 C 0.425781 -0.613281 0.421875 -0.515625 0.421875 -0.421875 C 0.421875 -0.304688 0.503906 -0.25 0.671875 -0.25 C 0.753906 -0.25 0.820312 -0.253906 0.875 -0.265625 C 0.9375 -0.273438 1.003906 -0.289062 1.078125 -0.3125 C 1.148438 -0.332031 1.207031 -0.34375 1.25 -0.34375 Z M 1.25 -0.34375 "/></g></g></g><g fill="#b45f3e" fill-opacity="1"><g transform="translate(24.897177, 3.513402)"><g><path d="M 1.34375 -0.46875 C 1.34375 -0.382812 1.320312 -0.3125 1.28125 -0.25 C 1.25 -0.195312 1.191406 -0.144531 1.109375 -0.09375 C 1.046875 -0.0625 0.976562 -0.0351562 0.90625 -0.015625 C 0.832031 -0.00390625 0.753906 0 0.671875 0 C 0.597656 0 0.503906 -0.0234375 0.390625 -0.078125 C 0.296875 -0.117188 0.222656 -0.164062 0.171875 -0.21875 C 0.128906 -0.28125 0.109375 -0.34375 0.109375 -0.40625 C 0.109375 -0.457031 0.117188 -0.492188 0.140625 -0.515625 C 0.160156 -0.535156 0.195312 -0.546875 0.25 -0.546875 C 0.269531 -0.546875 0.289062 -0.535156 0.3125 -0.515625 C 0.34375 -0.492188 0.359375 -0.472656 0.359375 -0.453125 C 0.390625 -0.378906 0.429688 -0.320312 0.484375 -0.28125 C 0.546875 -0.25 0.625 -0.234375 0.71875 -0.234375 C 0.820312 -0.234375 0.90625 -0.25 0.96875 -0.28125 C 1.039062 -0.320312 1.078125 -0.378906 1.078125 -0.453125 C 1.078125 -0.503906 1.035156 -0.554688 0.953125 -0.609375 C 0.878906 -0.660156 0.804688 -0.695312 0.734375 -0.71875 C 0.617188 -0.75 0.519531 -0.785156 0.4375 -0.828125 C 0.34375 -0.867188 0.269531 -0.921875 0.21875 -0.984375 C 0.175781 -1.046875 0.15625 -1.113281 0.15625 -1.1875 C 0.15625 -1.257812 0.175781 -1.328125 0.21875 -1.390625 C 0.269531 -1.460938 0.328125 -1.515625 0.390625 -1.546875 C 0.429688 -1.566406 0.492188 -1.585938 0.578125 -1.609375 C 0.660156 -1.628906 0.71875 -1.640625 0.75 -1.640625 C 0.800781 -1.640625 0.859375 -1.628906 0.921875 -1.609375 C 0.984375 -1.597656 1.03125 -1.582031 1.0625 -1.5625 C 1.132812 -1.519531 1.1875 -1.476562 1.21875 -1.4375 C 1.257812 -1.40625 1.28125 -1.363281 1.28125 -1.3125 C 1.28125 -1.289062 1.269531 -1.265625 1.25 -1.234375 C 1.226562 -1.210938 1.1875 -1.203125 1.125 -1.203125 C 1.113281 -1.203125 1.097656 -1.207031 1.078125 -1.21875 C 1.066406 -1.226562 1.050781 -1.25 1.03125 -1.28125 C 1.007812 -1.3125 0.984375 -1.332031 0.953125 -1.34375 C 0.929688 -1.351562 0.894531 -1.363281 0.84375 -1.375 C 0.789062 -1.382812 0.75 -1.390625 0.71875 -1.390625 C 0.675781 -1.390625 0.628906 -1.378906 0.578125 -1.359375 C 0.535156 -1.347656 0.5 -1.328125 0.46875 -1.296875 C 0.445312 -1.265625 0.4375 -1.226562 0.4375 -1.1875 C 0.4375 -1.144531 0.453125 -1.109375 0.484375 -1.078125 C 0.515625 -1.054688 0.550781 -1.039062 0.59375 -1.03125 C 0.644531 -1.007812 0.703125 -0.992188 0.765625 -0.984375 C 0.835938 -0.953125 0.898438 -0.925781 0.953125 -0.90625 C 1.003906 -0.882812 1.054688 -0.863281 1.109375 -0.84375 C 1.191406 -0.789062 1.25 -0.738281 1.28125 -0.6875 C 1.320312 -0.632812 1.34375 -0.5625 1.34375 -0.46875 Z M 1.34375 -0.46875 "/></g></g></g><g fill="#b45f3e" fill-opacity="1"><g transform="translate(26.348283, 3.513402)"><g><path d="M 1.34375 -0.46875 C 1.34375 -0.382812 1.320312 -0.3125 1.28125 -0.25 C 1.25 -0.195312 1.191406 -0.144531 1.109375 -0.09375 C 1.046875 -0.0625 0.976562 -0.0351562 0.90625 -0.015625 C 0.832031 -0.00390625 0.753906 0 0.671875 0 C 0.597656 0 0.503906 -0.0234375 0.390625 -0.078125 C 0.296875 -0.117188 0.222656 -0.164062 0.171875 -0.21875 C 0.128906 -0.28125 0.109375 -0.34375 0.109375 -0.40625 C 0.109375 -0.457031 0.117188 -0.492188 0.140625 -0.515625 C 0.160156 -0.535156 0.195312 -0.546875 0.25 -0.546875 C 0.269531 -0.546875 0.289062 -0.535156 0.3125 -0.515625 C 0.34375 -0.492188 0.359375 -0.472656 0.359375 -0.453125 C 0.390625 -0.378906 0.429688 -0.320312 0.484375 -0.28125 C 0.546875 -0.25 0.625 -0.234375 0.71875 -0.234375 C 0.820312 -0.234375 0.90625 -0.25 0.96875 -0.28125 C 1.039062 -0.320312 1.078125 -0.378906 1.078125 -0.453125 C 1.078125 -0.503906 1.035156 -0.554688 0.953125 -0.609375 C 0.878906 -0.660156 0.804688 -0.695312 0.734375 -0.71875 C 0.617188 -0.75 0.519531 -0.785156 0.4375 -0.828125 C 0.34375 -0.867188 0.269531 -0.921875 0.21875 -0.984375 C 0.175781 -1.046875 0.15625 -1.113281 0.15625 -1.1875 C 0.15625 -1.257812 0.175781 -1.328125 0.21875 -1.390625 C 0.269531 -1.460938 0.328125 -1.515625 0.390625 -1.546875 C 0.429688 -1.566406 0.492188 -1.585938 0.578125 -1.609375 C 0.660156 -1.628906 0.71875 -1.640625 0.75 -1.640625 C 0.800781 -1.640625 0.859375 -1.628906 0.921875 -1.609375 C 0.984375 -1.597656 1.03125 -1.582031 1.0625 -1.5625 C 1.132812 -1.519531 1.1875 -1.476562 1.21875 -1.4375 C 1.257812 -1.40625 1.28125 -1.363281 1.28125 -1.3125 C 1.28125 -1.289062 1.269531 -1.265625 1.25 -1.234375 C 1.226562 -1.210938 1.1875 -1.203125 1.125 -1.203125 C 1.113281 -1.203125 1.097656 -1.207031 1.078125 -1.21875 C 1.066406 -1.226562 1.050781 -1.25 1.03125 -1.28125 C 1.007812 -1.3125 0.984375 -1.332031 0.953125 -1.34375 C 0.929688 -1.351562 0.894531 -1.363281 0.84375 -1.375 C 0.789062 -1.382812 0.75 -1.390625 0.71875 -1.390625 C 0.675781 -1.390625 0.628906 -1.378906 0.578125 -1.359375 C 0.535156 -1.347656 0.5 -1.328125 0.46875 -1.296875 C 0.445312 -1.265625 0.4375 -1.226562 0.4375 -1.1875 C 0.4375 -1.144531 0.453125 -1.109375 0.484375 -1.078125 C 0.515625 -1.054688 0.550781 -1.039062 0.59375 -1.03125 C 0.644531 -1.007812 0.703125 -0.992188 0.765625 -0.984375 C 0.835938 -0.953125 0.898438 -0.925781 0.953125 -0.90625 C 1.003906 -0.882812 1.054688 -0.863281 1.109375 -0.84375 C 1.191406 -0.789062 1.25 -0.738281 1.28125 -0.6875 C 1.320312 -0.632812 1.34375 -0.5625 1.34375 -0.46875 Z M 1.34375 -0.46875 "/></g></g></g><g fill="#b45f3e" fill-opacity="1"><g transform="translate(27.799388, 3.513402)"><g/></g></g><g fill="#b45f3e" fill-opacity="1"><g transform="translate(28.380348, 3.513402)"><g><path d="M 1.359375 -0.03125 C 1.335938 -0.0625 1.316406 -0.09375 1.296875 -0.125 C 1.285156 -0.164062 1.269531 -0.210938 1.25 -0.265625 C 1.25 -0.273438 1.238281 -0.300781 1.21875 -0.34375 C 1.207031 -0.382812 1.191406 -0.421875 1.171875 -0.453125 C 1.066406 -0.429688 0.976562 -0.421875 0.90625 -0.421875 C 0.863281 -0.421875 0.820312 -0.421875 0.78125 -0.421875 C 0.738281 -0.429688 0.703125 -0.4375 0.671875 -0.4375 C 0.585938 -0.445312 0.519531 -0.453125 0.46875 -0.453125 C 0.445312 -0.421875 0.425781 -0.390625 0.40625 -0.359375 C 0.394531 -0.328125 0.378906 -0.28125 0.359375 -0.21875 C 0.328125 -0.125 0.300781 -0.0625 0.28125 -0.03125 C 0.269531 0 0.238281 0.015625 0.1875 0.015625 C 0.15625 0.015625 0.125 0.0078125 0.09375 0 C 0.0625 -0.0195312 0.046875 -0.046875 0.046875 -0.078125 C 0.0546875 -0.148438 0.078125 -0.222656 0.109375 -0.296875 C 0.140625 -0.367188 0.179688 -0.460938 0.234375 -0.578125 L 0.34375 -0.828125 C 0.394531 -0.972656 0.441406 -1.097656 0.484375 -1.203125 C 0.535156 -1.304688 0.601562 -1.429688 0.6875 -1.578125 C 0.695312 -1.597656 0.710938 -1.613281 0.734375 -1.625 C 0.753906 -1.632812 0.78125 -1.640625 0.8125 -1.640625 C 0.84375 -1.640625 0.863281 -1.640625 0.875 -1.640625 C 0.894531 -1.640625 0.910156 -1.632812 0.921875 -1.625 C 0.929688 -1.613281 0.941406 -1.59375 0.953125 -1.5625 C 1.015625 -1.46875 1.066406 -1.375 1.109375 -1.28125 C 1.148438 -1.1875 1.203125 -1.050781 1.265625 -0.875 L 1.328125 -0.75 C 1.367188 -0.625 1.40625 -0.519531 1.4375 -0.4375 C 1.476562 -0.351562 1.519531 -0.273438 1.5625 -0.203125 C 1.59375 -0.160156 1.609375 -0.128906 1.609375 -0.109375 C 1.609375 -0.0664062 1.59375 -0.0351562 1.5625 -0.015625 C 1.539062 0.00390625 1.507812 0.015625 1.46875 0.015625 C 1.425781 0.015625 1.390625 0 1.359375 -0.03125 Z M 1.09375 -0.65625 C 1.0625 -0.71875 1.023438 -0.820312 0.984375 -0.96875 C 0.921875 -1.125 0.863281 -1.242188 0.8125 -1.328125 C 0.78125 -1.253906 0.734375 -1.148438 0.671875 -1.015625 C 0.628906 -0.929688 0.582031 -0.816406 0.53125 -0.671875 C 0.632812 -0.648438 0.75 -0.640625 0.875 -0.640625 C 0.96875 -0.640625 1.039062 -0.644531 1.09375 -0.65625 Z M 1.09375 -0.65625 "/></g></g></g><g fill="#b45f3e" fill-opacity="1"><g transform="translate(30.032852, 3.513402)"><g><path d="M 1.015625 -0.6875 C 1.078125 -0.582031 1.140625 -0.488281 1.203125 -0.40625 C 1.265625 -0.332031 1.34375 -0.238281 1.4375 -0.125 C 1.457031 -0.113281 1.46875 -0.0976562 1.46875 -0.078125 C 1.46875 -0.0546875 1.453125 -0.0351562 1.421875 -0.015625 C 1.390625 -0.00390625 1.359375 0 1.328125 0 C 1.273438 0 1.21875 -0.0195312 1.15625 -0.0625 C 1.09375 -0.101562 1.039062 -0.15625 1 -0.21875 C 0.957031 -0.28125 0.910156 -0.367188 0.859375 -0.484375 C 0.804688 -0.554688 0.78125 -0.601562 0.78125 -0.625 C 0.707031 -0.59375 0.601562 -0.570312 0.46875 -0.5625 C 0.46875 -0.507812 0.472656 -0.429688 0.484375 -0.328125 C 0.492188 -0.222656 0.5 -0.148438 0.5 -0.109375 C 0.5 -0.078125 0.484375 -0.0507812 0.453125 -0.03125 C 0.421875 -0.0078125 0.382812 0 0.34375 0 C 0.300781 0 0.269531 -0.015625 0.25 -0.046875 C 0.21875 -0.0976562 0.195312 -0.15625 0.1875 -0.21875 C 0.1875 -0.289062 0.1875 -0.375 0.1875 -0.46875 C 0.1875 -0.5625 0.191406 -0.671875 0.203125 -0.796875 C 0.210938 -0.929688 0.21875 -1.03125 0.21875 -1.09375 C 0.21875 -1.15625 0.210938 -1.226562 0.203125 -1.3125 C 0.203125 -1.332031 0.195312 -1.359375 0.1875 -1.390625 C 0.1875 -1.429688 0.1875 -1.46875 0.1875 -1.5 C 0.1875 -1.519531 0.195312 -1.539062 0.21875 -1.5625 C 0.238281 -1.582031 0.257812 -1.59375 0.28125 -1.59375 C 0.414062 -1.613281 0.550781 -1.625 0.6875 -1.625 C 0.90625 -1.625 1.085938 -1.582031 1.234375 -1.5 C 1.390625 -1.414062 1.46875 -1.289062 1.46875 -1.125 C 1.46875 -1.070312 1.453125 -1.019531 1.421875 -0.96875 C 1.398438 -0.914062 1.367188 -0.875 1.328125 -0.84375 C 1.222656 -0.757812 1.117188 -0.707031 1.015625 -0.6875 Z M 1.1875 -1.125 C 1.1875 -1.207031 1.144531 -1.273438 1.0625 -1.328125 C 0.976562 -1.378906 0.851562 -1.40625 0.6875 -1.40625 C 0.613281 -1.40625 0.539062 -1.398438 0.46875 -1.390625 L 0.484375 -1.25 C 0.484375 -1.175781 0.476562 -1.101562 0.46875 -1.03125 C 0.46875 -0.957031 0.46875 -0.878906 0.46875 -0.796875 C 0.488281 -0.804688 0.515625 -0.8125 0.546875 -0.8125 C 0.585938 -0.8125 0.613281 -0.8125 0.625 -0.8125 C 0.695312 -0.820312 0.753906 -0.832031 0.796875 -0.84375 C 0.867188 -0.863281 0.929688 -0.882812 0.984375 -0.90625 C 1.035156 -0.925781 1.082031 -0.953125 1.125 -0.984375 C 1.164062 -1.023438 1.1875 -1.070312 1.1875 -1.125 Z M 1.1875 -1.125 "/></g></g></g><g clip-path="url(#2edee25129)"><g fill="#b45f3e" fill-opacity="1"><g transform="translate(31.592403, 3.513402)"><g><path d="M 0.03125 -1.5 C 0.03125 -1.570312 0.0820312 -1.609375 0.1875 -1.609375 C 0.238281 -1.609375 0.328125 -1.609375 0.453125 -1.609375 C 0.597656 -1.597656 0.707031 -1.59375 0.78125 -1.59375 C 0.84375 -1.59375 0.914062 -1.597656 1 -1.609375 C 1.0625 -1.609375 1.097656 -1.609375 1.109375 -1.609375 C 1.203125 -1.609375 1.285156 -1.59375 1.359375 -1.5625 C 1.367188 -1.550781 1.378906 -1.539062 1.390625 -1.53125 C 1.410156 -1.519531 1.421875 -1.5 1.421875 -1.46875 C 1.421875 -1.4375 1.40625 -1.40625 1.375 -1.375 C 1.351562 -1.34375 1.328125 -1.328125 1.296875 -1.328125 C 1.253906 -1.328125 1.195312 -1.332031 1.125 -1.34375 C 1.0625 -1.363281 1.007812 -1.375 0.96875 -1.375 C 0.914062 -1.375 0.878906 -1.367188 0.859375 -1.359375 C 0.847656 -1.304688 0.84375 -1.171875 0.84375 -0.953125 C 0.84375 -0.703125 0.851562 -0.445312 0.875 -0.1875 L 0.875 -0.109375 C 0.875 -0.0351562 0.832031 0 0.75 0 C 0.6875 0 0.644531 -0.015625 0.625 -0.046875 C 0.601562 -0.078125 0.59375 -0.125 0.59375 -0.1875 C 0.59375 -0.300781 0.585938 -0.453125 0.578125 -0.640625 C 0.578125 -0.785156 0.578125 -0.894531 0.578125 -0.96875 C 0.578125 -1.007812 0.582031 -1.140625 0.59375 -1.359375 L 0.28125 -1.359375 C 0.1875 -1.359375 0.117188 -1.363281 0.078125 -1.375 C 0.046875 -1.394531 0.03125 -1.4375 0.03125 -1.5 Z M 0.03125 -1.5 "/></g></g></g></g></g></g><g transform="matrix(1, 0, 0, 1, 47, 27)"><g clip-path="url(#b90714fcf5)"><g clip-path="url(#e7bae5341c)"><g fill="#b45f3e" fill-opacity="1"><g transform="translate(0.253422, 2.619969)"><g><path d="M 1.265625 -0.4375 C 1.265625 -0.363281 1.25 -0.296875 1.21875 -0.234375 C 1.1875 -0.179688 1.128906 -0.132812 1.046875 -0.09375 C 0.992188 -0.0625 0.929688 -0.0351562 0.859375 -0.015625 C 0.785156 -0.00390625 0.710938 0 0.640625 0 C 0.566406 0 0.472656 -0.0234375 0.359375 -0.078125 C 0.285156 -0.109375 0.222656 -0.148438 0.171875 -0.203125 C 0.128906 -0.265625 0.109375 -0.328125 0.109375 -0.390625 C 0.109375 -0.429688 0.113281 -0.460938 0.125 -0.484375 C 0.144531 -0.503906 0.179688 -0.515625 0.234375 -0.515625 C 0.253906 -0.515625 0.273438 -0.503906 0.296875 -0.484375 C 0.328125 -0.460938 0.34375 -0.441406 0.34375 -0.421875 C 0.363281 -0.359375 0.398438 -0.304688 0.453125 -0.265625 C 0.515625 -0.234375 0.585938 -0.21875 0.671875 -0.21875 C 0.773438 -0.21875 0.859375 -0.234375 0.921875 -0.265625 C 0.984375 -0.304688 1.015625 -0.359375 1.015625 -0.421875 C 1.015625 -0.484375 0.976562 -0.535156 0.90625 -0.578125 C 0.832031 -0.617188 0.757812 -0.648438 0.6875 -0.671875 C 0.582031 -0.703125 0.488281 -0.738281 0.40625 -0.78125 C 0.320312 -0.820312 0.257812 -0.875 0.21875 -0.9375 C 0.175781 -1 0.15625 -1.0625 0.15625 -1.125 C 0.15625 -1.1875 0.175781 -1.25 0.21875 -1.3125 C 0.257812 -1.382812 0.3125 -1.4375 0.375 -1.46875 C 0.40625 -1.476562 0.457031 -1.492188 0.53125 -1.515625 C 0.613281 -1.535156 0.675781 -1.546875 0.71875 -1.546875 C 0.757812 -1.546875 0.804688 -1.539062 0.859375 -1.53125 C 0.921875 -1.519531 0.96875 -1.503906 1 -1.484375 C 1.070312 -1.441406 1.125 -1.40625 1.15625 -1.375 C 1.195312 -1.34375 1.21875 -1.300781 1.21875 -1.25 C 1.21875 -1.21875 1.207031 -1.191406 1.1875 -1.171875 C 1.164062 -1.148438 1.125 -1.140625 1.0625 -1.140625 C 1.050781 -1.140625 1.039062 -1.144531 1.03125 -1.15625 C 1.019531 -1.164062 1.003906 -1.179688 0.984375 -1.203125 C 0.953125 -1.234375 0.925781 -1.253906 0.90625 -1.265625 C 0.882812 -1.273438 0.847656 -1.285156 0.796875 -1.296875 C 0.753906 -1.304688 0.710938 -1.3125 0.671875 -1.3125 C 0.640625 -1.3125 0.601562 -1.300781 0.5625 -1.28125 C 0.519531 -1.269531 0.484375 -1.25 0.453125 -1.21875 C 0.421875 -1.1875 0.40625 -1.148438 0.40625 -1.109375 C 0.40625 -1.078125 0.421875 -1.050781 0.453125 -1.03125 C 0.484375 -1.007812 0.519531 -0.988281 0.5625 -0.96875 C 0.613281 -0.957031 0.664062 -0.941406 0.71875 -0.921875 C 0.789062 -0.898438 0.847656 -0.878906 0.890625 -0.859375 C 0.941406 -0.835938 0.992188 -0.816406 1.046875 -0.796875 C 1.117188 -0.742188 1.171875 -0.691406 1.203125 -0.640625 C 1.242188 -0.597656 1.265625 -0.53125 1.265625 -0.4375 Z M 1.265625 -0.4375 "/></g></g></g></g><g fill="#b45f3e" fill-opacity="1"><g transform="translate(1.620246, 2.619969)"><g><path d="M 0.5625 -1.34375 C 0.5625 -1.238281 0.5625 -1.140625 0.5625 -1.046875 C 0.5625 -0.941406 0.566406 -0.796875 0.578125 -0.609375 C 0.578125 -0.578125 0.578125 -0.515625 0.578125 -0.421875 C 0.585938 -0.335938 0.59375 -0.257812 0.59375 -0.1875 C 0.613281 -0.1875 0.628906 -0.1875 0.640625 -0.1875 C 0.660156 -0.195312 0.675781 -0.203125 0.6875 -0.203125 C 0.726562 -0.203125 0.757812 -0.191406 0.78125 -0.171875 C 0.800781 -0.160156 0.8125 -0.132812 0.8125 -0.09375 C 0.8125 -0.0703125 0.800781 -0.0507812 0.78125 -0.03125 C 0.757812 -0.0195312 0.722656 -0.0078125 0.671875 0 C 0.628906 0 0.5625 0 0.46875 0 C 0.363281 0 0.285156 0 0.234375 0 C 0.191406 -0.0078125 0.160156 -0.0234375 0.140625 -0.046875 C 0.117188 -0.0664062 0.109375 -0.09375 0.109375 -0.125 C 0.109375 -0.15625 0.113281 -0.175781 0.125 -0.1875 C 0.144531 -0.195312 0.175781 -0.203125 0.21875 -0.203125 L 0.265625 -0.203125 L 0.34375 -0.1875 L 0.328125 -0.484375 C 0.316406 -0.640625 0.3125 -0.78125 0.3125 -0.90625 C 0.3125 -0.976562 0.316406 -1.078125 0.328125 -1.203125 L 0.328125 -1.328125 C 0.273438 -1.328125 0.234375 -1.328125 0.203125 -1.328125 C 0.160156 -1.328125 0.132812 -1.332031 0.125 -1.34375 C 0.113281 -1.363281 0.109375 -1.390625 0.109375 -1.421875 C 0.109375 -1.472656 0.140625 -1.503906 0.203125 -1.515625 C 0.265625 -1.523438 0.359375 -1.53125 0.484375 -1.53125 C 0.585938 -1.53125 0.660156 -1.523438 0.703125 -1.515625 C 0.753906 -1.515625 0.78125 -1.503906 0.78125 -1.484375 C 0.78125 -1.429688 0.769531 -1.394531 0.75 -1.375 C 0.726562 -1.351562 0.679688 -1.34375 0.609375 -1.34375 Z M 0.5625 -1.34375 "/></g></g></g><g fill="#b45f3e" fill-opacity="1"><g transform="translate(2.527408, 2.619969)"><g><path d="M 1.1875 -1.375 C 1.1875 -1.414062 1.195312 -1.453125 1.21875 -1.484375 C 1.25 -1.523438 1.285156 -1.546875 1.328125 -1.546875 C 1.359375 -1.546875 1.390625 -1.535156 1.421875 -1.515625 C 1.453125 -1.503906 1.46875 -1.484375 1.46875 -1.453125 C 1.46875 -1.378906 1.460938 -1.285156 1.453125 -1.171875 C 1.453125 -1.054688 1.453125 -0.96875 1.453125 -0.90625 C 1.453125 -0.820312 1.453125 -0.703125 1.453125 -0.546875 C 1.460938 -0.410156 1.46875 -0.304688 1.46875 -0.234375 C 1.46875 -0.179688 1.46875 -0.140625 1.46875 -0.109375 C 1.46875 -0.0859375 1.453125 -0.0625 1.421875 -0.03125 C 1.390625 -0.0078125 1.347656 0 1.296875 0 C 1.265625 0 1.238281 -0.00390625 1.21875 -0.015625 C 1.195312 -0.0234375 1.179688 -0.0351562 1.171875 -0.046875 C 1.097656 -0.140625 0.988281 -0.300781 0.84375 -0.53125 C 0.675781 -0.78125 0.539062 -0.96875 0.4375 -1.09375 C 0.445312 -0.976562 0.453125 -0.835938 0.453125 -0.671875 C 0.453125 -0.597656 0.453125 -0.5 0.453125 -0.375 C 0.453125 -0.257812 0.445312 -0.179688 0.4375 -0.140625 C 0.425781 -0.0976562 0.410156 -0.0625 0.390625 -0.03125 C 0.367188 -0.0078125 0.335938 0 0.296875 0 C 0.253906 0 0.222656 -0.0078125 0.203125 -0.03125 C 0.191406 -0.0507812 0.1875 -0.0820312 0.1875 -0.125 C 0.1875 -0.195312 0.1875 -0.300781 0.1875 -0.4375 C 0.195312 -0.457031 0.203125 -0.492188 0.203125 -0.546875 C 0.203125 -0.597656 0.203125 -0.644531 0.203125 -0.6875 C 0.203125 -0.789062 0.195312 -0.914062 0.1875 -1.0625 C 0.175781 -1.21875 0.171875 -1.335938 0.171875 -1.421875 C 0.171875 -1.460938 0.1875 -1.492188 0.21875 -1.515625 C 0.25 -1.535156 0.28125 -1.546875 0.3125 -1.546875 C 0.34375 -1.546875 0.378906 -1.535156 0.421875 -1.515625 C 0.554688 -1.335938 0.742188 -1.078125 0.984375 -0.734375 L 1.21875 -0.375 C 1.21875 -0.40625 1.21875 -0.441406 1.21875 -0.484375 C 1.21875 -0.566406 1.210938 -0.65625 1.203125 -0.75 C 1.203125 -0.851562 1.203125 -0.921875 1.203125 -0.953125 C 1.191406 -1.109375 1.1875 -1.25 1.1875 -1.375 Z M 1.1875 -1.375 "/></g></g></g><g fill="#b45f3e" fill-opacity="1"><g transform="translate(4.169054, 2.619969)"><g><path d="M 1.359375 -1.359375 C 1.390625 -1.328125 1.410156 -1.300781 1.421875 -1.28125 C 1.429688 -1.257812 1.4375 -1.242188 1.4375 -1.234375 C 1.4375 -1.210938 1.421875 -1.1875 1.390625 -1.15625 C 1.367188 -1.132812 1.34375 -1.125 1.3125 -1.125 C 1.28125 -1.125 1.253906 -1.128906 1.234375 -1.140625 C 1.222656 -1.148438 1.207031 -1.164062 1.1875 -1.1875 C 1.164062 -1.226562 1.132812 -1.257812 1.09375 -1.28125 C 1.0625 -1.3125 1.003906 -1.328125 0.921875 -1.328125 C 0.847656 -1.328125 0.769531 -1.3125 0.6875 -1.28125 C 0.601562 -1.25 0.539062 -1.210938 0.5 -1.171875 C 0.46875 -1.128906 0.4375 -1.066406 0.40625 -0.984375 C 0.382812 -0.898438 0.375 -0.816406 0.375 -0.734375 C 0.375 -0.640625 0.394531 -0.550781 0.4375 -0.46875 C 0.476562 -0.394531 0.539062 -0.332031 0.625 -0.28125 C 0.707031 -0.238281 0.800781 -0.21875 0.90625 -0.21875 C 0.96875 -0.21875 1.03125 -0.226562 1.09375 -0.25 C 1.15625 -0.28125 1.210938 -0.320312 1.265625 -0.375 C 1.285156 -0.40625 1.320312 -0.421875 1.375 -0.421875 C 1.394531 -0.421875 1.414062 -0.40625 1.4375 -0.375 C 1.46875 -0.351562 1.484375 -0.332031 1.484375 -0.3125 C 1.484375 -0.289062 1.476562 -0.269531 1.46875 -0.25 C 1.457031 -0.226562 1.441406 -0.207031 1.421875 -0.1875 C 1.359375 -0.113281 1.28125 -0.0625 1.1875 -0.03125 C 1.101562 -0.0078125 0.992188 0 0.859375 0 C 0.753906 0 0.644531 -0.0234375 0.53125 -0.078125 C 0.414062 -0.128906 0.328125 -0.191406 0.265625 -0.265625 C 0.234375 -0.316406 0.203125 -0.382812 0.171875 -0.46875 C 0.140625 -0.5625 0.125 -0.632812 0.125 -0.6875 C 0.125 -0.832031 0.144531 -0.96875 0.1875 -1.09375 C 0.226562 -1.21875 0.289062 -1.320312 0.375 -1.40625 C 0.4375 -1.457031 0.519531 -1.492188 0.625 -1.515625 C 0.726562 -1.546875 0.828125 -1.5625 0.921875 -1.5625 C 1.023438 -1.5625 1.109375 -1.546875 1.171875 -1.515625 C 1.234375 -1.484375 1.296875 -1.429688 1.359375 -1.359375 Z M 1.359375 -1.359375 "/></g></g></g><g fill="#b45f3e" fill-opacity="1"><g transform="translate(5.732874, 2.619969)"><g><path d="M 1.171875 -0.328125 C 1.203125 -0.328125 1.222656 -0.316406 1.234375 -0.296875 C 1.253906 -0.273438 1.265625 -0.25 1.265625 -0.21875 C 1.265625 -0.1875 1.257812 -0.160156 1.25 -0.140625 C 1.238281 -0.128906 1.21875 -0.117188 1.1875 -0.109375 C 1.125 -0.078125 1.039062 -0.0507812 0.9375 -0.03125 C 0.832031 -0.0078125 0.722656 0 0.609375 0 C 0.460938 0 0.351562 -0.0195312 0.28125 -0.0625 C 0.21875 -0.113281 0.179688 -0.171875 0.171875 -0.234375 C 0.160156 -0.304688 0.15625 -0.398438 0.15625 -0.515625 C 0.15625 -0.640625 0.15625 -0.757812 0.15625 -0.875 C 0.164062 -0.988281 0.1875 -1.132812 0.21875 -1.3125 C 0.226562 -1.394531 0.253906 -1.453125 0.296875 -1.484375 C 0.347656 -1.523438 0.40625 -1.546875 0.46875 -1.546875 C 0.519531 -1.546875 0.601562 -1.546875 0.71875 -1.546875 L 0.9375 -1.546875 C 1.019531 -1.546875 1.082031 -1.546875 1.125 -1.546875 C 1.164062 -1.535156 1.195312 -1.519531 1.21875 -1.5 C 1.25 -1.488281 1.265625 -1.472656 1.265625 -1.453125 C 1.265625 -1.410156 1.253906 -1.375 1.234375 -1.34375 C 1.210938 -1.3125 1.179688 -1.296875 1.140625 -1.296875 C 1.085938 -1.296875 1.015625 -1.300781 0.921875 -1.3125 C 0.828125 -1.320312 0.753906 -1.328125 0.703125 -1.328125 C 0.660156 -1.328125 0.617188 -1.320312 0.578125 -1.3125 C 0.535156 -1.3125 0.503906 -1.304688 0.484375 -1.296875 C 0.460938 -1.285156 0.453125 -1.269531 0.453125 -1.25 C 0.429688 -1.082031 0.421875 -0.960938 0.421875 -0.890625 C 0.453125 -0.878906 0.488281 -0.875 0.53125 -0.875 C 0.570312 -0.875 0.617188 -0.875 0.671875 -0.875 C 0.722656 -0.882812 0.757812 -0.890625 0.78125 -0.890625 C 0.863281 -0.898438 0.9375 -0.90625 1 -0.90625 C 1.03125 -0.90625 1.054688 -0.898438 1.078125 -0.890625 C 1.097656 -0.878906 1.109375 -0.863281 1.109375 -0.84375 C 1.109375 -0.800781 1.097656 -0.769531 1.078125 -0.75 C 1.054688 -0.726562 1.023438 -0.710938 0.984375 -0.703125 C 0.921875 -0.691406 0.847656 -0.679688 0.765625 -0.671875 C 0.679688 -0.671875 0.601562 -0.671875 0.53125 -0.671875 C 0.5 -0.671875 0.457031 -0.671875 0.40625 -0.671875 C 0.40625 -0.578125 0.40625 -0.488281 0.40625 -0.40625 C 0.40625 -0.289062 0.476562 -0.234375 0.625 -0.234375 C 0.707031 -0.234375 0.773438 -0.238281 0.828125 -0.25 C 0.890625 -0.257812 0.953125 -0.273438 1.015625 -0.296875 C 1.078125 -0.316406 1.128906 -0.328125 1.171875 -0.328125 Z M 1.171875 -0.328125 "/></g></g></g><g fill="#b45f3e" fill-opacity="1"><g transform="translate(7.075378, 2.619969)"><g/></g></g><g fill="#b45f3e" fill-opacity="1"><g transform="translate(7.622593, 2.619969)"><g><path d="M 0.46875 -0.25 C 0.519531 -0.25 0.554688 -0.25 0.578125 -0.25 C 0.628906 -0.25 0.675781 -0.25 0.71875 -0.25 C 0.757812 -0.25 0.796875 -0.25 0.828125 -0.25 C 0.910156 -0.257812 0.984375 -0.265625 1.046875 -0.265625 C 1.109375 -0.265625 1.15625 -0.25 1.1875 -0.21875 C 1.21875 -0.1875 1.234375 -0.140625 1.234375 -0.078125 C 1.234375 -0.0546875 1.210938 -0.0351562 1.171875 -0.015625 C 1.140625 -0.00390625 1.109375 0 1.078125 0 C 1.046875 0 0.976562 -0.00390625 0.875 -0.015625 C 0.757812 -0.0234375 0.671875 -0.03125 0.609375 -0.03125 C 0.566406 -0.03125 0.523438 -0.0234375 0.484375 -0.015625 C 0.460938 -0.015625 0.4375 -0.015625 0.40625 -0.015625 C 0.375 -0.015625 0.34375 -0.015625 0.3125 -0.015625 C 0.25 -0.015625 0.195312 -0.0195312 0.15625 -0.03125 C 0.125 -0.0507812 0.109375 -0.0859375 0.109375 -0.140625 C 0.109375 -0.171875 0.125 -0.207031 0.15625 -0.25 C 0.195312 -0.300781 0.242188 -0.351562 0.296875 -0.40625 L 0.359375 -0.46875 C 0.378906 -0.5 0.425781 -0.546875 0.5 -0.609375 C 0.613281 -0.710938 0.703125 -0.800781 0.765625 -0.875 C 0.835938 -0.957031 0.875 -1.039062 0.875 -1.125 C 0.875 -1.175781 0.847656 -1.21875 0.796875 -1.25 C 0.742188 -1.28125 0.6875 -1.296875 0.625 -1.296875 C 0.53125 -1.296875 0.460938 -1.273438 0.421875 -1.234375 C 0.378906 -1.191406 0.359375 -1.128906 0.359375 -1.046875 C 0.359375 -1.023438 0.347656 -1.003906 0.328125 -0.984375 C 0.304688 -0.972656 0.28125 -0.96875 0.25 -0.96875 C 0.207031 -0.96875 0.175781 -0.984375 0.15625 -1.015625 C 0.132812 -1.054688 0.125 -1.097656 0.125 -1.140625 C 0.125 -1.210938 0.144531 -1.273438 0.1875 -1.328125 C 0.238281 -1.390625 0.300781 -1.4375 0.375 -1.46875 C 0.457031 -1.507812 0.546875 -1.53125 0.640625 -1.53125 C 0.710938 -1.53125 0.785156 -1.507812 0.859375 -1.46875 C 0.929688 -1.4375 0.992188 -1.390625 1.046875 -1.328125 C 1.097656 -1.273438 1.125 -1.21875 1.125 -1.15625 C 1.125 -1.050781 1.097656 -0.953125 1.046875 -0.859375 C 0.992188 -0.773438 0.929688 -0.695312 0.859375 -0.625 C 0.796875 -0.550781 0.710938 -0.46875 0.609375 -0.375 C 0.554688 -0.332031 0.507812 -0.289062 0.46875 -0.25 Z M 0.46875 -0.25 "/></g></g></g><g fill="#b45f3e" fill-opacity="1"><g transform="translate(8.901861, 2.619969)"><g><path d="M 1.1875 -1.375 C 1.238281 -1.289062 1.28125 -1.195312 1.3125 -1.09375 C 1.351562 -0.988281 1.375 -0.878906 1.375 -0.765625 C 1.375 -0.628906 1.347656 -0.503906 1.296875 -0.390625 C 1.253906 -0.273438 1.1875 -0.175781 1.09375 -0.09375 C 1.007812 -0.0195312 0.90625 0.015625 0.78125 0.015625 C 0.664062 0.015625 0.554688 -0.015625 0.453125 -0.078125 C 0.359375 -0.140625 0.285156 -0.210938 0.234375 -0.296875 C 0.191406 -0.347656 0.160156 -0.410156 0.140625 -0.484375 C 0.117188 -0.566406 0.109375 -0.644531 0.109375 -0.71875 C 0.109375 -0.851562 0.132812 -0.984375 0.1875 -1.109375 C 0.25 -1.234375 0.332031 -1.335938 0.4375 -1.421875 C 0.53125 -1.492188 0.632812 -1.53125 0.75 -1.53125 C 0.882812 -1.53125 1.03125 -1.476562 1.1875 -1.375 Z M 0.53125 -1.203125 C 0.519531 -1.179688 0.507812 -1.160156 0.5 -1.140625 C 0.457031 -1.085938 0.425781 -1.039062 0.40625 -1 C 0.394531 -0.96875 0.382812 -0.914062 0.375 -0.84375 C 0.363281 -0.800781 0.359375 -0.757812 0.359375 -0.71875 C 0.359375 -0.601562 0.378906 -0.503906 0.421875 -0.421875 C 0.472656 -0.335938 0.539062 -0.28125 0.625 -0.25 C 0.664062 -0.238281 0.707031 -0.234375 0.75 -0.234375 C 0.875 -0.234375 0.96875 -0.285156 1.03125 -0.390625 C 1.09375 -0.492188 1.125 -0.628906 1.125 -0.796875 C 1.125 -0.941406 1.09375 -1.0625 1.03125 -1.15625 C 0.976562 -1.25 0.894531 -1.296875 0.78125 -1.296875 C 0.738281 -1.296875 0.695312 -1.285156 0.65625 -1.265625 C 0.625 -1.253906 0.582031 -1.234375 0.53125 -1.203125 Z M 0.53125 -1.203125 "/></g></g></g><g fill="#b45f3e" fill-opacity="1"><g transform="translate(10.400018, 2.619969)"><g><path d="M 0.46875 -0.25 C 0.519531 -0.25 0.554688 -0.25 0.578125 -0.25 C 0.628906 -0.25 0.675781 -0.25 0.71875 -0.25 C 0.757812 -0.25 0.796875 -0.25 0.828125 -0.25 C 0.910156 -0.257812 0.984375 -0.265625 1.046875 -0.265625 C 1.109375 -0.265625 1.15625 -0.25 1.1875 -0.21875 C 1.21875 -0.1875 1.234375 -0.140625 1.234375 -0.078125 C 1.234375 -0.0546875 1.210938 -0.0351562 1.171875 -0.015625 C 1.140625 -0.00390625 1.109375 0 1.078125 0 C 1.046875 0 0.976562 -0.00390625 0.875 -0.015625 C 0.757812 -0.0234375 0.671875 -0.03125 0.609375 -0.03125 C 0.566406 -0.03125 0.523438 -0.0234375 0.484375 -0.015625 C 0.460938 -0.015625 0.4375 -0.015625 0.40625 -0.015625 C 0.375 -0.015625 0.34375 -0.015625 0.3125 -0.015625 C 0.25 -0.015625 0.195312 -0.0195312 0.15625 -0.03125 C 0.125 -0.0507812 0.109375 -0.0859375 0.109375 -0.140625 C 0.109375 -0.171875 0.125 -0.207031 0.15625 -0.25 C 0.195312 -0.300781 0.242188 -0.351562 0.296875 -0.40625 L 0.359375 -0.46875 C 0.378906 -0.5 0.425781 -0.546875 0.5 -0.609375 C 0.613281 -0.710938 0.703125 -0.800781 0.765625 -0.875 C 0.835938 -0.957031 0.875 -1.039062 0.875 -1.125 C 0.875 -1.175781 0.847656 -1.21875 0.796875 -1.25 C 0.742188 -1.28125 0.6875 -1.296875 0.625 -1.296875 C 0.53125 -1.296875 0.460938 -1.273438 0.421875 -1.234375 C 0.378906 -1.191406 0.359375 -1.128906 0.359375 -1.046875 C 0.359375 -1.023438 0.347656 -1.003906 0.328125 -0.984375 C 0.304688 -0.972656 0.28125 -0.96875 0.25 -0.96875 C 0.207031 -0.96875 0.175781 -0.984375 0.15625 -1.015625 C 0.132812 -1.054688 0.125 -1.097656 0.125 -1.140625 C 0.125 -1.210938 0.144531 -1.273438 0.1875 -1.328125 C 0.238281 -1.390625 0.300781 -1.4375 0.375 -1.46875 C 0.457031 -1.507812 0.546875 -1.53125 0.640625 -1.53125 C 0.710938 -1.53125 0.785156 -1.507812 0.859375 -1.46875 C 0.929688 -1.4375 0.992188 -1.390625 1.046875 -1.328125 C 1.097656 -1.273438 1.125 -1.21875 1.125 -1.15625 C 1.125 -1.050781 1.097656 -0.953125 1.046875 -0.859375 C 0.992188 -0.773438 0.929688 -0.695312 0.859375 -0.625 C 0.796875 -0.550781 0.710938 -0.46875 0.609375 -0.375 C 0.554688 -0.332031 0.507812 -0.289062 0.46875 -0.25 Z M 0.46875 -0.25 "/></g></g></g><g clip-path="url(#70163a48b4)"><g fill="#b45f3e" fill-opacity="1"><g transform="translate(11.679287, 2.619969)"><g><path d="M 1.1875 -1.375 C 1.238281 -1.289062 1.28125 -1.195312 1.3125 -1.09375 C 1.351562 -0.988281 1.375 -0.878906 1.375 -0.765625 C 1.375 -0.628906 1.347656 -0.503906 1.296875 -0.390625 C 1.253906 -0.273438 1.1875 -0.175781 1.09375 -0.09375 C 1.007812 -0.0195312 0.90625 0.015625 0.78125 0.015625 C 0.664062 0.015625 0.554688 -0.015625 0.453125 -0.078125 C 0.359375 -0.140625 0.285156 -0.210938 0.234375 -0.296875 C 0.191406 -0.347656 0.160156 -0.410156 0.140625 -0.484375 C 0.117188 -0.566406 0.109375 -0.644531 0.109375 -0.71875 C 0.109375 -0.851562 0.132812 -0.984375 0.1875 -1.109375 C 0.25 -1.234375 0.332031 -1.335938 0.4375 -1.421875 C 0.53125 -1.492188 0.632812 -1.53125 0.75 -1.53125 C 0.882812 -1.53125 1.03125 -1.476562 1.1875 -1.375 Z M 0.53125 -1.203125 C 0.519531 -1.179688 0.507812 -1.160156 0.5 -1.140625 C 0.457031 -1.085938 0.425781 -1.039062 0.40625 -1 C 0.394531 -0.96875 0.382812 -0.914062 0.375 -0.84375 C 0.363281 -0.800781 0.359375 -0.757812 0.359375 -0.71875 C 0.359375 -0.601562 0.378906 -0.503906 0.421875 -0.421875 C 0.472656 -0.335938 0.539062 -0.28125 0.625 -0.25 C 0.664062 -0.238281 0.707031 -0.234375 0.75 -0.234375 C 0.875 -0.234375 0.96875 -0.285156 1.03125 -0.390625 C 1.09375 -0.492188 1.125 -0.628906 1.125 -0.796875 C 1.125 -0.941406 1.09375 -1.0625 1.03125 -1.15625 C 0.976562 -1.25 0.894531 -1.296875 0.78125 -1.296875 C 0.738281 -1.296875 0.695312 -1.285156 0.65625 -1.265625 C 0.625 -1.253906 0.582031 -1.234375 0.53125 -1.203125 Z M 0.53125 -1.203125 "/></g></g></g></g></g></g></svg>