<svg xmlns="http://www.w3.org/2000/svg" xmlns:xlink="http://www.w3.org/1999/xlink" width="240" zoomAndPan="magnify" viewBox="0 0 180 74.999997" height="100" preserveAspectRatio="xMidYMid meet" version="1.0"><defs><g/><clipPath id="f016e3f112"><path d="M 65 9 L 84.28125 9 L 84.28125 29 L 65 29 Z M 65 9 " clip-rule="nonzero"/></clipPath><clipPath id="569c6218c8"><rect x="0" width="85" y="0" height="38"/></clipPath></defs><g transform="matrix(1, 0, 0, 1, 47, 18)"><g clip-path="url(#569c6218c8)"><g fill="#000000" fill-opacity="1"><g transform="translate(0.475, 28.073697)"><g><path d="M 2.140625 0 L 2.140625 -17.78125 L 9.09375 -17.78125 C 10.53125 -17.78125 11.769531 -17.515625 12.8125 -16.984375 C 13.863281 -16.460938 14.679688 -15.71875 15.265625 -14.75 C 15.859375 -13.789062 16.15625 -12.65625 16.15625 -11.34375 C 16.15625 -10.0625 15.859375 -8.9375 15.265625 -7.96875 C 14.679688 -7.007812 13.863281 -6.265625 12.8125 -5.734375 C 11.769531 -5.210938 10.53125 -4.953125 9.09375 -4.953125 L 6.171875 -4.953125 L 6.171875 0 Z M 6.140625 -8.4375 L 8.765625 -8.4375 C 9.804688 -8.4375 10.609375 -8.679688 11.171875 -9.171875 C 11.742188 -9.671875 12.03125 -10.390625 12.03125 -11.328125 C 12.03125 -12.253906 11.742188 -12.972656 11.171875 -13.484375 C 10.609375 -13.992188 9.804688 -14.25 8.765625 -14.25 L 6.140625 -14.25 Z M 6.140625 -8.4375 "/></g></g></g><g fill="#000000" fill-opacity="1"><g transform="translate(15.579134, 28.073697)"><g><path d="M 10.5625 0.359375 C 8.71875 0.359375 7.078125 -0.03125 5.640625 -0.8125 C 4.210938 -1.601562 3.097656 -2.691406 2.296875 -4.078125 C 1.492188 -5.472656 1.09375 -7.078125 1.09375 -8.890625 C 1.09375 -10.703125 1.492188 -12.300781 2.296875 -13.6875 C 3.097656 -15.070312 4.210938 -16.15625 5.640625 -16.9375 C 7.078125 -17.726562 8.71875 -18.125 10.5625 -18.125 C 12.425781 -18.125 14.066406 -17.726562 15.484375 -16.9375 C 16.910156 -16.15625 18.03125 -15.070312 18.84375 -13.6875 C 19.65625 -12.300781 20.0625 -10.703125 20.0625 -8.890625 C 20.0625 -7.078125 19.65625 -5.472656 18.84375 -4.078125 C 18.03125 -2.691406 16.910156 -1.601562 15.484375 -0.8125 C 14.066406 -0.03125 12.425781 0.359375 10.5625 0.359375 Z M 5.203125 -8.890625 C 5.203125 -7.816406 5.429688 -6.875 5.890625 -6.0625 C 6.347656 -5.25 6.976562 -4.613281 7.78125 -4.15625 C 8.582031 -3.707031 9.507812 -3.484375 10.5625 -3.484375 C 11.625 -3.484375 12.554688 -3.707031 13.359375 -4.15625 C 14.171875 -4.613281 14.800781 -5.25 15.25 -6.0625 C 15.695312 -6.875 15.921875 -7.816406 15.921875 -8.890625 C 15.921875 -9.953125 15.695312 -10.890625 15.25 -11.703125 C 14.800781 -12.515625 14.171875 -13.148438 13.359375 -13.609375 C 12.554688 -14.066406 11.625 -14.296875 10.5625 -14.296875 C 9.507812 -14.296875 8.582031 -14.066406 7.78125 -13.609375 C 6.976562 -13.148438 6.347656 -12.515625 5.890625 -11.703125 C 5.429688 -10.890625 5.203125 -9.953125 5.203125 -8.890625 Z M 5.203125 -8.890625 "/></g></g></g><g fill="#000000" fill-opacity="1"><g transform="translate(34.948022, 28.073697)"><g><path d="M 2.140625 0 L 2.140625 -17.78125 L 9.09375 -17.78125 C 10.53125 -17.78125 11.769531 -17.515625 12.8125 -16.984375 C 13.863281 -16.460938 14.679688 -15.71875 15.265625 -14.75 C 15.859375 -13.789062 16.15625 -12.65625 16.15625 -11.34375 C 16.15625 -10.0625 15.859375 -8.9375 15.265625 -7.96875 C 14.679688 -7.007812 13.863281 -6.265625 12.8125 -5.734375 C 11.769531 -5.210938 10.53125 -4.953125 9.09375 -4.953125 L 6.171875 -4.953125 L 6.171875 0 Z M 6.140625 -8.4375 L 8.765625 -8.4375 C 9.804688 -8.4375 10.609375 -8.679688 11.171875 -9.171875 C 11.742188 -9.671875 12.03125 -10.390625 12.03125 -11.328125 C 12.03125 -12.253906 11.742188 -12.972656 11.171875 -13.484375 C 10.609375 -13.992188 9.804688 -14.25 8.765625 -14.25 L 6.140625 -14.25 Z M 6.140625 -8.4375 "/></g></g></g><g fill="#000000" fill-opacity="1"><g transform="translate(50.052156, 28.073697)"><g><path d="M 1.0625 0 L 1.0625 -2.921875 L 9.1875 -14.125 L 1.34375 -14.125 L 1.34375 -17.78125 L 14.421875 -17.78125 L 14.421875 -14.859375 L 6.328125 -3.65625 L 14.625 -3.65625 L 14.625 0 Z M 1.0625 0 "/></g></g></g><g clip-path="url(#f016e3f112)"><g fill="#000000" fill-opacity="1"><g transform="translate(63.963176, 28.073697)"><g><path d="M 10.5625 0.359375 C 8.71875 0.359375 7.078125 -0.03125 5.640625 -0.8125 C 4.210938 -1.601562 3.097656 -2.691406 2.296875 -4.078125 C 1.492188 -5.472656 1.09375 -7.078125 1.09375 -8.890625 C 1.09375 -10.703125 1.492188 -12.300781 2.296875 -13.6875 C 3.097656 -15.070312 4.210938 -16.15625 5.640625 -16.9375 C 7.078125 -17.726562 8.71875 -18.125 10.5625 -18.125 C 12.425781 -18.125 14.066406 -17.726562 15.484375 -16.9375 C 16.910156 -16.15625 18.03125 -15.070312 18.84375 -13.6875 C 19.65625 -12.300781 20.0625 -10.703125 20.0625 -8.890625 C 20.0625 -7.078125 19.65625 -5.472656 18.84375 -4.078125 C 18.03125 -2.691406 16.910156 -1.601562 15.484375 -0.8125 C 14.066406 -0.03125 12.425781 0.359375 10.5625 0.359375 Z M 5.203125 -8.890625 C 5.203125 -7.816406 5.429688 -6.875 5.890625 -6.0625 C 6.347656 -5.25 6.976562 -4.613281 7.78125 -4.15625 C 8.582031 -3.707031 9.507812 -3.484375 10.5625 -3.484375 C 11.625 -3.484375 12.554688 -3.707031 13.359375 -4.15625 C 14.171875 -4.613281 14.800781 -5.25 15.25 -6.0625 C 15.695312 -6.875 15.921875 -7.816406 15.921875 -8.890625 C 15.921875 -9.953125 15.695312 -10.890625 15.25 -11.703125 C 14.800781 -12.515625 14.171875 -13.148438 13.359375 -13.609375 C 12.554688 -14.066406 11.625 -14.296875 10.5625 -14.296875 C 9.507812 -14.296875 8.582031 -14.066406 7.78125 -13.609375 C 6.976562 -13.148438 6.347656 -12.515625 5.890625 -11.703125 C 5.429688 -10.890625 5.203125 -9.953125 5.203125 -8.890625 Z M 5.203125 -8.890625 "/></g></g></g></g></g></g></svg>