<svg xmlns="http://www.w3.org/2000/svg" xmlns:xlink="http://www.w3.org/1999/xlink" width="240" zoomAndPan="magnify" viewBox="0 0 180 74.999997" height="100" preserveAspectRatio="xMidYMid meet" version="1.0"><defs><g/><clipPath id="c2daa34484"><path d="M 50 26.140625 L 67 26.140625 L 67 49.390625 L 50 49.390625 Z M 50 26.140625 " clip-rule="nonzero"/></clipPath><clipPath id="b53b7507a0"><path d="M 45 36 L 55 36 L 55 49.390625 L 45 49.390625 Z M 45 36 " clip-rule="nonzero"/></clipPath><clipPath id="3ecfb917f9"><path d="M 62 38 L 70.5 38 L 70.5 49.390625 L 62 49.390625 Z M 62 38 " clip-rule="nonzero"/></clipPath><clipPath id="9d983ba6ef"><rect x="0" width="61" y="0" height="22"/></clipPath><clipPath id="357291b39c"><rect x="0" width="48" y="0" height="22"/></clipPath><clipPath id="9e96fbe292"><rect x="0" width="5" y="0" height="21"/></clipPath></defs><g clip-path="url(#c2daa34484)"><path fill="#c1ff72" d="M 56.953125 31.234375 L 56.992188 29.589844 C 56.996094 29.382812 57.070312 29.210938 57.214844 29.066406 C 58.035156 28.234375 58.863281 27.402344 59.707031 26.5625 C 59.96875 26.304688 60.238281 26.171875 60.523438 26.164062 C 61.417969 26.144531 62.257812 26.160156 63.039062 26.222656 C 63.214844 26.234375 63.347656 26.316406 63.441406 26.464844 L 65.09375 29.121094 C 65.136719 29.191406 65.203125 29.230469 65.289062 29.230469 L 66.566406 29.253906 C 66.703125 29.257812 66.769531 29.324219 66.765625 29.460938 L 66.746094 30.882812 C 66.742188 31.003906 66.679688 31.066406 66.558594 31.066406 L 61.847656 31.0625 C 61.699219 31.0625 61.625 31.140625 61.621094 31.289062 L 61.613281 32.664062 C 61.613281 32.816406 61.691406 32.890625 61.84375 32.894531 L 63.167969 32.914062 C 63.265625 32.917969 63.3125 32.96875 63.3125 33.066406 L 63.304688 34.96875 C 63.300781 35.109375 63.375 35.179688 63.515625 35.175781 L 65.289062 35.140625 C 65.402344 35.136719 65.457031 35.082031 65.457031 34.96875 L 65.449219 33.058594 C 65.449219 32.960938 65.496094 32.914062 65.59375 32.914062 L 66.207031 32.925781 C 66.296875 32.925781 66.339844 32.972656 66.339844 33.0625 L 66.304688 35.425781 C 66.300781 35.621094 66.230469 35.792969 66.089844 35.933594 L 61.703125 40.371094 C 61.671875 40.40625 61.632812 40.417969 61.585938 40.410156 C 61.539062 40.402344 61.507812 40.375 61.488281 40.332031 L 60.449219 38.066406 C 60.394531 37.949219 60.300781 37.890625 60.171875 37.890625 L 58.800781 37.898438 C 58.742188 37.902344 58.691406 37.925781 58.660156 37.976562 C 58.625 38.027344 58.621094 38.082031 58.644531 38.140625 L 63.421875 49.539062 C 63.460938 49.628906 63.429688 49.671875 63.335938 49.671875 L 56.875 49.667969 C 56.722656 49.667969 56.617188 49.597656 56.558594 49.460938 L 50.488281 35.808594 C 50.457031 35.734375 50.46875 35.667969 50.523438 35.609375 C 51.953125 34.125 53.257812 32.796875 54.429688 31.621094 C 54.890625 31.167969 56.230469 31.351562 56.832031 31.351562 C 56.914062 31.351562 56.953125 31.3125 56.953125 31.234375 Z M 56.953125 31.234375 " fill-opacity="1" fill-rule="nonzero"/></g><g clip-path="url(#b53b7507a0)"><path fill="#c1ff72" d="M 48.917969 49.609375 L 45.003906 41.070312 C 44.992188 41.039062 44.996094 41.007812 45.019531 40.984375 L 49.015625 36.910156 C 49.070312 36.855469 49.113281 36.863281 49.140625 36.933594 L 54.84375 49.578125 C 54.855469 49.605469 54.855469 49.628906 54.839844 49.652344 C 54.824219 49.675781 54.804688 49.6875 54.777344 49.6875 L 48.988281 49.652344 C 48.957031 49.652344 48.933594 49.636719 48.917969 49.609375 Z M 48.917969 49.609375 " fill-opacity="1" fill-rule="nonzero"/></g><g clip-path="url(#3ecfb917f9)"><path fill="#c1ff72" d="M 66.542969 40.054688 C 67.996094 43.570312 69.238281 46.414062 70.546875 49.539062 C 70.582031 49.632812 70.554688 49.675781 70.453125 49.675781 L 65.828125 49.667969 C 65.597656 49.667969 65.441406 49.5625 65.347656 49.355469 L 62.265625 42.277344 C 62.1875 42.097656 62.210938 41.929688 62.339844 41.777344 C 63.363281 40.582031 64.425781 39.492188 65.523438 38.515625 C 65.675781 38.382812 65.785156 38.410156 65.855469 38.597656 C 66.046875 39.101562 66.335938 39.554688 66.542969 40.054688 Z M 66.542969 40.054688 " fill-opacity="1" fill-rule="nonzero"/></g><g transform="matrix(1, 0, 0, 1, 69, 34)"><g clip-path="url(#9d983ba6ef)"><g fill="#0fa4af" fill-opacity="1"><g transform="translate(1.010779, 15.324375)"><g><path d="M 7.390625 0 L 7.390625 -4.03125 L 3.46875 -4.03125 L 3.46875 0 L 1.203125 0 L 1.203125 -10 L 3.46875 -10 L 3.46875 -6.15625 L 7.390625 -6.15625 L 7.390625 -10 L 9.671875 -10 L 9.671875 0 Z M 7.390625 0 "/></g></g></g><g fill="#0fa4af" fill-opacity="1"><g transform="translate(11.872142, 15.324375)"><g><path d="M 1.203125 0 L 1.203125 -10 L 7.78125 -10 L 7.78125 -8.09375 L 3.453125 -8.09375 L 3.453125 -6.015625 L 7.390625 -6.015625 L 7.390625 -4.125 L 3.453125 -4.125 L 3.453125 -1.9375 L 7.9375 -1.9375 L 7.9375 0 Z M 1.203125 0 "/></g></g></g><g fill="#0fa4af" fill-opacity="1"><g transform="translate(20.53265, 15.324375)"><g><path d="M 0.125 0 L 4.109375 -10 L 6.328125 -10 L 10.3125 0 L 7.875 0 L 7.203125 -1.734375 L 3.234375 -1.734375 L 2.5625 0 Z M 3.8125 -3.515625 L 6.640625 -3.515625 L 5.21875 -7.171875 Z M 3.8125 -3.515625 "/></g></g></g><g fill="#0fa4af" fill-opacity="1"><g transform="translate(30.965275, 15.324375)"><g><path d="M 3.96875 0 L 0.125 -10 L 2.578125 -10 L 3.90625 -6.453125 L 5.109375 -3.28125 L 7.625 -10 L 10.046875 -10 L 6.203125 0 Z M 3.96875 0 "/></g></g></g><g fill="#0fa4af" fill-opacity="1"><g transform="translate(41.140657, 15.324375)"><g><path d="M 1.203125 0 L 1.203125 -10 L 7.78125 -10 L 7.78125 -8.09375 L 3.453125 -8.09375 L 3.453125 -6.015625 L 7.390625 -6.015625 L 7.390625 -4.125 L 3.453125 -4.125 L 3.453125 -1.9375 L 7.9375 -1.9375 L 7.9375 0 Z M 1.203125 0 "/></g></g></g><g fill="#0fa4af" fill-opacity="1"><g transform="translate(49.801165, 15.324375)"><g><path d="M 1.203125 0 L 1.203125 -10 L 3.125 -10 L 7.546875 -3.921875 L 7.546875 -10 L 9.8125 -10 L 9.8125 0 L 7.875 0 L 3.453125 -6.140625 L 3.453125 0 Z M 1.203125 0 "/></g></g></g></g></g><g transform="matrix(1, 0, 0, 1, 69, 23)"><g clip-path="url(#357291b39c)"><g fill="#0fa4af" fill-opacity="1"><g transform="translate(1.067795, 15.484195)"><g><path d="M 1.203125 0 L 1.203125 -10 L 5.125 -10 C 5.925781 -10 6.625 -9.851562 7.21875 -9.5625 C 7.8125 -9.269531 8.269531 -8.847656 8.59375 -8.296875 C 8.925781 -7.753906 9.09375 -7.117188 9.09375 -6.390625 C 9.09375 -5.660156 8.925781 -5.023438 8.59375 -4.484375 C 8.269531 -3.941406 7.8125 -3.519531 7.21875 -3.21875 C 6.625 -2.925781 5.925781 -2.78125 5.125 -2.78125 L 3.46875 -2.78125 L 3.46875 0 Z M 3.453125 -4.75 L 4.9375 -4.75 C 5.519531 -4.75 5.972656 -4.890625 6.296875 -5.171875 C 6.617188 -5.453125 6.78125 -5.851562 6.78125 -6.375 C 6.78125 -6.894531 6.617188 -7.296875 6.296875 -7.578125 C 5.972656 -7.867188 5.519531 -8.015625 4.9375 -8.015625 L 3.453125 -8.015625 Z M 3.453125 -4.75 "/></g></g></g><g fill="#0fa4af" fill-opacity="1"><g transform="translate(10.571488, 15.484195)"><g><path d="M 1.203125 0 L 1.203125 -10 L 5.46875 -10 C 6.238281 -10 6.90625 -9.859375 7.46875 -9.578125 C 8.03125 -9.304688 8.460938 -8.914062 8.765625 -8.40625 C 9.066406 -7.894531 9.21875 -7.28125 9.21875 -6.5625 C 9.21875 -5.832031 9.050781 -5.203125 8.71875 -4.671875 C 8.382812 -4.140625 7.914062 -3.738281 7.3125 -3.46875 L 9.390625 0 L 6.765625 0 L 4.96875 -3.109375 L 3.46875 -3.109375 L 3.46875 0 Z M 3.453125 -5.03125 L 5.171875 -5.03125 C 5.734375 -5.03125 6.164062 -5.160156 6.46875 -5.421875 C 6.769531 -5.679688 6.921875 -6.054688 6.921875 -6.546875 C 6.921875 -7.035156 6.769531 -7.410156 6.46875 -7.671875 C 6.164062 -7.929688 5.734375 -8.0625 5.171875 -8.0625 L 3.453125 -8.0625 Z M 3.453125 -5.03125 "/></g></g></g><g fill="#0fa4af" fill-opacity="1"><g transform="translate(20.63254, 15.484195)"><g><path d="M 1.203125 0 L 1.203125 -10 L 3.46875 -10 L 3.46875 0 Z M 1.203125 0 "/></g></g></g><g fill="#0fa4af" fill-opacity="1"><g transform="translate(25.305784, 15.484195)"><g><path d="M 1.203125 0 L 1.203125 -10 L 3.125 -10 L 6.6875 -4.8125 L 10.234375 -10 L 12.15625 -10 L 12.15625 0 L 9.890625 0 L 9.890625 -6.015625 L 7.46875 -2.46875 L 5.890625 -2.46875 L 3.453125 -6.03125 L 3.453125 0 Z M 1.203125 0 "/></g></g></g><g fill="#0fa4af" fill-opacity="1"><g transform="translate(38.653828, 15.484195)"><g><path d="M 1.203125 0 L 1.203125 -10 L 7.78125 -10 L 7.78125 -8.09375 L 3.453125 -8.09375 L 3.453125 -6.015625 L 7.390625 -6.015625 L 7.390625 -4.125 L 3.453125 -4.125 L 3.453125 -1.9375 L 7.9375 -1.9375 L 7.9375 0 Z M 1.203125 0 "/></g></g></g></g></g><g transform="matrix(1, 0, 0, 1, 129, 34)"><g clip-path="url(#9e96fbe292)"><g fill="#0fa4af" fill-opacity="1"><g transform="translate(0.573111, 15.053379)"><g><path d="M 1.921875 0.15625 C 1.523438 0.15625 1.203125 0.0351562 0.953125 -0.203125 C 0.710938 -0.453125 0.59375 -0.757812 0.59375 -1.125 C 0.59375 -1.5 0.710938 -1.8125 0.953125 -2.0625 C 1.203125 -2.3125 1.523438 -2.4375 1.921875 -2.4375 C 2.304688 -2.4375 2.625 -2.3125 2.875 -2.0625 C 3.125 -1.8125 3.25 -1.5 3.25 -1.125 C 3.25 -0.757812 3.125 -0.453125 2.875 -0.203125 C 2.625 0.0351562 2.304688 0.15625 1.921875 0.15625 Z M 1.921875 0.15625 "/></g></g></g></g></g></svg>