<svg xmlns="http://www.w3.org/2000/svg" xmlns:xlink="http://www.w3.org/1999/xlink" width="240" zoomAndPan="magnify" viewBox="0 0 180 74.999997" height="100" preserveAspectRatio="xMidYMid meet" version="1.0"><defs><g/><clipPath id="64019e04b9"><path d="M 44.25 31 L 59 31 L 59 47.667969 L 44.25 47.667969 Z M 44.25 31 " clip-rule="nonzero"/></clipPath><clipPath id="d7cf3a544f"><path d="M 47 27.417969 L 55 27.417969 L 55 32 L 47 32 Z M 47 27.417969 " clip-rule="nonzero"/></clipPath><clipPath id="cebfd68322"><path d="M 59 31 L 74.25 31 L 74.25 47.667969 L 59 47.667969 Z M 59 31 " clip-rule="nonzero"/></clipPath><clipPath id="820ad23399"><path d="M 63 27.417969 L 71 27.417969 L 71 32 L 63 32 Z M 63 27.417969 " clip-rule="nonzero"/></clipPath><clipPath id="18880dff29"><path d="M 54 5 L 59.921875 5 L 59.921875 16 L 54 16 Z M 54 5 " clip-rule="nonzero"/></clipPath><clipPath id="31cbf74398"><rect x="0" width="60" y="0" height="21"/></clipPath><clipPath id="bfabf17abb"><path d="M 0.121094 1 L 3 1 L 3 6 L 0.121094 6 Z M 0.121094 1 " clip-rule="nonzero"/></clipPath><clipPath id="17859d46e4"><rect x="0" width="40" y="0" height="7"/></clipPath></defs><g clip-path="url(#64019e04b9)"><path fill="#3b7dfe" d="M 52.484375 37.367188 C 52.792969 37.28125 53.109375 37.460938 53.195312 37.769531 C 53.886719 40.257812 56.050781 42.054688 58.578125 42.320312 L 58.578125 33.722656 C 58.578125 32.75 57.789062 31.957031 56.8125 31.957031 L 46.015625 31.957031 C 45.039062 31.957031 44.246094 32.75 44.246094 33.722656 L 44.246094 45.796875 C 44.246094 46.773438 45.039062 47.566406 46.015625 47.566406 L 56.8125 47.566406 C 57.789062 47.566406 58.578125 46.773438 58.578125 45.796875 L 58.578125 43.484375 C 55.53125 43.214844 52.910156 41.066406 52.078125 38.078125 C 51.996094 37.769531 52.175781 37.453125 52.484375 37.367188 Z M 55.90625 36.660156 C 56.34375 36.660156 56.695312 37.015625 56.695312 37.453125 C 56.695312 37.890625 56.34375 38.25 55.90625 38.25 C 55.472656 38.25 55.121094 37.890625 55.121094 37.453125 C 55.121094 37.015625 55.472656 36.660156 55.90625 36.660156 Z M 55.90625 36.660156 " fill-opacity="1" fill-rule="nonzero"/></g><g clip-path="url(#d7cf3a544f)"><path fill="#3b7dfe" d="M 54.9375 31.957031 L 53.78125 31.957031 L 53.78125 30.953125 C 53.78125 29.648438 52.71875 28.585938 51.414062 28.585938 C 50.109375 28.585938 49.046875 29.648438 49.046875 30.953125 L 49.046875 31.957031 L 47.890625 31.957031 L 47.890625 30.953125 C 47.890625 29.007812 49.472656 27.429688 51.414062 27.429688 C 53.355469 27.429688 54.941406 29.011719 54.941406 30.953125 L 54.941406 31.957031 Z M 54.9375 31.957031 " fill-opacity="1" fill-rule="nonzero"/></g><g clip-path="url(#cebfd68322)"><path fill="#3b7dfe" d="M 72.449219 31.957031 L 61.652344 31.957031 C 60.675781 31.957031 59.882812 32.75 59.882812 33.722656 L 59.882812 42.320312 C 62.414062 42.054688 64.578125 40.257812 65.269531 37.769531 C 65.355469 37.460938 65.671875 37.28125 65.980469 37.367188 C 66.289062 37.453125 66.46875 37.769531 66.386719 38.078125 C 65.554688 41.066406 62.933594 43.214844 59.882812 43.484375 L 59.882812 45.796875 C 59.882812 46.773438 60.675781 47.566406 61.652344 47.566406 L 72.449219 47.566406 C 73.425781 47.566406 74.21875 46.773438 74.21875 45.796875 L 74.21875 33.722656 C 74.21875 32.75 73.425781 31.957031 72.449219 31.957031 Z M 62.558594 38.25 C 62.121094 38.25 61.769531 37.890625 61.769531 37.453125 C 61.769531 37.015625 62.121094 36.660156 62.558594 36.660156 C 62.992188 36.660156 63.347656 37.015625 63.347656 37.453125 C 63.347656 37.890625 62.992188 38.25 62.558594 38.25 Z M 62.558594 38.25 " fill-opacity="1" fill-rule="nonzero"/></g><g clip-path="url(#820ad23399)"><path fill="#3b7dfe" d="M 70.578125 31.957031 L 69.421875 31.957031 L 69.421875 30.953125 C 69.421875 29.648438 68.359375 28.585938 67.050781 28.585938 C 65.746094 28.585938 64.683594 29.648438 64.683594 30.953125 L 64.683594 31.957031 L 63.527344 31.957031 L 63.527344 30.953125 C 63.527344 29.007812 65.109375 27.429688 67.050781 27.429688 C 68.996094 27.429688 70.578125 29.011719 70.578125 30.953125 Z M 70.578125 31.957031 " fill-opacity="1" fill-rule="nonzero"/></g><g transform="matrix(1, 0, 0, 1, 74, 27)"><g clip-path="url(#31cbf74398)"><g fill="#000000" fill-opacity="1"><g transform="translate(0.231123, 15.028777)"><g><path d="M 5.875 0 L 3.765625 -3.734375 L 2.859375 -3.734375 L 2.859375 0 L 0.953125 0 L 0.953125 -9.5625 L 4.53125 -9.5625 C 5.269531 -9.5625 5.898438 -9.429688 6.421875 -9.171875 C 6.941406 -8.910156 7.332031 -8.554688 7.59375 -8.109375 C 7.851562 -7.671875 7.984375 -7.175781 7.984375 -6.625 C 7.984375 -6 7.800781 -5.429688 7.4375 -4.921875 C 7.070312 -4.421875 6.53125 -4.070312 5.8125 -3.875 L 8.09375 0 Z M 2.859375 -5.171875 L 4.46875 -5.171875 C 4.988281 -5.171875 5.375 -5.296875 5.625 -5.546875 C 5.882812 -5.796875 6.015625 -6.144531 6.015625 -6.59375 C 6.015625 -7.03125 5.882812 -7.367188 5.625 -7.609375 C 5.375 -7.847656 4.988281 -7.96875 4.46875 -7.96875 L 2.859375 -7.96875 Z M 2.859375 -5.171875 "/></g></g></g><g fill="#000000" fill-opacity="1"><g transform="translate(8.437639, 15.028777)"><g><path d="M 6.34375 0 L 2.859375 -4.265625 L 2.859375 0 L 0.953125 0 L 0.953125 -9.5625 L 2.859375 -9.5625 L 2.859375 -5.28125 L 6.34375 -9.5625 L 8.65625 -9.5625 L 4.71875 -4.828125 L 8.765625 0 Z M 6.34375 0 "/></g></g></g><g fill="#000000" fill-opacity="1"><g transform="translate(16.945564, 15.028777)"><g/></g></g><g fill="#000000" fill-opacity="1"><g transform="translate(19.630809, 15.028777)"><g><path d="M 4.25 0.09375 C 3.582031 0.09375 2.976562 -0.0195312 2.4375 -0.25 C 1.90625 -0.476562 1.484375 -0.804688 1.171875 -1.234375 C 0.867188 -1.660156 0.710938 -2.164062 0.703125 -2.75 L 2.75 -2.75 C 2.78125 -2.363281 2.921875 -2.054688 3.171875 -1.828125 C 3.421875 -1.597656 3.765625 -1.484375 4.203125 -1.484375 C 4.648438 -1.484375 5 -1.585938 5.25 -1.796875 C 5.507812 -2.015625 5.640625 -2.296875 5.640625 -2.640625 C 5.640625 -2.921875 5.550781 -3.15625 5.375 -3.34375 C 5.207031 -3.53125 4.992188 -3.675781 4.734375 -3.78125 C 4.472656 -3.882812 4.113281 -4 3.65625 -4.125 C 3.039062 -4.3125 2.535156 -4.492188 2.140625 -4.671875 C 1.753906 -4.847656 1.421875 -5.113281 1.140625 -5.46875 C 0.859375 -5.832031 0.71875 -6.316406 0.71875 -6.921875 C 0.71875 -7.484375 0.859375 -7.972656 1.140625 -8.390625 C 1.429688 -8.816406 1.832031 -9.140625 2.34375 -9.359375 C 2.851562 -9.585938 3.4375 -9.703125 4.09375 -9.703125 C 5.082031 -9.703125 5.882812 -9.460938 6.5 -8.984375 C 7.113281 -8.503906 7.453125 -7.832031 7.515625 -6.96875 L 5.40625 -6.96875 C 5.394531 -7.300781 5.257812 -7.570312 5 -7.78125 C 4.738281 -8 4.390625 -8.109375 3.953125 -8.109375 C 3.578125 -8.109375 3.28125 -8.007812 3.0625 -7.8125 C 2.84375 -7.625 2.734375 -7.347656 2.734375 -6.984375 C 2.734375 -6.734375 2.816406 -6.519531 2.984375 -6.34375 C 3.148438 -6.175781 3.359375 -6.039062 3.609375 -5.9375 C 3.859375 -5.832031 4.210938 -5.710938 4.671875 -5.578125 C 5.296875 -5.390625 5.800781 -5.203125 6.1875 -5.015625 C 6.582031 -4.835938 6.921875 -4.566406 7.203125 -4.203125 C 7.484375 -3.835938 7.625 -3.359375 7.625 -2.765625 C 7.625 -2.253906 7.492188 -1.78125 7.234375 -1.34375 C 6.972656 -0.90625 6.582031 -0.554688 6.0625 -0.296875 C 5.550781 -0.0351562 4.945312 0.09375 4.25 0.09375 Z M 4.25 0.09375 "/></g></g></g><g fill="#000000" fill-opacity="1"><g transform="translate(27.398911, 15.028777)"><g><path d="M 7.453125 -9.5625 L 7.453125 -8.015625 L 4.90625 -8.015625 L 4.90625 0 L 2.984375 0 L 2.984375 -8.015625 L 0.4375 -8.015625 L 0.4375 -9.5625 Z M 7.453125 -9.5625 "/></g></g></g><g fill="#000000" fill-opacity="1"><g transform="translate(34.7286, 15.028777)"><g><path d="M 5.390625 0.09375 C 4.492188 0.09375 3.671875 -0.113281 2.921875 -0.53125 C 2.171875 -0.957031 1.578125 -1.539062 1.140625 -2.28125 C 0.703125 -3.019531 0.484375 -3.863281 0.484375 -4.8125 C 0.484375 -5.738281 0.703125 -6.570312 1.140625 -7.3125 C 1.578125 -8.0625 2.171875 -8.644531 2.921875 -9.0625 C 3.671875 -9.488281 4.492188 -9.703125 5.390625 -9.703125 C 6.285156 -9.703125 7.101562 -9.488281 7.84375 -9.0625 C 8.59375 -8.644531 9.1875 -8.0625 9.625 -7.3125 C 10.0625 -6.570312 10.28125 -5.738281 10.28125 -4.8125 C 10.28125 -3.863281 10.0625 -3.019531 9.625 -2.28125 C 9.1875 -1.539062 8.59375 -0.957031 7.84375 -0.53125 C 7.101562 -0.113281 6.285156 0.09375 5.390625 0.09375 Z M 5.390625 -1.609375 C 5.960938 -1.609375 6.46875 -1.738281 6.90625 -2 C 7.34375 -2.257812 7.679688 -2.628906 7.921875 -3.109375 C 8.171875 -3.597656 8.296875 -4.164062 8.296875 -4.8125 C 8.296875 -5.445312 8.171875 -6.003906 7.921875 -6.484375 C 7.679688 -6.960938 7.34375 -7.328125 6.90625 -7.578125 C 6.46875 -7.835938 5.960938 -7.96875 5.390625 -7.96875 C 4.804688 -7.96875 4.289062 -7.835938 3.84375 -7.578125 C 3.40625 -7.328125 3.0625 -6.960938 2.8125 -6.484375 C 2.570312 -6.003906 2.453125 -5.445312 2.453125 -4.8125 C 2.453125 -4.164062 2.570312 -3.597656 2.8125 -3.109375 C 3.0625 -2.628906 3.40625 -2.257812 3.84375 -2 C 4.289062 -1.738281 4.804688 -1.609375 5.390625 -1.609375 Z M 5.390625 -1.609375 "/></g></g></g><g fill="#000000" fill-opacity="1"><g transform="translate(44.907976, 15.028777)"><g><path d="M 5.875 0 L 3.765625 -3.734375 L 2.859375 -3.734375 L 2.859375 0 L 0.953125 0 L 0.953125 -9.5625 L 4.53125 -9.5625 C 5.269531 -9.5625 5.898438 -9.429688 6.421875 -9.171875 C 6.941406 -8.910156 7.332031 -8.554688 7.59375 -8.109375 C 7.851562 -7.671875 7.984375 -7.175781 7.984375 -6.625 C 7.984375 -6 7.800781 -5.429688 7.4375 -4.921875 C 7.070312 -4.421875 6.53125 -4.070312 5.8125 -3.875 L 8.09375 0 Z M 2.859375 -5.171875 L 4.46875 -5.171875 C 4.988281 -5.171875 5.375 -5.296875 5.625 -5.546875 C 5.882812 -5.796875 6.015625 -6.144531 6.015625 -6.59375 C 6.015625 -7.03125 5.882812 -7.367188 5.625 -7.609375 C 5.375 -7.847656 4.988281 -7.96875 4.46875 -7.96875 L 2.859375 -7.96875 Z M 2.859375 -5.171875 "/></g></g></g><g clip-path="url(#18880dff29)"><g fill="#000000" fill-opacity="1"><g transform="translate(53.114492, 15.028777)"><g><path d="M 2.859375 -8.015625 L 2.859375 -5.625 L 6.078125 -5.625 L 6.078125 -4.09375 L 2.859375 -4.09375 L 2.859375 -1.5625 L 6.5 -1.5625 L 6.5 0 L 0.953125 0 L 0.953125 -9.578125 L 6.5 -9.578125 L 6.5 -8.015625 Z M 2.859375 -8.015625 "/></g></g></g></g></g></g><g transform="matrix(1, 0, 0, 1, 75, 42)"><g clip-path="url(#17859d46e4)"><g clip-path="url(#bfabf17abb)"><g fill="#000000" fill-opacity="1"><g transform="translate(0.28113, 5.263201)"><g><path d="M 2.390625 -3.296875 L 2.390625 -2.953125 L 1.5 -2.953125 L 1.5 0 L 1.0625 0 L 1.0625 -2.953125 L 0.15625 -2.953125 L 0.15625 -3.296875 Z M 2.390625 -3.296875 "/></g></g></g></g><g fill="#000000" fill-opacity="1"><g transform="translate(3.545939, 5.263201)"><g><path d="M 2.109375 0 L 1.3125 -1.34375 L 0.796875 -1.34375 L 0.796875 0 L 0.359375 0 L 0.359375 -3.296875 L 1.4375 -3.296875 C 1.675781 -3.296875 1.878906 -3.253906 2.046875 -3.171875 C 2.222656 -3.085938 2.351562 -2.972656 2.4375 -2.828125 C 2.53125 -2.679688 2.578125 -2.515625 2.578125 -2.328125 C 2.578125 -2.097656 2.507812 -1.894531 2.375 -1.71875 C 2.25 -1.550781 2.054688 -1.4375 1.796875 -1.375 L 2.625 0 Z M 0.796875 -1.6875 L 1.4375 -1.6875 C 1.664062 -1.6875 1.835938 -1.742188 1.953125 -1.859375 C 2.066406 -1.984375 2.125 -2.140625 2.125 -2.328125 C 2.125 -2.523438 2.066406 -2.675781 1.953125 -2.78125 C 1.835938 -2.882812 1.664062 -2.9375 1.4375 -2.9375 L 0.796875 -2.9375 Z M 0.796875 -1.6875 "/></g></g></g><g fill="#000000" fill-opacity="1"><g transform="translate(7.127268, 5.263201)"><g><path d="M 0.796875 -2.953125 L 0.796875 -1.84375 L 2 -1.84375 L 2 -1.484375 L 0.796875 -1.484375 L 0.796875 -0.359375 L 2.140625 -0.359375 L 2.140625 0 L 0.359375 0 L 0.359375 -3.296875 L 2.140625 -3.296875 L 2.140625 -2.953125 Z M 0.796875 -2.953125 "/></g></g></g><g fill="#000000" fill-opacity="1"><g transform="translate(10.259798, 5.263201)"><g><path d="M 2.953125 0 L 2.53125 0 L 0.796875 -2.625 L 0.796875 0 L 0.359375 0 L 0.359375 -3.296875 L 0.796875 -3.296875 L 2.53125 -0.6875 L 2.53125 -3.296875 L 2.953125 -3.296875 Z M 2.953125 0 "/></g></g></g><g fill="#000000" fill-opacity="1"><g transform="translate(14.289925, 5.263201)"><g><path d="M 1.390625 -3.296875 C 1.753906 -3.296875 2.066406 -3.226562 2.328125 -3.09375 C 2.585938 -2.957031 2.785156 -2.765625 2.921875 -2.515625 C 3.066406 -2.273438 3.140625 -1.984375 3.140625 -1.640625 C 3.140625 -1.304688 3.066406 -1.015625 2.921875 -0.765625 C 2.785156 -0.515625 2.585938 -0.320312 2.328125 -0.1875 C 2.066406 -0.0625 1.753906 0 1.390625 0 L 0.359375 0 L 0.359375 -3.296875 Z M 1.390625 -0.359375 C 1.816406 -0.359375 2.140625 -0.46875 2.359375 -0.6875 C 2.585938 -0.914062 2.703125 -1.234375 2.703125 -1.640625 C 2.703125 -2.054688 2.585938 -2.378906 2.359375 -2.609375 C 2.140625 -2.835938 1.816406 -2.953125 1.390625 -2.953125 L 0.796875 -2.953125 L 0.796875 -0.359375 Z M 1.390625 -0.359375 "/></g></g></g><g fill="#000000" fill-opacity="1"><g transform="translate(18.338948, 5.263201)"><g><path d="M 1.40625 0.03125 C 1.1875 0.03125 0.988281 -0.00390625 0.8125 -0.078125 C 0.644531 -0.160156 0.515625 -0.269531 0.421875 -0.40625 C 0.328125 -0.539062 0.273438 -0.695312 0.265625 -0.875 L 0.734375 -0.875 C 0.742188 -0.726562 0.804688 -0.597656 0.921875 -0.484375 C 1.035156 -0.378906 1.195312 -0.328125 1.40625 -0.328125 C 1.613281 -0.328125 1.773438 -0.378906 1.890625 -0.484375 C 2.015625 -0.585938 2.078125 -0.71875 2.078125 -0.875 C 2.078125 -1 2.039062 -1.101562 1.96875 -1.1875 C 1.894531 -1.269531 1.804688 -1.332031 1.703125 -1.375 C 1.597656 -1.414062 1.457031 -1.457031 1.28125 -1.5 C 1.070312 -1.5625 0.898438 -1.617188 0.765625 -1.671875 C 0.628906 -1.722656 0.515625 -1.8125 0.421875 -1.9375 C 0.328125 -2.0625 0.28125 -2.222656 0.28125 -2.421875 C 0.28125 -2.609375 0.328125 -2.769531 0.421875 -2.90625 C 0.515625 -3.039062 0.644531 -3.144531 0.8125 -3.21875 C 0.976562 -3.300781 1.164062 -3.34375 1.375 -3.34375 C 1.6875 -3.34375 1.941406 -3.265625 2.140625 -3.109375 C 2.335938 -2.953125 2.445312 -2.75 2.46875 -2.5 L 2 -2.5 C 1.988281 -2.625 1.921875 -2.734375 1.796875 -2.828125 C 1.679688 -2.921875 1.53125 -2.96875 1.34375 -2.96875 C 1.15625 -2.96875 1.003906 -2.921875 0.890625 -2.828125 C 0.785156 -2.734375 0.734375 -2.601562 0.734375 -2.4375 C 0.734375 -2.320312 0.765625 -2.222656 0.828125 -2.140625 C 0.898438 -2.066406 0.984375 -2.007812 1.078125 -1.96875 C 1.179688 -1.9375 1.320312 -1.894531 1.5 -1.84375 C 1.71875 -1.78125 1.890625 -1.71875 2.015625 -1.65625 C 2.148438 -1.601562 2.265625 -1.515625 2.359375 -1.390625 C 2.460938 -1.273438 2.515625 -1.113281 2.515625 -0.90625 C 2.515625 -0.738281 2.46875 -0.582031 2.375 -0.4375 C 2.289062 -0.300781 2.164062 -0.1875 2 -0.09375 C 1.832031 -0.0078125 1.632812 0.03125 1.40625 0.03125 Z M 1.40625 0.03125 "/></g></g></g><g fill="#000000" fill-opacity="1"><g transform="translate(21.821068, 5.263201)"><g/></g></g><g fill="#000000" fill-opacity="1"><g transform="translate(23.791447, 5.263201)"><g><path d="M 1.40625 0.03125 C 1.1875 0.03125 0.988281 -0.00390625 0.8125 -0.078125 C 0.644531 -0.160156 0.515625 -0.269531 0.421875 -0.40625 C 0.328125 -0.539062 0.273438 -0.695312 0.265625 -0.875 L 0.734375 -0.875 C 0.742188 -0.726562 0.804688 -0.597656 0.921875 -0.484375 C 1.035156 -0.378906 1.195312 -0.328125 1.40625 -0.328125 C 1.613281 -0.328125 1.773438 -0.378906 1.890625 -0.484375 C 2.015625 -0.585938 2.078125 -0.71875 2.078125 -0.875 C 2.078125 -1 2.039062 -1.101562 1.96875 -1.1875 C 1.894531 -1.269531 1.804688 -1.332031 1.703125 -1.375 C 1.597656 -1.414062 1.457031 -1.457031 1.28125 -1.5 C 1.070312 -1.5625 0.898438 -1.617188 0.765625 -1.671875 C 0.628906 -1.722656 0.515625 -1.8125 0.421875 -1.9375 C 0.328125 -2.0625 0.28125 -2.222656 0.28125 -2.421875 C 0.28125 -2.609375 0.328125 -2.769531 0.421875 -2.90625 C 0.515625 -3.039062 0.644531 -3.144531 0.8125 -3.21875 C 0.976562 -3.300781 1.164062 -3.34375 1.375 -3.34375 C 1.6875 -3.34375 1.941406 -3.265625 2.140625 -3.109375 C 2.335938 -2.953125 2.445312 -2.75 2.46875 -2.5 L 2 -2.5 C 1.988281 -2.625 1.921875 -2.734375 1.796875 -2.828125 C 1.679688 -2.921875 1.53125 -2.96875 1.34375 -2.96875 C 1.15625 -2.96875 1.003906 -2.921875 0.890625 -2.828125 C 0.785156 -2.734375 0.734375 -2.601562 0.734375 -2.4375 C 0.734375 -2.320312 0.765625 -2.222656 0.828125 -2.140625 C 0.898438 -2.066406 0.984375 -2.007812 1.078125 -1.96875 C 1.179688 -1.9375 1.320312 -1.894531 1.5 -1.84375 C 1.71875 -1.78125 1.890625 -1.71875 2.015625 -1.65625 C 2.148438 -1.601562 2.265625 -1.515625 2.359375 -1.390625 C 2.460938 -1.273438 2.515625 -1.113281 2.515625 -0.90625 C 2.515625 -0.738281 2.46875 -0.582031 2.375 -0.4375 C 2.289062 -0.300781 2.164062 -0.1875 2 -0.09375 C 1.832031 -0.0078125 1.632812 0.03125 1.40625 0.03125 Z M 1.40625 0.03125 "/></g></g></g><g fill="#000000" fill-opacity="1"><g transform="translate(27.273567, 5.263201)"><g><path d="M 2.90625 -3.296875 L 2.90625 0 L 2.46875 0 L 2.46875 -1.5 L 0.796875 -1.5 L 0.796875 0 L 0.359375 0 L 0.359375 -3.296875 L 0.796875 -3.296875 L 0.796875 -1.84375 L 2.46875 -1.84375 L 2.46875 -3.296875 Z M 2.90625 -3.296875 "/></g></g></g><g fill="#000000" fill-opacity="1"><g transform="translate(31.251727, 5.263201)"><g><path d="M 1.859375 0.03125 C 1.554688 0.03125 1.273438 -0.0351562 1.015625 -0.171875 C 0.765625 -0.316406 0.566406 -0.519531 0.421875 -0.78125 C 0.273438 -1.039062 0.203125 -1.332031 0.203125 -1.65625 C 0.203125 -1.976562 0.273438 -2.265625 0.421875 -2.515625 C 0.566406 -2.773438 0.765625 -2.976562 1.015625 -3.125 C 1.273438 -3.269531 1.554688 -3.34375 1.859375 -3.34375 C 2.171875 -3.34375 2.453125 -3.269531 2.703125 -3.125 C 2.953125 -2.976562 3.148438 -2.773438 3.296875 -2.515625 C 3.441406 -2.265625 3.515625 -1.976562 3.515625 -1.65625 C 3.515625 -1.332031 3.441406 -1.039062 3.296875 -0.78125 C 3.148438 -0.519531 2.953125 -0.316406 2.703125 -0.171875 C 2.453125 -0.0351562 2.171875 0.03125 1.859375 0.03125 Z M 1.859375 -0.34375 C 2.085938 -0.34375 2.296875 -0.394531 2.484375 -0.5 C 2.671875 -0.601562 2.816406 -0.753906 2.921875 -0.953125 C 3.023438 -1.160156 3.078125 -1.394531 3.078125 -1.65625 C 3.078125 -1.914062 3.023438 -2.144531 2.921875 -2.34375 C 2.816406 -2.539062 2.671875 -2.691406 2.484375 -2.796875 C 2.296875 -2.910156 2.085938 -2.96875 1.859375 -2.96875 C 1.628906 -2.96875 1.421875 -2.910156 1.234375 -2.796875 C 1.054688 -2.691406 0.910156 -2.539062 0.796875 -2.34375 C 0.691406 -2.144531 0.640625 -1.914062 0.640625 -1.65625 C 0.640625 -1.394531 0.691406 -1.160156 0.796875 -0.953125 C 0.910156 -0.753906 1.054688 -0.601562 1.234375 -0.5 C 1.421875 -0.394531 1.628906 -0.34375 1.859375 -0.34375 Z M 1.859375 -0.34375 "/></g></g></g><g fill="#000000" fill-opacity="1"><g transform="translate(35.67396, 5.263201)"><g><path d="M 2.578125 -2.328125 C 2.578125 -2.054688 2.476562 -1.828125 2.28125 -1.640625 C 2.09375 -1.460938 1.8125 -1.375 1.4375 -1.375 L 0.796875 -1.375 L 0.796875 0 L 0.359375 0 L 0.359375 -3.296875 L 1.4375 -3.296875 C 1.800781 -3.296875 2.082031 -3.207031 2.28125 -3.03125 C 2.476562 -2.851562 2.578125 -2.617188 2.578125 -2.328125 Z M 1.4375 -1.734375 C 1.675781 -1.734375 1.847656 -1.785156 1.953125 -1.890625 C 2.066406 -1.992188 2.125 -2.140625 2.125 -2.328125 C 2.125 -2.734375 1.894531 -2.9375 1.4375 -2.9375 L 0.796875 -2.9375 L 0.796875 -1.734375 Z M 1.4375 -1.734375 "/></g></g></g></g></g></svg>