<svg xmlns="http://www.w3.org/2000/svg" xmlns:xlink="http://www.w3.org/1999/xlink" width="240" zoomAndPan="magnify" viewBox="0 0 180 74.999997" height="100" preserveAspectRatio="xMidYMid meet" version="1.0"><defs><g/><clipPath id="4b4f410f38"><path d="M 39 6 L 51 6 L 51 24.601562 L 39 24.601562 Z M 39 6 " clip-rule="nonzero"/></clipPath><clipPath id="560c82f906"><rect x="0" width="98" y="0" height="25"/></clipPath></defs><g transform="matrix(1, 0, 0, 1, 40, 27)"><g clip-path="url(#560c82f906)"><g fill="#000000" fill-opacity="0.1098"><g transform="translate(0.832345, 18.451148)"><g><path d="M 7.40625 0.1875 C 6.351562 0.1875 5.375 -0.0078125 4.46875 -0.40625 C 3.570312 -0.800781 2.796875 -1.285156 2.140625 -1.859375 C 1.492188 -2.441406 1.015625 -2.992188 0.703125 -3.515625 L 1.265625 -5.59375 L 1.453125 -5.59375 C 1.453125 -5.59375 1.539062 -5.40625 1.71875 -5.03125 C 1.90625 -4.65625 2.171875 -4.1875 2.515625 -3.625 C 2.867188 -3.070312 3.289062 -2.515625 3.78125 -1.953125 C 4.269531 -1.398438 4.816406 -0.9375 5.421875 -0.5625 C 6.035156 -0.1875 6.695312 0 7.40625 0 C 7.675781 0 8.007812 -0.046875 8.40625 -0.140625 C 8.8125 -0.234375 9.222656 -0.390625 9.640625 -0.609375 C 10.066406 -0.835938 10.421875 -1.140625 10.703125 -1.515625 C 10.984375 -1.898438 11.125 -2.375 11.125 -2.9375 C 11.125 -3.695312 10.894531 -4.363281 10.4375 -4.9375 C 9.976562 -5.519531 9.398438 -6.019531 8.703125 -6.4375 C 8.015625 -6.851562 7.3125 -7.1875 6.59375 -7.4375 C 5.789062 -7.726562 5.035156 -8.085938 4.328125 -8.515625 C 3.617188 -8.941406 3.039062 -9.46875 2.59375 -10.09375 C 2.15625 -10.726562 1.9375 -11.484375 1.9375 -12.359375 C 1.9375 -13.210938 2.148438 -13.953125 2.578125 -14.578125 C 3.003906 -15.210938 3.570312 -15.703125 4.28125 -16.046875 C 5 -16.398438 5.78125 -16.578125 6.625 -16.578125 C 7.675781 -16.578125 8.546875 -16.4375 9.234375 -16.15625 C 9.929688 -15.875 10.503906 -15.503906 10.953125 -15.046875 C 11.410156 -14.585938 11.785156 -14.085938 12.078125 -13.546875 L 11.515625 -11.5 L 11.3125 -11.5 C 11.3125 -11.5 11.257812 -11.660156 11.15625 -11.984375 C 11.050781 -12.304688 10.890625 -12.710938 10.671875 -13.203125 C 10.453125 -13.691406 10.160156 -14.175781 9.796875 -14.65625 C 9.429688 -15.144531 8.988281 -15.550781 8.46875 -15.875 C 7.945312 -16.195312 7.332031 -16.359375 6.625 -16.359375 C 6.375 -16.359375 6.035156 -16.3125 5.609375 -16.21875 C 5.191406 -16.125 4.773438 -15.960938 4.359375 -15.734375 C 3.953125 -15.515625 3.601562 -15.210938 3.3125 -14.828125 C 3.03125 -14.453125 2.890625 -13.984375 2.890625 -13.421875 C 2.890625 -12.679688 3.117188 -12.019531 3.578125 -11.4375 C 4.035156 -10.851562 4.613281 -10.359375 5.3125 -9.953125 C 6.007812 -9.546875 6.71875 -9.210938 7.4375 -8.953125 C 8.25 -8.671875 9.003906 -8.3125 9.703125 -7.875 C 10.410156 -7.445312 10.984375 -6.921875 11.421875 -6.296875 C 11.867188 -5.671875 12.09375 -4.914062 12.09375 -4.03125 C 12.09375 -3.175781 11.875 -2.429688 11.4375 -1.796875 C 11.007812 -1.171875 10.441406 -0.679688 9.734375 -0.328125 C 9.023438 0.015625 8.25 0.1875 7.40625 0.1875 Z M 7.40625 0.1875 "/></g></g></g><g fill="#000000" fill-opacity="0.1098"><g transform="translate(13.630908, 18.451148)"><g><path d="M 9.109375 0 L 9.109375 -0.203125 C 9.191406 -0.203125 9.300781 -0.304688 9.4375 -0.515625 C 9.582031 -0.734375 9.65625 -1.222656 9.65625 -1.984375 C 9.601562 -2.722656 9.535156 -3.507812 9.453125 -4.34375 C 9.378906 -5.175781 9.269531 -5.984375 9.125 -6.765625 C 8.976562 -7.554688 8.773438 -8.269531 8.515625 -8.90625 C 8.265625 -9.539062 7.925781 -10.03125 7.5 -10.375 C 7.101562 -10.71875 6.671875 -10.875 6.203125 -10.84375 C 5.734375 -10.789062 5.289062 -10.578125 4.875 -10.203125 C 4.695312 -10.054688 4.546875 -9.90625 4.421875 -9.75 C 3.847656 -8.988281 3.429688 -8.085938 3.171875 -7.046875 C 2.910156 -6.015625 2.78125 -5.035156 2.78125 -4.109375 L 2.78125 -2 C 2.78125 -1.238281 2.851562 -0.75 3 -0.53125 C 3.144531 -0.3125 3.25 -0.203125 3.3125 -0.203125 L 3.3125 0 L 0.609375 0 L 0.609375 -0.203125 C 0.679688 -0.203125 0.785156 -0.3125 0.921875 -0.53125 C 1.066406 -0.75 1.140625 -1.238281 1.140625 -2 L 1.140625 -14.828125 C 1.097656 -15.234375 1.019531 -15.5 0.90625 -15.625 C 0.800781 -15.75 0.71875 -15.8125 0.65625 -15.8125 L 0.578125 -16.015625 L 2.78125 -16.828125 L 2.78125 -6.109375 C 2.894531 -6.910156 3.085938 -7.625 3.359375 -8.25 C 3.640625 -8.882812 3.953125 -9.414062 4.296875 -9.84375 C 4.648438 -10.332031 5.070312 -10.707031 5.5625 -10.96875 C 6.050781 -11.226562 6.609375 -11.316406 7.234375 -11.234375 C 8.035156 -11.128906 8.675781 -10.820312 9.15625 -10.3125 C 9.644531 -9.8125 10.007812 -9.21875 10.25 -8.53125 C 10.488281 -7.925781 10.671875 -7.21875 10.796875 -6.40625 C 10.929688 -5.601562 11.035156 -4.769531 11.109375 -3.90625 C 11.179688 -3.039062 11.238281 -2.210938 11.28125 -1.421875 C 11.363281 -0.910156 11.453125 -0.578125 11.546875 -0.421875 C 11.648438 -0.273438 11.734375 -0.203125 11.796875 -0.203125 L 11.796875 0 Z M 9.109375 0 "/></g></g></g><g fill="#000000" fill-opacity="0.1098"><g transform="translate(26.009845, 18.451148)"><g><path d="M 0.796875 -4.265625 C 0.523438 -5.273438 0.523438 -6.257812 0.796875 -7.21875 C 1.078125 -8.1875 1.566406 -9.03125 2.265625 -9.75 C 2.960938 -10.476562 3.816406 -10.972656 4.828125 -11.234375 C 5.847656 -11.515625 6.835938 -11.519531 7.796875 -11.25 C 8.765625 -10.976562 9.609375 -10.492188 10.328125 -9.796875 C 11.054688 -9.097656 11.550781 -8.234375 11.8125 -7.203125 C 12.09375 -6.191406 12.09375 -5.203125 11.8125 -4.234375 C 11.539062 -3.273438 11.050781 -2.4375 10.34375 -1.71875 C 9.644531 -1.007812 8.789062 -0.515625 7.78125 -0.234375 C 6.769531 0.0234375 5.78125 0.0234375 4.8125 -0.234375 C 3.84375 -0.492188 3 -0.976562 2.28125 -1.6875 C 1.570312 -2.394531 1.078125 -3.253906 0.796875 -4.265625 Z M 10.234375 -6.78125 C 10.078125 -7.34375 9.832031 -7.914062 9.5 -8.5 C 9.175781 -9.082031 8.773438 -9.597656 8.296875 -10.046875 C 7.828125 -10.492188 7.300781 -10.816406 6.71875 -11.015625 C 6.132812 -11.222656 5.519531 -11.242188 4.875 -11.078125 C 4.21875 -10.898438 3.691406 -10.570312 3.296875 -10.09375 C 2.898438 -9.625 2.609375 -9.078125 2.421875 -8.453125 C 2.234375 -7.835938 2.140625 -7.195312 2.140625 -6.53125 C 2.140625 -5.863281 2.21875 -5.25 2.375 -4.6875 C 2.53125 -4.125 2.769531 -3.550781 3.09375 -2.96875 C 3.425781 -2.382812 3.828125 -1.867188 4.296875 -1.421875 C 4.773438 -0.972656 5.304688 -0.640625 5.890625 -0.421875 C 6.472656 -0.210938 7.085938 -0.203125 7.734375 -0.390625 C 8.390625 -0.566406 8.921875 -0.890625 9.328125 -1.359375 C 9.734375 -1.835938 10.023438 -2.382812 10.203125 -3 C 10.378906 -3.625 10.46875 -4.269531 10.46875 -4.9375 C 10.46875 -5.601562 10.390625 -6.21875 10.234375 -6.78125 Z M 10.234375 -6.78125 "/></g></g></g><g clip-path="url(#4b4f410f38)"><g fill="#000000" fill-opacity="0.1098"><g transform="translate(38.621908, 18.451148)"><g><path d="M 2.734375 -11.21875 L 2.734375 -4.9375 C 2.835938 -5.71875 2.988281 -6.425781 3.1875 -7.0625 C 3.394531 -7.695312 3.640625 -8.269531 3.921875 -8.78125 C 4.378906 -9.6875 4.9375 -10.34375 5.59375 -10.75 C 5.644531 -10.78125 5.691406 -10.8125 5.734375 -10.84375 C 5.785156 -10.875 5.832031 -10.894531 5.875 -10.90625 C 6.28125 -11.15625 6.707031 -11.3125 7.15625 -11.375 C 7.601562 -11.4375 8.0625 -11.429688 8.53125 -11.359375 C 9.5 -11.179688 10.257812 -10.835938 10.8125 -10.328125 C 11.375 -9.816406 11.757812 -9.195312 11.96875 -8.46875 C 12.175781 -7.75 12.234375 -6.984375 12.140625 -6.171875 C 12.046875 -5.367188 11.820312 -4.585938 11.46875 -3.828125 C 11.113281 -3.066406 10.65625 -2.394531 10.09375 -1.8125 C 9.519531 -1.226562 8.847656 -0.753906 8.078125 -0.390625 C 7.304688 -0.0234375 6.445312 0.15625 5.5 0.15625 C 5.113281 0.15625 4.6875 0.109375 4.21875 0.015625 C 3.75 -0.0664062 3.253906 -0.210938 2.734375 -0.421875 L 2.734375 3.609375 C 2.796875 4.015625 2.878906 4.28125 2.984375 4.40625 C 3.085938 4.53125 3.164062 4.59375 3.21875 4.59375 L 3.3125 4.796875 L 1.125 5.640625 L 1.125 -9.203125 C 1.125 -9.984375 1.050781 -10.476562 0.90625 -10.6875 C 0.769531 -10.894531 0.660156 -11 0.578125 -11 L 0.578125 -11.21875 Z M 2.734375 -2.6875 L 2.734375 -0.609375 C 3.710938 -0.210938 4.644531 -0.015625 5.53125 -0.015625 C 6.351562 -0.046875 7.066406 -0.257812 7.671875 -0.65625 C 8.273438 -1.0625 8.769531 -1.617188 9.15625 -2.328125 C 9.457031 -2.835938 9.6875 -3.453125 9.84375 -4.171875 C 10.007812 -4.890625 10.085938 -5.628906 10.078125 -6.390625 C 10.078125 -7.148438 9.976562 -7.863281 9.78125 -8.53125 C 9.582031 -9.195312 9.265625 -9.75 8.828125 -10.1875 C 8.429688 -10.59375 7.988281 -10.859375 7.5 -10.984375 C 7.007812 -11.109375 6.5 -11.035156 5.96875 -10.765625 C 5.675781 -10.609375 5.40625 -10.40625 5.15625 -10.15625 C 4.914062 -9.914062 4.6875 -9.640625 4.46875 -9.328125 C 4.082031 -8.753906 3.765625 -8.109375 3.515625 -7.390625 C 3.265625 -6.671875 3.078125 -5.945312 2.953125 -5.21875 L 2.828125 -4.21875 C 2.773438 -3.738281 2.75 -3.226562 2.75 -2.6875 Z M 2.734375 -2.6875 "/></g></g></g></g><g fill="#000000" fill-opacity="0.1098"><g transform="translate(51.420473, 18.451148)"><g><path d="M 0.578125 -11.03125 L 0.578125 -11.234375 L 2.734375 -11.234375 L 2.734375 -5.203125 C 2.828125 -5.910156 2.953125 -6.550781 3.109375 -7.125 C 3.273438 -7.707031 3.457031 -8.222656 3.65625 -8.671875 C 3.863281 -9.109375 4.117188 -9.523438 4.421875 -9.921875 C 4.722656 -10.328125 5.070312 -10.660156 5.46875 -10.921875 C 5.875 -11.191406 6.335938 -11.328125 6.859375 -11.328125 C 7.710938 -11.328125 8.351562 -11.101562 8.78125 -10.65625 C 9.21875 -10.21875 9.519531 -9.65625 9.6875 -8.96875 C 9.851562 -8.289062 9.9375 -7.601562 9.9375 -6.90625 L 9.9375 -2 C 9.9375 -1.238281 10.007812 -0.75 10.15625 -0.53125 C 10.300781 -0.3125 10.40625 -0.203125 10.46875 -0.203125 L 10.46875 0 L 7.765625 0 L 7.765625 -0.203125 C 7.835938 -0.203125 7.941406 -0.3125 8.078125 -0.53125 C 8.222656 -0.75 8.296875 -1.238281 8.296875 -2 L 8.296875 -6.90625 C 8.296875 -7.175781 8.28125 -7.503906 8.25 -7.890625 C 8.21875 -8.285156 8.148438 -8.679688 8.046875 -9.078125 C 7.953125 -9.472656 7.804688 -9.820312 7.609375 -10.125 C 7.410156 -10.425781 7.148438 -10.632812 6.828125 -10.75 C 6.390625 -10.90625 5.972656 -10.863281 5.578125 -10.625 C 5.179688 -10.394531 4.835938 -10.082031 4.546875 -9.6875 C 4.253906 -9.300781 4.019531 -8.929688 3.84375 -8.578125 C 3.5 -7.847656 3.226562 -6.9375 3.03125 -5.84375 C 2.832031 -4.757812 2.734375 -3.476562 2.734375 -2 C 2.734375 -1.238281 2.804688 -0.75 2.953125 -0.53125 C 3.097656 -0.3125 3.203125 -0.203125 3.265625 -0.203125 L 3.265625 0 L 0.578125 0 L 0.578125 -0.203125 C 0.660156 -0.203125 0.769531 -0.3125 0.90625 -0.53125 C 1.050781 -0.75 1.125 -1.238281 1.125 -2 L 1.125 -9.234375 C 1.125 -9.992188 1.050781 -10.484375 0.90625 -10.703125 C 0.769531 -10.921875 0.660156 -11.03125 0.578125 -11.03125 Z M 0.578125 -11.03125 "/></g></g></g><g fill="#000000" fill-opacity="0.1098"><g transform="translate(62.470596, 18.451148)"><g><path d="M 0.796875 -4.125 C 0.523438 -5.132812 0.523438 -6.117188 0.796875 -7.078125 C 1.078125 -8.046875 1.566406 -8.890625 2.265625 -9.609375 C 2.960938 -10.335938 3.816406 -10.832031 4.828125 -11.09375 C 5.898438 -11.394531 6.910156 -11.40625 7.859375 -11.125 C 8.804688 -10.84375 9.617188 -10.378906 10.296875 -9.734375 C 10.972656 -9.085938 11.429688 -8.351562 11.671875 -7.53125 C 11.117188 -7.53125 10.519531 -7.503906 9.875 -7.453125 C 9.226562 -7.410156 8.640625 -7.328125 8.109375 -7.203125 C 8.703125 -7.222656 9.21875 -7.09375 9.65625 -6.8125 C 10.101562 -6.53125 10.457031 -6.15625 10.71875 -5.6875 C 10.988281 -5.21875 11.140625 -4.710938 11.171875 -4.171875 C 11.234375 -3.335938 11.0625 -2.613281 10.65625 -2 C 10.25 -1.382812 9.695312 -0.898438 9 -0.546875 C 8.3125 -0.191406 7.554688 0.0078125 6.734375 0.0625 C 5.910156 0.113281 5.09375 0 4.28125 -0.28125 C 3.476562 -0.5625 2.765625 -1.015625 2.140625 -1.640625 C 1.523438 -2.273438 1.078125 -3.101562 0.796875 -4.125 Z M 2.171875 -5.8125 C 2.210938 -5.375 2.28125 -4.953125 2.375 -4.546875 C 2.6875 -3.429688 3.132812 -2.550781 3.71875 -1.90625 C 4.3125 -1.269531 4.96875 -0.835938 5.6875 -0.609375 C 6.40625 -0.390625 7.113281 -0.34375 7.8125 -0.46875 C 8.519531 -0.59375 9.144531 -0.851562 9.6875 -1.25 C 10.238281 -1.65625 10.628906 -2.171875 10.859375 -2.796875 C 11.097656 -3.429688 11.097656 -4.140625 10.859375 -4.921875 C 10.691406 -5.492188 10.390625 -5.972656 9.953125 -6.359375 C 9.515625 -6.753906 8.976562 -6.976562 8.34375 -7.03125 C 7.707031 -7.082031 7 -6.882812 6.21875 -6.4375 C 5.664062 -6.101562 5.117188 -5.867188 4.578125 -5.734375 C 4.046875 -5.609375 3.550781 -5.5625 3.09375 -5.59375 C 2.945312 -5.613281 2.789062 -5.640625 2.625 -5.671875 C 2.457031 -5.703125 2.304688 -5.75 2.171875 -5.8125 Z M 9.890625 -7.640625 C 9.585938 -8.316406 9.1875 -8.941406 8.6875 -9.515625 C 8.195312 -10.085938 7.628906 -10.515625 6.984375 -10.796875 C 6.335938 -11.085938 5.632812 -11.132812 4.875 -10.9375 C 4.175781 -10.75 3.617188 -10.394531 3.203125 -9.875 C 2.796875 -9.351562 2.515625 -8.742188 2.359375 -8.046875 C 2.203125 -7.359375 2.140625 -6.671875 2.171875 -5.984375 C 2.429688 -5.867188 2.738281 -5.796875 3.09375 -5.765625 C 3.53125 -5.742188 4.007812 -5.796875 4.53125 -5.921875 C 5.050781 -6.046875 5.582031 -6.265625 6.125 -6.578125 C 6.769531 -6.953125 7.425781 -7.210938 8.09375 -7.359375 C 8.757812 -7.515625 9.359375 -7.609375 9.890625 -7.640625 Z M 9.890625 -7.640625 "/></g></g></g><g fill="#000000" fill-opacity="0.1098"><g transform="translate(74.732974, 18.451148)"><g><path d="M 0.578125 0 L 0.578125 -0.203125 C 0.859375 -0.203125 1.140625 -0.300781 1.421875 -0.5 C 1.703125 -0.695312 1.96875 -0.914062 2.21875 -1.15625 C 2.46875 -1.40625 2.671875 -1.625 2.828125 -1.8125 L 2.796875 -1.796875 L 5.828125 -5.484375 L 2.3125 -10.09375 C 2.25 -10.164062 2.140625 -10.273438 1.984375 -10.421875 C 1.828125 -10.578125 1.660156 -10.71875 1.484375 -10.84375 C 1.304688 -10.96875 1.144531 -11.03125 1 -11.03125 L 1 -11.234375 L 4.375 -11.234375 L 4.375 -11.03125 C 4.164062 -11.03125 4.078125 -10.925781 4.109375 -10.71875 C 4.148438 -10.519531 4.269531 -10.28125 4.46875 -10 L 6.921875 -6.8125 L 9.578125 -10.03125 C 9.847656 -10.332031 10 -10.570312 10.03125 -10.75 C 10.0625 -10.9375 9.910156 -11.03125 9.578125 -11.03125 L 9.578125 -11.234375 L 11.5625 -11.234375 L 11.5625 -11.03125 C 11.28125 -11.03125 10.992188 -10.9375 10.703125 -10.75 C 10.421875 -10.5625 10.160156 -10.335938 9.921875 -10.078125 C 9.679688 -9.828125 9.484375 -9.609375 9.328125 -9.421875 L 7.046875 -6.671875 L 11.265625 -1.140625 C 11.328125 -1.066406 11.429688 -0.953125 11.578125 -0.796875 C 11.734375 -0.648438 11.90625 -0.515625 12.09375 -0.390625 C 12.28125 -0.265625 12.4375 -0.203125 12.5625 -0.203125 L 12.5625 0 L 9.1875 0 L 9.1875 -0.203125 C 9.40625 -0.203125 9.5 -0.300781 9.46875 -0.5 C 9.4375 -0.707031 9.3125 -0.953125 9.09375 -1.234375 L 5.9375 -5.34375 L 2.453125 -1.125 C 2.242188 -0.84375 2.128906 -0.617188 2.109375 -0.453125 C 2.097656 -0.285156 2.242188 -0.203125 2.546875 -0.203125 L 2.546875 0 Z M 0.578125 0 "/></g></g></g><g fill="#000000" fill-opacity="0.1098"><g transform="translate(87.881219, 18.451148)"><g><path d="M 0.578125 -11.078125 L 0.578125 -11.234375 C 0.671875 -11.234375 0.835938 -11.257812 1.078125 -11.3125 C 1.328125 -11.375 1.585938 -11.5 1.859375 -11.6875 C 2.128906 -11.882812 2.359375 -12.195312 2.546875 -12.625 C 2.734375 -13.0625 2.828125 -13.664062 2.828125 -14.4375 L 4.453125 -14.4375 C 4.453125 -13.5 4.257812 -12.773438 3.875 -12.265625 C 3.5 -11.765625 2.945312 -11.421875 2.21875 -11.234375 L 5.71875 -11.234375 L 5.71875 -11.078125 L 3.6875 -11.078125 L 3.6875 -4.34375 C 3.6875 -4.0625 3.703125 -3.722656 3.734375 -3.328125 C 3.765625 -2.941406 3.828125 -2.550781 3.921875 -2.15625 C 4.023438 -1.757812 4.171875 -1.410156 4.359375 -1.109375 C 4.554688 -0.804688 4.820312 -0.597656 5.15625 -0.484375 C 5.601562 -0.347656 6.019531 -0.390625 6.40625 -0.609375 C 6.800781 -0.835938 7.148438 -1.144531 7.453125 -1.53125 C 7.753906 -1.925781 7.984375 -2.296875 8.140625 -2.640625 C 8.234375 -2.847656 8.328125 -3.070312 8.421875 -3.3125 C 8.515625 -3.5625 8.59375 -3.816406 8.65625 -4.078125 L 8.859375 -4.078125 C 8.785156 -3.796875 8.703125 -3.523438 8.609375 -3.265625 C 8.523438 -3.015625 8.429688 -2.78125 8.328125 -2.5625 C 8.140625 -2.144531 7.894531 -1.726562 7.59375 -1.3125 C 7.289062 -0.90625 6.929688 -0.566406 6.515625 -0.296875 C 6.097656 -0.0351562 5.632812 0.09375 5.125 0.09375 C 4.289062 0.09375 3.648438 -0.125 3.203125 -0.5625 C 2.765625 -1.007812 2.460938 -1.570312 2.296875 -2.25 C 2.128906 -2.9375 2.046875 -3.632812 2.046875 -4.34375 L 2.046875 -9.65625 C 2.046875 -10.039062 1.914062 -10.375 1.65625 -10.65625 C 1.394531 -10.9375 1.035156 -11.078125 0.578125 -11.078125 Z M 0.578125 -11.078125 "/></g></g></g><g fill="#0e0b14" fill-opacity="1"><g transform="translate(0.358344, 17.977145)"><g><path d="M 7.40625 0.1875 C 6.351562 0.1875 5.375 -0.0078125 4.46875 -0.40625 C 3.570312 -0.800781 2.796875 -1.285156 2.140625 -1.859375 C 1.492188 -2.441406 1.015625 -2.992188 0.703125 -3.515625 L 1.265625 -5.59375 L 1.453125 -5.59375 C 1.453125 -5.59375 1.539062 -5.40625 1.71875 -5.03125 C 1.90625 -4.65625 2.171875 -4.1875 2.515625 -3.625 C 2.867188 -3.070312 3.289062 -2.515625 3.78125 -1.953125 C 4.269531 -1.398438 4.816406 -0.9375 5.421875 -0.5625 C 6.035156 -0.1875 6.695312 0 7.40625 0 C 7.675781 0 8.007812 -0.046875 8.40625 -0.140625 C 8.8125 -0.234375 9.222656 -0.390625 9.640625 -0.609375 C 10.066406 -0.835938 10.421875 -1.140625 10.703125 -1.515625 C 10.984375 -1.898438 11.125 -2.375 11.125 -2.9375 C 11.125 -3.695312 10.894531 -4.363281 10.4375 -4.9375 C 9.976562 -5.519531 9.398438 -6.019531 8.703125 -6.4375 C 8.015625 -6.851562 7.3125 -7.1875 6.59375 -7.4375 C 5.789062 -7.726562 5.035156 -8.085938 4.328125 -8.515625 C 3.617188 -8.941406 3.039062 -9.46875 2.59375 -10.09375 C 2.15625 -10.726562 1.9375 -11.484375 1.9375 -12.359375 C 1.9375 -13.210938 2.148438 -13.953125 2.578125 -14.578125 C 3.003906 -15.210938 3.570312 -15.703125 4.28125 -16.046875 C 5 -16.398438 5.78125 -16.578125 6.625 -16.578125 C 7.675781 -16.578125 8.546875 -16.4375 9.234375 -16.15625 C 9.929688 -15.875 10.503906 -15.503906 10.953125 -15.046875 C 11.410156 -14.585938 11.785156 -14.085938 12.078125 -13.546875 L 11.515625 -11.5 L 11.3125 -11.5 C 11.3125 -11.5 11.257812 -11.660156 11.15625 -11.984375 C 11.050781 -12.304688 10.890625 -12.710938 10.671875 -13.203125 C 10.453125 -13.691406 10.160156 -14.175781 9.796875 -14.65625 C 9.429688 -15.144531 8.988281 -15.550781 8.46875 -15.875 C 7.945312 -16.195312 7.332031 -16.359375 6.625 -16.359375 C 6.375 -16.359375 6.035156 -16.3125 5.609375 -16.21875 C 5.191406 -16.125 4.773438 -15.960938 4.359375 -15.734375 C 3.953125 -15.515625 3.601562 -15.210938 3.3125 -14.828125 C 3.03125 -14.453125 2.890625 -13.984375 2.890625 -13.421875 C 2.890625 -12.679688 3.117188 -12.019531 3.578125 -11.4375 C 4.035156 -10.851562 4.613281 -10.359375 5.3125 -9.953125 C 6.007812 -9.546875 6.71875 -9.210938 7.4375 -8.953125 C 8.25 -8.671875 9.003906 -8.3125 9.703125 -7.875 C 10.410156 -7.445312 10.984375 -6.921875 11.421875 -6.296875 C 11.867188 -5.671875 12.09375 -4.914062 12.09375 -4.03125 C 12.09375 -3.175781 11.875 -2.429688 11.4375 -1.796875 C 11.007812 -1.171875 10.441406 -0.679688 9.734375 -0.328125 C 9.023438 0.015625 8.25 0.1875 7.40625 0.1875 Z M 7.40625 0.1875 "/></g></g></g><g fill="#0e0b14" fill-opacity="1"><g transform="translate(13.156907, 17.977145)"><g><path d="M 9.109375 0 L 9.109375 -0.203125 C 9.191406 -0.203125 9.300781 -0.304688 9.4375 -0.515625 C 9.582031 -0.734375 9.65625 -1.222656 9.65625 -1.984375 C 9.601562 -2.722656 9.535156 -3.507812 9.453125 -4.34375 C 9.378906 -5.175781 9.269531 -5.984375 9.125 -6.765625 C 8.976562 -7.554688 8.773438 -8.269531 8.515625 -8.90625 C 8.265625 -9.539062 7.925781 -10.03125 7.5 -10.375 C 7.101562 -10.71875 6.671875 -10.875 6.203125 -10.84375 C 5.734375 -10.789062 5.289062 -10.578125 4.875 -10.203125 C 4.695312 -10.054688 4.546875 -9.90625 4.421875 -9.75 C 3.847656 -8.988281 3.429688 -8.085938 3.171875 -7.046875 C 2.910156 -6.015625 2.78125 -5.035156 2.78125 -4.109375 L 2.78125 -2 C 2.78125 -1.238281 2.851562 -0.75 3 -0.53125 C 3.144531 -0.3125 3.25 -0.203125 3.3125 -0.203125 L 3.3125 0 L 0.609375 0 L 0.609375 -0.203125 C 0.679688 -0.203125 0.785156 -0.3125 0.921875 -0.53125 C 1.066406 -0.75 1.140625 -1.238281 1.140625 -2 L 1.140625 -14.828125 C 1.097656 -15.234375 1.019531 -15.5 0.90625 -15.625 C 0.800781 -15.75 0.71875 -15.8125 0.65625 -15.8125 L 0.578125 -16.015625 L 2.78125 -16.828125 L 2.78125 -6.109375 C 2.894531 -6.910156 3.085938 -7.625 3.359375 -8.25 C 3.640625 -8.882812 3.953125 -9.414062 4.296875 -9.84375 C 4.648438 -10.332031 5.070312 -10.707031 5.5625 -10.96875 C 6.050781 -11.226562 6.609375 -11.316406 7.234375 -11.234375 C 8.035156 -11.128906 8.675781 -10.820312 9.15625 -10.3125 C 9.644531 -9.8125 10.007812 -9.21875 10.25 -8.53125 C 10.488281 -7.925781 10.671875 -7.21875 10.796875 -6.40625 C 10.929688 -5.601562 11.035156 -4.769531 11.109375 -3.90625 C 11.179688 -3.039062 11.238281 -2.210938 11.28125 -1.421875 C 11.363281 -0.910156 11.453125 -0.578125 11.546875 -0.421875 C 11.648438 -0.273438 11.734375 -0.203125 11.796875 -0.203125 L 11.796875 0 Z M 9.109375 0 "/></g></g></g><g fill="#0e0b14" fill-opacity="1"><g transform="translate(25.535843, 17.977145)"><g><path d="M 0.796875 -4.265625 C 0.523438 -5.273438 0.523438 -6.257812 0.796875 -7.21875 C 1.078125 -8.1875 1.566406 -9.03125 2.265625 -9.75 C 2.960938 -10.476562 3.816406 -10.972656 4.828125 -11.234375 C 5.847656 -11.515625 6.835938 -11.519531 7.796875 -11.25 C 8.765625 -10.976562 9.609375 -10.492188 10.328125 -9.796875 C 11.054688 -9.097656 11.550781 -8.234375 11.8125 -7.203125 C 12.09375 -6.191406 12.09375 -5.203125 11.8125 -4.234375 C 11.539062 -3.273438 11.050781 -2.4375 10.34375 -1.71875 C 9.644531 -1.007812 8.789062 -0.515625 7.78125 -0.234375 C 6.769531 0.0234375 5.78125 0.0234375 4.8125 -0.234375 C 3.84375 -0.492188 3 -0.976562 2.28125 -1.6875 C 1.570312 -2.394531 1.078125 -3.253906 0.796875 -4.265625 Z M 10.234375 -6.78125 C 10.078125 -7.34375 9.832031 -7.914062 9.5 -8.5 C 9.175781 -9.082031 8.773438 -9.597656 8.296875 -10.046875 C 7.828125 -10.492188 7.300781 -10.816406 6.71875 -11.015625 C 6.132812 -11.222656 5.519531 -11.242188 4.875 -11.078125 C 4.21875 -10.898438 3.691406 -10.570312 3.296875 -10.09375 C 2.898438 -9.625 2.609375 -9.078125 2.421875 -8.453125 C 2.234375 -7.835938 2.140625 -7.195312 2.140625 -6.53125 C 2.140625 -5.863281 2.21875 -5.25 2.375 -4.6875 C 2.53125 -4.125 2.769531 -3.550781 3.09375 -2.96875 C 3.425781 -2.382812 3.828125 -1.867188 4.296875 -1.421875 C 4.773438 -0.972656 5.304688 -0.640625 5.890625 -0.421875 C 6.472656 -0.210938 7.085938 -0.203125 7.734375 -0.390625 C 8.390625 -0.566406 8.921875 -0.890625 9.328125 -1.359375 C 9.734375 -1.835938 10.023438 -2.382812 10.203125 -3 C 10.378906 -3.625 10.46875 -4.269531 10.46875 -4.9375 C 10.46875 -5.601562 10.390625 -6.21875 10.234375 -6.78125 Z M 10.234375 -6.78125 "/></g></g></g><g fill="#0e0b14" fill-opacity="1"><g transform="translate(38.147907, 17.977145)"><g><path d="M 2.734375 -11.21875 L 2.734375 -4.9375 C 2.835938 -5.71875 2.988281 -6.425781 3.1875 -7.0625 C 3.394531 -7.695312 3.640625 -8.269531 3.921875 -8.78125 C 4.378906 -9.6875 4.9375 -10.34375 5.59375 -10.75 C 5.644531 -10.78125 5.691406 -10.8125 5.734375 -10.84375 C 5.785156 -10.875 5.832031 -10.894531 5.875 -10.90625 C 6.28125 -11.15625 6.707031 -11.3125 7.15625 -11.375 C 7.601562 -11.4375 8.0625 -11.429688 8.53125 -11.359375 C 9.5 -11.179688 10.257812 -10.835938 10.8125 -10.328125 C 11.375 -9.816406 11.757812 -9.195312 11.96875 -8.46875 C 12.175781 -7.75 12.234375 -6.984375 12.140625 -6.171875 C 12.046875 -5.367188 11.820312 -4.585938 11.46875 -3.828125 C 11.113281 -3.066406 10.65625 -2.394531 10.09375 -1.8125 C 9.519531 -1.226562 8.847656 -0.753906 8.078125 -0.390625 C 7.304688 -0.0234375 6.445312 0.15625 5.5 0.15625 C 5.113281 0.15625 4.6875 0.109375 4.21875 0.015625 C 3.75 -0.0664062 3.253906 -0.210938 2.734375 -0.421875 L 2.734375 3.609375 C 2.796875 4.015625 2.878906 4.28125 2.984375 4.40625 C 3.085938 4.53125 3.164062 4.59375 3.21875 4.59375 L 3.3125 4.796875 L 1.125 5.640625 L 1.125 -9.203125 C 1.125 -9.984375 1.050781 -10.476562 0.90625 -10.6875 C 0.769531 -10.894531 0.660156 -11 0.578125 -11 L 0.578125 -11.21875 Z M 2.734375 -2.6875 L 2.734375 -0.609375 C 3.710938 -0.210938 4.644531 -0.015625 5.53125 -0.015625 C 6.351562 -0.046875 7.066406 -0.257812 7.671875 -0.65625 C 8.273438 -1.0625 8.769531 -1.617188 9.15625 -2.328125 C 9.457031 -2.835938 9.6875 -3.453125 9.84375 -4.171875 C 10.007812 -4.890625 10.085938 -5.628906 10.078125 -6.390625 C 10.078125 -7.148438 9.976562 -7.863281 9.78125 -8.53125 C 9.582031 -9.195312 9.265625 -9.75 8.828125 -10.1875 C 8.429688 -10.59375 7.988281 -10.859375 7.5 -10.984375 C 7.007812 -11.109375 6.5 -11.035156 5.96875 -10.765625 C 5.675781 -10.609375 5.40625 -10.40625 5.15625 -10.15625 C 4.914062 -9.914062 4.6875 -9.640625 4.46875 -9.328125 C 4.082031 -8.753906 3.765625 -8.109375 3.515625 -7.390625 C 3.265625 -6.671875 3.078125 -5.945312 2.953125 -5.21875 L 2.828125 -4.21875 C 2.773438 -3.738281 2.75 -3.226562 2.75 -2.6875 Z M 2.734375 -2.6875 "/></g></g></g><g fill="#0e0b14" fill-opacity="1"><g transform="translate(50.946472, 17.977145)"><g><path d="M 0.578125 -11.03125 L 0.578125 -11.234375 L 2.734375 -11.234375 L 2.734375 -5.203125 C 2.828125 -5.910156 2.953125 -6.550781 3.109375 -7.125 C 3.273438 -7.707031 3.457031 -8.222656 3.65625 -8.671875 C 3.863281 -9.109375 4.117188 -9.523438 4.421875 -9.921875 C 4.722656 -10.328125 5.070312 -10.660156 5.46875 -10.921875 C 5.875 -11.191406 6.335938 -11.328125 6.859375 -11.328125 C 7.710938 -11.328125 8.351562 -11.101562 8.78125 -10.65625 C 9.21875 -10.21875 9.519531 -9.65625 9.6875 -8.96875 C 9.851562 -8.289062 9.9375 -7.601562 9.9375 -6.90625 L 9.9375 -2 C 9.9375 -1.238281 10.007812 -0.75 10.15625 -0.53125 C 10.300781 -0.3125 10.40625 -0.203125 10.46875 -0.203125 L 10.46875 0 L 7.765625 0 L 7.765625 -0.203125 C 7.835938 -0.203125 7.941406 -0.3125 8.078125 -0.53125 C 8.222656 -0.75 8.296875 -1.238281 8.296875 -2 L 8.296875 -6.90625 C 8.296875 -7.175781 8.28125 -7.503906 8.25 -7.890625 C 8.21875 -8.285156 8.148438 -8.679688 8.046875 -9.078125 C 7.953125 -9.472656 7.804688 -9.820312 7.609375 -10.125 C 7.410156 -10.425781 7.148438 -10.632812 6.828125 -10.75 C 6.390625 -10.90625 5.972656 -10.863281 5.578125 -10.625 C 5.179688 -10.394531 4.835938 -10.082031 4.546875 -9.6875 C 4.253906 -9.300781 4.019531 -8.929688 3.84375 -8.578125 C 3.5 -7.847656 3.226562 -6.9375 3.03125 -5.84375 C 2.832031 -4.757812 2.734375 -3.476562 2.734375 -2 C 2.734375 -1.238281 2.804688 -0.75 2.953125 -0.53125 C 3.097656 -0.3125 3.203125 -0.203125 3.265625 -0.203125 L 3.265625 0 L 0.578125 0 L 0.578125 -0.203125 C 0.660156 -0.203125 0.769531 -0.3125 0.90625 -0.53125 C 1.050781 -0.75 1.125 -1.238281 1.125 -2 L 1.125 -9.234375 C 1.125 -9.992188 1.050781 -10.484375 0.90625 -10.703125 C 0.769531 -10.921875 0.660156 -11.03125 0.578125 -11.03125 Z M 0.578125 -11.03125 "/></g></g></g><g fill="#0e0b14" fill-opacity="1"><g transform="translate(61.996595, 17.977145)"><g><path d="M 0.796875 -4.125 C 0.523438 -5.132812 0.523438 -6.117188 0.796875 -7.078125 C 1.078125 -8.046875 1.566406 -8.890625 2.265625 -9.609375 C 2.960938 -10.335938 3.816406 -10.832031 4.828125 -11.09375 C 5.898438 -11.394531 6.910156 -11.40625 7.859375 -11.125 C 8.804688 -10.84375 9.617188 -10.378906 10.296875 -9.734375 C 10.972656 -9.085938 11.429688 -8.351562 11.671875 -7.53125 C 11.117188 -7.53125 10.519531 -7.503906 9.875 -7.453125 C 9.226562 -7.410156 8.640625 -7.328125 8.109375 -7.203125 C 8.703125 -7.222656 9.21875 -7.09375 9.65625 -6.8125 C 10.101562 -6.53125 10.457031 -6.15625 10.71875 -5.6875 C 10.988281 -5.21875 11.140625 -4.710938 11.171875 -4.171875 C 11.234375 -3.335938 11.0625 -2.613281 10.65625 -2 C 10.25 -1.382812 9.695312 -0.898438 9 -0.546875 C 8.3125 -0.191406 7.554688 0.0078125 6.734375 0.0625 C 5.910156 0.113281 5.09375 0 4.28125 -0.28125 C 3.476562 -0.5625 2.765625 -1.015625 2.140625 -1.640625 C 1.523438 -2.273438 1.078125 -3.101562 0.796875 -4.125 Z M 2.171875 -5.8125 C 2.210938 -5.375 2.28125 -4.953125 2.375 -4.546875 C 2.6875 -3.429688 3.132812 -2.550781 3.71875 -1.90625 C 4.3125 -1.269531 4.96875 -0.835938 5.6875 -0.609375 C 6.40625 -0.390625 7.113281 -0.34375 7.8125 -0.46875 C 8.519531 -0.59375 9.144531 -0.851562 9.6875 -1.25 C 10.238281 -1.65625 10.628906 -2.171875 10.859375 -2.796875 C 11.097656 -3.429688 11.097656 -4.140625 10.859375 -4.921875 C 10.691406 -5.492188 10.390625 -5.972656 9.953125 -6.359375 C 9.515625 -6.753906 8.976562 -6.976562 8.34375 -7.03125 C 7.707031 -7.082031 7 -6.882812 6.21875 -6.4375 C 5.664062 -6.101562 5.117188 -5.867188 4.578125 -5.734375 C 4.046875 -5.609375 3.550781 -5.5625 3.09375 -5.59375 C 2.945312 -5.613281 2.789062 -5.640625 2.625 -5.671875 C 2.457031 -5.703125 2.304688 -5.75 2.171875 -5.8125 Z M 9.890625 -7.640625 C 9.585938 -8.316406 9.1875 -8.941406 8.6875 -9.515625 C 8.195312 -10.085938 7.628906 -10.515625 6.984375 -10.796875 C 6.335938 -11.085938 5.632812 -11.132812 4.875 -10.9375 C 4.175781 -10.75 3.617188 -10.394531 3.203125 -9.875 C 2.796875 -9.351562 2.515625 -8.742188 2.359375 -8.046875 C 2.203125 -7.359375 2.140625 -6.671875 2.171875 -5.984375 C 2.429688 -5.867188 2.738281 -5.796875 3.09375 -5.765625 C 3.53125 -5.742188 4.007812 -5.796875 4.53125 -5.921875 C 5.050781 -6.046875 5.582031 -6.265625 6.125 -6.578125 C 6.769531 -6.953125 7.425781 -7.210938 8.09375 -7.359375 C 8.757812 -7.515625 9.359375 -7.609375 9.890625 -7.640625 Z M 9.890625 -7.640625 "/></g></g></g><g fill="#0e0b14" fill-opacity="1"><g transform="translate(74.258973, 17.977145)"><g><path d="M 0.578125 0 L 0.578125 -0.203125 C 0.859375 -0.203125 1.140625 -0.300781 1.421875 -0.5 C 1.703125 -0.695312 1.96875 -0.914062 2.21875 -1.15625 C 2.46875 -1.40625 2.671875 -1.625 2.828125 -1.8125 L 2.796875 -1.796875 L 5.828125 -5.484375 L 2.3125 -10.09375 C 2.25 -10.164062 2.140625 -10.273438 1.984375 -10.421875 C 1.828125 -10.578125 1.660156 -10.71875 1.484375 -10.84375 C 1.304688 -10.96875 1.144531 -11.03125 1 -11.03125 L 1 -11.234375 L 4.375 -11.234375 L 4.375 -11.03125 C 4.164062 -11.03125 4.078125 -10.925781 4.109375 -10.71875 C 4.148438 -10.519531 4.269531 -10.28125 4.46875 -10 L 6.921875 -6.8125 L 9.578125 -10.03125 C 9.847656 -10.332031 10 -10.570312 10.03125 -10.75 C 10.0625 -10.9375 9.910156 -11.03125 9.578125 -11.03125 L 9.578125 -11.234375 L 11.5625 -11.234375 L 11.5625 -11.03125 C 11.28125 -11.03125 10.992188 -10.9375 10.703125 -10.75 C 10.421875 -10.5625 10.160156 -10.335938 9.921875 -10.078125 C 9.679688 -9.828125 9.484375 -9.609375 9.328125 -9.421875 L 7.046875 -6.671875 L 11.265625 -1.140625 C 11.328125 -1.066406 11.429688 -0.953125 11.578125 -0.796875 C 11.734375 -0.648438 11.90625 -0.515625 12.09375 -0.390625 C 12.28125 -0.265625 12.4375 -0.203125 12.5625 -0.203125 L 12.5625 0 L 9.1875 0 L 9.1875 -0.203125 C 9.40625 -0.203125 9.5 -0.300781 9.46875 -0.5 C 9.4375 -0.707031 9.3125 -0.953125 9.09375 -1.234375 L 5.9375 -5.34375 L 2.453125 -1.125 C 2.242188 -0.84375 2.128906 -0.617188 2.109375 -0.453125 C 2.097656 -0.285156 2.242188 -0.203125 2.546875 -0.203125 L 2.546875 0 Z M 0.578125 0 "/></g></g></g><g fill="#0e0b14" fill-opacity="1"><g transform="translate(87.407217, 17.977145)"><g><path d="M 0.578125 -11.078125 L 0.578125 -11.234375 C 0.671875 -11.234375 0.835938 -11.257812 1.078125 -11.3125 C 1.328125 -11.375 1.585938 -11.5 1.859375 -11.6875 C 2.128906 -11.882812 2.359375 -12.195312 2.546875 -12.625 C 2.734375 -13.0625 2.828125 -13.664062 2.828125 -14.4375 L 4.453125 -14.4375 C 4.453125 -13.5 4.257812 -12.773438 3.875 -12.265625 C 3.5 -11.765625 2.945312 -11.421875 2.21875 -11.234375 L 5.71875 -11.234375 L 5.71875 -11.078125 L 3.6875 -11.078125 L 3.6875 -4.34375 C 3.6875 -4.0625 3.703125 -3.722656 3.734375 -3.328125 C 3.765625 -2.941406 3.828125 -2.550781 3.921875 -2.15625 C 4.023438 -1.757812 4.171875 -1.410156 4.359375 -1.109375 C 4.554688 -0.804688 4.820312 -0.597656 5.15625 -0.484375 C 5.601562 -0.347656 6.019531 -0.390625 6.40625 -0.609375 C 6.800781 -0.835938 7.148438 -1.144531 7.453125 -1.53125 C 7.753906 -1.925781 7.984375 -2.296875 8.140625 -2.640625 C 8.234375 -2.847656 8.328125 -3.070312 8.421875 -3.3125 C 8.515625 -3.5625 8.59375 -3.816406 8.65625 -4.078125 L 8.859375 -4.078125 C 8.785156 -3.796875 8.703125 -3.523438 8.609375 -3.265625 C 8.523438 -3.015625 8.429688 -2.78125 8.328125 -2.5625 C 8.140625 -2.144531 7.894531 -1.726562 7.59375 -1.3125 C 7.289062 -0.90625 6.929688 -0.566406 6.515625 -0.296875 C 6.097656 -0.0351562 5.632812 0.09375 5.125 0.09375 C 4.289062 0.09375 3.648438 -0.125 3.203125 -0.5625 C 2.765625 -1.007812 2.460938 -1.570312 2.296875 -2.25 C 2.128906 -2.9375 2.046875 -3.632812 2.046875 -4.34375 L 2.046875 -9.65625 C 2.046875 -10.039062 1.914062 -10.375 1.65625 -10.65625 C 1.394531 -10.9375 1.035156 -11.078125 0.578125 -11.078125 Z M 0.578125 -11.078125 "/></g></g></g></g></g></svg>