<svg xmlns="http://www.w3.org/2000/svg" xmlns:xlink="http://www.w3.org/1999/xlink" width="500" zoomAndPan="magnify" viewBox="0 0 375 54" height="72" preserveAspectRatio="xMidYMid meet" version="1.0"><defs><g/><clipPath id="dde0b37710"><path d="M 8 7 L 45 7 L 45 44 L 8 44 Z M 8 7 " clip-rule="nonzero"/></clipPath><clipPath id="4cf988d937"><path d="M 17.851562 -1.269531 L 54.003906 34.882812 L 35.824219 53.066406 L -0.328125 16.914062 Z M 17.851562 -1.269531 " clip-rule="nonzero"/></clipPath><clipPath id="2c1895cf6b"><path d="M 44.933594 25.8125 L 26.878906 7.757812 L 8.761719 7.824219 L 8.695312 25.941406 L 26.75 43.992188 L 44.867188 43.929688 Z M 44.933594 25.8125 " clip-rule="nonzero"/></clipPath><clipPath id="3ec9a40ed9"><path d="M 0.59375 0.539062 L 37 0.539062 L 37 37 L 0.59375 37 Z M 0.59375 0.539062 " clip-rule="nonzero"/></clipPath><clipPath id="dda176ba7e"><path d="M 9.851562 -8.269531 L 46.003906 27.882812 L 27.824219 46.066406 L -8.328125 9.914062 Z M 9.851562 -8.269531 " clip-rule="nonzero"/></clipPath><clipPath id="1f81e3bf88"><path d="M 36.933594 18.8125 L 18.878906 0.757812 L 0.761719 0.824219 L 0.695312 18.941406 L 18.75 36.992188 L 36.867188 36.929688 Z M 36.933594 18.8125 " clip-rule="nonzero"/></clipPath><clipPath id="6f15392f99"><rect x="0" width="37" y="0" height="37"/></clipPath><clipPath id="51b0d91839"><path d="M 37 7 L 74 7 L 74 44 L 37 44 Z M 37 7 " clip-rule="nonzero"/></clipPath><clipPath id="797830675b"><path d="M 46.722656 -1.269531 L 82.875 34.882812 L 64.691406 53.066406 L 28.539062 16.914062 Z M 46.722656 -1.269531 " clip-rule="nonzero"/></clipPath><clipPath id="2c235f9b2c"><path d="M 73.800781 25.8125 L 55.75 7.757812 L 37.628906 7.824219 L 37.566406 25.941406 L 55.617188 43.992188 L 73.734375 43.929688 Z M 73.800781 25.8125 " clip-rule="nonzero"/></clipPath><clipPath id="605fe20204"><path d="M 0.339844 0.539062 L 36.863281 0.539062 L 36.863281 37 L 0.339844 37 Z M 0.339844 0.539062 " clip-rule="nonzero"/></clipPath><clipPath id="62c62c2da6"><path d="M 9.722656 -8.269531 L 45.875 27.882812 L 27.691406 46.066406 L -8.460938 9.914062 Z M 9.722656 -8.269531 " clip-rule="nonzero"/></clipPath><clipPath id="4d78e98734"><path d="M 36.800781 18.8125 L 18.75 0.757812 L 0.628906 0.824219 L 0.566406 18.941406 L 18.617188 36.992188 L 36.734375 36.929688 Z M 36.800781 18.8125 " clip-rule="nonzero"/></clipPath><clipPath id="33838ad91c"><rect x="0" width="37" y="0" height="37"/></clipPath><clipPath id="ce68404805"><path d="M 73 7 L 92 7 L 92 26 L 73 26 Z M 73 7 " clip-rule="nonzero"/></clipPath><clipPath id="ce46f88fb5"><path d="M 82.890625 -1.269531 L 100.945312 16.785156 L 82.75 34.980469 L 64.699219 16.925781 Z M 82.890625 -1.269531 " clip-rule="nonzero"/></clipPath><clipPath id="e4539bbfa6"><path d="M 91.917969 7.757812 L 73.800781 7.824219 L 73.734375 25.941406 L 91.855469 25.875 Z M 91.917969 7.757812 " clip-rule="nonzero"/></clipPath><clipPath id="3e11ecd9e5"><path d="M 0.628906 0.539062 L 19 0.539062 L 19 19 L 0.628906 19 Z M 0.628906 0.539062 " clip-rule="nonzero"/></clipPath><clipPath id="9459fb5fb3"><path d="M 9.890625 -8.269531 L 27.945312 9.785156 L 9.75 27.980469 L -8.300781 9.925781 Z M 9.890625 -8.269531 " clip-rule="nonzero"/></clipPath><clipPath id="da69141778"><path d="M 18.917969 0.757812 L 0.800781 0.824219 L 0.734375 18.941406 L 18.855469 18.875 Z M 18.917969 0.757812 " clip-rule="nonzero"/></clipPath><clipPath id="b6cf8e5075"><rect x="0" width="19" y="0" height="19"/></clipPath><clipPath id="7d77a94ec6"><path d="M 82 0 L 371.589844 0 L 371.589844 52 L 82 52 Z M 82 0 " clip-rule="nonzero"/></clipPath><clipPath id="5f75d869a1"><rect x="0" width="290" y="0" height="52"/></clipPath></defs><g clip-path="url(#dde0b37710)"><g clip-path="url(#4cf988d937)"><g clip-path="url(#2c1895cf6b)"><g transform="matrix(1, 0, 0, 1, 8, 7)"><g clip-path="url(#6f15392f99)"><g clip-path="url(#3ec9a40ed9)"><g clip-path="url(#dda176ba7e)"><g clip-path="url(#1f81e3bf88)"><path fill="#ee6a4b" d="M 9.851562 -8.269531 L 45.933594 27.8125 L 27.75 45.996094 L -8.328125 9.914062 Z M 9.851562 -8.269531 " fill-opacity="1" fill-rule="nonzero"/></g></g></g></g></g></g></g></g><g clip-path="url(#51b0d91839)"><g clip-path="url(#797830675b)"><g clip-path="url(#2c235f9b2c)"><g transform="matrix(1, 0, 0, 1, 37, 7)"><g clip-path="url(#33838ad91c)"><g clip-path="url(#605fe20204)"><g clip-path="url(#62c62c2da6)"><g clip-path="url(#4d78e98734)"><path fill="#ee6a4b" d="M 9.722656 -8.269531 L 45.804688 27.8125 L 27.621094 45.996094 L -8.460938 9.914062 Z M 9.722656 -8.269531 " fill-opacity="1" fill-rule="nonzero"/></g></g></g></g></g></g></g></g><g clip-path="url(#ce68404805)"><g clip-path="url(#ce46f88fb5)"><g clip-path="url(#e4539bbfa6)"><g transform="matrix(1, 0, 0, 1, 73, 7)"><g clip-path="url(#b6cf8e5075)"><g clip-path="url(#3e11ecd9e5)"><g clip-path="url(#9459fb5fb3)"><g clip-path="url(#da69141778)"><path fill="#f6b066" d="M 9.890625 -8.269531 L 27.945312 9.785156 L 9.75 27.980469 L -8.300781 9.925781 Z M 9.890625 -8.269531 " fill-opacity="1" fill-rule="nonzero"/></g></g></g></g></g></g></g></g><g clip-path="url(#7d77a94ec6)"><g transform="matrix(1, 0, 0, 1, 82, -0.000000000000014165)"><g clip-path="url(#5f75d869a1)"><g fill="#151515" fill-opacity="1"><g transform="translate(1.171602, 40.237289)"><g/></g></g><g fill="#151515" fill-opacity="1"><g transform="translate(15.534959, 40.237289)"><g><path d="M 12.359375 0 L 12.359375 -27.59375 L 1.796875 -27.59375 L 1.796875 -32.296875 L 27.625 -32.296875 L 27.625 -27.59375 L 17.03125 -27.59375 L 17.03125 0 Z M 12.359375 0 "/></g></g></g><g fill="#151515" fill-opacity="1"><g transform="translate(44.94387, 40.237289)"><g><path d="M 1.796875 0 L 1.796875 -32.328125 L 6.5 -32.328125 L 6.5 -25.140625 L 5.53125 -18.609375 L 6.5 -18.609375 C 7.070312 -20.878906 8.132812 -22.535156 9.6875 -23.578125 C 11.25 -24.617188 13.023438 -25.140625 15.015625 -25.140625 C 16.523438 -25.140625 17.9375 -24.9375 19.25 -24.53125 C 20.570312 -24.125 21.734375 -23.472656 22.734375 -22.578125 C 23.742188 -21.679688 24.535156 -20.488281 25.109375 -19 C 25.679688 -17.519531 25.96875 -15.6875 25.96875 -13.5 L 25.96875 0 L 21.015625 0 L 21.015625 -13.5 C 21.015625 -15.445312 20.734375 -16.984375 20.171875 -18.109375 C 19.609375 -19.234375 18.832031 -20.039062 17.84375 -20.53125 C 16.863281 -21.019531 15.765625 -21.265625 14.546875 -21.265625 C 12.992188 -21.265625 11.609375 -20.988281 10.390625 -20.4375 C 9.179688 -19.882812 8.234375 -19.039062 7.546875 -17.90625 C 6.867188 -16.769531 6.53125 -15.300781 6.53125 -13.5 L 6.5 0 Z M 1.796875 0 "/></g></g></g><g fill="#151515" fill-opacity="1"><g transform="translate(72.700998, 40.237289)"><g><path d="M 1.796875 -12.609375 C 1.796875 -14.503906 2.125 -16.238281 2.78125 -17.8125 C 3.4375 -19.394531 4.359375 -20.757812 5.546875 -21.90625 C 6.734375 -23.0625 8.125 -23.945312 9.71875 -24.5625 C 11.3125 -25.1875 13.039062 -25.5 14.90625 -25.5 C 16.675781 -25.5 18.335938 -25.226562 19.890625 -24.6875 C 21.453125 -24.15625 22.835938 -23.328125 24.046875 -22.203125 C 25.253906 -21.078125 26.195312 -19.625 26.875 -17.84375 C 27.5625 -16.070312 27.90625 -13.941406 27.90625 -11.453125 L 6.53125 -11.453125 C 6.75 -8.992188 7.617188 -7.050781 9.140625 -5.625 C 10.660156 -4.195312 12.582031 -3.484375 14.90625 -3.484375 C 17.039062 -3.484375 18.835938 -4.003906 20.296875 -5.046875 C 21.753906 -6.085938 22.675781 -7.457031 23.0625 -9.15625 L 27.84375 -9.15625 C 27.507812 -7.382812 26.765625 -5.78125 25.609375 -4.34375 C 24.460938 -2.90625 22.976562 -1.757812 21.15625 -0.90625 C 19.332031 -0.0625 17.25 0.359375 14.90625 0.359375 C 13.039062 0.359375 11.3125 0.0234375 9.71875 -0.640625 C 8.125 -1.316406 6.734375 -2.242188 5.546875 -3.421875 C 4.359375 -4.609375 3.4375 -5.988281 2.78125 -7.5625 C 2.125 -9.132812 1.796875 -10.816406 1.796875 -12.609375 Z M 6.828125 -15.34375 L 22.734375 -15.34375 C 22.347656 -16.945312 21.75 -18.207031 20.9375 -19.125 C 20.125 -20.050781 19.191406 -20.703125 18.140625 -21.078125 C 17.085938 -21.460938 16.007812 -21.65625 14.90625 -21.65625 C 12.875 -21.65625 11.140625 -21.097656 9.703125 -19.984375 C 8.265625 -18.867188 7.304688 -17.320312 6.828125 -15.34375 Z M 6.828125 -15.34375 "/></g></g></g><g fill="#151515" fill-opacity="1"><g transform="translate(101.319696, 40.237289)"><g><path d="M 1.796875 -25.140625 L 6.359375 -25.140625 L 10.28125 -3.5625 L 13.078125 -3.5625 L 16.734375 -25.140625 L 27.4375 -25.140625 L 31.109375 -3.5625 L 33.953125 -3.5625 L 37.859375 -25.140625 L 42.421875 -25.140625 L 37.859375 0 L 27.1875 0 L 23.5 -21.59375 L 20.6875 -21.59375 L 17.03125 0 L 6.359375 0 Z M 1.796875 -25.140625 "/></g></g></g><g fill="#151515" fill-opacity="1"><g transform="translate(143.727024, 40.237289)"><g><path d="M 1.796875 -12.609375 C 1.796875 -14.503906 2.125 -16.238281 2.78125 -17.8125 C 3.4375 -19.394531 4.359375 -20.757812 5.546875 -21.90625 C 6.734375 -23.0625 8.125 -23.945312 9.71875 -24.5625 C 11.3125 -25.1875 13.039062 -25.5 14.90625 -25.5 C 16.675781 -25.5 18.335938 -25.226562 19.890625 -24.6875 C 21.453125 -24.15625 22.835938 -23.328125 24.046875 -22.203125 C 25.253906 -21.078125 26.195312 -19.625 26.875 -17.84375 C 27.5625 -16.070312 27.90625 -13.941406 27.90625 -11.453125 L 6.53125 -11.453125 C 6.75 -8.992188 7.617188 -7.050781 9.140625 -5.625 C 10.660156 -4.195312 12.582031 -3.484375 14.90625 -3.484375 C 17.039062 -3.484375 18.835938 -4.003906 20.296875 -5.046875 C 21.753906 -6.085938 22.675781 -7.457031 23.0625 -9.15625 L 27.84375 -9.15625 C 27.507812 -7.382812 26.765625 -5.78125 25.609375 -4.34375 C 24.460938 -2.90625 22.976562 -1.757812 21.15625 -0.90625 C 19.332031 -0.0625 17.25 0.359375 14.90625 0.359375 C 13.039062 0.359375 11.3125 0.0234375 9.71875 -0.640625 C 8.125 -1.316406 6.734375 -2.242188 5.546875 -3.421875 C 4.359375 -4.609375 3.4375 -5.988281 2.78125 -7.5625 C 2.125 -9.132812 1.796875 -10.816406 1.796875 -12.609375 Z M 6.828125 -15.34375 L 22.734375 -15.34375 C 22.347656 -16.945312 21.75 -18.207031 20.9375 -19.125 C 20.125 -20.050781 19.191406 -20.703125 18.140625 -21.078125 C 17.085938 -21.460938 16.007812 -21.65625 14.90625 -21.65625 C 12.875 -21.65625 11.140625 -21.097656 9.703125 -19.984375 C 8.265625 -18.867188 7.304688 -17.320312 6.828125 -15.34375 Z M 6.828125 -15.34375 "/></g></g></g><g fill="#151515" fill-opacity="1"><g transform="translate(173.423196, 40.237289)"><g><path d="M 16.265625 0.71875 C 13.921875 0.71875 11.890625 0.144531 10.171875 -1 C 8.460938 -2.15625 7.273438 -4.050781 6.609375 -6.6875 L 5.640625 -6.6875 L 6.609375 0 L 1.828125 0 L 1.796875 -32.328125 L 6.609375 -32.296875 L 6.609375 -25.140625 L 5.640625 -17.75 L 6.609375 -17.75 C 7.273438 -20.382812 8.460938 -22.273438 10.171875 -23.421875 C 11.890625 -24.566406 13.921875 -25.140625 16.265625 -25.140625 C 17.921875 -25.140625 19.488281 -24.828125 20.96875 -24.203125 C 22.457031 -23.585938 23.78125 -22.703125 24.9375 -21.546875 C 26.101562 -20.398438 27.019531 -19.035156 27.6875 -17.453125 C 28.363281 -15.878906 28.703125 -14.144531 28.703125 -12.25 C 28.703125 -10.332031 28.363281 -8.582031 27.6875 -7 C 27.019531 -5.425781 26.101562 -4.054688 24.9375 -2.890625 C 23.78125 -1.734375 22.457031 -0.84375 20.96875 -0.21875 C 19.488281 0.40625 17.921875 0.71875 16.265625 0.71875 Z M 6.609375 -12.25 C 6.609375 -10.5 6.972656 -8.941406 7.703125 -7.578125 C 8.429688 -6.210938 9.457031 -5.132812 10.78125 -4.34375 C 12.113281 -3.550781 13.671875 -3.15625 15.453125 -3.15625 C 17.335938 -3.15625 18.910156 -3.546875 20.171875 -4.328125 C 21.429688 -5.109375 22.375 -6.1875 23 -7.5625 C 23.632812 -8.9375 23.953125 -10.5 23.953125 -12.25 C 23.953125 -14.039062 23.628906 -15.613281 22.984375 -16.96875 C 22.335938 -18.320312 21.378906 -19.375 20.109375 -20.125 C 18.847656 -20.882812 17.296875 -21.265625 15.453125 -21.265625 C 13.648438 -21.265625 12.082031 -20.890625 10.75 -20.140625 C 9.425781 -19.398438 8.40625 -18.351562 7.6875 -17 C 6.96875 -15.65625 6.609375 -14.070312 6.609375 -12.25 Z M 6.609375 -12.25 "/></g></g></g><g fill="#151515" fill-opacity="1"><g transform="translate(203.90935, 40.237289)"><g><path d="M 12.359375 0 L 12.359375 -27.59375 L 1.796875 -27.59375 L 1.796875 -32.296875 L 27.625 -32.296875 L 27.625 -27.59375 L 17.03125 -27.59375 L 17.03125 0 Z M 12.359375 0 "/></g></g></g><g fill="#151515" fill-opacity="1"><g transform="translate(229.726685, 40.237289)"><g><path d="M 1.796875 -7.1875 C 1.796875 -9.894531 2.878906 -11.9375 5.046875 -13.3125 C 7.210938 -14.6875 10.453125 -15.671875 14.765625 -16.265625 L 19.6875 -16.953125 C 19.6875 -18.242188 19.257812 -19.335938 18.40625 -20.234375 C 17.5625 -21.140625 16.25 -21.59375 14.46875 -21.59375 C 13.375 -21.59375 12.34375 -21.429688 11.375 -21.109375 C 10.40625 -20.785156 9.617188 -20.226562 9.015625 -19.4375 C 8.421875 -18.644531 8.125 -17.554688 8.125 -16.171875 L 3.34375 -16.171875 C 3.34375 -18.222656 3.828125 -19.941406 4.796875 -21.328125 C 5.765625 -22.722656 7.09375 -23.765625 8.78125 -24.453125 C 10.46875 -25.148438 12.378906 -25.5 14.515625 -25.5 C 16.578125 -25.5 18.253906 -25.207031 19.546875 -24.625 C 20.835938 -24.039062 21.84375 -23.257812 22.5625 -22.28125 C 23.28125 -21.3125 23.773438 -20.234375 24.046875 -19.046875 C 24.328125 -17.867188 24.46875 -16.679688 24.46875 -15.484375 L 24.46875 -7.5 C 24.46875 -6.257812 24.585938 -5.34375 24.828125 -4.75 C 25.066406 -4.164062 25.546875 -3.875 26.265625 -3.875 L 26.625 -3.875 L 26.625 0 L 26.265625 0 C 24.847656 0 23.753906 -0.207031 22.984375 -0.625 C 22.222656 -1.039062 21.691406 -1.796875 21.390625 -2.890625 C 21.085938 -3.984375 20.9375 -5.519531 20.9375 -7.5 L 19.96875 -7.5 C 19.613281 -5.925781 18.941406 -4.546875 17.953125 -3.359375 C 16.972656 -2.171875 15.800781 -1.25 14.4375 -0.59375 C 13.070312 0.0625 11.632812 0.390625 10.125 0.390625 C 8.71875 0.390625 7.375 0.132812 6.09375 -0.375 C 4.8125 -0.894531 3.773438 -1.707031 2.984375 -2.8125 C 2.191406 -3.925781 1.796875 -5.382812 1.796875 -7.1875 Z M 6.578125 -7.1875 C 6.578125 -6.46875 6.726562 -5.789062 7.03125 -5.15625 C 7.34375 -4.519531 7.859375 -4.003906 8.578125 -3.609375 C 9.296875 -3.210938 10.253906 -3.015625 11.453125 -3.015625 C 12.171875 -3.015625 12.929688 -3.144531 13.734375 -3.40625 C 14.535156 -3.675781 15.332031 -4.15625 16.125 -4.84375 C 16.914062 -5.539062 17.625 -6.550781 18.25 -7.875 C 18.875 -9.207031 19.363281 -10.929688 19.71875 -13.046875 L 14.765625 -12.390625 C 12.460938 -12.109375 10.722656 -11.691406 9.546875 -11.140625 C 8.378906 -10.585938 7.59375 -9.96875 7.1875 -9.28125 C 6.78125 -8.601562 6.578125 -7.90625 6.578125 -7.1875 Z M 6.578125 -7.1875 "/></g></g></g><g fill="#151515" fill-opacity="1"><g transform="translate(258.489294, 40.237289)"><g><path d="M 16.265625 0.71875 C 13.921875 0.71875 11.890625 0.144531 10.171875 -1 C 8.460938 -2.15625 7.273438 -4.050781 6.609375 -6.6875 L 5.640625 -6.6875 L 6.609375 0 L 1.828125 0 L 1.796875 -32.328125 L 6.609375 -32.296875 L 6.609375 -25.140625 L 5.640625 -17.75 L 6.609375 -17.75 C 7.273438 -20.382812 8.460938 -22.273438 10.171875 -23.421875 C 11.890625 -24.566406 13.921875 -25.140625 16.265625 -25.140625 C 17.921875 -25.140625 19.488281 -24.828125 20.96875 -24.203125 C 22.457031 -23.585938 23.78125 -22.703125 24.9375 -21.546875 C 26.101562 -20.398438 27.019531 -19.035156 27.6875 -17.453125 C 28.363281 -15.878906 28.703125 -14.144531 28.703125 -12.25 C 28.703125 -10.332031 28.363281 -8.582031 27.6875 -7 C 27.019531 -5.425781 26.101562 -4.054688 24.9375 -2.890625 C 23.78125 -1.734375 22.457031 -0.84375 20.96875 -0.21875 C 19.488281 0.40625 17.921875 0.71875 16.265625 0.71875 Z M 6.609375 -12.25 C 6.609375 -10.5 6.972656 -8.941406 7.703125 -7.578125 C 8.429688 -6.210938 9.457031 -5.132812 10.78125 -4.34375 C 12.113281 -3.550781 13.671875 -3.15625 15.453125 -3.15625 C 17.335938 -3.15625 18.910156 -3.546875 20.171875 -4.328125 C 21.429688 -5.109375 22.375 -6.1875 23 -7.5625 C 23.632812 -8.9375 23.953125 -10.5 23.953125 -12.25 C 23.953125 -14.039062 23.628906 -15.613281 22.984375 -16.96875 C 22.335938 -18.320312 21.378906 -19.375 20.109375 -20.125 C 18.847656 -20.882812 17.296875 -21.265625 15.453125 -21.265625 C 13.648438 -21.265625 12.082031 -20.890625 10.75 -20.140625 C 9.425781 -19.398438 8.40625 -18.351562 7.6875 -17 C 6.96875 -15.65625 6.609375 -14.070312 6.609375 -12.25 Z M 6.609375 -12.25 "/></g></g></g></g></g></g></svg>