<svg xmlns="http://www.w3.org/2000/svg" xmlns:xlink="http://www.w3.org/1999/xlink" width="240" zoomAndPan="magnify" viewBox="0 0 180 74.999997" height="100" preserveAspectRatio="xMidYMid meet" version="1.0"><defs><g/><clipPath id="020e7f137e"><path d="M 3 0.320312 L 17 0.320312 L 17 19 L 3 19 Z M 3 0.320312 " clip-rule="nonzero"/></clipPath><clipPath id="e32c9c18b8"><path d="M 41 0.320312 L 58 0.320312 L 58 19 L 41 19 Z M 41 0.320312 " clip-rule="nonzero"/></clipPath><clipPath id="84d787e277"><path d="M 59 0.320312 L 79 0.320312 L 79 19 L 59 19 Z M 59 0.320312 " clip-rule="nonzero"/></clipPath><clipPath id="424a3b429e"><rect x="0" width="79" y="0" height="26"/></clipPath><clipPath id="d7b9915184"><path d="M 65 28 L 96 28 L 96 59 L 65 59 Z M 65 28 " clip-rule="nonzero"/></clipPath><clipPath id="e34bd8025c"><path d="M 65.003906 40.015625 L 81.328125 28.039062 L 95.085938 46.78125 L 78.757812 58.761719 Z M 65.003906 40.015625 " clip-rule="nonzero"/></clipPath><clipPath id="480dc60c27"><path d="M 4 2 L 29 2 L 29 27 L 4 27 Z M 4 2 " clip-rule="nonzero"/></clipPath><clipPath id="91baede7bf"><path d="M 0.00390625 12.015625 L 16.328125 0.0390625 L 30.085938 18.78125 L 13.757812 30.761719 Z M 0.00390625 12.015625 " clip-rule="nonzero"/></clipPath><clipPath id="429e3b803b"><path d="M 16.273438 0.078125 L -0.0546875 12.058594 L 13.703125 30.804688 L 30.027344 18.824219 Z M 16.273438 0.078125 " clip-rule="nonzero"/></clipPath><clipPath id="c9b2175ca8"><rect x="0" width="31" y="0" height="31"/></clipPath><clipPath id="099f979288"><path d="M 85.304688 21.992188 L 86.804688 21.992188 L 86.804688 24.242188 L 85.304688 24.242188 Z M 85.304688 21.992188 " clip-rule="nonzero"/></clipPath><clipPath id="60e881b02e"><path d="M 81.882812 42.339844 L 83.382812 42.339844 L 83.382812 44.589844 L 81.882812 44.589844 Z M 81.882812 42.339844 " clip-rule="nonzero"/></clipPath><clipPath id="3fa2f199bb"><path d="M 86.851562 31.394531 L 88.351562 31.394531 L 88.351562 33.644531 L 86.851562 33.644531 Z M 86.851562 31.394531 " clip-rule="nonzero"/></clipPath><clipPath id="64974da05f"><path d="M 92.589844 23.992188 L 94 23.992188 L 94 26 L 92.589844 26 Z M 92.589844 23.992188 " clip-rule="nonzero"/></clipPath><clipPath id="63653c2a47"><path d="M 95.785156 28.523438 L 98 28.523438 L 98 30.773438 L 95.785156 30.773438 Z M 95.785156 28.523438 " clip-rule="nonzero"/></clipPath><clipPath id="68d7269a1f"><path d="M 104.3125 21.46875 L 105.8125 21.46875 L 105.8125 22.96875 L 104.3125 22.96875 Z M 104.3125 21.46875 " clip-rule="nonzero"/></clipPath><clipPath id="8f9b8f307d"><path d="M 96.515625 20.65625 L 98 20.65625 L 98 22.15625 L 96.515625 22.15625 Z M 96.515625 20.65625 " clip-rule="nonzero"/></clipPath><clipPath id="4bb018ffd0"><path d="M 0.761719 3 L 8 3 L 8 15 L 0.761719 15 Z M 0.761719 3 " clip-rule="nonzero"/></clipPath><clipPath id="2ff6cdfb05"><path d="M 4 0.640625 L 13 0.640625 L 13 21 L 4 21 Z M 4 0.640625 " clip-rule="nonzero"/></clipPath><clipPath id="d5c999f1e2"><path d="M 15 8 L 21.878906 8 L 21.878906 13 L 15 13 Z M 15 8 " clip-rule="nonzero"/></clipPath><clipPath id="e57295e2ef"><rect x="0" width="22" y="0" height="28"/></clipPath></defs><g transform="matrix(1, 0, 0, 1, 53, 34)"><g clip-path="url(#424a3b429e)"><g clip-path="url(#020e7f137e)"><g fill="#3d3b3a" fill-opacity="1"><g transform="translate(1.000929, 18.820302)"><g><path d="M 15.09375 -4.09375 L 15.09375 -0.671875 C 15.09375 -0.222656 14.898438 0 14.515625 0 L 2.921875 0 C 2.535156 0 2.34375 -0.222656 2.34375 -0.671875 L 2.34375 -17.59375 C 2.34375 -18.050781 2.535156 -18.28125 2.921875 -18.28125 L 6.234375 -18.28125 C 6.617188 -18.28125 6.8125 -18.050781 6.8125 -17.59375 L 6.8125 -0.359375 L 8.6875 -0.359375 L 13.1875 -4.15625 C 13.375 -4.289062 13.570312 -4.425781 13.78125 -4.5625 C 13.988281 -4.707031 14.179688 -4.78125 14.359375 -4.78125 L 14.515625 -4.78125 C 14.898438 -4.78125 15.09375 -4.550781 15.09375 -4.09375 Z M 15.09375 -4.09375 "/></g></g></g></g><g fill="#3d3b3a" fill-opacity="1"><g transform="translate(16.611493, 18.820302)"><g/></g></g><g fill="#3d3b3a" fill-opacity="1"><g transform="translate(24.441297, 18.820302)"><g/></g></g><g fill="#3d3b3a" fill-opacity="1"><g transform="translate(32.2711, 18.820302)"><g/></g></g><g clip-path="url(#e32c9c18b8)"><g fill="#3d3b3a" fill-opacity="1"><g transform="translate(40.101759, 18.820302)"><g><path d="M 1.515625 -18.28125 L 6.578125 -18.28125 C 6.910156 -18.28125 7.234375 -18.097656 7.546875 -17.734375 L 16.578125 -6.765625 L 16.625 -6.765625 L 16.625 -13.265625 L 13.453125 -17.4375 C 13.359375 -17.539062 13.300781 -17.628906 13.28125 -17.703125 C 13.269531 -17.785156 13.265625 -17.875 13.265625 -17.96875 L 13.265625 -18.09375 C 13.265625 -18.21875 13.328125 -18.28125 13.453125 -18.28125 L 16.421875 -18.28125 C 16.804688 -18.28125 17 -18.050781 17 -17.59375 L 17 -0.671875 C 17 -0.222656 16.804688 0 16.421875 0 L 15.4375 0 C 15.101562 0 14.753906 -0.222656 14.390625 -0.671875 L 2.765625 -15.875 L 2.765625 -6 L 6.703125 -0.828125 C 6.828125 -0.660156 6.890625 -0.488281 6.890625 -0.3125 L 6.890625 -0.1875 C 6.890625 -0.0625 6.828125 0 6.703125 0 L 2.96875 0 C 2.59375 0 2.40625 -0.222656 2.40625 -0.671875 L 2.40625 -16.375 L 1.46875 -17.59375 C 1.394531 -17.695312 1.34375 -17.785156 1.3125 -17.859375 C 1.289062 -17.929688 1.28125 -17.992188 1.28125 -18.046875 L 1.28125 -18.09375 C 1.28125 -18.21875 1.359375 -18.28125 1.515625 -18.28125 Z M 1.515625 -18.28125 "/></g></g></g></g><g clip-path="url(#84d787e277)"><g fill="#3d3b3a" fill-opacity="1"><g transform="translate(59.441373, 18.820302)"><g><path d="M 4.828125 0 L 0.734375 0 C 0.523438 0 0.382812 -0.0664062 0.3125 -0.203125 C 0.238281 -0.347656 0.238281 -0.503906 0.3125 -0.671875 L 7.890625 -17.59375 C 7.972656 -17.789062 8.097656 -17.953125 8.265625 -18.078125 C 8.429688 -18.210938 8.597656 -18.28125 8.765625 -18.28125 L 10.359375 -18.28125 C 10.585938 -18.28125 10.785156 -18.210938 10.953125 -18.078125 C 11.117188 -17.953125 11.238281 -17.789062 11.3125 -17.59375 L 18.875 -0.671875 C 18.945312 -0.503906 18.945312 -0.347656 18.875 -0.203125 C 18.800781 -0.0664062 18.660156 0 18.453125 0 L 14.640625 0 C 14.421875 0 14.234375 -0.0625 14.078125 -0.1875 C 13.921875 -0.320312 13.796875 -0.484375 13.703125 -0.671875 L 11.78125 -4.984375 L 3.46875 -4.984375 L 5.40625 -0.671875 C 5.488281 -0.484375 5.484375 -0.320312 5.390625 -0.1875 C 5.296875 -0.0625 5.109375 0 4.828125 0 Z M 11.625 -5.359375 L 7.203125 -15.25 L 3.0625 -5.921875 L 3.3125 -5.359375 Z M 11.625 -5.359375 "/></g></g></g></g></g></g><g clip-path="url(#d7b9915184)"><g clip-path="url(#e34bd8025c)"><g transform="matrix(1, 0, 0, 1, 65, 28)"><g clip-path="url(#c9b2175ca8)"><g clip-path="url(#480dc60c27)"><g clip-path="url(#91baede7bf)"><g clip-path="url(#429e3b803b)"><path fill="#e8be3d" d="M 9.484375 5.070312 C 10.738281 4.140625 12.125 3.492188 13.644531 3.121094 C 15.160156 2.75 16.691406 2.6875 18.234375 2.929688 C 18.375 2.949219 18.449219 3.03125 18.457031 3.175781 C 18.464844 3.316406 18.398438 3.40625 18.257812 3.441406 C 17.214844 3.710938 16.253906 4.164062 15.382812 4.804688 C 11.613281 7.570312 10.796875 12.886719 13.5625 16.65625 C 16.328125 20.425781 21.644531 21.242188 25.414062 18.476562 C 26.285156 17.835938 27.007812 17.058594 27.578125 16.140625 C 27.65625 16.019531 27.757812 15.984375 27.890625 16.035156 C 28.023438 16.085938 28.082031 16.179688 28.058594 16.320312 C 27.828125 17.863281 27.308594 19.304688 26.5 20.640625 C 25.691406 21.976562 24.65625 23.105469 23.394531 24.027344 C 18.167969 27.859375 10.792969 26.730469 6.960938 21.503906 C 3.125 16.277344 4.257812 8.902344 9.484375 5.070312 Z M 23.085938 23.605469 C 24.121094 22.847656 25.003906 21.9375 25.726562 20.875 C 26.449219 19.8125 26.976562 18.660156 27.300781 17.417969 C 26.835938 17.976562 26.3125 18.46875 25.726562 18.898438 C 21.722656 21.835938 16.078125 20.96875 13.140625 16.964844 C 10.203125 12.964844 11.070312 7.320312 15.074219 4.382812 C 15.660156 3.953125 16.289062 3.601562 16.960938 3.324219 C 15.675781 3.261719 14.417969 3.414062 13.1875 3.789062 C 11.957031 4.160156 10.824219 4.726562 9.792969 5.488281 C 4.796875 9.15625 3.714844 16.199219 7.378906 21.195312 C 11.042969 26.1875 18.089844 27.269531 23.085938 23.605469 Z M 23.085938 23.605469 " fill-opacity="1" fill-rule="nonzero"/></g></g></g></g></g></g></g><g clip-path="url(#099f979288)"><path fill="#e8be3d" d="M 86.78125 23.046875 C 86.769531 23.039062 86.464844 22.945312 86.328125 22.925781 C 86.238281 22.910156 86.207031 22.875 86.191406 22.785156 C 86.152344 22.542969 86.085938 22.304688 86.054688 22.058594 C 86.050781 22.03125 86.054688 21.996094 86.011719 21.996094 C 85.976562 21.996094 85.972656 22.027344 85.964844 22.054688 C 85.964844 22.0625 85.84375 22.597656 85.828125 22.859375 C 85.824219 22.902344 85.808594 22.921875 85.769531 22.933594 C 85.632812 22.980469 85.496094 23.027344 85.355469 23.074219 C 85.335938 23.082031 85.308594 23.089844 85.308594 23.121094 C 85.304688 23.15625 85.335938 23.160156 85.363281 23.167969 C 85.484375 23.203125 85.609375 23.230469 85.734375 23.242188 C 85.816406 23.25 85.820312 23.257812 85.820312 23.339844 C 85.820312 23.535156 85.9375 24.207031 85.980469 24.347656 C 85.988281 24.375 86 24.398438 86.03125 24.40625 C 86.058594 24.402344 86.066406 24.378906 86.070312 24.355469 C 86.074219 24.328125 86.175781 23.441406 86.191406 23.339844 C 86.195312 23.316406 86.195312 23.28125 86.222656 23.273438 C 86.265625 23.261719 86.632812 23.167969 86.773438 23.140625 C 86.800781 23.132812 86.832031 23.136719 86.835938 23.101562 C 86.839844 23.0625 86.808594 23.058594 86.78125 23.046875 Z M 86.78125 23.046875 " fill-opacity="1" fill-rule="evenodd"/></g><g clip-path="url(#60e881b02e)"><path fill="#e8be3d" d="M 83.121094 43.175781 C 83.019531 43.15625 82.917969 43.144531 82.8125 43.148438 C 82.761719 43.148438 82.742188 43.128906 82.734375 43.078125 C 82.722656 42.96875 82.707031 42.859375 82.691406 42.753906 C 82.675781 42.640625 82.667969 42.527344 82.640625 42.417969 C 82.632812 42.382812 82.621094 42.347656 82.578125 42.34375 C 82.527344 42.339844 82.515625 42.378906 82.5 42.417969 C 82.496094 42.429688 82.492188 42.445312 82.488281 42.460938 C 82.441406 42.664062 82.378906 42.863281 82.351562 43.074219 C 82.34375 43.132812 82.320312 43.160156 82.261719 43.171875 C 82.152344 43.191406 82.050781 43.234375 81.953125 43.285156 C 81.917969 43.300781 81.882812 43.320312 81.890625 43.367188 C 81.898438 43.414062 81.9375 43.421875 81.976562 43.429688 C 82.066406 43.449219 82.160156 43.449219 82.25 43.453125 C 82.394531 43.457031 82.378906 43.441406 82.390625 43.578125 C 82.398438 43.742188 82.414062 43.902344 82.4375 44.066406 C 82.449219 44.160156 82.464844 44.25 82.5 44.339844 C 82.515625 44.378906 82.53125 44.414062 82.578125 44.410156 C 82.628906 44.40625 82.636719 44.367188 82.648438 44.328125 C 82.652344 44.300781 82.65625 44.277344 82.660156 44.25 C 82.703125 44.03125 82.722656 43.808594 82.746094 43.589844 C 82.753906 43.507812 82.785156 43.457031 82.867188 43.429688 C 82.960938 43.398438 83.046875 43.355469 83.136719 43.3125 C 83.164062 43.300781 83.191406 43.28125 83.195312 43.242188 C 83.191406 43.199219 83.160156 43.183594 83.121094 43.175781 Z M 83.121094 43.175781 " fill-opacity="1" fill-rule="evenodd"/></g><g clip-path="url(#3fa2f199bb)"><path fill="#e8be3d" d="M 88.285156 32.476562 C 88.28125 32.4375 88.242188 32.429688 88.207031 32.425781 C 88.085938 32.402344 87.964844 32.390625 87.84375 32.390625 C 87.785156 32.386719 87.769531 32.371094 87.761719 32.316406 C 87.746094 32.136719 87.722656 31.960938 87.703125 31.78125 C 87.695312 31.679688 87.679688 31.574219 87.652344 31.472656 C 87.644531 31.441406 87.636719 31.40625 87.59375 31.402344 C 87.5625 31.402344 87.546875 31.425781 87.539062 31.449219 C 87.523438 31.492188 87.511719 31.535156 87.5 31.578125 C 87.441406 31.804688 87.402344 32.035156 87.371094 32.265625 C 87.359375 32.339844 87.328125 32.371094 87.261719 32.394531 C 87.140625 32.429688 87.023438 32.46875 86.914062 32.527344 C 86.882812 32.542969 86.851562 32.558594 86.851562 32.601562 C 86.855469 32.644531 86.890625 32.65625 86.925781 32.667969 C 87.027344 32.695312 87.132812 32.710938 87.234375 32.722656 C 87.355469 32.738281 87.355469 32.734375 87.367188 32.855469 C 87.386719 33.0625 87.410156 33.269531 87.464844 33.472656 C 87.480469 33.535156 87.5 33.59375 87.527344 33.652344 C 87.546875 33.6875 87.5625 33.734375 87.613281 33.726562 C 87.710938 33.714844 87.707031 33.46875 87.714844 33.402344 C 87.742188 33.226562 87.765625 33.046875 87.78125 32.871094 C 87.789062 32.828125 87.804688 32.796875 87.84375 32.773438 C 87.972656 32.699219 88.109375 32.636719 88.234375 32.550781 C 88.261719 32.535156 88.292969 32.515625 88.285156 32.476562 Z M 88.285156 32.476562 " fill-opacity="1" fill-rule="evenodd"/></g><g clip-path="url(#64974da05f)"><path fill="#e8be3d" d="M 93.867188 24.894531 C 93.832031 24.882812 93.796875 24.871094 93.785156 24.867188 C 93.574219 24.765625 93.464844 24.542969 93.382812 24.335938 C 93.351562 24.246094 93.332031 24.035156 93.328125 24.027344 C 93.320312 24.007812 93.308594 23.996094 93.289062 23.996094 C 93.269531 23.996094 93.261719 24.011719 93.261719 24.03125 C 93.230469 24.304688 93.128906 24.570312 92.945312 24.777344 C 92.886719 24.84375 92.816406 24.898438 92.734375 24.9375 C 92.707031 24.949219 92.585938 24.988281 92.597656 25.035156 C 92.609375 25.078125 92.703125 25.085938 92.738281 25.097656 C 92.789062 25.113281 92.839844 25.136719 92.890625 25.164062 C 93.066406 25.269531 93.167969 25.460938 93.238281 25.648438 C 93.269531 25.734375 93.300781 25.957031 93.320312 25.960938 C 93.339844 25.960938 93.351562 25.949219 93.355469 25.933594 C 93.402344 25.679688 93.4375 25.398438 93.59375 25.183594 C 93.667969 25.082031 93.773438 25.011719 93.894531 24.980469 C 93.914062 24.972656 93.933594 24.96875 93.933594 24.945312 C 93.9375 24.925781 93.902344 24.910156 93.867188 24.894531 Z M 93.867188 24.894531 " fill-opacity="1" fill-rule="evenodd"/></g><g clip-path="url(#63653c2a47)"><path fill="#e8be3d" d="M 97.691406 29.488281 C 97.523438 29.441406 97.359375 29.40625 97.191406 29.367188 C 97.117188 29.347656 97.0625 29.316406 97.039062 29.234375 C 97.007812 29.101562 96.96875 28.972656 96.933594 28.847656 C 96.914062 28.789062 96.902344 28.726562 96.878906 28.671875 C 96.855469 28.617188 96.800781 28.527344 96.738281 28.589844 C 96.699219 28.625 96.679688 28.6875 96.664062 28.738281 C 96.644531 28.808594 96.621094 28.878906 96.601562 28.945312 C 96.5625 29.082031 96.523438 29.222656 96.480469 29.359375 C 96.464844 29.398438 96.425781 29.441406 96.386719 29.460938 C 96.285156 29.507812 96.179688 29.554688 96.078125 29.597656 C 96.011719 29.625 95.949219 29.648438 95.886719 29.675781 C 95.859375 29.683594 95.824219 29.695312 95.804688 29.71875 C 95.796875 29.726562 95.789062 29.738281 95.789062 29.753906 C 95.785156 29.800781 95.847656 29.839844 95.886719 29.855469 C 95.941406 29.878906 96 29.886719 96.058594 29.898438 C 96.191406 29.925781 96.328125 29.949219 96.464844 29.96875 C 96.527344 29.980469 96.558594 29.996094 96.574219 30.058594 C 96.609375 30.210938 96.644531 30.359375 96.6875 30.507812 C 96.703125 30.578125 96.714844 30.644531 96.746094 30.707031 C 96.789062 30.789062 96.863281 30.800781 96.910156 30.714844 C 96.960938 30.621094 96.976562 30.507812 97 30.40625 C 97.035156 30.277344 97.0625 30.144531 97.089844 30.015625 C 97.101562 29.945312 97.128906 29.921875 97.191406 29.898438 C 97.367188 29.832031 97.542969 29.757812 97.714844 29.679688 C 97.824219 29.628906 97.792969 29.515625 97.691406 29.488281 Z M 97.691406 29.488281 " fill-opacity="1" fill-rule="nonzero"/></g><g clip-path="url(#68d7269a1f)"><path fill="#e8be3d" d="M 105.714844 22.242188 C 105.671875 22.222656 105.390625 22.1875 105.308594 22.175781 C 105.28125 22.167969 105.253906 22.164062 105.222656 22.160156 C 105.203125 22.15625 105.191406 22.144531 105.1875 22.125 C 105.1875 22.101562 105.144531 21.539062 105.132812 21.492188 C 105.132812 21.484375 105.128906 21.472656 105.117188 21.472656 C 105.105469 21.46875 105.097656 21.476562 105.09375 21.488281 C 105.085938 21.507812 104.957031 22.011719 104.949219 22.125 C 104.949219 22.144531 104.933594 22.148438 104.917969 22.152344 C 104.753906 22.183594 104.378906 22.28125 104.355469 22.289062 C 104.328125 22.300781 104.3125 22.328125 104.351562 22.335938 C 104.355469 22.335938 104.789062 22.375 104.910156 22.386719 C 104.929688 22.386719 104.9375 22.394531 104.941406 22.414062 C 104.941406 22.4375 104.996094 23.085938 105.011719 23.15625 C 105.015625 23.175781 105.023438 23.191406 105.042969 23.191406 C 105.078125 23.191406 105.09375 22.960938 105.101562 22.90625 C 105.121094 22.78125 105.140625 22.652344 105.160156 22.527344 C 105.164062 22.484375 105.171875 22.441406 105.179688 22.398438 C 105.183594 22.378906 105.191406 22.367188 105.210938 22.363281 C 105.351562 22.339844 105.730469 22.292969 105.730469 22.257812 C 105.730469 22.25 105.722656 22.246094 105.714844 22.242188 Z M 105.714844 22.242188 " fill-opacity="1" fill-rule="evenodd"/></g><g clip-path="url(#8f9b8f307d)"><path fill="#e8be3d" d="M 97.820312 21.347656 C 97.671875 21.292969 97.507812 21.289062 97.355469 21.25 C 97.335938 21.246094 97.316406 21.242188 97.304688 21.230469 C 97.289062 21.214844 97.285156 21.195312 97.28125 21.175781 C 97.246094 21.039062 97.214844 20.804688 97.183594 20.667969 C 97.183594 20.664062 97.179688 20.660156 97.171875 20.660156 C 97.167969 20.660156 97.164062 20.664062 97.160156 20.667969 L 97.035156 21.285156 C 97.035156 21.289062 97.03125 21.289062 97.027344 21.292969 C 96.859375 21.363281 96.683594 21.433594 96.523438 21.53125 C 96.519531 21.53125 96.515625 21.539062 96.519531 21.542969 C 96.519531 21.546875 96.523438 21.550781 96.527344 21.550781 L 97.046875 21.621094 C 97.066406 21.625 97.082031 21.628906 97.09375 21.640625 C 97.101562 21.648438 97.105469 21.660156 97.109375 21.671875 L 97.238281 22.261719 C 97.242188 22.269531 97.246094 22.273438 97.253906 22.273438 C 97.257812 22.273438 97.261719 22.269531 97.261719 22.261719 C 97.289062 22.066406 97.332031 21.765625 97.390625 21.574219 C 97.394531 21.550781 97.402344 21.527344 97.421875 21.511719 C 97.4375 21.496094 97.457031 21.488281 97.480469 21.480469 L 97.820312 21.367188 C 97.828125 21.367188 97.828125 21.363281 97.828125 21.359375 C 97.828125 21.351562 97.828125 21.347656 97.820312 21.347656 Z M 97.820312 21.347656 " fill-opacity="1" fill-rule="nonzero"/></g><g transform="matrix(1, 0, 0, 1, 47, 20)"><g clip-path="url(#e57295e2ef)"><g clip-path="url(#4bb018ffd0)"><g fill="#3d3b3a" fill-opacity="1"><g transform="translate(1.445286, 12.922424)"><g><path d="M 0.21875 -0.859375 C 0.113281 -0.492188 0.046875 -0.0976562 0.015625 0.328125 C 0.015625 0.367188 0.0195312 0.429688 0.03125 0.515625 C 0.0390625 0.597656 0.078125 0.664062 0.140625 0.71875 C 0.179688 0.75 0.226562 0.765625 0.28125 0.765625 C 0.3125 0.765625 0.347656 0.753906 0.390625 0.734375 C 0.566406 0.691406 0.726562 0.613281 0.875 0.5 C 1.019531 0.382812 1.148438 0.269531 1.265625 0.15625 C 1.578125 -0.132812 1.800781 -0.492188 1.9375 -0.921875 C 1.957031 -0.972656 1.972656 -1.03125 1.984375 -1.09375 C 1.992188 -1.15625 1.960938 -1.21875 1.890625 -1.28125 C 1.828125 -1.363281 1.753906 -1.40625 1.671875 -1.40625 C 1.640625 -1.40625 1.609375 -1.398438 1.578125 -1.390625 C 1.554688 -1.378906 1.53125 -1.375 1.5 -1.375 C 1.46875 -1.351562 1.4375 -1.335938 1.40625 -1.328125 C 1.375 -1.328125 1.335938 -1.328125 1.296875 -1.328125 C 1.253906 -1.316406 1.21875 -1.3125 1.1875 -1.3125 C 1.039062 -1.3125 0.941406 -1.367188 0.890625 -1.484375 C 0.859375 -1.546875 0.859375 -1.59375 0.890625 -1.625 C 0.921875 -1.6875 1 -1.722656 1.125 -1.734375 C 1.625 -1.785156 2.097656 -1.851562 2.546875 -1.9375 C 2.992188 -2.019531 3.394531 -2.097656 3.75 -2.171875 C 3.882812 -2.210938 4.019531 -2.242188 4.15625 -2.265625 C 4.289062 -2.296875 4.421875 -2.332031 4.546875 -2.375 L 4.59375 -2.390625 C 4.65625 -2.398438 4.703125 -2.40625 4.734375 -2.40625 C 4.773438 -2.40625 4.816406 -2.375 4.859375 -2.3125 C 4.878906 -2.28125 4.882812 -2.253906 4.875 -2.234375 C 4.863281 -2.203125 4.84375 -2.179688 4.8125 -2.171875 C 4.78125 -2.160156 4.742188 -2.15625 4.703125 -2.15625 L 3.984375 -2 C 3.753906 -1.9375 3.519531 -1.878906 3.28125 -1.828125 C 3.050781 -1.785156 2.820312 -1.734375 2.59375 -1.671875 C 2.4375 -1.640625 2.316406 -1.582031 2.234375 -1.5 C 2.160156 -1.425781 2.125 -1.285156 2.125 -1.078125 C 2.125 -0.648438 2 -0.296875 1.75 -0.015625 C 1.5 0.265625 1.234375 0.523438 0.953125 0.765625 L 0.84375 0.84375 C 0.757812 0.925781 0.664062 1.003906 0.5625 1.078125 C 0.46875 1.148438 0.351562 1.1875 0.21875 1.1875 C 0.09375 1.1875 -0.0390625 1.132812 -0.1875 1.03125 C -0.394531 0.882812 -0.5 0.710938 -0.5 0.515625 C -0.5 0.328125 -0.484375 0.144531 -0.453125 -0.03125 L -0.4375 -0.171875 C -0.03125 -2.410156 0.773438 -4.421875 1.984375 -6.203125 L 2.28125 -6.671875 C 2.539062 -7.054688 2.8125 -7.441406 3.09375 -7.828125 C 3.375 -8.222656 3.675781 -8.597656 4 -8.953125 C 4.09375 -9.054688 4.195312 -9.15625 4.3125 -9.25 C 4.4375 -9.351562 4.582031 -9.425781 4.75 -9.46875 C 4.84375 -9.5 4.9375 -9.515625 5.03125 -9.515625 C 5.257812 -9.515625 5.445312 -9.441406 5.59375 -9.296875 C 5.78125 -9.117188 5.875 -8.878906 5.875 -8.578125 C 5.875 -8.035156 5.769531 -7.550781 5.5625 -7.125 C 5.363281 -6.695312 5.140625 -6.316406 4.890625 -5.984375 C 3.878906 -4.640625 2.613281 -3.519531 1.09375 -2.625 C 1.070312 -2.601562 1.039062 -2.585938 1 -2.578125 C 0.957031 -2.554688 0.910156 -2.523438 0.859375 -2.484375 C 0.816406 -2.453125 0.78125 -2.410156 0.75 -2.359375 C 0.726562 -2.253906 0.695312 -2.15625 0.65625 -2.0625 C 0.613281 -1.96875 0.578125 -1.867188 0.546875 -1.765625 C 0.484375 -1.617188 0.425781 -1.46875 0.375 -1.3125 C 0.320312 -1.164062 0.269531 -1.015625 0.21875 -0.859375 Z M 1.171875 -3.453125 C 1.140625 -3.390625 1.109375 -3.320312 1.078125 -3.25 C 1.054688 -3.1875 1.023438 -3.125 0.984375 -3.0625 L 1.0625 -2.984375 C 2.300781 -3.648438 3.375 -4.535156 4.28125 -5.640625 C 4.9375 -6.429688 5.347656 -7.222656 5.515625 -8.015625 L 5.515625 -8.078125 C 5.546875 -8.234375 5.5625 -8.398438 5.5625 -8.578125 C 5.570312 -8.765625 5.484375 -8.921875 5.296875 -9.046875 C 5.222656 -9.085938 5.148438 -9.109375 5.078125 -9.109375 C 4.960938 -9.109375 4.863281 -9.066406 4.78125 -8.984375 C 4.695312 -8.898438 4.625 -8.816406 4.5625 -8.734375 L 4.5 -8.671875 C 3.507812 -7.453125 2.546875 -6.007812 1.609375 -4.34375 C 1.523438 -4.195312 1.445312 -4.050781 1.375 -3.90625 C 1.300781 -3.757812 1.234375 -3.609375 1.171875 -3.453125 Z M 1.171875 -3.453125 "/></g></g></g></g><g clip-path="url(#2ff6cdfb05)"><g fill="#3d3b3a" fill-opacity="1"><g transform="translate(5.924967, 12.922424)"><g><path d="M 5.953125 -12.09375 C 6.066406 -11.988281 6.113281 -11.890625 6.09375 -11.796875 C 6.070312 -11.710938 6.019531 -11.617188 5.9375 -11.515625 C 5.820312 -11.378906 5.710938 -11.238281 5.609375 -11.09375 C 5.515625 -10.945312 5.414062 -10.800781 5.3125 -10.65625 C 5.300781 -10.644531 5.289062 -10.632812 5.28125 -10.625 C 5.28125 -10.625 5.28125 -10.617188 5.28125 -10.609375 C 4.769531 -9.878906 4.289062 -9.144531 3.84375 -8.40625 C 2.8125 -6.75 1.882812 -5.007812 1.0625 -3.1875 C 0.25 -1.363281 -0.398438 0.519531 -0.890625 2.46875 C -1.222656 3.8125 -1.378906 5.035156 -1.359375 6.140625 C -1.359375 6.179688 -1.363281 6.226562 -1.375 6.28125 C -1.375 6.382812 -1.367188 6.484375 -1.359375 6.578125 C -1.347656 6.671875 -1.304688 6.753906 -1.234375 6.828125 C -1.140625 6.929688 -0.976562 7 -0.75 7.03125 C -0.71875 7.03125 -0.6875 7.050781 -0.65625 7.09375 C -0.613281 7.125 -0.585938 7.175781 -0.578125 7.25 C -0.566406 7.332031 -0.582031 7.390625 -0.625 7.421875 C -0.664062 7.453125 -0.710938 7.46875 -0.765625 7.46875 L -0.78125 7.46875 C -1.289062 7.46875 -1.617188 7.222656 -1.765625 6.734375 C -1.847656 6.472656 -1.882812 6.222656 -1.875 5.984375 C -1.875 5.742188 -1.859375 5.507812 -1.828125 5.28125 L -1.8125 5.140625 C -1.6875 3.742188 -1.429688 2.390625 -1.046875 1.078125 C -0.660156 -0.222656 -0.203125 -1.488281 0.328125 -2.71875 C 0.867188 -3.957031 1.429688 -5.160156 2.015625 -6.328125 C 2.503906 -7.304688 3.003906 -8.273438 3.515625 -9.234375 C 4.035156 -10.203125 4.664062 -11.09375 5.40625 -11.90625 C 5.414062 -11.925781 5.441406 -11.957031 5.484375 -12 C 5.523438 -12.039062 5.566406 -12.082031 5.609375 -12.125 C 5.648438 -12.164062 5.695312 -12.1875 5.75 -12.1875 C 5.800781 -12.1875 5.867188 -12.15625 5.953125 -12.09375 Z M 5.953125 -12.09375 "/></g></g></g></g><g fill="#3d3b3a" fill-opacity="1"><g transform="translate(8.576493, 12.922424)"><g><path d="M 7.875 -2.203125 C 7.90625 -2.171875 7.921875 -2.144531 7.921875 -2.125 C 7.929688 -2.09375 7.90625 -2.046875 7.84375 -1.984375 C 7.414062 -1.566406 6.941406 -1.164062 6.421875 -0.78125 C 5.910156 -0.394531 5.3125 -0.113281 4.625 0.0625 C 4.457031 0.113281 4.300781 0.140625 4.15625 0.140625 C 3.882812 0.140625 3.660156 0.0546875 3.484375 -0.109375 C 3.203125 -0.335938 3.03125 -0.738281 2.96875 -1.3125 L 2.953125 -1.40625 L 2.546875 -1.078125 C 2.421875 -0.960938 2.289062 -0.847656 2.15625 -0.734375 C 2.03125 -0.628906 1.898438 -0.523438 1.765625 -0.421875 C 1.429688 -0.148438 1.070312 0.046875 0.6875 0.171875 C 0.5625 0.203125 0.457031 0.21875 0.375 0.21875 C 0.207031 0.21875 0.0625 0.164062 -0.0625 0.0625 C -0.300781 -0.132812 -0.398438 -0.375 -0.359375 -0.65625 C -0.234375 -1.800781 0.265625 -2.9375 1.140625 -4.0625 C 1.203125 -4.15625 1.273438 -4.203125 1.359375 -4.203125 C 1.410156 -4.203125 1.460938 -4.175781 1.515625 -4.125 C 1.585938 -4.070312 1.617188 -4.015625 1.609375 -3.953125 C 1.597656 -3.898438 1.570312 -3.835938 1.53125 -3.765625 C 1.46875 -3.617188 1.394531 -3.472656 1.3125 -3.328125 C 1.238281 -3.191406 1.160156 -3.050781 1.078125 -2.90625 C 0.867188 -2.53125 0.671875 -2.148438 0.484375 -1.765625 C 0.296875 -1.378906 0.1875 -0.960938 0.15625 -0.515625 C 0.15625 -0.472656 0.15625 -0.429688 0.15625 -0.390625 C 0.164062 -0.347656 0.1875 -0.304688 0.21875 -0.265625 C 0.269531 -0.222656 0.320312 -0.195312 0.375 -0.1875 C 0.40625 -0.1875 0.429688 -0.1875 0.453125 -0.1875 C 0.554688 -0.1875 0.65625 -0.207031 0.75 -0.25 C 0.851562 -0.289062 0.945312 -0.332031 1.03125 -0.375 C 2.1875 -0.96875 2.988281 -1.75 3.4375 -2.71875 C 3.445312 -2.75 3.460938 -2.800781 3.484375 -2.875 C 3.515625 -2.957031 3.546875 -3.035156 3.578125 -3.109375 C 3.617188 -3.179688 3.675781 -3.21875 3.75 -3.21875 C 3.8125 -3.21875 3.875 -3.195312 3.9375 -3.15625 C 4.019531 -3.101562 4.078125 -3.050781 4.109375 -3 C 4.128906 -2.9375 4.128906 -2.867188 4.109375 -2.796875 C 4.085938 -2.734375 4.054688 -2.671875 4.015625 -2.609375 C 4.003906 -2.566406 3.992188 -2.53125 3.984375 -2.5 C 3.972656 -2.476562 3.960938 -2.453125 3.953125 -2.421875 C 3.921875 -2.347656 3.890625 -2.269531 3.859375 -2.1875 C 3.835938 -2.113281 3.8125 -2.039062 3.78125 -1.96875 C 3.726562 -1.8125 3.675781 -1.648438 3.625 -1.484375 C 3.570312 -1.316406 3.535156 -1.140625 3.515625 -0.953125 C 3.484375 -0.691406 3.53125 -0.492188 3.65625 -0.359375 C 3.78125 -0.242188 3.988281 -0.179688 4.28125 -0.171875 C 4.601562 -0.171875 4.882812 -0.222656 5.125 -0.328125 C 5.375 -0.429688 5.597656 -0.550781 5.796875 -0.6875 C 6.585938 -1.144531 7.207031 -1.625 7.65625 -2.125 C 7.664062 -2.132812 7.679688 -2.148438 7.703125 -2.171875 C 7.742188 -2.222656 7.769531 -2.25 7.78125 -2.25 C 7.800781 -2.25 7.832031 -2.234375 7.875 -2.203125 Z M 7.875 -2.203125 "/></g></g></g><g clip-path="url(#d5c999f1e2)"><g fill="#3d3b3a" fill-opacity="1"><g transform="translate(16.098448, 12.922424)"><g><path d="M 4.765625 -2.0625 C 4.835938 -2.101562 4.914062 -2.125 5 -2.125 C 5.007812 -2.070312 4.988281 -2.023438 4.9375 -1.984375 C 4.894531 -1.941406 4.851562 -1.90625 4.8125 -1.875 L 4.71875 -1.796875 C 4.394531 -1.546875 4.054688 -1.300781 3.703125 -1.0625 C 3.359375 -0.832031 2.988281 -0.640625 2.59375 -0.484375 C 2.207031 -0.328125 1.769531 -0.25 1.28125 -0.25 L 1.234375 -0.25 C 0.753906 -0.25 0.382812 -0.394531 0.125 -0.6875 C -0.101562 -0.957031 -0.179688 -1.28125 -0.109375 -1.65625 C 0.148438 -2.9375 0.976562 -3.757812 2.375 -4.125 C 2.445312 -4.144531 2.519531 -4.15625 2.59375 -4.15625 C 2.820312 -4.15625 3.003906 -4.054688 3.140625 -3.859375 C 3.253906 -3.710938 3.289062 -3.585938 3.25 -3.484375 C 3.207031 -3.378906 3.144531 -3.269531 3.0625 -3.15625 C 2.6875 -2.695312 2.070312 -2.40625 1.21875 -2.28125 C 0.90625 -2.226562 0.703125 -2.101562 0.609375 -1.90625 C 0.515625 -1.71875 0.445312 -1.507812 0.40625 -1.28125 L 0.390625 -1.1875 C 0.359375 -1.050781 0.378906 -0.929688 0.453125 -0.828125 C 0.554688 -0.679688 0.722656 -0.578125 0.953125 -0.515625 C 1.117188 -0.472656 1.296875 -0.453125 1.484375 -0.453125 C 1.628906 -0.453125 1.769531 -0.460938 1.90625 -0.484375 C 2.050781 -0.515625 2.203125 -0.550781 2.359375 -0.59375 C 2.847656 -0.738281 3.34375 -0.976562 3.84375 -1.3125 C 4.050781 -1.445312 4.265625 -1.613281 4.484375 -1.8125 C 4.492188 -1.820312 4.507812 -1.835938 4.53125 -1.859375 C 4.550781 -1.878906 4.570312 -1.894531 4.59375 -1.90625 C 4.613281 -1.9375 4.640625 -1.960938 4.671875 -1.984375 C 4.703125 -2.003906 4.734375 -2.03125 4.765625 -2.0625 Z M 1.375 -2.78125 L 1.28125 -2.671875 L 1.4375 -2.703125 C 1.757812 -2.773438 2.035156 -2.875 2.265625 -3 C 2.492188 -3.125 2.691406 -3.320312 2.859375 -3.59375 L 2.921875 -3.703125 L 2.796875 -3.65625 C 2.523438 -3.570312 2.269531 -3.46875 2.03125 -3.34375 C 1.800781 -3.21875 1.582031 -3.03125 1.375 -2.78125 Z M 1.375 -2.78125 "/></g></g></g></g></g></g></svg>