<svg xmlns="http://www.w3.org/2000/svg" xmlns:xlink="http://www.w3.org/1999/xlink" width="240" zoomAndPan="magnify" viewBox="0 0 180 74.999997" height="100" preserveAspectRatio="xMidYMid meet" version="1.0"><defs><g/><clipPath id="786f6de422"><path d="M 0.480469 2 L 9 2 L 9 15 L 0.480469 15 Z M 0.480469 2 " clip-rule="nonzero"/></clipPath><clipPath id="2649291c78"><path d="M 38 5 L 47.519531 5 L 47.519531 15 L 38 15 Z M 38 5 " clip-rule="nonzero"/></clipPath><clipPath id="1dc55c6e1e"><rect x="0" width="48" y="0" height="19"/></clipPath><clipPath id="cf0b12dc0e"><rect x="0" width="24" y="0" height="18"/></clipPath><clipPath id="26d9eca95c"><path d="M 11 7 L 24.558594 7 L 24.558594 28 L 11 28 Z M 11 7 " clip-rule="nonzero"/></clipPath><clipPath id="a0ca45fcdb"><rect x="0" width="25" y="0" height="37"/></clipPath><clipPath id="e4f33ba0cc"><path d="M 99.730469 29.191406 L 106.480469 29.191406 L 106.480469 35.941406 L 99.730469 35.941406 Z M 99.730469 29.191406 " clip-rule="nonzero"/></clipPath><clipPath id="b5cd8bf64f"><path d="M 56.484375 40.4375 L 63.234375 40.4375 L 63.234375 47.1875 L 56.484375 47.1875 Z M 56.484375 40.4375 " clip-rule="nonzero"/></clipPath><clipPath id="3b6aa8fc35"><path d="M 66 40.4375 L 78.703125 40.4375 L 78.703125 52 L 66 52 Z M 66 40.4375 " clip-rule="nonzero"/></clipPath><clipPath id="7aad5569c9"><path d="M 67 50 L 70 50 L 70 53.1875 L 67 53.1875 Z M 67 50 " clip-rule="nonzero"/></clipPath><clipPath id="05a5c864d9"><path d="M 73 50 L 76 50 L 76 53.1875 L 73 53.1875 Z M 73 50 " clip-rule="nonzero"/></clipPath><clipPath id="c9cf1244a1"><path d="M 72 50 L 76 50 L 76 53.1875 L 72 53.1875 Z M 72 50 " clip-rule="nonzero"/></clipPath></defs><g transform="matrix(1, 0, 0, 1, 78, 39)"><g clip-path="url(#1dc55c6e1e)"><g clip-path="url(#786f6de422)"><g fill="#00bf63" fill-opacity="1"><g transform="translate(0.675376, 14.197692)"><g><path d="M 0.109375 -7.15625 C 0.109375 -7.539062 0.296875 -7.734375 0.671875 -7.734375 L 1.3125 -7.734375 L 1.34375 -8.671875 C 1.34375 -9.484375 1.523438 -10.132812 1.890625 -10.625 C 2.253906 -11.125 2.710938 -11.488281 3.265625 -11.71875 C 3.828125 -11.957031 4.382812 -12.078125 4.9375 -12.078125 C 5.789062 -12.078125 6.40625 -12 6.78125 -11.84375 C 7.164062 -11.6875 7.382812 -11.457031 7.4375 -11.15625 C 7.5 -10.851562 7.457031 -10.472656 7.3125 -10.015625 C 7.164062 -9.566406 7.015625 -9.269531 6.859375 -9.125 C 6.703125 -8.988281 6.519531 -8.921875 6.3125 -8.921875 C 6.113281 -8.921875 5.957031 -9.019531 5.84375 -9.21875 C 5.726562 -9.425781 5.625 -9.660156 5.53125 -9.921875 C 5.445312 -10.191406 5.335938 -10.425781 5.203125 -10.625 C 5.078125 -10.832031 4.882812 -10.9375 4.625 -10.9375 C 4.382812 -10.9375 4.175781 -10.851562 4 -10.6875 C 3.820312 -10.519531 3.734375 -10.28125 3.734375 -9.96875 C 3.734375 -9.675781 3.8125 -9.425781 3.96875 -9.21875 C 4.125 -9.019531 4.296875 -8.8125 4.484375 -8.59375 C 4.671875 -8.375 4.800781 -8.085938 4.875 -7.734375 L 5.609375 -7.734375 C 5.984375 -7.734375 6.171875 -7.539062 6.171875 -7.15625 C 6.171875 -6.78125 5.984375 -6.59375 5.609375 -6.59375 L 4.921875 -6.59375 L 4.921875 -2.921875 C 4.921875 -2.390625 4.957031 -1.984375 5.03125 -1.703125 C 5.101562 -1.429688 5.191406 -1.234375 5.296875 -1.109375 C 5.398438 -0.984375 5.488281 -0.878906 5.5625 -0.796875 C 5.632812 -0.710938 5.671875 -0.585938 5.671875 -0.421875 C 5.671875 -0.203125 5.585938 -0.0546875 5.421875 0.015625 C 5.253906 0.0976562 5.039062 0.140625 4.78125 0.140625 C 4.5 0.140625 4.203125 0.113281 3.890625 0.0625 C 3.585938 0.0195312 3.328125 0 3.109375 0 C 2.878906 0 2.613281 0.0195312 2.3125 0.0625 C 2.007812 0.113281 1.722656 0.140625 1.453125 0.140625 C 1.203125 0.140625 0.988281 0.0976562 0.8125 0.015625 C 0.644531 -0.0546875 0.5625 -0.203125 0.5625 -0.421875 C 0.5625 -0.585938 0.597656 -0.710938 0.671875 -0.796875 C 0.742188 -0.878906 0.832031 -0.984375 0.9375 -1.109375 C 1.039062 -1.234375 1.128906 -1.429688 1.203125 -1.703125 C 1.273438 -1.972656 1.3125 -2.367188 1.3125 -2.890625 L 1.3125 -6.59375 L 0.671875 -6.59375 C 0.296875 -6.59375 0.109375 -6.78125 0.109375 -7.15625 Z M 0.109375 -7.15625 "/></g></g></g></g><g fill="#00bf63" fill-opacity="1"><g transform="translate(8.163231, 14.197692)"><g><path d="M 2.765625 0 C 2.546875 0 2.28125 0.0195312 1.96875 0.0625 C 1.664062 0.113281 1.382812 0.140625 1.125 0.140625 C 0.863281 0.140625 0.644531 0.0976562 0.46875 0.015625 C 0.300781 -0.0546875 0.21875 -0.203125 0.21875 -0.421875 C 0.21875 -0.585938 0.253906 -0.710938 0.328125 -0.796875 C 0.410156 -0.878906 0.503906 -0.984375 0.609375 -1.109375 C 0.710938 -1.234375 0.800781 -1.429688 0.875 -1.703125 C 0.945312 -1.972656 0.984375 -2.367188 0.984375 -2.890625 C 0.984375 -3.390625 0.984375 -3.972656 0.984375 -4.640625 C 0.984375 -5.316406 0.984375 -5.984375 0.984375 -6.640625 C 0.992188 -7.304688 1 -7.878906 1 -8.359375 C 1 -8.847656 1 -9.160156 1 -9.296875 C 1 -9.703125 0.9375 -9.984375 0.8125 -10.140625 C 0.6875 -10.296875 0.5625 -10.414062 0.4375 -10.5 C 0.3125 -10.59375 0.25 -10.738281 0.25 -10.9375 C 0.25 -11.15625 0.320312 -11.304688 0.46875 -11.390625 C 0.613281 -11.472656 0.820312 -11.539062 1.09375 -11.59375 C 1.375 -11.65625 1.710938 -11.753906 2.109375 -11.890625 C 2.578125 -12.066406 2.898438 -12.226562 3.078125 -12.375 C 3.265625 -12.519531 3.398438 -12.632812 3.484375 -12.71875 C 3.578125 -12.8125 3.71875 -12.859375 3.90625 -12.859375 C 4.175781 -12.859375 4.351562 -12.738281 4.4375 -12.5 C 4.53125 -12.257812 4.578125 -11.976562 4.578125 -11.65625 L 4.578125 -2.890625 C 4.578125 -2.367188 4.613281 -1.972656 4.6875 -1.703125 C 4.769531 -1.429688 4.863281 -1.234375 4.96875 -1.109375 C 5.070312 -0.984375 5.160156 -0.878906 5.234375 -0.796875 C 5.304688 -0.710938 5.34375 -0.585938 5.34375 -0.421875 C 5.34375 -0.203125 5.253906 -0.0546875 5.078125 0.015625 C 4.910156 0.0976562 4.703125 0.140625 4.453125 0.140625 C 4.171875 0.140625 3.875 0.113281 3.5625 0.0625 C 3.257812 0.0195312 2.992188 0 2.765625 0 Z M 2.765625 0 "/></g></g></g><g fill="#00bf63" fill-opacity="1"><g transform="translate(13.639421, 14.197692)"><g><path d="M 5.296875 0.140625 C 3.804688 0.140625 2.625 -0.265625 1.75 -1.078125 C 0.882812 -1.890625 0.453125 -3.019531 0.453125 -4.46875 C 0.453125 -5.925781 0.882812 -7.054688 1.75 -7.859375 C 2.625 -8.671875 3.804688 -9.078125 5.296875 -9.078125 C 6.785156 -9.078125 7.96875 -8.671875 8.84375 -7.859375 C 9.71875 -7.054688 10.15625 -5.925781 10.15625 -4.46875 C 10.15625 -3.019531 9.71875 -1.890625 8.84375 -1.078125 C 7.96875 -0.265625 6.785156 0.140625 5.296875 0.140625 Z M 4.140625 -4.46875 C 4.140625 -3.863281 4.171875 -3.300781 4.234375 -2.78125 C 4.304688 -2.269531 4.425781 -1.863281 4.59375 -1.5625 C 4.769531 -1.269531 5.003906 -1.125 5.296875 -1.125 C 5.609375 -1.125 5.847656 -1.269531 6.015625 -1.5625 C 6.191406 -1.863281 6.3125 -2.269531 6.375 -2.78125 C 6.4375 -3.300781 6.46875 -3.863281 6.46875 -4.46875 C 6.46875 -5.09375 6.4375 -5.660156 6.375 -6.171875 C 6.3125 -6.679688 6.191406 -7.082031 6.015625 -7.375 C 5.847656 -7.675781 5.609375 -7.828125 5.296875 -7.828125 C 5.003906 -7.828125 4.769531 -7.675781 4.59375 -7.375 C 4.425781 -7.082031 4.304688 -6.679688 4.234375 -6.171875 C 4.171875 -5.660156 4.140625 -5.09375 4.140625 -4.46875 Z M 4.140625 -4.46875 "/></g></g></g><g fill="#00bf63" fill-opacity="1"><g transform="translate(24.144773, 14.197692)"><g><path d="M 1.984375 -5.4375 C 1.703125 -6.09375 1.445312 -6.585938 1.21875 -6.921875 C 0.988281 -7.253906 0.789062 -7.503906 0.625 -7.671875 C 0.457031 -7.835938 0.328125 -7.972656 0.234375 -8.078125 C 0.148438 -8.191406 0.109375 -8.335938 0.109375 -8.515625 C 0.109375 -8.742188 0.195312 -8.894531 0.375 -8.96875 C 0.550781 -9.039062 0.769531 -9.078125 1.03125 -9.078125 C 1.3125 -9.078125 1.609375 -9.050781 1.921875 -9 C 2.234375 -8.957031 2.503906 -8.9375 2.734375 -8.9375 C 3.015625 -8.9375 3.328125 -8.957031 3.671875 -9 C 4.015625 -9.050781 4.328125 -9.078125 4.609375 -9.078125 C 4.878906 -9.078125 5.101562 -9.039062 5.28125 -8.96875 C 5.457031 -8.894531 5.546875 -8.742188 5.546875 -8.515625 C 5.546875 -8.304688 5.484375 -8.15625 5.359375 -8.0625 C 5.234375 -7.976562 5.171875 -7.800781 5.171875 -7.53125 C 5.171875 -7.15625 5.265625 -6.703125 5.453125 -6.171875 C 5.648438 -5.648438 5.84375 -5.171875 6.03125 -4.734375 C 6.113281 -4.585938 6.191406 -4.515625 6.265625 -4.515625 C 6.335938 -4.523438 6.40625 -4.609375 6.46875 -4.765625 C 6.582031 -5.078125 6.710938 -5.453125 6.859375 -5.890625 C 7.015625 -6.328125 7.171875 -6.769531 7.328125 -7.21875 C 7.492188 -7.664062 7.644531 -8.054688 7.78125 -8.390625 C 7.851562 -8.566406 7.929688 -8.6875 8.015625 -8.75 C 8.109375 -8.820312 8.207031 -8.859375 8.3125 -8.859375 C 8.40625 -8.859375 8.492188 -8.820312 8.578125 -8.75 C 8.671875 -8.6875 8.753906 -8.554688 8.828125 -8.359375 C 8.960938 -8.035156 9.101562 -7.65625 9.25 -7.21875 C 9.40625 -6.789062 9.5625 -6.363281 9.71875 -5.9375 C 9.875 -5.507812 10.003906 -5.140625 10.109375 -4.828125 C 10.171875 -4.679688 10.242188 -4.601562 10.328125 -4.59375 C 10.421875 -4.582031 10.492188 -4.65625 10.546875 -4.8125 C 10.753906 -5.269531 10.96875 -5.757812 11.1875 -6.28125 C 11.414062 -6.800781 11.53125 -7.191406 11.53125 -7.453125 C 11.53125 -7.628906 11.484375 -7.773438 11.390625 -7.890625 C 11.296875 -8.015625 11.195312 -8.128906 11.09375 -8.234375 C 11 -8.335938 10.953125 -8.457031 10.953125 -8.59375 C 10.953125 -8.800781 11.003906 -8.929688 11.109375 -8.984375 C 11.210938 -9.046875 11.34375 -9.078125 11.5 -9.078125 C 11.675781 -9.078125 11.867188 -9.050781 12.078125 -9 C 12.296875 -8.957031 12.484375 -8.9375 12.640625 -8.9375 C 12.765625 -8.9375 12.925781 -8.957031 13.125 -9 C 13.320312 -9.050781 13.507812 -9.078125 13.6875 -9.078125 C 13.832031 -9.078125 13.957031 -9.039062 14.0625 -8.96875 C 14.164062 -8.90625 14.21875 -8.78125 14.21875 -8.59375 C 14.21875 -8.457031 14.164062 -8.335938 14.0625 -8.234375 C 13.957031 -8.140625 13.8125 -8.003906 13.625 -7.828125 C 13.4375 -7.660156 13.21875 -7.394531 12.96875 -7.03125 C 12.726562 -6.675781 12.472656 -6.160156 12.203125 -5.484375 L 11.453125 -3.75 C 11.390625 -3.625 11.285156 -3.390625 11.140625 -3.046875 C 11.003906 -2.710938 10.84375 -2.335938 10.65625 -1.921875 C 10.476562 -1.503906 10.3125 -1.09375 10.15625 -0.6875 C 9.925781 -0.15625 9.671875 0.109375 9.390625 0.109375 C 9.117188 0.109375 8.859375 -0.148438 8.609375 -0.671875 C 8.398438 -1.128906 8.179688 -1.597656 7.953125 -2.078125 C 7.734375 -2.566406 7.550781 -2.976562 7.40625 -3.3125 C 7.34375 -3.476562 7.269531 -3.5625 7.1875 -3.5625 C 7.101562 -3.5625 7.023438 -3.476562 6.953125 -3.3125 C 6.804688 -2.976562 6.617188 -2.566406 6.390625 -2.078125 C 6.171875 -1.585938 5.957031 -1.109375 5.75 -0.640625 C 5.519531 -0.117188 5.257812 0.140625 4.96875 0.140625 C 4.675781 0.140625 4.40625 -0.117188 4.15625 -0.640625 C 3.96875 -1.085938 3.753906 -1.5625 3.515625 -2.0625 C 3.285156 -2.5625 3.066406 -3.046875 2.859375 -3.515625 C 2.648438 -3.984375 2.46875 -4.390625 2.3125 -4.734375 C 2.15625 -5.078125 2.046875 -5.3125 1.984375 -5.4375 Z M 1.984375 -5.4375 "/></g></g></g><g clip-path="url(#2649291c78)"><g fill="#00bf63" fill-opacity="1"><g transform="translate(38.382881, 14.197692)"><g><path d="M 0.296875 -7.046875 C 0.296875 -7.367188 0.269531 -7.6875 0.21875 -8 C 0.175781 -8.3125 0.179688 -8.566406 0.234375 -8.765625 C 0.285156 -8.972656 0.453125 -9.078125 0.734375 -9.078125 C 1.148438 -9.078125 1.65625 -9.050781 2.25 -9 C 2.851562 -8.957031 3.5625 -8.9375 4.375 -8.9375 C 4.976562 -8.9375 5.582031 -8.957031 6.1875 -9 C 6.789062 -9.050781 7.410156 -9.078125 8.046875 -9.078125 C 8.410156 -9.078125 8.644531 -8.953125 8.75 -8.703125 C 8.851562 -8.460938 8.800781 -8.175781 8.59375 -7.84375 L 4.671875 -1.71875 C 4.578125 -1.582031 4.550781 -1.46875 4.59375 -1.375 C 4.644531 -1.289062 4.742188 -1.25 4.890625 -1.25 L 5.015625 -1.25 C 5.453125 -1.25 5.832031 -1.375 6.15625 -1.625 C 6.476562 -1.882812 6.765625 -2.179688 7.015625 -2.515625 C 7.273438 -2.847656 7.507812 -3.140625 7.71875 -3.390625 C 7.9375 -3.648438 8.148438 -3.78125 8.359375 -3.78125 C 8.628906 -3.78125 8.789062 -3.691406 8.84375 -3.515625 C 8.894531 -3.347656 8.898438 -3.125 8.859375 -2.84375 C 8.828125 -2.5625 8.800781 -2.25 8.78125 -1.90625 C 8.78125 -1.570312 8.800781 -1.25 8.84375 -0.9375 C 8.894531 -0.625 8.894531 -0.363281 8.84375 -0.15625 C 8.800781 0.0390625 8.632812 0.140625 8.34375 0.140625 C 8.03125 0.140625 7.554688 0.113281 6.921875 0.0625 C 6.285156 0.0195312 5.476562 0 4.5 0 C 3.882812 0 3.296875 0.0195312 2.734375 0.0625 C 2.179688 0.113281 1.597656 0.140625 0.984375 0.140625 C 0.535156 0.140625 0.257812 0 0.15625 -0.28125 C 0.0625 -0.570312 0.132812 -0.90625 0.375 -1.28125 L 4.21875 -7.359375 C 4.375 -7.578125 4.265625 -7.6875 3.890625 -7.6875 C 3.566406 -7.6875 3.253906 -7.5625 2.953125 -7.3125 C 2.648438 -7.0625 2.367188 -6.765625 2.109375 -6.421875 C 1.847656 -6.085938 1.601562 -5.796875 1.375 -5.546875 C 1.144531 -5.296875 0.925781 -5.171875 0.71875 -5.171875 C 0.445312 -5.171875 0.285156 -5.253906 0.234375 -5.421875 C 0.179688 -5.585938 0.175781 -5.816406 0.21875 -6.109375 C 0.269531 -6.398438 0.296875 -6.710938 0.296875 -7.046875 Z M 0.296875 -7.046875 "/></g></g></g></g></g></g><g transform="matrix(1, 0, 0, 1, 54, 25)"><g clip-path="url(#cf0b12dc0e)"><g fill="#00bf63" fill-opacity="1"><g transform="translate(0.0111725, 14.020307)"><g><path d="M 0.21875 -8.296875 C 0.21875 -8.515625 0.289062 -8.660156 0.4375 -8.734375 C 0.582031 -8.816406 0.785156 -8.894531 1.046875 -8.96875 C 1.316406 -9.039062 1.628906 -9.1875 1.984375 -9.40625 C 2.453125 -9.695312 2.789062 -9.976562 3 -10.25 C 3.207031 -10.519531 3.367188 -10.738281 3.484375 -10.90625 C 3.609375 -11.082031 3.765625 -11.171875 3.953125 -11.171875 C 4.210938 -11.171875 4.367188 -11.035156 4.421875 -10.765625 C 4.472656 -10.503906 4.5 -10.210938 4.5 -9.890625 L 4.5 -9.078125 C 4.5 -8.910156 4.582031 -8.828125 4.75 -8.828125 L 5.09375 -8.828125 C 5.46875 -8.828125 5.65625 -8.644531 5.65625 -8.28125 C 5.65625 -7.894531 5.46875 -7.703125 5.09375 -7.703125 L 4.75 -7.703125 C 4.582031 -7.703125 4.5 -7.625 4.5 -7.46875 L 4.5 -4.875 C 4.5 -3.9375 4.507812 -3.253906 4.53125 -2.828125 C 4.550781 -2.398438 4.664062 -2.082031 4.875 -1.875 C 5.007812 -1.757812 5.117188 -1.6875 5.203125 -1.65625 C 5.296875 -1.625 5.363281 -1.585938 5.40625 -1.546875 C 5.445312 -1.503906 5.46875 -1.398438 5.46875 -1.234375 C 5.46875 -0.953125 5.3125 -0.65625 5 -0.34375 C 4.6875 -0.03125 4.128906 0.125 3.328125 0.125 C 2.398438 0.125 1.769531 -0.207031 1.4375 -0.875 C 1.113281 -1.539062 0.953125 -2.410156 0.953125 -3.484375 L 0.96875 -6.6875 C 0.96875 -7.082031 0.90625 -7.359375 0.78125 -7.515625 C 0.65625 -7.671875 0.53125 -7.789062 0.40625 -7.875 C 0.28125 -7.96875 0.21875 -8.109375 0.21875 -8.296875 Z M 0.21875 -8.296875 "/></g></g></g><g fill="#00bf63" fill-opacity="1"><g transform="translate(4.867724, 14.020307)"><g><path d="M 0.21875 -0.421875 C 0.21875 -0.578125 0.253906 -0.695312 0.328125 -0.78125 C 0.398438 -0.863281 0.488281 -0.96875 0.59375 -1.09375 C 0.695312 -1.21875 0.785156 -1.410156 0.859375 -1.671875 C 0.929688 -1.941406 0.96875 -2.332031 0.96875 -2.84375 C 0.96875 -3.519531 0.972656 -4.007812 0.984375 -4.3125 C 0.992188 -4.613281 1 -4.832031 1 -4.96875 C 1 -5.113281 1 -5.273438 1 -5.453125 C 1 -5.847656 0.9375 -6.125 0.8125 -6.28125 C 0.6875 -6.4375 0.5625 -6.554688 0.4375 -6.640625 C 0.3125 -6.734375 0.25 -6.875 0.25 -7.0625 C 0.25 -7.28125 0.320312 -7.429688 0.46875 -7.515625 C 0.613281 -7.597656 0.820312 -7.664062 1.09375 -7.71875 C 1.363281 -7.78125 1.691406 -7.878906 2.078125 -8.015625 C 2.546875 -8.191406 2.867188 -8.347656 3.046875 -8.484375 C 3.222656 -8.628906 3.351562 -8.742188 3.4375 -8.828125 C 3.53125 -8.921875 3.671875 -8.96875 3.859375 -8.96875 C 4.128906 -8.96875 4.304688 -8.847656 4.390625 -8.609375 C 4.484375 -8.367188 4.53125 -8.085938 4.53125 -7.765625 L 4.53125 -7.6875 C 4.53125 -7.3125 4.535156 -7.128906 4.546875 -7.140625 C 4.554688 -7.148438 4.660156 -7.316406 4.859375 -7.640625 C 5.109375 -8.066406 5.457031 -8.394531 5.90625 -8.625 C 6.351562 -8.851562 6.785156 -8.96875 7.203125 -8.96875 C 8.003906 -8.96875 8.523438 -8.789062 8.765625 -8.4375 C 9.003906 -8.09375 9.007812 -7.59375 8.78125 -6.9375 C 8.601562 -6.40625 8.445312 -6.039062 8.3125 -5.84375 C 8.175781 -5.644531 8.039062 -5.546875 7.90625 -5.546875 C 7.757812 -5.546875 7.597656 -5.632812 7.421875 -5.8125 C 7.242188 -5.988281 7.046875 -6.160156 6.828125 -6.328125 C 6.617188 -6.492188 6.359375 -6.578125 6.046875 -6.578125 C 5.867188 -6.578125 5.660156 -6.515625 5.421875 -6.390625 C 5.179688 -6.273438 4.972656 -6.0625 4.796875 -5.75 C 4.617188 -5.445312 4.53125 -5.015625 4.53125 -4.453125 L 4.53125 -2.84375 C 4.53125 -2.332031 4.566406 -1.941406 4.640625 -1.671875 C 4.710938 -1.410156 4.800781 -1.21875 4.90625 -1.09375 C 5.007812 -0.96875 5.097656 -0.863281 5.171875 -0.78125 C 5.242188 -0.695312 5.28125 -0.578125 5.28125 -0.421875 C 5.28125 -0.203125 5.191406 -0.0546875 5.015625 0.015625 C 4.847656 0.0859375 4.640625 0.125 4.390625 0.125 C 4.109375 0.125 3.816406 0.101562 3.515625 0.0625 C 3.210938 0.0195312 2.953125 0 2.734375 0 C 2.515625 0 2.253906 0.0195312 1.953125 0.0625 C 1.648438 0.101562 1.367188 0.125 1.109375 0.125 C 0.859375 0.125 0.644531 0.0859375 0.46875 0.015625 C 0.300781 -0.0546875 0.21875 -0.203125 0.21875 -0.421875 Z M 0.21875 -0.421875 "/></g></g></g><g fill="#00bf63" fill-opacity="1"><g transform="translate(13.234287, 14.020307)"><g><path d="M 5.328125 0.125 C 4.546875 0.125 3.78125 -0.0234375 3.03125 -0.328125 C 2.28125 -0.640625 1.660156 -1.125 1.171875 -1.78125 C 0.679688 -2.445312 0.4375 -3.316406 0.4375 -4.390625 C 0.4375 -5.304688 0.632812 -6.101562 1.03125 -6.78125 C 1.4375 -7.46875 1.988281 -8.003906 2.6875 -8.390625 C 3.394531 -8.773438 4.210938 -8.96875 5.140625 -8.96875 C 6.054688 -8.96875 6.800781 -8.851562 7.375 -8.625 C 7.945312 -8.40625 8.390625 -8.125 8.703125 -7.78125 C 9.023438 -7.4375 9.242188 -7.082031 9.359375 -6.71875 C 9.472656 -6.363281 9.53125 -6.050781 9.53125 -5.78125 C 9.53125 -5.050781 9.300781 -4.453125 8.84375 -3.984375 C 8.394531 -3.523438 7.816406 -3.1875 7.109375 -2.96875 C 6.398438 -2.757812 5.679688 -2.65625 4.953125 -2.65625 C 4.742188 -2.65625 4.585938 -2.578125 4.484375 -2.421875 C 4.390625 -2.273438 4.359375 -2.109375 4.390625 -1.921875 C 4.429688 -1.734375 4.550781 -1.5625 4.75 -1.40625 C 4.957031 -1.257812 5.242188 -1.1875 5.609375 -1.1875 C 6.140625 -1.1875 6.554688 -1.28125 6.859375 -1.46875 C 7.171875 -1.664062 7.414062 -1.890625 7.59375 -2.140625 C 7.78125 -2.390625 7.957031 -2.609375 8.125 -2.796875 C 8.300781 -2.992188 8.53125 -3.09375 8.8125 -3.09375 C 9.0625 -3.09375 9.25 -3.015625 9.375 -2.859375 C 9.5 -2.703125 9.5625 -2.53125 9.5625 -2.34375 C 9.5625 -1.84375 9.363281 -1.40625 8.96875 -1.03125 C 8.582031 -0.664062 8.066406 -0.378906 7.421875 -0.171875 C 6.773438 0.0234375 6.078125 0.125 5.328125 0.125 Z M 5.140625 -7.84375 C 4.835938 -7.84375 4.59375 -7.65625 4.40625 -7.28125 C 4.21875 -6.914062 4.125 -6.425781 4.125 -5.8125 C 4.125 -5.1875 4.21875 -4.691406 4.40625 -4.328125 C 4.59375 -3.960938 4.835938 -3.78125 5.140625 -3.78125 C 5.453125 -3.78125 5.695312 -3.960938 5.875 -4.328125 C 6.0625 -4.691406 6.15625 -5.1875 6.15625 -5.8125 C 6.15625 -6.425781 6.0625 -6.914062 5.875 -7.28125 C 5.695312 -7.65625 5.453125 -7.84375 5.140625 -7.84375 Z M 5.140625 -7.84375 "/></g></g></g></g></g><g transform="matrix(1, 0, 0, 1, 76, 12)"><g clip-path="url(#a0ca45fcdb)"><g fill="#00bf63" fill-opacity="1"><g transform="translate(0.380628, 27.287209)"><g><path d="M 2.484375 0.109375 C 1.953125 0.109375 1.578125 -0.164062 1.359375 -0.71875 C 1.148438 -1.28125 1.046875 -2.175781 1.046875 -3.40625 C 1.046875 -5.21875 1.300781 -6.941406 1.8125 -8.578125 C 1.9375 -8.972656 2.140625 -9.265625 2.421875 -9.453125 C 2.710938 -9.648438 3.117188 -9.75 3.640625 -9.75 C 3.921875 -9.75 4.113281 -9.710938 4.21875 -9.640625 C 4.332031 -9.566406 4.390625 -9.429688 4.390625 -9.234375 C 4.390625 -9.015625 4.285156 -8.515625 4.078125 -7.734375 C 3.941406 -7.179688 3.828125 -6.691406 3.734375 -6.265625 C 3.648438 -5.847656 3.582031 -5.332031 3.53125 -4.71875 C 3.988281 -5.914062 4.503906 -6.890625 5.078125 -7.640625 C 5.648438 -8.398438 6.210938 -8.941406 6.765625 -9.265625 C 7.316406 -9.585938 7.820312 -9.75 8.28125 -9.75 C 9.1875 -9.75 9.640625 -9.296875 9.640625 -8.390625 C 9.640625 -7.835938 9.484375 -6.851562 9.171875 -5.4375 C 8.910156 -4.21875 8.78125 -3.414062 8.78125 -3.03125 C 8.78125 -2.46875 8.984375 -2.1875 9.390625 -2.1875 C 9.671875 -2.1875 10 -2.359375 10.375 -2.703125 C 10.757812 -3.046875 11.273438 -3.601562 11.921875 -4.375 C 12.085938 -4.5625 12.273438 -4.65625 12.484375 -4.65625 C 12.660156 -4.65625 12.800781 -4.570312 12.90625 -4.40625 C 13.007812 -4.238281 13.0625 -4.007812 13.0625 -3.71875 C 13.0625 -3.164062 12.929688 -2.734375 12.671875 -2.421875 C 12.066406 -1.679688 11.421875 -1.070312 10.734375 -0.59375 C 10.046875 -0.125 9.265625 0.109375 8.390625 0.109375 C 7.671875 0.109375 7.128906 -0.09375 6.765625 -0.5 C 6.410156 -0.914062 6.234375 -1.515625 6.234375 -2.296875 C 6.234375 -2.691406 6.328125 -3.390625 6.515625 -4.390625 C 6.703125 -5.265625 6.796875 -5.867188 6.796875 -6.203125 C 6.796875 -6.429688 6.71875 -6.546875 6.5625 -6.546875 C 6.382812 -6.546875 6.128906 -6.3125 5.796875 -5.84375 C 5.472656 -5.375 5.140625 -4.753906 4.796875 -3.984375 C 4.453125 -3.222656 4.175781 -2.414062 3.96875 -1.5625 C 3.820312 -0.90625 3.644531 -0.460938 3.4375 -0.234375 C 3.238281 -0.00390625 2.921875 0.109375 2.484375 0.109375 Z M 2.484375 0.109375 "/></g></g></g><g clip-path="url(#26d9eca95c)"><g fill="#00bf63" fill-opacity="1"><g transform="translate(10.917032, 27.287209)"><g><path d="M 12.875 -4.65625 C 13.0625 -4.65625 13.207031 -4.570312 13.3125 -4.40625 C 13.414062 -4.238281 13.46875 -4.007812 13.46875 -3.71875 C 13.46875 -3.164062 13.332031 -2.734375 13.0625 -2.421875 C 12.488281 -1.722656 11.859375 -1.125 11.171875 -0.625 C 10.492188 -0.132812 9.820312 0.109375 9.15625 0.109375 C 8.09375 0.109375 7.285156 -0.507812 6.734375 -1.75 C 6.148438 -1.007812 5.632812 -0.515625 5.1875 -0.265625 C 4.75 -0.015625 4.238281 0.109375 3.65625 0.109375 C 2.8125 0.109375 2.113281 -0.207031 1.5625 -0.84375 C 1.007812 -1.476562 0.734375 -2.304688 0.734375 -3.328125 C 0.734375 -4.441406 0.96875 -5.472656 1.4375 -6.421875 C 1.914062 -7.378906 2.566406 -8.160156 3.390625 -8.765625 C 4.222656 -9.367188 5.15625 -9.726562 6.1875 -9.84375 C 6.445312 -12.550781 6.953125 -14.863281 7.703125 -16.78125 C 8.453125 -18.695312 9.429688 -19.65625 10.640625 -19.65625 C 11.242188 -19.65625 11.742188 -19.378906 12.140625 -18.828125 C 12.535156 -18.285156 12.734375 -17.46875 12.734375 -16.375 C 12.734375 -14.8125 12.347656 -12.984375 11.578125 -10.890625 C 10.816406 -8.796875 9.796875 -6.648438 8.515625 -4.453125 C 8.566406 -3.640625 8.6875 -3.054688 8.875 -2.703125 C 9.0625 -2.359375 9.300781 -2.1875 9.59375 -2.1875 C 9.96875 -2.1875 10.347656 -2.351562 10.734375 -2.6875 C 11.128906 -3.03125 11.65625 -3.59375 12.3125 -4.375 C 12.476562 -4.5625 12.664062 -4.65625 12.875 -4.65625 Z M 10.40625 -17.609375 C 10.144531 -17.609375 9.878906 -17.132812 9.609375 -16.1875 C 9.347656 -15.25 9.125 -14.019531 8.9375 -12.5 C 8.75 -10.976562 8.613281 -9.390625 8.53125 -7.734375 C 10.09375 -11.140625 10.875 -13.875 10.875 -15.9375 C 10.875 -16.457031 10.828125 -16.863281 10.734375 -17.15625 C 10.640625 -17.457031 10.53125 -17.609375 10.40625 -17.609375 Z M 4.390625 -2 C 4.648438 -2 4.910156 -2.109375 5.171875 -2.328125 C 5.441406 -2.546875 5.78125 -2.945312 6.1875 -3.53125 C 6.050781 -4.28125 5.984375 -5.125 5.984375 -6.0625 C 5.984375 -6.394531 5.992188 -6.9375 6.015625 -7.6875 C 5.253906 -7.457031 4.617188 -6.945312 4.109375 -6.15625 C 3.597656 -5.363281 3.34375 -4.488281 3.34375 -3.53125 C 3.34375 -2.507812 3.691406 -2 4.390625 -2 Z M 4.390625 -2 "/></g></g></g></g></g></g><g clip-path="url(#e4f33ba0cc)"><path fill="#ff3131" d="M 106.65625 32.65625 C 104.058594 33.132812 103.671875 33.519531 103.195312 36.117188 C 102.714844 33.519531 102.328125 33.132812 99.730469 32.65625 C 102.328125 32.175781 102.714844 31.789062 103.195312 29.191406 C 103.671875 31.789062 104.058594 32.175781 106.65625 32.65625 Z M 106.65625 32.65625 " fill-opacity="1" fill-rule="nonzero"/></g><g clip-path="url(#b5cd8bf64f)"><path fill="#ff3131" d="M 63.410156 43.898438 C 60.8125 44.378906 60.425781 44.765625 59.949219 47.363281 C 59.46875 44.765625 59.082031 44.378906 56.484375 43.898438 C 59.082031 43.421875 59.46875 43.035156 59.949219 40.4375 C 60.425781 43.035156 60.8125 43.421875 63.410156 43.898438 Z M 63.410156 43.898438 " fill-opacity="1" fill-rule="nonzero"/></g><g clip-path="url(#3b6aa8fc35)"><path fill="#046c3a" d="M 67.472656 51.363281 C 69.605469 50.445312 73.292969 50.699219 75.238281 51.964844 C 75.945312 51.089844 75.703125 48.976562 74.890625 48.734375 C 75.449219 46.585938 74.328125 42.003906 77.046875 41.855469 C 78.132812 43.015625 78.808594 40.4375 77.078125 41.0625 C 73.496094 41.40625 74.742188 45.863281 73.90625 48.511719 C 70.90625 47.855469 65.875 49.292969 66.902344 50.097656 C 69.882812 49.292969 73.558594 48.332031 74.890625 51.078125 C 73.410156 49.597656 67.9375 49.863281 67.472656 51.363281 Z M 67.472656 51.363281 " fill-opacity="1" fill-rule="nonzero"/></g><path fill="#046c3a" d="M 67.695312 48.636719 C 65.316406 46.640625 59.953125 40.820312 74.128906 43.660156 C 63.699219 43.089844 65.0625 43.976562 67.695312 48.636719 Z M 67.695312 48.636719 " fill-opacity="1" fill-rule="nonzero"/><path fill="#046c3a" d="M 65.917969 45.46875 C 68.242188 44.695312 71.042969 44.402344 73.589844 44.898438 C 71.191406 44.726562 68.414062 45.320312 66.171875 46.070312 Z M 65.917969 45.46875 " fill-opacity="1" fill-rule="nonzero"/><path fill="#046c3a" d="M 66.679688 46.925781 L 67.027344 47.589844 C 68.601562 46.578125 70.777344 46.132812 73.019531 46.261719 C 71.359375 45.40625 69.257812 45.722656 66.679688 46.925781 Z M 66.679688 46.925781 " fill-opacity="1" fill-rule="nonzero"/><path fill="#046c3a" d="M 66.046875 43.851562 L 66.964844 43.4375 C 68.296875 45.046875 68.992188 46.714844 69.4375 48.449219 C 68.59375 46.820312 67.652344 45.351562 66.046875 43.851562 Z M 66.046875 43.851562 " fill-opacity="1" fill-rule="nonzero"/><path fill="#046c3a" d="M 67.949219 43.28125 L 68.738281 43.25 C 69.945312 44.707031 70.453125 46.195312 70.453125 47.71875 C 69.996094 46.238281 69.289062 44.761719 67.949219 43.28125 Z M 67.949219 43.28125 " fill-opacity="1" fill-rule="nonzero"/><path fill="#046c3a" d="M 70.167969 43.3125 L 70.925781 43.34375 C 71.414062 44.601562 71.773438 45.796875 71.71875 47.117188 C 71.550781 45.785156 70.9375 44.613281 70.167969 43.3125 Z M 70.167969 43.3125 " fill-opacity="1" fill-rule="nonzero"/><g clip-path="url(#7aad5569c9)"><path stroke-linecap="round" transform="matrix(0.0112072, 0, 0, 0.0112072, 67.028187, 45.053674)" fill-opacity="1" fill="#046c3a" fill-rule="nonzero" stroke-linejoin="round" d="M 102.397584 514.545836 C 85.318781 514.894383 69.285619 519.774041 56.737927 529.533357 C 19.791944 558.462758 23.277414 618.76139 64.405961 664.769595 C 105.883054 710.429252 169.318609 724.371133 206.264592 695.790278 C 243.210574 666.860877 240.073651 606.213698 198.596558 560.55404 C 171.409891 530.578998 134.812456 514.197289 102.397584 514.545836 Z M 131.326986 572.056092 C 145.617413 571.707545 161.650575 579.724126 173.501173 593.666006 C 191.625617 615.27592 193.368352 643.856775 176.986643 657.450108 C 160.953481 671.043441 133.069721 664.421048 114.945276 642.811133 C 96.820832 621.201219 95.426644 592.620365 111.459806 579.027032 C 117.036559 574.495921 124.007499 572.056092 131.326986 572.056092 Z M 131.326986 572.056092 " stroke="#fffdff" stroke-width="9.127" stroke-opacity="1" stroke-miterlimit="4"/></g><g clip-path="url(#05a5c864d9)"><path fill="#046c3a" d="M 73.832031 50.820312 C 73.644531 50.824219 73.464844 50.878906 73.320312 50.988281 C 72.90625 51.3125 72.945312 51.988281 73.410156 52.503906 C 73.871094 53.015625 74.582031 53.171875 75 52.851562 C 75.414062 52.527344 75.375 51.847656 74.914062 51.335938 C 74.609375 51 74.199219 50.816406 73.832031 50.820312 Z M 74.160156 51.464844 C 74.320312 51.460938 74.5 51.550781 74.632812 51.707031 C 74.835938 51.949219 74.851562 52.269531 74.671875 52.421875 C 74.488281 52.574219 74.175781 52.5 73.972656 52.257812 C 73.769531 52.015625 73.753906 51.695312 73.9375 51.542969 C 74 51.492188 74.078125 51.464844 74.160156 51.464844 Z M 74.160156 51.464844 " fill-opacity="1" fill-rule="nonzero"/></g><g clip-path="url(#c9cf1244a1)"><path stroke-linecap="round" transform="matrix(0.0112072, 0, 0, 0.0112072, 67.028187, 45.053674)" fill="none" stroke-linejoin="round" d="M 607.093647 514.545836 C 590.36339 514.894383 574.330228 519.774041 561.433989 529.533357 C 524.488007 558.462758 527.973477 618.76139 569.45057 664.769595 C 610.579117 710.429252 674.014671 724.371133 711.309201 695.790278 C 748.255183 666.860877 744.769713 606.213698 703.641167 560.55404 C 676.4545 530.578998 639.857065 514.197289 607.093647 514.545836 Z M 636.371595 572.056092 C 650.662022 571.707545 666.695184 579.724126 678.545782 593.666006 C 696.670227 615.27592 698.064415 643.856775 682.031253 657.450108 C 665.649543 671.043441 637.765783 664.421048 619.641339 642.811133 C 601.516895 621.201219 600.122706 592.620365 616.504416 579.027032 C 622.081168 574.495921 629.052108 572.056092 636.371595 572.056092 Z M 636.371595 572.056092 " stroke="#fffdff" stroke-width="9.127" stroke-opacity="1" stroke-miterlimit="4"/></g></svg>